<svg width="24" height="25" viewBox="0 0 24 25" fill="none" xmlns="http://www.w3.org/2000/svg">
<path d="M12 0.726561C5.373 0.726561 1.62842e-06 6.09956 1.04907e-06 12.7266C4.69723e-07 19.3536 5.373 24.7266 12 24.7266C18.627 24.7266 24 19.3536 24 12.7266C24 6.09956 18.627 0.726562 12 0.726561ZM17.707 13.4336L13.707 17.4336C13.512 17.6286 13.256 17.7266 13 17.7266C12.744 17.7266 12.488 17.6286 12.293 17.4336C11.902 17.0426 11.902 16.4106 12.293 16.0196L14.586 13.7266L7 13.7266C6.448 13.7266 6 13.2796 6 12.7266C6 12.1736 6.448 11.7266 7 11.7266L14.586 11.7266L12.293 9.43356C11.902 9.04256 11.902 8.41056 12.293 8.01956C12.684 7.62856 13.316 7.62856 13.707 8.01956L17.707 12.0196C18.098 12.4106 18.098 13.0426 17.707 13.4336Z" fill="#FFC230"/>
</svg>
