<svg width="312" height="82" viewBox="0 0 312 82" fill="none" xmlns="http://www.w3.org/2000/svg">
<g id="images/free-bonus-3">
<g id="marker">
<g id="Mask Group">
<mask id="mask0_0_1122" style="mask-type:luminance" maskUnits="userSpaceOnUse" x="0" y="0" width="312" height="82">
<path id="Clip 2" fill-rule="evenodd" clip-rule="evenodd" d="M0 0H312V82H0V0Z" fill="white"/>
</mask>
<g mask="url(#mask0_0_1122)">
<path id="Fill 1" fill-rule="evenodd" clip-rule="evenodd" d="M218.319 7.10214C217.748 7.11734 217.168 7.08123 216.579 6.99573C217.168 7.08123 217.748 7.11734 218.319 7.10214ZM252.358 77.2038C252.493 76.9378 251.997 76.8371 251.868 76.5331C254.033 76.5369 256.121 76.5331 258.158 76.9378C259.063 77.1202 259.959 77.2095 260.819 76.858C261.1 76.7459 261.435 76.6224 261.596 76.9055C261.905 77.4185 262.691 77.4774 263.387 77.6218C263.687 77.6788 264.122 77.6579 263.993 77.941C263.867 78.2033 263.487 78.0646 263.181 78.0684C262.347 78.0798 261.299 77.3748 260.71 78.2926C260.358 78.304 260.014 78.3154 259.672 78.3249C259.582 78.0646 259.334 77.9467 258.873 78.0208C258.802 77.979 258.718 77.9619 258.612 77.9676C258.522 77.8612 258.448 77.6788 258.322 77.6636C256.447 77.4508 254.604 77.0613 252.638 77.2418C252.558 77.2038 252.467 77.1943 252.358 77.2038ZM204.357 76.8428C203.993 76.8257 203.777 76.687 203.758 76.4685C203.751 76.2975 203.977 76.2595 204.193 76.2652C204.566 76.2766 204.747 76.4248 204.808 76.5483C204.779 76.7934 204.573 76.8466 204.357 76.8428ZM93.6008 69.4572C93.8521 69.442 94.1067 69.3983 94.3613 69.3242C94.1067 69.3983 93.8521 69.442 93.6008 69.4572ZM254.984 54.0038C254.52 54.0038 254.259 53.886 254.259 53.6048C254.269 53.2514 254.655 53.1773 255.145 53.1887C255.535 53.1925 255.96 53.2419 255.896 53.5516C255.841 53.8556 255.454 53.9715 254.984 54.0038ZM272.11 78.9709C271.804 79.3927 271.179 79.1514 270.692 79.1837C269.516 79.3186 268.681 78.7847 267.65 78.6232C267.38 78.5871 267.18 78.3515 267.305 78.1501C267.425 77.9619 267.75 78.0094 268.005 77.9885C269.422 77.8707 270.621 78.2622 271.839 78.5757C272.129 78.646 272.229 78.8113 272.11 78.9709ZM230.018 74.0991C230.73 74.1428 231.439 74.1846 232.145 74.2226C232.38 74.3499 232.615 74.4734 232.851 74.595C233.102 74.7242 233.321 74.8724 233.166 75.0814C233.002 75.2942 232.615 75.2942 232.335 75.2562C231.24 75.108 229.944 75.0757 230.018 74.0991C229.993 74.0725 229.964 74.0402 229.935 74.0079C229.964 74.0402 229.993 74.0725 230.018 74.0991ZM207.946 73.3086C206.445 73.3143 204.927 73.0369 203.442 72.8127C203.142 72.7652 202.601 72.6379 202.562 72.2522C204.157 72.0983 205.749 72.1952 207.279 72.3757C208.336 72.4992 209.168 72.3757 210.047 72.1192C210.038 72.0565 210.028 71.9862 210.018 71.9216C210.028 71.9862 210.038 72.0565 210.047 72.1192L210.147 72.1629C210.273 73.1072 208.916 73.3086 207.946 73.3086ZM131.929 69.8847C131.162 69.4192 131.407 69.0563 132.267 68.7636C132.438 68.7693 132.609 68.775 132.773 68.7788C134.184 68.6838 135.576 68.6933 136.978 68.737C135.576 68.6933 134.184 68.6838 132.773 68.7788C133.675 69.3508 134.845 68.9024 135.866 69.0525C136.546 69.1532 137.677 68.9879 137.413 69.6871C137.197 70.2457 136.166 70.1127 135.47 70.0234C134.6 69.9113 133.814 69.4572 132.899 69.9379C133.669 70.5022 134.6 70.525 135.56 70.4718C134.6 70.525 133.669 70.5022 132.899 69.9379C132.573 69.9208 132.248 69.9056 131.929 69.8847ZM121.679 68.9347C121.46 68.3475 122.71 68.6838 123.071 68.3855C123.245 68.3893 123.406 68.3893 123.57 68.3893C123.751 68.604 123.951 68.7902 124.402 68.5812C124.666 68.5869 124.927 68.5926 125.188 68.5983C125.758 68.9707 126.303 69.0886 126.789 68.5546C126.999 68.5983 127.208 68.6458 127.414 68.6895C127.324 69.271 126.844 69.4952 125.797 69.4895C124.953 69.4838 124.221 69.2216 123.4 69.2653C122.729 69.3033 121.824 69.3185 121.679 68.9347ZM114.058 68.3893C114.023 68.6572 114.442 68.9822 113.888 69.1684C113.678 69.2387 113.253 69.1475 112.982 69.0677C112.277 68.8643 112.837 68.5812 112.911 68.3361C113.292 68.3532 113.672 68.3741 114.058 68.3893ZM92.0606 67.5248C91.9092 67.5096 91.7448 67.4982 91.5998 67.5039C91.7448 67.4982 91.9092 67.5096 92.0606 67.5248ZM234.613 51.1556C235.338 51.4596 236.144 51.2829 236.911 51.2943C236.965 51.3266 237.03 51.3475 237.11 51.3475C238.016 51.357 238.931 51.433 239.836 51.3893C238.931 51.433 238.016 51.357 237.11 51.3475C237.085 52.0676 235.873 51.9764 235.264 52.3013C234.778 52.3298 234.268 52.3868 233.972 52.0619C233.898 51.7902 233.231 51.5508 233.853 51.2411C234.107 51.2145 234.362 51.1822 234.613 51.1556ZM209.783 57.0667C210.978 57.1636 212.074 57.2852 212.329 57.3916C212.535 57.4239 212.754 57.4505 212.96 57.4828C212.95 57.5475 212.944 57.6121 212.944 57.671C212.896 58.0586 212.544 58.2562 211.894 58.2296C211.478 58.2144 211.114 58.0757 211.114 57.8249C211.104 57.3175 211.939 57.5589 212.329 57.3916C212.074 57.2852 210.978 57.1636 209.783 57.0667ZM178.921 70.3958C179.182 70.3844 179.443 70.3749 179.707 70.3692C179.443 70.3749 179.182 70.3844 178.921 70.3958C178.647 70.4072 178.376 70.4167 178.106 70.4281C178.376 70.4167 178.647 70.4072 178.921 70.3958ZM189.786 56.3048C190.157 56.3523 190.827 56.2022 190.792 56.5708C190.756 56.9223 190.166 57.0838 189.586 57.0515C189.019 57.0192 188.32 57.2434 187.895 56.9451C187.463 56.6354 187.824 56.2877 188.13 55.9837C188.53 55.9837 188.926 55.9894 189.325 55.9894C189.316 56.1756 189.48 56.2611 189.786 56.3048ZM191.852 71.1387C191.732 71.0266 191.542 70.9563 191.342 70.9126C191.542 70.9563 191.732 71.0266 191.852 71.1387ZM150.959 69.3603C151.619 69.3926 152.27 69.4249 152.931 69.4515C153.095 69.5256 153.25 69.6168 153.43 69.6643C153.817 69.7669 154.606 69.5484 154.497 70.0234C154.381 70.4927 153.782 70.3958 153.115 70.3597C152.444 70.3217 151.764 70.2894 151.088 70.2305C150.434 70.1773 149.783 70.0918 149.783 69.6814C149.783 69.2748 150.653 69.6016 150.959 69.3603ZM128.455 53.8556C128.726 53.8765 128.955 53.9677 128.945 54.1539C128.935 54.3724 128.69 54.4693 128.465 54.5282C128.03 54.4522 127.804 54.3306 127.804 54.1159C127.814 53.8651 128.12 53.8233 128.455 53.8556ZM144.047 53.9943C144.408 54.0418 144.769 54.0798 145.133 54.1121C144.769 54.0798 144.408 54.0418 144.047 53.9943ZM154.987 54.9709C153.765 55.5296 152.38 55.0659 151.078 55.1039C150.508 55.1191 150.727 54.7296 150.817 54.4902H153.26C153.782 54.703 154.577 54.5282 154.987 54.9709ZM161.908 70.6409C161.176 70.4984 160.252 70.5782 159.656 70.1393C159.61 70.1089 159.72 69.9322 159.81 69.9208C160.616 69.7821 161.392 69.8467 162.153 70.0386C162.488 70.1241 163.003 70.1393 162.923 70.4281C162.839 70.7435 162.307 70.5725 161.908 70.6409ZM184.086 70.9772C183.996 70.924 183.896 70.8822 183.796 70.8442C183.896 70.8822 183.996 70.924 184.086 70.9772C184.296 70.9677 184.511 70.9563 184.727 70.9506C185.046 71.1273 185.588 70.9297 185.942 71.2546C185.398 71.3877 185.191 71.8855 184.441 71.7297C183.877 71.6176 184.167 71.2394 184.086 70.9772ZM194.774 71.5967C195.251 71.7202 196.256 71.3991 196.14 71.9539C196.05 72.3814 195.135 72.1629 194.59 72.1629C192.693 72.1629 190.801 72.1363 188.9 72.0983C188.249 72.0869 187.469 72.0014 187.489 71.5283C187.498 71.0304 188.31 71.2281 188.774 71.2281C189.851 71.2281 190.917 71.2984 191.993 71.3345C191.968 71.2718 191.923 71.2186 191.877 71.1692C191.923 71.2186 191.968 71.2718 191.993 71.3345C192.747 71.3573 193.505 71.3782 194.265 71.3991C194.439 71.4637 194.59 71.5549 194.774 71.5967ZM176.53 71.4789H175.915C175.328 71.3307 174.774 71.1007 174.072 71.325C173.733 71.4314 173.263 71.458 173.037 71.2224C172.577 70.7644 172.161 70.4718 171.455 71.1007C171.291 71.2451 170.956 71.2014 170.714 71.1007C170.469 71.0038 170.331 70.8651 170.36 70.6941C170.395 70.4281 170.775 70.4604 171.085 70.4072C172.116 70.2248 173.121 70.5402 174.152 70.4395C174.623 70.3901 175.128 70.5193 175.563 70.3103C175.905 70.354 176.243 70.3958 176.585 70.4338C176.83 70.7853 177.091 71.1387 176.53 71.4789C176.585 71.6233 176.711 71.7145 176.865 71.762C176.711 71.7145 176.585 71.6233 176.53 71.4789ZM202.256 73.3998C202.291 73.4169 202.221 73.3846 202.137 73.3466C202.137 73.3618 202.146 73.3789 202.146 73.3941C199.034 73.1699 196.031 72.5087 193.099 72.7804C196.066 72.5087 199.108 73.187 202.137 73.3466C202.327 72.7766 202.726 73.1661 203.152 73.2402C202.726 73.1661 202.327 72.7766 202.256 73.3998ZM228.443 74.9788C227.946 74.9693 228.117 74.6216 227.911 74.4563C227.801 74.1162 228.272 74.1998 228.533 74.1732C228.842 74.1428 229.268 74.1314 229.158 74.4297C229.077 74.6653 229.003 74.9845 228.443 74.9788ZM91.8898 68.9821C91.7803 68.9556 91.6836 68.9232 91.5741 68.8966C91.3388 68.6458 91.3743 68.2715 90.5043 68.3741C89.702 68.4691 90.3335 68.1062 90.2691 67.958C90.4882 67.9409 90.6944 67.9257 90.9135 67.9105C91.8802 67.9789 92.8404 68.053 93.8103 68.129C94.2066 68.1613 94.7769 68.0701 94.7673 68.4653C94.7576 68.7522 94.3161 68.8814 93.9359 69.0145C93.2399 69.2596 92.5794 68.8054 91.8898 68.9821C92.4151 69.3451 92.9854 69.4895 93.6008 69.4572C92.9854 69.4895 92.4151 69.3451 91.8898 68.9821ZM86.5797 68.7199C85.9642 68.6078 84.8526 68.8225 84.9847 68.3361C85.1233 67.8402 86.3155 67.8022 87.15 67.7433C87.7461 67.7015 88.5774 67.8288 88.5065 68.2145C88.3712 68.908 87.2467 68.604 86.5797 68.7199ZM1.23373 61.0265C1.73961 61.9442 1.8395 62.9418 1.46895 63.9716C1.22406 64.6557 0.418519 65.5145 1.2144 66.1225C3.28626 67.7167 2.80616 69.4306 2.34538 71.1805C2.2455 71.5321 2.27127 71.895 2.79649 72.1629C2.71593 72.4023 2.97049 72.5201 3.26048 72.6265C3.42159 72.7918 3.58592 72.9628 3.74703 73.1338C3.74703 73.4055 3.7567 73.6716 3.7567 73.9452C3.44093 74.0611 3.1316 74.196 2.79005 74.291C2.01028 74.5152 1.24984 74.8135 1.77506 75.3645C2.29061 75.8928 2.39049 76.9644 4.27225 76.3621C4.74269 76.4096 5.14868 76.3621 5.44835 76.1265C6.14434 76.0467 6.85322 75.9669 7.54921 75.8871C7.92943 76.0201 8.16465 75.8966 8.38053 75.7274L8.76075 75.7426C9.81118 75.9783 10.8326 75.8339 11.8476 75.6305C12.3986 75.6305 12.9593 75.6248 13.5102 75.6248C15.1568 75.6894 16.7969 75.7749 18.4434 75.8111C19.0846 75.8281 19.7452 75.9137 20.3703 75.7104C22.5678 74.9959 24.8298 75.0111 27.1207 75.5393C27.8167 75.7009 28.5321 75.6742 29.2023 75.5127C30.8488 75.1403 32.5856 75.1403 34.2966 75.0073C36.5682 74.8249 38.8398 75.0282 41.1018 75.0643C44.7461 75.1289 48.3743 74.8724 52.0121 75.0111C53.4879 75.07 54.9636 75.0225 56.4007 74.7831C56.8261 74.7071 57.3319 74.6805 57.3867 74.3651C57.4512 73.9775 56.8551 74.0516 56.4748 73.9718C55.7853 73.8274 55.0893 73.7742 54.3836 73.816C50.9262 74.0459 47.4978 73.4701 44.005 73.8426C42.3939 74.0193 40.6475 73.7039 38.8559 73.816C36.7293 73.9452 34.4415 74.1789 32.2505 73.6944C31.49 73.5234 30.6297 73.6773 29.8983 73.9395C25.8158 73.4169 21.672 73.9072 17.5734 73.6716C17.2673 73.4587 16.9677 73.2459 16.668 73.0312C18.669 72.9894 20.6699 72.9628 22.6677 72.8982C26.1444 72.7918 29.6373 73.1129 33.0818 72.6645C33.926 72.5581 34.767 72.3871 35.6628 72.4878C39.0654 72.883 42.4744 72.4194 45.8964 72.5524C47.9683 72.6322 50.1304 72.7766 52.2022 72.3643C55.65 72.3814 59.0623 72.8716 62.5261 72.5619C63.4315 72.4764 64.3821 72.4992 65.2972 72.5581C70.9328 72.9096 76.607 72.75 82.2523 72.9039C82.5423 72.9153 82.8323 72.8621 82.9322 72.7006C83.3317 72.0337 84.3693 71.9178 85.294 71.6917C85.5196 71.6879 85.7387 71.6822 85.9642 71.6765C86.6506 71.9919 87.3401 71.8152 88.02 71.667C88.7063 71.9387 89.4668 71.8798 90.224 71.8532C93.3463 71.7468 96.4428 71.9805 99.5554 72.0565C102.684 72.1306 105.832 72.4555 108.964 72.0071C109.129 72.1895 109.364 72.2218 109.654 72.1135C109.934 72.1572 110.205 72.1952 110.475 72.237C109.589 73.3618 109.634 73.3998 111.771 73.3675C112.476 73.3523 113.182 73.3847 113.878 73.3732C114.313 73.3675 115.054 73.4911 114.558 72.9571C114.368 72.7538 114.377 72.5619 114.764 72.4935C115.164 72.4289 115.354 72.6208 115.38 72.8241C115.544 74.0041 117 73.2345 117.822 73.3618C118.792 73.512 118.998 73.0901 118.892 72.6056C120.284 72.3491 121.669 72.4992 123.061 72.6056C124.927 74.0725 125.043 74.0782 127.55 72.8621C128.12 72.5847 128.79 72.674 129.425 72.8127C129.676 72.8659 129.947 72.9305 129.947 73.1338C129.947 73.491 129.196 73.2991 128.881 73.7685C139.204 74.0668 149.338 74.8458 159.755 74.4677C159.275 74.1162 158.86 74.2701 158.515 74.2226C158.164 74.1789 157.603 74.2549 157.584 73.9661C157.555 73.5918 158.17 73.645 158.57 73.6678C159.546 73.7153 160.522 73.7894 161.492 73.8863C161.937 73.9281 162.559 73.7514 162.788 74.1257C163.084 74.6387 161.947 74.4468 161.647 74.9047C162.968 74.5798 164.624 75.583 165.301 74.2321C165.356 74.1257 165.99 74.0877 166.361 74.0782C167.228 74.0516 168.072 74.158 168.923 74.3347C168.894 74.6482 167.978 74.7185 168.307 75.0605C168.604 75.3797 169.193 75.1878 169.654 75.2144C171.065 75.2942 172.512 75.2562 173.878 75.45C178.086 76.0353 182.395 76.0258 186.648 76.3355C192.512 76.7611 198.457 76.6604 204.328 77.1088C204.673 77.1354 205.204 77.2095 205.243 76.8789C205.314 76.25 206.074 76.421 206.68 76.4096C209 76.3621 211.304 76.7193 213.63 76.4628C213.801 76.4742 213.975 76.4837 214.146 76.5008C214.336 76.6927 214.591 76.7934 214.977 76.7079C216.382 76.8314 217.784 76.9492 219.185 77.0708C219.585 77.2589 220.055 77.2266 220.516 77.2095C220.951 77.2152 221.386 77.2152 221.818 77.2209C221.963 77.3919 222.182 77.4546 222.498 77.3805C225.871 77.7377 229.248 78.1007 232.622 78.4579C232.851 78.6555 233.086 78.6669 233.328 78.4693C233.972 78.4902 234.613 78.5073 235.264 78.5282C237.881 78.8854 240.397 79.5637 243.175 79.4877C243.481 79.4839 243.79 79.4782 244.106 79.4782C245.311 79.6378 246.522 79.6226 247.734 79.5409C250.702 80.2135 253.95 79.6758 256.927 80.2896C258.593 80.4815 260.114 81.0686 261.895 80.9451C262.221 81.0363 262.546 81.0192 262.881 80.9508C265.218 81.4467 267.65 81.6063 270.102 81.6975C270.402 81.783 270.692 81.7887 270.982 81.6975C271.098 81.6291 271.188 81.5474 271.324 81.4999C271.188 81.5474 271.098 81.6291 270.982 81.6975C272.003 82.1573 273.154 81.8514 274.149 81.7564C276.418 81.5436 278.564 82.2523 280.845 81.9008C281.812 81.7507 282.363 81.4524 282.302 80.9603C282.227 80.3903 281.457 80.128 280.446 80.1603C278.148 80.2306 275.912 80.0425 273.721 79.6112C273.225 79.5143 272.699 79.4839 272.909 79.083C273.08 78.7524 273.515 78.6669 274.085 78.7619C274.446 78.8208 274.845 78.874 275.206 78.8436C278.174 78.6023 280.935 79.3338 283.739 79.6169C289.783 80.2306 295.748 81.0629 301.934 80.7323C302.424 80.7057 303.384 80.8387 303.275 80.2782C303.104 79.425 304.225 78.3952 302.353 77.7548C302.234 77.7168 302.144 77.5667 302.179 77.4926C302.614 76.3887 301.258 76.3089 300.017 76.1702C299.421 76.1056 298.706 76.1113 298.831 75.5982C298.967 75.0168 299.666 75.3208 300.227 75.3379C303.71 75.4652 307.302 75.8605 310.18 74.1637C310.776 73.987 311.011 73.6298 311.372 73.3371C311.888 73.2079 312.116 72.9514 311.942 72.6702C311.752 72.3377 311.256 72.2427 310.676 72.3548C310.47 72.3225 310.254 72.2845 310.045 72.2522C308.243 71.8361 306.278 71.8798 304.441 71.5435C304.161 71.4846 303.88 71.4314 303.6 71.3725C303.284 71.0304 302.975 70.6903 302.659 70.3483C302.659 70.3008 302.624 70.2685 302.55 70.2419C302.659 69.3717 301.122 69.0239 300.787 68.2506C300.233 66.9757 300.343 66.8845 302.524 67.0194C303.636 67.0878 305.04 67.5305 305.846 66.6013C306.242 66.5709 306.423 66.4151 306.513 66.2023C307.238 65.8774 307.799 65.4879 307.889 64.9217C308.424 64.6177 309.01 64.3193 308.063 63.9241C307.918 63.8709 307.773 63.8177 307.638 63.7588C306.822 63.337 305.82 63.3313 304.825 63.2895C304.551 63.1926 304.27 63.1014 304 63.0121C303.771 62.8088 303.391 62.7613 303.03 62.6967C300.662 62.2749 298.296 61.8207 295.909 61.4483C293.737 61.1063 291.646 60.5572 289.358 60.4926C289.149 60.4774 288.933 60.4603 288.723 60.4508C287.621 59.8522 286.136 60.0879 284.87 59.8428C284.138 59.704 283.458 59.4247 283.938 59.0789C285.23 58.1555 284.228 57.4771 283.478 56.7836C282.817 56.1699 283.213 55.9571 284.209 55.9248C285.105 55.8925 285.91 55.7709 286.626 55.446C286.887 55.4023 287.151 55.3605 287.412 55.3225C287.857 55.3377 288.056 55.2046 288.056 54.9538C288.897 54.1273 289.584 53.278 288.843 52.2861C289.078 51.3418 289.049 50.3499 290.463 49.6336C290.815 49.4531 290.95 49.0788 290.815 48.7482C291.511 48.0489 292.081 47.3231 292.361 46.5232C292.58 45.8885 292.261 45.4515 291.059 45.3432C289.819 45.2368 288.578 45.0886 287.341 44.986C286.507 44.9176 285.701 44.8112 285.134 44.4312C284.444 43.979 284.119 43.5134 285.53 43.3272C286.671 43.1733 287.27 42.7306 287.712 42.1378C288.553 41.0224 289.004 39.8805 288.317 38.6853C288.063 38.2426 288.002 37.7296 288.652 37.5491C290.515 37.0208 290.653 35.8941 291.304 34.9935C291.72 34.4063 292.21 33.6368 291.259 32.9813C290.064 32.1585 290.544 31.0755 289.964 30.1539C289.848 29.9715 290.119 29.7796 290.38 29.6618C292.616 28.6852 293.096 27.2069 293.331 25.7458C293.566 24.2257 294.127 22.7892 295.123 21.3756C296.27 19.7529 295.329 18.8998 292.461 18.6014C290.969 18.4399 289.429 18.4247 287.963 18.1321C286.826 17.9022 286.616 17.6514 287.257 17.0168C288.562 15.7247 289.648 14.3852 288.453 12.8214C288.137 12.4053 288.698 12.107 289.087 11.7915C290.28 10.8472 291.085 9.82305 291.105 8.6013C291.124 7.45935 290.528 6.99003 288.598 7.19334C285.385 7.52965 282.282 7.18194 279.189 6.87222C272.67 6.2281 266.12 5.69987 259.559 5.33126C249.535 4.77643 239.546 4.0506 229.509 3.62308C225.349 3.44257 221.167 3.24497 216.998 3.15946C210.998 3.03596 204.998 2.89725 199.018 2.66734C192.158 2.40133 185.291 2.27782 178.422 2.10302C170.911 1.90541 163.409 1.6603 155.899 1.43609C153.015 1.35058 150.137 1.24798 147.25 1.16247C141.586 0.987667 135.921 0.784358 130.256 0.651352C124.746 0.518346 119.237 0.512646 113.733 0.368239C102.713 0.0794267 91.6901 0.0756266 80.6702 0.00532349C75.7113 -0.0212777 70.7523 0.0585258 65.7934 0.0528256C59.2878 0.0528256 52.837 0.448043 46.3862 0.896463C42.3746 1.17958 38.3855 1.51589 34.3513 1.6812C31.3354 1.8047 28.3967 1.28028 25.384 1.55199C23.5087 1.723 23.0769 1.86741 23.1285 2.97325C23.2026 4.29001 23.1929 5.59157 22.5968 6.89503C22.2617 7.59806 22.2971 8.36759 22.7321 9.08772C23.122 9.70525 23.238 10.3684 23.0576 10.9916C22.8127 11.877 23.2831 12.6409 24.1241 13.2489C25.2293 14.045 25.645 14.9077 25.8609 15.8748C26.0059 16.4828 25.8448 16.9199 24.7396 17.0377C23.2574 17.1973 22.5066 17.7312 22.5324 18.5748C22.5775 19.5135 22.7418 20.4844 24.6139 20.8625C25.5 21.0449 26.051 21.4497 26.6052 21.8392C27.1111 22.2021 27.0112 22.6182 26.6052 23.0134C26.196 23.3973 25.6257 23.3231 25.0134 23.2224C22.8868 22.8804 20.6699 22.9659 18.5046 22.8747C16.5971 22.7949 14.2159 24.3207 14.4801 25.3239C15.1955 27.986 14.6702 30.6556 14.7508 33.3233C14.7862 34.203 13.826 34.6571 12.4888 34.8491C8.97664 35.3564 7.82954 36.4014 8.56098 38.5086C8.95086 39.6145 9.43096 40.7393 8.92186 41.8547C8.06476 43.711 9.07652 45.6377 8.19042 47.4903C7.16899 49.6184 9.00564 51.7256 8.28064 53.8974C7.87465 55.1096 9.68229 55.6854 11.7735 55.275C12.4985 55.1362 13.2493 55.0336 14 54.9652C14.9409 54.874 15.8109 54.9386 15.8463 55.674C15.8818 56.2991 15.5563 56.7304 14.2707 56.7152C12.3632 56.6943 10.4427 56.7209 8.5352 56.7361C7.00466 56.7532 5.51279 56.7627 4.08214 56.2991C2.64505 55.8355 1.82983 56.7304 0.78907 57.0401C-0.0905864 57.2966 -0.151808 57.9161 0.19941 58.4234C0.779403 59.2594 0.753626 60.1677 1.23373 61.0265Z" fill="#D52917"/>
</g>
</g>
<path id="Vector" fill-rule="evenodd" clip-rule="evenodd" d="M117.118 75.8067C117.759 75.8181 118.745 76.276 118.91 75.7592C119.045 75.3203 117.843 75.2784 117.099 75.21C116.892 75.1872 116.667 75.1986 116.448 75.2043C113.045 75.2784 109.652 75.2575 106.259 75.0162C105.102 74.9307 103.888 74.868 102.731 75.2993C103.501 75.6737 104.287 75.5996 105.048 75.5882C109.082 75.5084 113.1 75.7212 117.118 75.8067Z" fill="black"/>
<path id="Vector_2" fill-rule="evenodd" clip-rule="evenodd" d="M65.9117 74.9476C68.1125 75.0863 70.2198 74.8032 72.5172 74.8678C72.2175 74.3928 71.7922 74.4574 71.441 74.446C67.4777 74.3187 63.4983 74.5695 59.5608 74.1363C59.1162 74.0888 58.4814 74.0128 58.4202 74.4517C58.3461 74.883 58.9357 74.8469 59.4255 74.8792C61.5876 75.0331 63.7754 74.8089 65.9117 74.9476Z" fill="black"/>
<path id="Vector_3" fill-rule="evenodd" clip-rule="evenodd" d="M183.353 78.0745C183.408 77.7591 182.993 77.6318 182.512 77.6147C181.137 77.5672 179.77 77.5672 178.395 77.8769C179.745 78.0213 181.091 78.1752 182.448 78.3044C182.783 78.3367 183.302 78.3994 183.353 78.0745Z" fill="black"/>
<path id="Vector_4" fill-rule="evenodd" clip-rule="evenodd" d="M173.428 77.338C173.482 76.8534 172.422 77.1841 171.99 76.8572C171.275 77.3323 169.6 76.709 169.548 77.3C169.5 77.8396 171.137 77.5565 171.997 77.7275C172.422 77.813 173.402 77.6534 173.428 77.338Z" fill="black"/>
</g>
<path id="FREE Bonus #4" d="M59.7082 40.659C59.5442 40.7683 59.2025 40.905 58.6832 41.069C58.1912 41.2057 57.3439 41.3423 56.1412 41.479C55.7859 41.5063 55.2802 41.5337 54.6242 41.561C53.9682 41.5883 53.2575 41.6157 52.4922 41.643C51.7542 41.6703 51.0709 41.684 50.4422 41.684C49.8409 41.6567 49.4172 41.6157 49.1712 41.561C49.1712 41.561 49.1029 41.6293 48.9662 41.766C48.8569 41.9027 48.8022 42.0803 48.8022 42.299C48.6109 42.627 48.3785 43.119 48.1052 43.775C47.8319 44.4037 47.5312 45.1007 47.2032 45.866C46.9025 46.6313 46.6155 47.3967 46.3422 48.162C46.0689 48.9 45.8365 49.556 45.6452 50.13C45.4812 50.6767 45.3992 51.0593 45.3992 51.278C45.1532 51.934 45.0029 52.4943 44.9482 52.959C44.8935 53.4237 44.7979 53.697 44.6612 53.779C44.5792 54.189 44.3195 54.394 43.8822 54.394C43.4722 54.394 43.1579 54.271 42.9392 54.025C42.3379 53.7243 41.9279 53.3417 41.7092 52.877C41.4905 52.385 41.4769 51.8383 41.6682 51.237C41.7502 50.8817 41.8869 50.3623 42.0782 49.679C42.2969 48.9683 42.5292 48.1893 42.7752 47.342C43.0485 46.4947 43.3219 45.6747 43.5952 44.882C43.8959 44.062 44.1829 43.3923 44.4562 42.873C44.7569 42.3537 44.9482 41.889 45.0302 41.479C45.1122 41.0417 45.2215 40.6453 45.3582 40.29C45.3309 39.9893 45.3309 39.798 45.3582 39.716C45.3855 39.6067 45.4949 39.429 45.6862 39.183C45.8229 39.0737 45.9869 38.8823 46.1782 38.609C46.3969 38.3083 46.6429 37.8573 46.9162 37.256C46.9982 36.9827 47.1212 36.6137 47.2852 36.149C47.4765 35.657 47.6542 35.165 47.8182 34.673C47.9822 34.1537 48.1325 33.7163 48.2692 33.361C48.4059 33.0057 48.4742 32.8143 48.4742 32.787C48.5289 32.6777 48.6109 32.4727 48.7202 32.172C48.8295 31.844 48.9115 31.5843 48.9662 31.393C49.0755 31.0103 49.1575 30.696 49.2122 30.45C49.2942 30.204 49.2805 30.081 49.1712 30.081C48.9525 30.1357 48.5152 30.1767 47.8592 30.204C47.5312 30.2587 47.2852 30.2997 47.1212 30.327C46.9845 30.327 46.8615 30.3407 46.7522 30.368C46.4789 30.3953 46.2329 30.368 46.0142 30.286C45.7955 30.204 45.6862 30.04 45.6862 29.794C45.7409 29.3567 45.8912 28.9057 46.1372 28.441C46.4105 27.9763 46.7522 27.7303 47.1622 27.703C47.3535 27.6483 47.5585 27.6073 47.7772 27.58C48.0232 27.5253 48.3512 27.4433 48.7612 27.334C49.2805 27.2247 49.7315 27.1973 50.1142 27.252C50.5242 27.2793 50.8112 27.3203 50.9752 27.375C51.1119 27.293 51.2212 27.211 51.3032 27.129C51.4125 27.0197 51.4809 26.9103 51.5082 26.801C51.6449 26.309 51.8909 25.94 52.2462 25.694C52.6015 25.4207 52.9705 25.284 53.3532 25.284C53.7632 25.2567 54.0912 25.366 54.3372 25.612C54.5832 25.8307 54.6515 26.1997 54.5422 26.719C54.5695 26.801 54.5969 26.8693 54.6242 26.924C54.6789 26.9787 54.8839 26.9787 55.2392 26.924C55.6219 26.842 56.2779 26.7053 57.2072 26.514C57.6992 26.4593 58.3142 26.4047 59.0522 26.35C59.8175 26.2953 60.4189 26.3363 60.8562 26.473C61.3209 26.391 61.7309 26.3637 62.0862 26.391C62.4689 26.391 62.7285 26.3363 62.8652 26.227C63.4392 26.3363 63.8492 26.4183 64.0952 26.473C64.3685 26.5003 64.5872 26.5823 64.7512 26.719C64.8605 26.8283 64.9015 26.9377 64.8742 27.047C64.8469 27.129 64.8332 27.17 64.8332 27.17C64.7239 27.1153 64.7102 27.1153 64.7922 27.17C64.8742 27.1973 64.9835 27.2657 65.1202 27.375C65.3115 27.457 65.4072 27.6347 65.4072 27.908C65.4345 28.154 65.4209 28.4137 65.3662 28.687C65.3389 28.933 65.3115 29.097 65.2842 29.179C65.2569 29.425 65.1202 29.5753 64.8742 29.63C64.6282 29.6573 64.0132 29.6573 63.0292 29.63C61.8539 29.466 60.7605 29.4113 59.7492 29.466C58.7652 29.4933 57.5215 29.6163 56.0182 29.835C55.4169 29.8623 54.8975 29.9443 54.4602 30.081C54.0502 30.1903 53.8452 30.245 53.8452 30.245C53.7359 30.245 53.5445 30.4363 53.2712 30.819C52.9979 31.1743 52.7382 31.7073 52.4922 32.418C52.3829 32.6093 52.1915 33.0057 51.9182 33.607C51.6722 34.2083 51.4125 34.8643 51.1392 35.575C50.8659 36.2583 50.6199 36.8733 50.4012 37.42C50.1825 37.9393 50.0459 38.2263 49.9912 38.281C50.3739 38.3903 50.9615 38.445 51.7542 38.445C52.5742 38.445 53.4762 38.4177 54.4602 38.363C55.4442 38.281 56.3735 38.199 57.2482 38.117C57.6582 38.035 58.0819 37.9667 58.5192 37.912C58.9565 37.8573 59.2572 37.8437 59.4212 37.871C59.7492 37.8983 59.9952 38.117 60.1592 38.527C60.3232 38.9097 60.3779 39.3197 60.3232 39.757C60.2685 40.167 60.0635 40.4677 59.7082 40.659ZM63.0218 54.353C63.0218 54.4897 62.9535 54.4897 62.8168 54.353C62.6801 54.2437 62.4615 54.0797 62.1608 53.861C61.9148 53.615 61.6278 53.3007 61.2998 52.918C60.9718 52.5353 60.8215 52.0843 60.8488 51.565C60.9855 50.9363 61.2315 50.0207 61.5868 48.818C61.9421 47.588 62.3658 46.3033 62.8578 44.964C62.9125 44.4447 62.9945 44.0073 63.1038 43.652C63.2405 43.2967 63.3088 43.119 63.3088 43.119C63.3361 43.0643 63.3908 42.9823 63.4728 42.873C63.5548 42.7363 63.6778 42.6407 63.8418 42.586C63.9785 42.4767 64.0332 42.2717 64.0058 41.971C63.9785 41.643 63.9512 41.438 63.9238 41.356C64.0332 40.7 64.2792 39.8117 64.6618 38.691C65.0445 37.543 65.4955 36.3403 66.0148 35.083C66.5342 33.7983 67.0262 32.6093 67.4908 31.516C67.6275 31.27 67.7505 31.0377 67.8598 30.819C67.9692 30.573 68.0238 30.45 68.0238 30.45C67.9418 30.3407 67.8461 30.2313 67.7368 30.122C67.6275 30.0127 67.5045 29.8623 67.3678 29.671C67.1492 29.3703 66.9852 29.0423 66.8758 28.687C66.7938 28.3043 66.8895 27.9627 67.1628 27.662C67.2448 27.5253 67.3952 27.3477 67.6138 27.129C67.8598 26.9103 68.1195 26.7053 68.3928 26.514C69.0215 26.1587 69.6365 25.8853 70.2378 25.694C70.8665 25.4753 71.4268 25.4343 71.9188 25.571C72.7935 25.5983 73.4495 25.6667 73.8868 25.776C74.3515 25.8853 74.7205 26.0357 74.9938 26.227C75.1578 26.3363 75.2945 26.4183 75.4038 26.473C75.5405 26.5277 75.7182 26.555 75.9368 26.555C76.4015 26.6097 76.9482 26.7873 77.5768 27.088C78.2055 27.3613 78.7658 27.6483 79.2578 27.949C79.7498 28.2497 80.0368 28.4547 80.1188 28.564C80.6655 29.0287 81.1438 29.6573 81.5538 30.45C81.9638 31.2427 82.2098 32.1583 82.2918 33.197C82.2918 33.8257 82.2645 34.386 82.2098 34.878C82.1552 35.3427 82.0322 35.8073 81.8408 36.272C81.6495 36.7093 81.3352 37.2287 80.8978 37.83C80.0778 39.1147 79.0528 40.3857 77.8228 41.643C76.6202 42.9003 75.0895 44.0483 73.2308 45.087C73.1762 45.1963 73.1078 45.3193 73.0258 45.456C72.9711 45.5653 72.9438 45.62 72.9438 45.62C72.9438 45.8387 73.0805 46.1257 73.3538 46.481C73.6545 46.8363 74.0235 47.219 74.4608 47.629C74.8982 48.0117 75.3492 48.3943 75.8138 48.777C76.3058 49.1597 76.7432 49.5013 77.1258 49.802C77.5358 50.0753 77.8365 50.2667 78.0278 50.376C78.3832 50.2667 78.6701 50.2257 78.8888 50.253C79.1075 50.253 79.2715 50.3487 79.3808 50.54C79.4902 50.7313 79.5585 51.0593 79.5858 51.524C79.5585 51.8793 79.4628 52.221 79.2988 52.549C79.1348 52.877 79.0118 53.0683 78.9298 53.123C78.7112 53.287 78.5062 53.4783 78.3148 53.697C78.1508 53.9157 77.9458 54.0523 77.6998 54.107C77.4538 54.1617 77.1122 54.0387 76.6748 53.738C75.4448 53.3553 74.3378 52.631 73.3538 51.565C72.3972 50.499 71.3448 49.351 70.1968 48.121C69.9508 47.8203 69.7458 47.6153 69.5818 47.506C69.4178 47.3693 69.2401 47.301 69.0488 47.301C68.8575 47.301 68.5705 47.342 68.1878 47.424C67.9692 47.4513 67.7505 47.3967 67.5318 47.26C67.3405 47.1233 67.1355 46.9457 66.9168 46.727C66.8348 46.5903 66.7255 46.5083 66.5888 46.481C66.4795 46.4537 66.3838 46.522 66.3018 46.686C66.2472 46.85 66.1378 47.137 65.9738 47.547C65.8372 47.9297 65.6868 48.3123 65.5228 48.695C65.3862 49.0777 65.2495 49.3783 65.1128 49.597C65.1675 49.843 65.0992 50.376 64.9078 51.196C64.7165 51.9887 64.4705 52.8223 64.1698 53.697C64.0878 53.9157 63.9648 54.107 63.8008 54.271C63.6368 54.4623 63.5138 54.5033 63.4318 54.394C63.3225 54.2573 63.2268 54.189 63.1448 54.189C63.0902 54.189 63.0492 54.2437 63.0218 54.353ZM70.5248 42.504C71.3175 42.258 72.0965 41.889 72.8618 41.397C73.6545 40.8777 74.3925 40.2627 75.0758 39.552C75.7592 38.8413 76.3195 38.0897 76.7568 37.297C76.9755 37.133 77.1805 36.8733 77.3718 36.518C77.5632 36.1353 77.7272 35.903 77.8638 35.821C78.1098 35.5203 78.2738 35.288 78.3558 35.124C78.4652 34.96 78.4515 34.755 78.3148 34.509C78.3148 34.2903 78.3422 34.0853 78.3968 33.894C78.4788 33.6753 78.5472 33.4703 78.6018 33.279C78.7385 32.8963 78.7385 32.5547 78.6018 32.254C78.4925 31.9533 78.0962 31.6117 77.4128 31.229C77.1668 31.065 76.9072 30.9283 76.6338 30.819C76.3878 30.6823 76.1145 30.5593 75.8138 30.45C75.5405 30.3133 75.2262 30.163 74.8708 29.999C74.4335 29.999 73.9825 29.9033 73.5178 29.712C73.0805 29.4933 72.7388 29.3977 72.4928 29.425C72.3562 29.4523 72.2195 29.6163 72.0828 29.917C71.9735 30.1903 71.8505 30.5867 71.7138 31.106C71.6045 31.5433 71.4678 31.9397 71.3038 32.295C71.1672 32.623 70.9895 32.8417 70.7708 32.951C70.7435 33.0603 70.6205 33.443 70.4018 34.099C70.1832 34.755 69.9235 35.534 69.6228 36.436C69.3222 37.3107 69.0215 38.199 68.7208 39.101C68.4202 39.9757 68.1742 40.7273 67.9828 41.356C67.7915 41.9847 67.6958 42.3537 67.6958 42.463C67.6958 42.5177 67.7778 42.6133 67.9418 42.75C68.1332 42.8867 68.2972 42.9687 68.4338 42.996C68.4338 42.996 68.4612 42.9687 68.5158 42.914C68.5705 42.8593 68.6252 42.8457 68.6798 42.873L69.5818 43.324L70.5248 42.504ZM87.7057 54.599C86.8584 54.5443 86.0111 54.23 85.1637 53.656C84.3164 53.1093 83.5374 52.59 82.8267 52.098C82.3621 51.6333 82.0067 51.1413 81.7607 50.622C81.5147 50.0753 81.3097 49.3647 81.1457 48.49C81.0364 47.9707 81.0364 47.2873 81.1457 46.44C81.2551 45.5927 81.4327 44.7453 81.6787 43.898C81.9247 43.0233 82.1571 42.34 82.3757 41.848C82.7037 41.0827 83.1137 40.2627 83.6057 39.388C84.1251 38.486 84.6307 37.6387 85.1227 36.846C85.6421 36.026 86.0521 35.37 86.3527 34.878C86.5441 34.6867 86.6261 34.591 86.5987 34.591C86.5987 34.5637 86.5987 34.55 86.5987 34.55C86.5987 34.4133 86.7354 34.0717 87.0087 33.525C87.3094 32.951 87.5691 32.4453 87.7877 32.008C88.1977 31.5707 88.4301 31.2153 88.4847 30.942C88.5394 30.6687 88.4984 30.45 88.3617 30.286C88.3071 30.1767 88.4164 29.9443 88.6897 29.589C88.9904 29.2337 89.4004 28.8373 89.9197 28.4C90.4391 27.9353 91.0131 27.5253 91.6417 27.17C92.2977 26.6507 92.9264 26.3773 93.5277 26.35C94.1564 26.2953 94.5254 26.4183 94.6347 26.719C94.6347 26.801 94.7851 26.8283 95.0857 26.801C95.4137 26.7463 95.7827 26.678 96.1927 26.596C96.6301 26.4867 97.0127 26.4047 97.3407 26.35C97.4774 26.186 97.7917 26.063 98.2837 25.981C98.8031 25.8717 99.4044 25.776 100.088 25.694C100.443 25.7213 100.839 25.735 101.277 25.735C101.714 25.7077 102.097 25.6803 102.425 25.653C102.78 25.6257 102.958 25.612 102.958 25.612C103.149 25.5573 103.422 25.6803 103.778 25.981C104.16 26.2543 104.461 26.637 104.68 27.129C104.871 27.621 104.707 28.0447 104.188 28.4C103.668 28.7553 102.848 29.0013 101.728 29.138C100.908 29.2473 100.265 29.343 99.8007 29.425C99.3634 29.4797 98.8851 29.5617 98.3657 29.671C97.8737 29.753 97.1494 29.9033 96.1927 30.122C95.5094 30.2587 94.9354 30.368 94.4707 30.45C94.0061 30.532 93.5961 30.696 93.2407 30.942C92.9127 31.188 92.5437 31.6253 92.1337 32.254C91.9424 32.3907 91.6964 32.746 91.3957 33.32C91.0951 33.894 90.7944 34.468 90.4937 35.042C89.7284 36.108 89.1544 36.9007 88.7717 37.42C88.4164 37.912 88.2934 38.2263 88.4027 38.363C88.4027 38.363 88.5941 38.404 88.9767 38.486C89.3594 38.568 89.6054 38.609 89.7147 38.609C89.9881 38.4723 90.3161 38.3767 90.6987 38.322C91.1087 38.2673 91.4367 38.2127 91.6827 38.158C93.3774 37.7207 94.6211 37.4063 95.4137 37.215C96.2337 36.9963 96.8077 36.846 97.1357 36.764C97.4911 36.682 97.8054 36.6273 98.0787 36.6C98.4614 36.2993 98.8441 36.3267 99.2267 36.682C99.6367 37.01 99.9237 37.4063 100.088 37.871C100.279 38.4177 100.279 38.8413 100.088 39.142C99.8964 39.4427 99.4727 39.6887 98.8167 39.88C98.1881 40.0713 97.2861 40.3037 96.1107 40.577C94.9354 40.823 93.4594 41.192 91.6827 41.684C90.1794 42.1213 88.9631 42.381 88.0337 42.463C87.1044 42.545 86.6671 42.3127 86.7217 41.766C86.5304 41.6567 86.3117 41.766 86.0657 42.094C85.8471 42.3947 85.6421 42.8183 85.4507 43.365C85.2594 43.9117 85.0817 44.4993 84.9177 45.128C84.7811 45.7567 84.6991 46.3443 84.6717 46.891C84.6444 47.4377 84.6854 47.8613 84.7947 48.162C85.0134 48.7907 85.3551 49.3373 85.8197 49.802C86.3117 50.2393 87.0224 50.5947 87.9517 50.868C88.4984 50.8953 89.0314 50.9363 89.5507 50.991C90.0701 51.0457 90.6577 50.9363 91.3137 50.663C92.9264 50.3897 94.0471 50.1027 94.6757 49.802C95.3044 49.5013 95.6871 49.2963 95.8237 49.187C96.0424 49.0777 96.1791 48.9683 96.2337 48.859C96.3157 48.7497 96.4251 48.695 96.5617 48.695C96.4797 48.8317 96.5071 48.8317 96.6437 48.695C96.7804 48.5583 96.9991 48.367 97.2997 48.121C97.8737 47.629 98.4477 47.3283 99.0217 47.219C99.5957 47.1097 100.074 47.1097 100.457 47.219C100.839 47.301 101.044 47.4103 101.072 47.547C101.236 47.8203 101.154 48.2577 100.826 48.859C100.498 49.433 99.9921 50.048 99.3087 50.704C98.6527 51.36 97.8737 51.9477 96.9717 52.467C95.5231 53.2323 93.9514 53.7653 92.2567 54.066C90.5621 54.394 89.0451 54.5717 87.7057 54.599ZM112.291 55.05C111.198 55.05 110.214 54.9817 109.339 54.845C108.492 54.7357 107.713 54.4077 107.002 53.861C106.155 53.2323 105.554 52.3303 105.198 51.155C104.87 49.9523 104.966 48.3807 105.485 46.44C105.622 45.7567 105.772 45.1553 105.936 44.636C106.128 44.1167 106.292 43.857 106.428 43.857C106.456 43.7203 106.497 43.529 106.551 43.283C106.606 43.0097 106.661 42.6953 106.715 42.34C106.852 41.848 106.948 41.4927 107.002 41.274C107.057 41.028 107.166 40.823 107.33 40.659C107.412 40.6043 107.508 40.4267 107.617 40.126C107.727 39.798 107.795 39.6067 107.822 39.552C107.822 39.552 107.836 39.4563 107.863 39.265C107.891 39.0463 107.959 38.8003 108.068 38.527C108.478 37.8437 108.683 37.3927 108.683 37.174C108.738 37.0647 108.847 36.9007 109.011 36.682C109.203 36.4633 109.353 36.1763 109.462 35.821C110.282 34.3723 110.952 33.1833 111.471 32.254C111.991 31.2973 112.305 30.5593 112.414 30.04C112.551 29.7393 112.674 29.384 112.783 28.974C112.92 28.5367 113.084 28.2087 113.275 27.99C113.221 27.8533 113.371 27.703 113.726 27.539C114.109 27.375 114.601 27.1973 115.202 27.006C115.804 26.8147 116.446 26.6507 117.129 26.514C117.813 26.3773 118.441 26.2953 119.015 26.268C119.179 26.1587 119.535 26.0767 120.081 26.022C120.655 25.9673 121.311 25.94 122.049 25.94C122.787 25.94 123.471 25.9673 124.099 26.022C124.701 26.022 125.179 26.104 125.534 26.268C125.89 26.432 126.245 26.596 126.6 26.76C126.737 26.8967 126.928 27.088 127.174 27.334C127.42 27.58 127.571 27.8397 127.625 28.113C127.707 28.3863 127.53 28.6323 127.092 28.851C127.01 28.933 126.559 29.0013 125.739 29.056C124.919 29.1107 124.058 29.138 123.156 29.138C122.145 29.138 121.27 29.22 120.532 29.384C119.794 29.548 119.275 29.63 118.974 29.63C118.592 29.7393 118.141 29.8077 117.621 29.835C117.102 29.8623 116.842 29.876 116.842 29.876C116.788 29.876 116.651 30.04 116.432 30.368C116.214 30.6687 115.968 31.0377 115.694 31.475C115.448 31.885 115.216 32.2677 114.997 32.623C114.806 32.9783 114.71 33.197 114.71 33.279C114.71 33.5523 114.601 33.853 114.382 34.181C114.164 34.509 113.904 34.8917 113.603 35.329C113.33 35.6843 113.152 36.067 113.07 36.477C112.988 36.8597 113.07 37.1057 113.316 37.215C113.754 37.133 114.355 37.051 115.12 36.969C115.913 36.887 116.692 36.8187 117.457 36.764C118.223 36.682 118.81 36.641 119.22 36.641C119.685 36.5043 120.068 36.477 120.368 36.559C120.669 36.641 120.888 36.723 121.024 36.805C121.352 36.8597 121.544 37.0237 121.598 37.297C121.68 37.5703 121.68 37.8437 121.598 38.117C121.516 38.3903 121.38 38.568 121.188 38.65C121.024 38.814 120.614 39.0053 119.958 39.224C119.302 39.4427 118.523 39.6613 117.621 39.88C116.747 40.0987 115.858 40.3037 114.956 40.495C114.082 40.659 113.316 40.7957 112.66 40.905C112.032 41.0143 111.663 41.0553 111.553 41.028C111.389 40.6453 111.198 40.659 110.979 41.069C110.788 41.4517 110.556 42.2443 110.282 43.447C109.982 44.1303 109.749 44.6497 109.585 45.005C109.449 45.333 109.339 45.702 109.257 46.112C109.175 46.4947 109.052 47.1097 108.888 47.957C108.697 48.695 108.711 49.3647 108.929 49.966C109.175 50.54 109.736 51.032 110.61 51.442C111.157 51.5513 111.786 51.5923 112.496 51.565C113.207 51.5377 114.15 51.3737 115.325 51.073C115.817 50.7723 116.309 50.499 116.801 50.253C117.293 49.9797 117.635 49.7883 117.826 49.679C117.963 49.679 118.168 49.6243 118.441 49.515C118.742 49.3783 118.947 49.31 119.056 49.31C119.275 49.0093 119.548 48.859 119.876 48.859C119.931 48.859 120.081 48.982 120.327 49.228C120.601 49.474 120.86 49.7883 121.106 50.171C121.352 50.5537 121.475 50.95 121.475 51.36C121.475 51.6333 121.011 51.9887 120.081 52.426C119.179 52.8633 118.045 53.3553 116.678 53.902C115.995 54.2027 115.435 54.435 114.997 54.599C114.587 54.763 114.191 54.8723 113.808 54.927C113.426 55.009 112.92 55.05 112.291 55.05ZM143.362 55.747C141.804 55.993 140.67 56.034 139.959 55.87C139.249 55.7333 138.634 55.4053 138.114 54.886C137.868 54.6673 137.745 54.3667 137.745 53.984C137.745 53.6287 137.8 53.41 137.909 53.328C138.128 53.1913 138.442 53.0273 138.852 52.836C139.262 52.6447 140.041 52.508 141.189 52.426C142.556 52.4807 143.854 52.3303 145.084 51.975C146.342 51.6197 147.449 51.155 148.405 50.581C149.362 49.9797 150.059 49.3373 150.496 48.654C151.07 47.67 151.33 46.85 151.275 46.194C151.248 45.5107 150.934 44.8683 150.332 44.267C149.977 43.9663 149.69 43.816 149.471 43.816C149.253 43.7887 148.884 43.734 148.364 43.652C147.845 43.652 147.435 43.7067 147.134 43.816C146.834 43.9253 146.492 44.0893 146.109 44.308C145.754 44.4993 145.399 44.6907 145.043 44.882C144.715 45.046 144.387 45.1553 144.059 45.21C143.868 45.456 143.554 45.661 143.116 45.825C142.706 45.9617 142.31 46.03 141.927 46.03C141.545 46.03 141.285 45.9617 141.148 45.825C140.93 45.825 140.752 45.9617 140.615 46.235C140.479 46.5083 140.219 47.055 139.836 47.875C139.7 48.367 139.508 48.8863 139.262 49.433C139.016 49.9797 138.866 50.417 138.811 50.745C138.374 51.811 138.019 52.508 137.745 52.836C137.499 53.164 137.24 53.328 136.966 53.328C136.802 53.328 136.652 53.246 136.515 53.082C136.379 52.918 136.16 52.6857 135.859 52.385C135.641 52.385 135.408 52.1937 135.162 51.811C134.916 51.401 134.93 50.8543 135.203 50.171C135.422 49.6243 135.695 48.9 136.023 47.998C136.351 47.096 136.679 46.1803 137.007 45.251C137.363 44.2943 137.663 43.488 137.909 42.832C138.183 42.1487 138.347 41.7933 138.401 41.766C138.456 41.3833 138.552 41.11 138.688 40.946C138.825 40.782 138.893 40.6727 138.893 40.618C138.948 40.4813 139.085 40.1397 139.303 39.593C139.522 39.0463 139.754 38.486 140 37.912C140.274 37.338 140.52 36.9417 140.738 36.723C140.738 36.5863 140.861 36.313 141.107 35.903C141.353 35.4657 141.613 35.0283 141.886 34.591C142.078 34.181 142.269 33.689 142.46 33.115C142.679 32.541 142.843 32.1583 142.952 31.967C143.28 31.557 143.403 31.2973 143.321 31.188C143.239 31.0513 143.062 30.8327 142.788 30.532C142.734 30.4773 142.679 30.2723 142.624 29.917C142.57 29.5343 142.542 29.2883 142.542 29.179C142.542 29.1243 142.679 29.015 142.952 28.851C143.226 28.687 143.554 28.5093 143.936 28.318C144.346 28.0993 144.729 27.908 145.084 27.744C145.44 27.5527 145.699 27.4297 145.863 27.375C146 27.3203 146.273 27.211 146.683 27.047C147.121 26.8557 147.558 26.678 147.995 26.514C148.433 26.35 148.733 26.2407 148.897 26.186C149.307 26.0493 149.745 25.9537 150.209 25.899C150.701 25.8443 151.098 25.8307 151.398 25.858C152.109 25.612 152.792 25.653 153.448 25.981C153.694 26.063 154.022 26.2543 154.432 26.555C154.87 26.8283 155.266 27.1427 155.621 27.498C156.004 27.8533 156.223 28.195 156.277 28.523C156.332 28.8783 156.373 29.2473 156.4 29.63C156.455 29.9853 156.373 30.3817 156.154 30.819C156.127 31.2017 156.004 31.7347 155.785 32.418C155.594 33.074 155.389 33.689 155.17 34.263C154.952 34.837 154.76 35.206 154.596 35.37C154.159 35.9987 153.749 36.682 153.366 37.42C152.984 38.1307 152.478 38.8277 151.849 39.511C151.849 39.511 151.754 39.6203 151.562 39.839C151.371 40.0303 150.975 40.4813 150.373 41.192C150.373 41.192 150.606 41.2057 151.07 41.233C151.562 41.2603 151.918 41.3423 152.136 41.479C152.765 41.889 153.325 42.4083 153.817 43.037C154.337 43.6383 154.706 44.267 154.924 44.923C155.17 45.251 155.252 45.702 155.17 46.276C155.116 46.85 154.952 47.4513 154.678 48.08C154.432 48.7087 154.132 49.2827 153.776 49.802C153.612 50.1573 153.298 50.5947 152.833 51.114C152.369 51.6333 151.931 52.098 151.521 52.508C151.111 52.8907 150.879 53.082 150.824 53.082C150.715 53.0273 150.551 53.0273 150.332 53.082C150.114 53.164 149.772 53.3143 149.307 53.533C149.116 53.7517 148.897 53.9567 148.651 54.148C148.405 54.3393 148.214 54.4077 148.077 54.353C148.077 54.353 147.927 54.4077 147.626 54.517C147.326 54.6537 146.957 54.845 146.519 55.091C146.219 55.173 145.754 55.2687 145.125 55.378C144.524 55.5147 143.936 55.6377 143.362 55.747ZM142.091 42.217C142.119 42.2717 142.324 42.2307 142.706 42.094C143.116 41.9573 143.595 41.7523 144.141 41.479C144.715 41.2057 145.276 40.905 145.822 40.577C146.369 40.249 146.806 39.9347 147.134 39.634C147.517 39.3607 147.859 39.06 148.159 38.732C148.487 38.404 148.747 38.1033 148.938 37.83C149.13 37.5293 149.225 37.338 149.225 37.256C149.225 37.256 149.294 37.1193 149.43 36.846C149.567 36.5453 149.786 36.2173 150.086 35.862C150.442 35.5067 150.715 35.1787 150.906 34.878C151.098 34.55 151.193 34.345 151.193 34.263C151.193 34.263 151.262 34.1263 151.398 33.853C151.535 33.5797 151.699 33.2653 151.89 32.91C152.136 32.582 152.328 32.1857 152.464 31.721C152.601 31.2563 152.697 30.9147 152.751 30.696C152.806 30.0127 152.669 29.548 152.341 29.302C152.041 29.0287 151.617 28.933 151.07 29.015C150.715 29.0697 150.36 29.1243 150.004 29.179C149.676 29.2063 149.335 29.261 148.979 29.343C148.651 29.425 148.31 29.5617 147.954 29.753C147.517 30.0263 147.203 30.2997 147.011 30.573C146.82 30.819 146.888 30.9557 147.216 30.983C147.435 30.983 147.49 31.1743 147.38 31.557C147.271 31.9397 147.025 32.459 146.642 33.115C146.533 33.3337 146.301 33.771 145.945 34.427C145.59 35.083 145.18 35.8483 144.715 36.723C144.278 37.5703 143.854 38.404 143.444 39.224C143.034 40.044 142.693 40.741 142.419 41.315C142.173 41.8617 142.064 42.1623 142.091 42.217ZM160.028 52.713C159.673 52.713 159.386 52.6447 159.167 52.508C158.976 52.3713 158.73 52.18 158.429 51.934C157.91 51.3873 157.486 50.7997 157.158 50.171C156.857 49.5423 156.748 48.9957 156.83 48.531C156.912 48.3123 156.939 48.1073 156.912 47.916C156.912 47.6973 156.912 47.588 156.912 47.588C156.775 47.4513 156.734 47.3693 156.789 47.342C156.844 47.2873 156.898 47.2053 156.953 47.096C157.117 47.096 157.172 46.9457 157.117 46.645C157.062 46.4263 157.144 45.9617 157.363 45.251C157.609 44.513 157.937 43.816 158.347 43.16C158.511 42.8867 158.757 42.5313 159.085 42.094C159.413 41.6293 159.768 41.1783 160.151 40.741C160.561 40.2763 160.93 39.9073 161.258 39.634C161.941 39.06 162.57 38.5953 163.144 38.24C163.745 37.8847 164.347 37.6387 164.948 37.502C165.549 37.3653 166.164 37.297 166.793 37.297C167.449 37.297 167.982 37.5157 168.392 37.953C169.021 38.2263 169.458 38.5953 169.704 39.06C169.977 39.5247 170.155 40.126 170.237 40.864C170.319 41.684 170.237 42.6953 169.991 43.898C169.745 45.0733 169.075 46.44 167.982 47.998C167.299 48.982 166.629 49.7473 165.973 50.294C165.317 50.8407 164.593 51.3463 163.8 51.811C163.226 52.1937 162.611 52.426 161.955 52.508C161.299 52.59 160.657 52.6583 160.028 52.713ZM164.21 47.711C164.811 47.1917 165.235 46.6177 165.481 45.989C165.754 45.3603 166.041 44.6223 166.342 43.775C166.451 43.611 166.52 43.3377 166.547 42.955C166.602 42.5723 166.615 42.2033 166.588 41.848C166.561 41.4653 166.465 41.2467 166.301 41.192C166.055 41.0007 165.809 40.9597 165.563 41.069C165.317 41.151 165.003 41.3287 164.62 41.602C163.8 42.2853 163.035 43.078 162.324 43.98C161.641 44.8547 161.162 45.9343 160.889 47.219C160.807 47.9023 160.875 48.4217 161.094 48.777C161.34 49.105 161.723 49.2007 162.242 49.064C162.789 48.9 163.445 48.449 164.21 47.711ZM186.158 52.016C185.556 51.9613 185.051 51.8383 184.641 51.647C184.258 51.4283 183.944 51.0047 183.698 50.376C183.588 49.9387 183.534 49.4877 183.534 49.023C183.561 48.531 183.602 48.0663 183.657 47.629C183.711 47.1643 183.739 46.768 183.739 46.44C183.739 46.3853 183.739 46.276 183.739 46.112C183.739 45.948 183.739 45.7977 183.739 45.661C183.684 45.251 183.575 45.005 183.411 44.923C183.274 44.8137 183.028 44.8273 182.673 44.964C182.099 45.2373 181.47 45.6063 180.787 46.071C180.131 46.5083 179.434 47.0277 178.696 47.629C177.985 48.203 177.247 48.818 176.482 49.474C175.88 50.13 175.429 50.663 175.129 51.073C174.855 51.483 174.568 51.688 174.268 51.688C174.049 51.7973 173.817 51.77 173.571 51.606C173.325 51.442 173.065 51.2507 172.792 51.032C172.6 50.8133 172.368 50.54 172.095 50.212C171.849 49.8567 171.698 49.6243 171.644 49.515C171.644 49.0777 171.671 48.6813 171.726 48.326C171.808 47.9707 171.917 47.6017 172.054 47.219C172.218 46.8363 172.409 46.399 172.628 45.907C172.737 45.7157 172.833 45.5243 172.915 45.333C173.024 45.1143 173.147 44.882 173.284 44.636C173.393 44.2533 173.543 43.816 173.735 43.324C173.953 42.832 174.158 42.3673 174.35 41.93C174.65 41.2193 174.883 40.6043 175.047 40.085C175.211 39.5657 175.347 39.0053 175.457 38.404C175.429 38.3493 175.443 38.2673 175.498 38.158C175.552 38.0487 175.634 37.9803 175.744 37.953H175.785H175.826C176.017 37.8163 176.372 37.8027 176.892 37.912C177.438 37.994 177.848 38.1443 178.122 38.363C178.696 38.855 178.969 39.4973 178.942 40.29C178.914 41.0827 178.504 42.1213 177.712 43.406C177.52 43.8433 177.315 44.2533 177.097 44.636C176.905 44.9913 176.81 45.2373 176.81 45.374C176.81 45.374 176.919 45.292 177.138 45.128C177.356 44.964 177.616 44.7727 177.917 44.554C178.217 44.308 178.477 44.1167 178.696 43.98C178.832 43.8433 179.133 43.5973 179.598 43.242C180.062 42.8593 180.568 42.463 181.115 42.053C181.661 41.643 182.099 41.3287 182.427 41.11C182.727 40.8913 183.11 40.6727 183.575 40.454C184.039 40.208 184.326 40.085 184.436 40.085C184.709 40.085 185.037 40.1807 185.42 40.372C185.83 40.5633 186.199 40.7957 186.527 41.069C186.882 41.315 187.087 41.5473 187.142 41.766C187.142 41.8753 187.128 42.0257 187.101 42.217C187.073 42.381 187.06 42.5313 187.06 42.668C187.032 43.1053 187.019 43.6383 187.019 44.267C187.046 44.8683 187.06 45.4833 187.06 46.112C187.06 46.7133 187.005 47.26 186.896 47.752C186.896 47.752 186.909 47.7793 186.937 47.834C186.964 47.8613 186.991 47.916 187.019 47.998C186.991 48.0253 186.978 48.08 186.978 48.162C187.005 48.2167 187.019 48.244 187.019 48.244C187.073 48.4353 187.128 48.6267 187.183 48.818C187.265 49.0093 187.36 49.228 187.47 49.474C187.579 49.6927 187.702 49.9797 187.839 50.335C187.811 50.6903 187.606 51.0457 187.224 51.401C186.868 51.729 186.513 51.934 186.158 52.016ZM200.876 53.246C200.685 53.3553 200.425 53.3143 200.097 53.123C199.796 52.9317 199.496 52.6447 199.195 52.262C199.004 51.934 198.853 51.606 198.744 51.278C198.662 50.9227 198.621 50.4033 198.621 49.72C198.648 49.1733 198.648 48.8043 198.621 48.613C198.621 48.3943 198.498 48.3807 198.252 48.572C198.033 48.736 197.582 49.146 196.899 49.802C196.216 50.4853 195.56 51.073 194.931 51.565C194.33 52.0297 193.838 52.2483 193.455 52.221C193.264 52.221 193.004 52.098 192.676 51.852C192.348 51.606 192.034 51.3053 191.733 50.95C191.432 50.5673 191.214 50.212 191.077 49.884C190.913 49.228 190.899 48.3807 191.036 47.342C191.2 46.3033 191.46 45.2237 191.815 44.103C192.17 42.955 192.567 41.889 193.004 40.905C193.469 39.8937 193.92 39.0873 194.357 38.486C194.822 37.8573 195.218 37.5567 195.546 37.584C196.011 37.6387 196.407 37.871 196.735 38.281C197.09 38.6637 197.364 39.0873 197.555 39.552C197.664 39.7433 197.705 39.9073 197.678 40.044C197.678 40.1807 197.569 40.3447 197.35 40.536C197.104 40.864 196.803 41.3423 196.448 41.971C196.12 42.5723 195.778 43.2283 195.423 43.939C195.095 44.6497 194.794 45.333 194.521 45.989C194.275 46.6177 194.097 47.137 193.988 47.547C193.879 47.957 193.879 48.162 193.988 48.162C194.371 48.162 194.726 48.0663 195.054 47.875C195.382 47.6563 195.792 47.3147 196.284 46.85C196.858 46.276 197.364 45.702 197.801 45.128C198.238 44.5267 198.689 43.8433 199.154 43.078C199.509 42.5313 199.878 41.93 200.261 41.274C200.671 40.618 200.931 40.1533 201.04 39.88C201.423 39.1693 201.71 38.6363 201.901 38.281C202.092 37.9257 202.325 37.707 202.598 37.625C202.735 37.625 202.926 37.625 203.172 37.625C203.418 37.625 203.541 37.625 203.541 37.625C203.705 37.6523 203.896 37.7753 204.115 37.994C204.334 38.1033 204.552 38.2537 204.771 38.445C205.017 38.6363 205.14 38.8003 205.14 38.937C205.031 39.2103 204.853 39.6203 204.607 40.167C204.388 40.6863 204.224 41.069 204.115 41.315C203.596 42.4903 203.09 43.652 202.598 44.8C202.133 45.9207 201.792 47.0687 201.573 48.244C201.518 48.6267 201.505 49.0777 201.532 49.597C201.587 50.089 201.669 50.4443 201.778 50.663C201.86 50.827 201.956 51.0183 202.065 51.237C202.202 51.4283 202.352 51.5923 202.516 51.729C202.762 51.893 202.748 52.098 202.475 52.344C202.229 52.59 201.915 52.8087 201.532 53C201.177 53.164 200.958 53.246 200.876 53.246ZM209.942 53.246C209.067 53.246 208.261 53.0547 207.523 52.672C206.812 52.262 206.238 51.77 205.801 51.196C205.363 50.5947 205.145 50.0207 205.145 49.474C205.145 49.228 205.186 49.0503 205.268 48.941C205.377 48.8317 205.527 48.777 205.719 48.777C205.855 48.8043 206.019 48.8727 206.211 48.982C206.402 49.0913 206.593 49.2143 206.785 49.351C207.222 49.6517 207.7 49.843 208.22 49.925C208.739 50.007 209.204 49.9797 209.614 49.843C210.024 49.679 210.256 49.433 210.311 49.105C210.311 48.9957 210.256 48.7633 210.147 48.408C210.037 48.0527 209.901 47.711 209.737 47.383C209.053 46.3717 208.63 45.415 208.466 44.513C208.302 43.5837 208.192 42.6543 208.138 41.725C208.138 41.3423 208.315 40.9187 208.671 40.454C209.026 39.962 209.463 39.4837 209.983 39.019C210.557 38.527 211.185 38.0623 211.869 37.625C212.579 37.1877 213.276 36.8187 213.96 36.518C214.643 36.2173 215.217 36.0397 215.682 35.985C216.174 35.985 216.693 36.0123 217.24 36.067C217.814 36.0943 218.196 36.19 218.388 36.354C218.77 36.6547 219.126 37.1467 219.454 37.83C219.782 38.5133 219.946 39.0873 219.946 39.552C219.946 39.7707 219.823 40.044 219.577 40.372C219.358 40.6727 219.153 41.0143 218.962 41.397C218.852 41.5883 218.757 41.7933 218.675 42.012C218.593 42.2307 218.497 42.4493 218.388 42.668C218.224 43.0507 217.923 43.2147 217.486 43.16C217.076 43.078 216.693 42.8593 216.338 42.504C215.982 42.1213 215.805 41.684 215.805 41.192C215.805 40.782 215.928 40.4267 216.174 40.126C216.42 39.8253 216.543 39.6203 216.543 39.511C216.543 39.4563 216.515 39.4153 216.461 39.388C216.406 39.3607 216.31 39.347 216.174 39.347C215.982 39.347 215.668 39.429 215.231 39.593C214.821 39.7297 214.383 39.9347 213.919 40.208C213.454 40.4813 213.03 40.8093 212.648 41.192C212.374 41.4927 212.142 41.8207 211.951 42.176C211.787 42.504 211.705 42.8593 211.705 43.242C211.705 43.6247 211.773 44.0757 211.91 44.595C212.074 45.087 212.251 45.497 212.443 45.825C212.497 45.8797 212.579 46.03 212.689 46.276C212.825 46.4947 212.976 46.768 213.14 47.096C214.151 49.1733 214.315 50.7177 213.632 51.729C212.976 52.7403 211.746 53.246 209.942 53.246ZM242.733 59.068C242.214 59.2047 241.749 59.068 241.339 58.658C240.957 58.248 240.683 57.6467 240.519 56.854C240.355 56.0613 240.383 55.1593 240.601 54.148C240.738 53.82 240.847 53.492 240.929 53.164C241.011 52.8633 241.052 52.6173 241.052 52.426C241.107 52.2073 241.244 51.729 241.462 50.991C241.681 50.2257 241.941 49.351 242.241 48.367C242.569 47.383 242.884 46.4127 243.184 45.456C243.512 44.472 243.786 43.652 244.004 42.996C244.25 42.3127 244.401 41.93 244.455 41.848C244.565 41.848 244.66 41.7523 244.742 41.561C244.824 41.3697 244.865 41.1783 244.865 40.987C244.865 40.7683 244.906 40.5223 244.988 40.249C245.098 39.9757 245.207 39.7843 245.316 39.675C245.316 39.5383 245.344 39.388 245.398 39.224C245.48 39.0327 245.521 38.8823 245.521 38.773C245.521 38.6637 245.549 38.5543 245.603 38.445C245.685 38.3357 245.726 38.2263 245.726 38.117C245.89 37.8163 246.136 37.256 246.464 36.436C246.82 35.5887 247.216 34.6047 247.653 33.484C248.118 32.336 248.583 31.1607 249.047 29.958C249.512 28.728 249.949 27.5663 250.359 26.473C250.769 25.3797 251.097 24.4777 251.343 23.767C251.589 23.0563 251.712 22.6463 251.712 22.537C251.712 22.3183 251.863 22.0997 252.163 21.881C252.464 21.635 252.724 21.512 252.942 21.512C253.024 21.43 253.12 21.3753 253.229 21.348C253.366 21.3207 253.489 21.307 253.598 21.307C253.598 21.307 253.653 21.3617 253.762 21.471C253.872 21.5803 254.036 21.7443 254.254 21.963C254.473 22.1543 254.705 22.4413 254.951 22.824C255.197 23.1793 255.32 23.521 255.32 23.849C255.32 24.2043 255.279 24.5187 255.197 24.792C255.115 25.0653 254.951 25.4617 254.705 25.981C254.459 26.5003 254.077 27.3067 253.557 28.4C253.475 28.6187 253.311 29.0013 253.065 29.548C252.819 30.0947 252.546 30.7097 252.245 31.393C251.972 32.0763 251.685 32.746 251.384 33.402C251.111 34.0307 250.879 34.5637 250.687 35.001C250.523 35.4383 250.441 35.6843 250.441 35.739C250.441 35.8483 250.387 36.0123 250.277 36.231C250.195 36.4497 250.1 36.723 249.99 37.051C249.881 37.2697 249.731 37.5977 249.539 38.035C249.348 38.445 249.143 38.896 248.924 39.388C248.733 39.8527 248.569 40.2627 248.432 40.618C248.296 40.946 248.227 41.1373 248.227 41.192C248.227 41.3013 248.214 41.4107 248.186 41.52C248.186 41.6293 248.132 41.7387 248.022 41.848C247.913 41.848 247.845 41.93 247.817 42.094C247.817 42.2307 247.817 42.299 247.817 42.299C247.817 42.5723 247.599 43.2967 247.161 44.472C246.97 45.0733 246.738 45.8523 246.464 46.809C246.191 47.7657 245.89 48.7907 245.562 49.884C245.262 50.95 244.975 51.9887 244.701 53C244.428 54.0387 244.196 54.9407 244.004 55.706C243.84 56.4713 243.758 57.0043 243.758 57.305C243.758 57.961 243.635 58.3847 243.389 58.576C243.171 58.7947 242.952 58.9587 242.733 59.068ZM231.991 45.907C231.827 45.907 231.622 45.907 231.376 45.907C231.13 45.8797 230.857 45.8113 230.556 45.702C230.146 45.702 229.818 45.62 229.572 45.456C229.326 45.292 229.149 45.1143 229.039 44.923C228.739 44.513 228.766 44.2123 229.121 44.021C229.477 43.8023 230.16 43.6383 231.171 43.529C231.472 43.447 232.087 43.3787 233.016 43.324C233.946 43.2693 235.039 43.2283 236.296 43.201C237.581 43.1463 238.92 43.1053 240.314 43.078C241.736 43.0507 243.089 43.037 244.373 43.037C245.685 43.0097 246.82 42.996 247.776 42.996C248.76 42.9687 249.43 42.955 249.785 42.955C250.496 42.955 250.974 43.0097 251.22 43.119C251.466 43.2283 251.74 43.4333 252.04 43.734C252.45 44.144 252.546 44.5677 252.327 45.005C252.136 45.4423 251.726 45.6063 251.097 45.497C250.906 45.5243 250.592 45.5517 250.154 45.579C249.744 45.6063 249.293 45.6473 248.801 45.702C248.692 45.702 248.241 45.7157 247.448 45.743C246.683 45.743 245.699 45.7567 244.496 45.784C243.321 45.784 242.064 45.7977 240.724 45.825C239.412 45.825 238.128 45.8387 236.87 45.866C235.64 45.866 234.588 45.8797 233.713 45.907C232.839 45.907 232.265 45.907 231.991 45.907ZM232.565 59.068C232.046 59.2047 231.581 59.068 231.171 58.658C230.789 58.248 230.515 57.6467 230.351 56.854C230.187 56.0613 230.215 55.1593 230.433 54.148C230.57 53.82 230.679 53.492 230.761 53.164C230.843 52.8633 230.884 52.6173 230.884 52.426C230.939 52.2073 231.076 51.729 231.294 50.991C231.513 50.2257 231.773 49.351 232.073 48.367C232.401 47.383 232.716 46.4127 233.016 45.456C233.344 44.472 233.618 43.652 233.836 42.996C234.082 42.3127 234.233 41.93 234.287 41.848C234.397 41.848 234.492 41.7523 234.574 41.561C234.656 41.3697 234.697 41.1783 234.697 40.987C234.697 40.7683 234.738 40.5223 234.82 40.249C234.93 39.9757 235.039 39.7843 235.148 39.675C235.148 39.5383 235.176 39.388 235.23 39.224C235.312 39.0327 235.353 38.8823 235.353 38.773C235.353 38.6637 235.381 38.5543 235.435 38.445C235.517 38.3357 235.558 38.2263 235.558 38.117C235.722 37.8163 235.968 37.256 236.296 36.436C236.652 35.5887 237.048 34.6047 237.485 33.484C237.95 32.336 238.415 31.1607 238.879 29.958C239.344 28.728 239.781 27.5663 240.191 26.473C240.601 25.3797 240.929 24.4777 241.175 23.767C241.421 23.0563 241.544 22.6463 241.544 22.537C241.544 22.3183 241.695 22.0997 241.995 21.881C242.296 21.635 242.556 21.512 242.774 21.512C242.856 21.43 242.952 21.3753 243.061 21.348C243.198 21.3207 243.321 21.307 243.43 21.307C243.43 21.307 243.485 21.3617 243.594 21.471C243.704 21.5803 243.868 21.7443 244.086 21.963C244.305 22.1543 244.537 22.4413 244.783 22.824C245.029 23.1793 245.152 23.521 245.152 23.849C245.152 24.2043 245.111 24.5187 245.029 24.792C244.947 25.0653 244.783 25.4617 244.537 25.981C244.291 26.5003 243.909 27.3067 243.389 28.4C243.307 28.6187 243.143 29.0013 242.897 29.548C242.651 30.0947 242.378 30.7097 242.077 31.393C241.804 32.0763 241.517 32.746 241.216 33.402C240.943 34.0307 240.711 34.5637 240.519 35.001C240.355 35.4383 240.273 35.6843 240.273 35.739C240.273 35.8483 240.219 36.0123 240.109 36.231C240.027 36.4497 239.932 36.723 239.822 37.051C239.713 37.2697 239.563 37.5977 239.371 38.035C239.18 38.445 238.975 38.896 238.756 39.388C238.565 39.8527 238.401 40.2627 238.264 40.618C238.128 40.946 238.059 41.1373 238.059 41.192C238.059 41.3013 238.046 41.4107 238.018 41.52C238.018 41.6293 237.964 41.7387 237.854 41.848C237.745 41.848 237.677 41.93 237.649 42.094C237.649 42.2307 237.649 42.299 237.649 42.299C237.649 42.5723 237.431 43.2967 236.993 44.472C236.802 45.0733 236.57 45.8523 236.296 46.809C236.023 47.7657 235.722 48.7907 235.394 49.884C235.094 50.95 234.807 51.9887 234.533 53C234.26 54.0387 234.028 54.9407 233.836 55.706C233.672 56.4713 233.59 57.0043 233.59 57.305C233.59 57.961 233.467 58.3847 233.221 58.576C233.003 58.7947 232.784 58.9587 232.565 59.068ZM234.492 37.666C234.328 37.666 234.123 37.666 233.877 37.666C233.631 37.6387 233.358 37.5703 233.057 37.461C232.647 37.461 232.319 37.3927 232.073 37.256C231.855 37.092 231.691 36.9143 231.581 36.723C231.281 36.313 231.294 35.9987 231.622 35.78C231.978 35.5613 232.661 35.3973 233.672 35.288C233.973 35.206 234.588 35.1377 235.517 35.083C236.447 35.0283 237.554 34.9873 238.838 34.96C240.123 34.9053 241.462 34.8643 242.856 34.837C244.278 34.8097 245.631 34.796 246.915 34.796C248.227 34.7687 249.362 34.755 250.318 34.755C251.302 34.7277 251.972 34.714 252.327 34.714C253.038 34.714 253.516 34.7687 253.762 34.878C254.008 34.9873 254.282 35.1923 254.582 35.493C254.992 35.903 255.088 36.3267 254.869 36.764C254.651 37.2013 254.227 37.3653 253.598 37.256C253.407 37.2833 253.106 37.3107 252.696 37.338C252.286 37.3653 251.835 37.4063 251.343 37.461C251.234 37.461 250.783 37.4747 249.99 37.502C249.225 37.502 248.241 37.5157 247.038 37.543C245.863 37.543 244.606 37.5567 243.266 37.584C241.927 37.584 240.629 37.5977 239.371 37.625C238.141 37.625 237.089 37.6387 236.214 37.666C235.34 37.666 234.766 37.666 234.492 37.666ZM262.725 53.492C262.615 53.492 262.342 53.3007 261.905 52.918C261.495 52.5353 261.29 51.9613 261.29 51.196C261.317 50.3487 261.454 49.4603 261.7 48.531C261.973 47.5743 262.233 46.727 262.479 45.989C262.643 45.497 262.779 45.087 262.889 44.759C263.025 44.431 263.094 44.226 263.094 44.144C263.066 44.144 262.916 44.1713 262.643 44.226C262.397 44.2807 262.082 44.349 261.7 44.431C260.36 44.7043 259.335 44.841 258.625 44.841C257.941 44.841 257.354 44.431 256.862 43.611C256.698 43.447 256.479 43.1463 256.206 42.709C255.932 42.2717 255.741 41.7933 255.632 41.274C255.55 40.7547 255.686 40.3173 256.042 39.962C256.315 39.2787 256.534 38.7867 256.698 38.486C256.862 38.1853 256.971 37.9667 257.026 37.83C257.108 37.6933 257.149 37.5567 257.149 37.42C257.176 37.3653 257.217 37.2833 257.272 37.174C257.326 37.0647 257.395 36.9553 257.477 36.846C257.723 36.436 258.064 35.903 258.502 35.247C258.966 34.591 259.445 33.935 259.937 33.279C260.456 32.5957 260.921 31.9943 261.331 31.475C261.741 30.9283 262.041 30.573 262.233 30.409C262.397 30.327 262.684 30.204 263.094 30.04C263.531 29.876 263.845 29.794 264.037 29.794C264.255 29.794 264.46 29.9443 264.652 30.245C264.87 30.5183 265.048 30.8053 265.185 31.106C265.321 31.4067 265.39 31.6117 265.39 31.721C265.39 31.721 265.376 31.7483 265.349 31.803C265.321 31.8577 265.267 31.9533 265.185 32.09C265.075 32.254 264.911 32.4727 264.693 32.746C264.501 33.0193 264.214 33.3747 263.832 33.812C263.504 34.1947 263.094 34.755 262.602 35.493C262.11 36.2037 261.618 36.969 261.126 37.789C260.661 38.5817 260.265 39.2923 259.937 39.921C259.609 40.5497 259.445 40.9733 259.445 41.192C259.445 41.3287 259.486 41.438 259.568 41.52C259.677 41.5747 259.868 41.602 260.142 41.602C260.497 41.5473 260.811 41.4927 261.085 41.438C261.385 41.3833 261.659 41.3287 261.905 41.274C262.205 41.2193 262.465 41.1647 262.684 41.11C262.902 41.028 263.107 40.9597 263.299 40.905C263.517 40.823 263.709 40.7547 263.873 40.7C264.064 40.618 264.228 40.5223 264.365 40.413C264.693 40.1397 264.939 39.7707 265.103 39.306C265.267 38.8413 265.526 38.2127 265.882 37.42C266.1 36.8733 266.319 36.3813 266.538 35.944C266.784 35.4793 267.002 35.0557 267.194 34.673C267.877 33.4157 268.451 32.5 268.916 31.926C269.38 31.3247 269.64 31.024 269.695 31.024C269.777 31.024 269.968 31.1333 270.269 31.352C270.569 31.5707 270.856 31.803 271.13 32.049C271.348 32.2403 271.526 32.418 271.663 32.582C271.799 32.7187 271.868 32.8143 271.868 32.869C271.868 33.197 271.786 33.5387 271.622 33.894C271.485 34.222 271.28 34.6047 271.007 35.042C270.733 35.4793 270.419 36.0397 270.064 36.723C269.654 37.5157 269.271 38.3083 268.916 39.101C268.56 39.8663 268.219 40.6317 267.891 41.397C267.563 42.135 267.262 42.8593 266.989 43.57C266.715 44.2807 266.456 44.9503 266.21 45.579C265.608 47.1917 265.198 48.3807 264.98 49.146C264.761 49.9113 264.652 50.4443 264.652 50.745C264.679 51.0183 264.734 51.2507 264.816 51.442C264.816 51.7973 264.706 52.139 264.488 52.467C264.269 52.7677 263.996 53.0137 263.668 53.205C263.34 53.3963 263.025 53.492 262.725 53.492Z" fill="white"/>
</g>
</svg>
