<svg width="312" height="83" viewBox="0 0 312 83" fill="none" xmlns="http://www.w3.org/2000/svg">
<g id="images/free-bonus-3">
<g id="Free Bonus Marker">
<g id="Mask Group">
<mask id="mask0_802_4961" style="mask-type:luminance" maskUnits="userSpaceOnUse" x="0" y="0" width="312" height="83">
<path id="Clip 2" fill-rule="evenodd" clip-rule="evenodd" d="M0 0.978516H312V82.9785H0V0.978516Z" fill="white"/>
</mask>
<g mask="url(#mask0_802_4961)">
<path id="Fill 1" fill-rule="evenodd" clip-rule="evenodd" d="M218.319 8.08077C217.749 8.09597 217.169 8.05987 216.579 7.97437C217.169 8.05987 217.749 8.09597 218.319 8.08077M252.358 78.1824C252.494 77.9164 251.997 77.8157 251.869 77.5117C254.034 77.5155 256.122 77.5117 258.158 77.9164C259.064 78.0988 259.96 78.1881 260.82 77.8366C261.1 77.7245 261.435 77.601 261.596 77.8841C261.906 78.3972 262.692 78.4561 263.388 78.6005C263.688 78.6575 264.123 78.6366 263.994 78.9197C263.868 79.1819 263.488 79.0432 263.182 79.047C262.347 79.0584 261.3 78.3535 260.71 79.2712C260.359 79.2826 260.014 79.294 259.673 79.3035C259.583 79.0432 259.334 78.9254 258.874 78.9995C258.803 78.9577 258.719 78.9406 258.613 78.9463C258.522 78.8399 258.448 78.6575 258.323 78.6423C256.447 78.4295 254.604 78.0399 252.639 78.2204C252.558 78.1824 252.468 78.1729 252.358 78.1824M204.358 77.8214C203.993 77.8043 203.778 77.6656 203.758 77.4471C203.752 77.2761 203.977 77.2381 204.193 77.2438C204.567 77.2552 204.747 77.4034 204.809 77.5269C204.78 77.772 204.573 77.8252 204.358 77.8214M93.6014 70.4358C93.8528 70.4206 94.1073 70.3769 94.3619 70.3028C94.1073 70.3769 93.8528 70.4206 93.6014 70.4358M254.984 54.9824C254.52 54.9824 254.259 54.8646 254.259 54.5834C254.269 54.23 254.656 54.1559 255.146 54.1673C255.535 54.1711 255.961 54.2205 255.896 54.5302C255.842 54.8342 255.455 54.9501 254.984 54.9824M272.11 79.9495C271.804 80.3713 271.179 80.13 270.693 80.1623C269.516 80.2972 268.682 79.7633 267.651 79.6018C267.38 79.5657 267.18 79.3301 267.306 79.1287C267.425 78.9406 267.751 78.9881 268.005 78.9672C269.423 78.8494 270.622 79.2408 271.84 79.5543C272.13 79.6246 272.23 79.7899 272.11 79.9495M230.019 75.0777C230.731 75.1214 231.44 75.1632 232.146 75.2012C232.381 75.3285 232.616 75.452 232.851 75.5736C233.103 75.7028 233.322 75.851 233.167 76.0601C233.003 76.2729 232.616 76.2729 232.336 76.2349C231.24 76.0867 229.945 76.0544 230.019 75.0777C229.993 75.0511 229.964 75.0188 229.935 74.9865C229.964 75.0188 229.993 75.0511 230.019 75.0777M207.947 74.2873C206.445 74.293 204.928 74.0156 203.442 73.7914C203.143 73.7439 202.601 73.6165 202.563 73.2308C204.158 73.0769 205.749 73.1738 207.28 73.3543C208.337 73.4778 209.168 73.3543 210.048 73.0978C210.038 73.0351 210.029 72.9648 210.019 72.9002C210.029 72.9648 210.038 73.0351 210.048 73.0978L210.148 73.1415C210.273 74.0859 208.917 74.2873 207.947 74.2873M131.929 70.8633C131.162 70.3978 131.407 70.0349 132.268 69.7423C132.438 69.748 132.609 69.7537 132.774 69.7575C134.185 69.6625 135.577 69.672 136.978 69.7157C135.577 69.672 134.185 69.6625 132.774 69.7575C133.676 70.3294 134.845 69.881 135.867 70.0311C136.547 70.1318 137.678 69.9665 137.413 70.6657C137.198 71.2243 136.166 71.0913 135.47 71.002C134.6 70.8899 133.814 70.4358 132.899 70.9165C133.669 71.4809 134.6 71.5037 135.561 71.4505C134.6 71.5037 133.669 71.4809 132.899 70.9165C132.574 70.8994 132.248 70.8842 131.929 70.8633M121.68 69.9133C121.46 69.3262 122.711 69.6625 123.072 69.3642C123.246 69.368 123.407 69.368 123.571 69.368C123.751 69.5827 123.951 69.7689 124.402 69.5599C124.666 69.5656 124.927 69.5713 125.188 69.577C125.759 69.9494 126.303 70.0672 126.79 69.5333C126.999 69.577 127.209 69.6245 127.415 69.6682C127.325 70.2496 126.845 70.4738 125.797 70.4681C124.953 70.4624 124.222 70.2002 123.4 70.2439C122.73 70.2819 121.825 70.2971 121.68 69.9133M114.059 69.368C114.024 69.6359 114.443 69.9608 113.888 70.147C113.679 70.2173 113.254 70.1261 112.983 70.0463C112.277 69.843 112.838 69.5599 112.912 69.3148C113.292 69.3319 113.672 69.3528 114.059 69.368M92.0612 68.5034C91.9098 68.4882 91.7455 68.4768 91.6005 68.4825C91.7455 68.4768 91.9098 68.4882 92.0612 68.5034M234.614 52.1342V52.1342C235.339 52.4382 236.144 52.2615 236.911 52.2729C236.966 52.3052 237.03 52.3261 237.111 52.3261C238.016 52.3356 238.932 52.4116 239.837 52.3679C238.932 52.4116 238.016 52.3356 237.111 52.3261C237.085 53.0463 235.874 52.955 235.265 53.28C234.778 53.3085 234.269 53.3655 233.973 53.0406C233.898 52.7688 233.232 52.5294 233.853 52.2197C234.108 52.1931 234.362 52.1608 234.614 52.1342M209.784 58.0454C210.979 58.1423 212.075 58.2639 212.329 58.3703C212.535 58.4026 212.755 58.4292 212.961 58.4615C212.951 58.5261 212.945 58.5907 212.945 58.6496C212.896 59.0372 212.545 59.2348 211.894 59.2082C211.479 59.193 211.114 59.0543 211.114 58.8035C211.105 58.2962 211.939 58.5375 212.329 58.3703C212.075 58.2639 210.979 58.1423 209.784 58.0454M178.922 71.3745C179.183 71.363 179.444 71.3535 179.708 71.3478C179.444 71.3535 179.183 71.363 178.922 71.3745C178.648 71.3859 178.377 71.3954 178.106 71.4068C178.377 71.3954 178.648 71.3859 178.922 71.3745M189.787 57.2834C190.157 57.3309 190.828 57.1808 190.792 57.5494C190.757 57.901 190.167 58.0625 189.587 58.0302C189.02 57.9979 188.321 58.2221 187.895 57.9238C187.464 57.6141 187.824 57.2663 188.131 56.9623C188.53 56.9623 188.926 56.968 189.326 56.968C189.316 57.1542 189.481 57.2397 189.787 57.2834M191.852 72.1174C191.733 72.0053 191.543 71.935 191.343 71.8913C191.543 71.935 191.733 72.0053 191.852 72.1174M150.96 70.3389V70.3389C151.62 70.3712 152.271 70.4035 152.931 70.4301C153.096 70.5042 153.25 70.5954 153.431 70.6429C153.818 70.7455 154.607 70.527 154.497 71.002C154.381 71.4714 153.782 71.3744 153.115 71.3383C152.445 71.3003 151.765 71.268 151.088 71.2091C150.434 71.1559 149.783 71.0704 149.783 70.66C149.783 70.2534 150.653 70.5802 150.96 70.3389M128.456 54.8342C128.726 54.8551 128.955 54.9463 128.946 55.1325C128.936 55.3511 128.691 55.448 128.465 55.5069C128.03 55.4309 127.805 55.3093 127.805 55.0945C127.815 54.8437 128.121 54.8019 128.456 54.8342M144.048 54.9729C144.409 55.0204 144.77 55.0584 145.134 55.0907C144.77 55.0584 144.409 55.0204 144.048 54.9729M154.987 55.9496C153.766 56.5082 152.38 56.0446 151.079 56.0826C150.508 56.0978 150.728 55.7083 150.818 55.4689H153.26C153.782 55.6817 154.578 55.5069 154.987 55.9496M161.908 71.6196C161.177 71.4771 160.252 71.5569 159.656 71.1179C159.611 71.0875 159.721 70.9108 159.811 70.8994C160.616 70.7607 161.393 70.8253 162.153 71.0172C162.488 71.1027 163.004 71.1179 162.923 71.4067C162.84 71.7222 162.308 71.5512 161.908 71.6196M184.087 71.9559C183.997 71.9027 183.897 71.8609 183.797 71.8229C183.897 71.8609 183.997 71.9027 184.087 71.9559C184.296 71.9464 184.512 71.935 184.728 71.9293C185.047 72.106 185.588 71.9084 185.943 72.2333C185.398 72.3663 185.192 72.8641 184.441 72.7083C183.877 72.5962 184.167 72.2181 184.087 71.9559M194.775 72.5753C195.252 72.6988 196.257 72.3777 196.141 72.9325C196.051 73.36 195.136 73.1415 194.591 73.1415C192.693 73.1415 190.802 73.1149 188.901 73.0769C188.25 73.0655 187.47 72.98 187.489 72.5069C187.499 72.0091 188.311 72.2067 188.775 72.2067C189.851 72.2067 190.918 72.277 191.994 72.3131C191.968 72.2504 191.923 72.1972 191.878 72.1478C191.923 72.1972 191.968 72.2504 191.994 72.3131C192.748 72.3359 193.505 72.3568 194.266 72.3777C194.44 72.4423 194.591 72.5335 194.775 72.5753M176.531 72.4575H175.915C175.329 72.3093 174.775 72.0794 174.072 72.3036C173.734 72.41 173.263 72.4366 173.038 72.201C172.577 71.7431 172.161 71.4505 171.456 72.0794C171.291 72.2238 170.956 72.1801 170.715 72.0794C170.47 71.9825 170.331 71.8438 170.36 71.6728C170.396 71.4068 170.776 71.4391 171.085 71.3858C172.116 71.2034 173.122 71.5189 174.153 71.4182C174.623 71.3687 175.129 71.498 175.564 71.2889C175.906 71.3326 176.244 71.3744 176.586 71.4125C176.83 71.764 177.091 72.1174 176.531 72.4575C176.586 72.6019 176.711 72.6931 176.866 72.7406C176.711 72.6931 176.586 72.6019 176.531 72.4575M202.257 74.3785V74.3785C202.292 74.3956 202.221 74.3633 202.137 74.3253C202.137 74.3405 202.147 74.3576 202.147 74.3728C199.034 74.1486 196.031 73.4873 193.099 73.7591C196.067 73.4873 199.109 74.1657 202.137 74.3253C202.328 73.7553 202.727 74.1448 203.152 74.2189C202.727 74.1448 202.328 73.7553 202.257 74.3785M228.443 75.9575C227.947 75.948 228.118 75.6002 227.912 75.4349C227.802 75.0948 228.273 75.1784 228.534 75.1518C228.843 75.1214 229.268 75.11 229.159 75.4083C229.078 75.6439 229.004 75.9632 228.443 75.9575M91.8904 69.9608C91.7809 69.9342 91.6842 69.9019 91.5747 69.8753C91.3395 69.6245 91.3749 69.2502 90.5049 69.3528C89.7026 69.4478 90.3341 69.0848 90.2697 68.9366C90.4888 68.9195 90.695 68.9043 90.9141 68.8891C91.8808 68.9575 92.841 69.0316 93.8109 69.1076C94.2072 69.14 94.7775 69.0487 94.7679 69.444C94.7582 69.7309 94.3168 69.8601 93.9365 69.9931C93.2405 70.2382 92.58 69.7841 91.8904 69.9608C92.4157 70.3237 92.986 70.4681 93.6014 70.4358C92.986 70.4681 92.4157 70.3237 91.8904 69.9608M86.5803 69.6986C85.9649 69.5865 84.8532 69.8012 84.9853 69.3148C85.1239 68.8188 86.3161 68.7808 87.1506 68.7219C87.7467 68.6801 88.578 68.8074 88.5072 69.1932C88.3718 69.8867 87.2473 69.5827 86.5803 69.6986M1.23434 62.0051C1.74022 62.9229 1.84011 63.9204 1.46956 64.9503C1.22467 65.6343 0.419129 66.4931 1.21501 67.1012C3.28687 68.6953 2.80677 70.4092 2.34599 72.1592C2.24611 72.5107 2.27188 72.8736 2.7971 73.1415C2.71655 73.3809 2.9711 73.4987 3.26109 73.6051C3.4222 73.7705 3.58653 73.9415 3.74764 74.1125C3.74764 74.3842 3.75731 74.6502 3.75731 74.9238C3.44154 75.0397 3.13221 75.1746 2.79066 75.2696C2.01089 75.4938 1.25045 75.7921 1.77567 76.3432C2.29122 76.8714 2.3911 77.943 4.27286 77.3407C4.7433 77.3882 5.14929 77.3407 5.44896 77.1051C6.14495 77.0253 6.85383 76.9455 7.54982 76.8657C7.93004 76.9987 8.16526 76.8752 8.38114 76.7061L8.76136 76.7213C9.81179 76.9569 10.8332 76.8125 11.8482 76.6092C12.3992 76.6092 12.9599 76.6035 13.5109 76.6035C15.1574 76.6681 16.7975 76.7536 18.444 76.7897C19.0852 76.8068 19.7458 76.8923 20.3709 76.689C22.5684 75.9746 24.8304 75.9898 27.1214 76.518C27.8174 76.6795 28.5327 76.6529 29.2029 76.4914C30.8494 76.119 32.5862 76.119 34.2972 75.986C36.5688 75.8035 38.8404 76.0069 41.1024 76.043C44.7467 76.1076 48.3749 75.8511 52.0127 75.9898C53.4885 76.0487 54.9642 76.0012 56.4013 75.7617C56.8267 75.6857 57.3325 75.6591 57.3873 75.3437C57.4518 74.9561 56.8557 75.0302 56.4754 74.9504C55.7859 74.806 55.0899 74.7528 54.3843 74.7946C50.9268 75.0245 47.4984 74.4488 44.0056 74.8212C42.3945 74.9979 40.6481 74.6825 38.8566 74.7946C36.7299 74.9238 34.4422 75.1575 32.2511 74.673C31.4906 74.502 30.6303 74.6559 29.8989 74.9181C25.8164 74.3956 21.6726 74.8858 17.574 74.6502C17.2679 74.4374 16.9683 74.2246 16.6686 74.0099C18.6696 73.9681 20.6705 73.9415 22.6683 73.8769C26.145 73.7705 29.6379 74.0916 33.0824 73.6432C33.9266 73.5367 34.7676 73.3657 35.6634 73.4664C39.066 73.8617 42.4751 73.398 45.897 73.531C47.9689 73.6108 50.131 73.7553 52.2028 73.3429C55.6506 73.36 59.0629 73.8503 62.5267 73.5405C63.4321 73.455 64.3827 73.4778 65.2978 73.5367C70.9334 73.8883 76.6076 73.7287 82.2529 73.8826C82.5429 73.894 82.8329 73.8408 82.9328 73.6793C83.3323 73.0123 84.3699 72.8964 85.2947 72.6703C85.5202 72.6665 85.7393 72.6608 85.9649 72.6551C86.6512 72.9705 87.3407 72.7938 88.0206 72.6456C88.7069 72.9173 89.4674 72.8584 90.2246 72.8318C93.3469 72.7254 96.4434 72.9591 99.556 73.0351C102.685 73.1092 105.833 73.4341 108.965 72.9857C109.129 73.1681 109.364 73.2004 109.654 73.0921C109.935 73.1358 110.205 73.1738 110.476 73.2156C109.59 74.3405 109.635 74.3785 111.771 74.3462C112.477 74.331 113.183 74.3633 113.879 74.3519C114.314 74.3462 115.055 74.4697 114.559 73.9358C114.368 73.7325 114.378 73.5405 114.765 73.4721C115.164 73.4075 115.354 73.5994 115.38 73.8028C115.545 74.9827 117.001 74.2132 117.823 74.3405C118.792 74.4906 118.999 74.0688 118.892 73.5842C120.284 73.3277 121.67 73.4778 123.062 73.5842C124.928 75.0511 125.043 75.0568 127.55 73.8408C128.121 73.5633 128.791 73.6527 129.426 73.7914C129.677 73.8446 129.948 73.9092 129.948 74.1125C129.948 74.4697 129.197 74.2778 128.881 74.7471C139.205 75.0454 149.339 75.8245 159.756 75.4463C159.276 75.0948 158.86 75.2487 158.516 75.2012C158.164 75.1575 157.604 75.2335 157.584 74.9447C157.555 74.5704 158.171 74.6236 158.57 74.6464C159.547 74.6939 160.523 74.768 161.493 74.8649C161.937 74.9067 162.559 74.73 162.788 75.1043C163.085 75.6173 161.947 75.4254 161.647 75.8834C162.969 75.5584 164.625 76.5617 165.301 75.2107C165.356 75.1043 165.991 75.0663 166.362 75.0568C167.228 75.0302 168.073 75.1366 168.923 75.3133C168.894 75.6268 167.979 75.6971 168.308 76.0392C168.604 76.3584 169.194 76.1665 169.655 76.1931C171.066 76.2729 172.513 76.2349 173.879 76.4287C178.087 77.0139 182.395 77.0044 186.648 77.3141C192.513 77.7397 198.458 77.639 204.329 78.0874C204.673 78.114 205.205 78.1881 205.244 77.8575C205.315 77.2286 206.075 77.3996 206.681 77.3882C209.001 77.3407 211.305 77.6979 213.631 77.4414C213.802 77.4528 213.976 77.4623 214.147 77.4794C214.337 77.6713 214.591 77.772 214.978 77.6865C216.383 77.81 217.784 77.9278 219.186 78.0494C219.586 78.2376 220.056 78.2052 220.517 78.1881C220.952 78.1938 221.387 78.1938 221.819 78.1996C221.964 78.3706 222.183 78.4333 222.498 78.3592C225.872 78.7164 229.249 79.0793 232.623 79.4365C232.851 79.6341 233.087 79.6455 233.328 79.4479C233.973 79.4688 234.614 79.4859 235.265 79.5068C237.881 79.864 240.398 80.5424 243.175 80.4664C243.481 80.4626 243.791 80.4568 244.106 80.4568C245.311 80.6165 246.523 80.6013 247.735 80.5196C250.702 81.1922 253.95 80.6545 256.927 81.2682C258.593 81.4601 260.114 82.0472 261.896 81.9237C262.221 82.0149 262.547 81.9978 262.882 81.9294C265.218 82.4253 267.651 82.5849 270.103 82.6761C270.403 82.7616 270.693 82.7673 270.983 82.6761C271.099 82.6077 271.189 82.526 271.324 82.4785C271.189 82.526 271.099 82.6077 270.983 82.6761C272.004 83.136 273.154 82.8301 274.15 82.7351C276.418 82.5222 278.564 83.231 280.846 82.8795C281.812 82.7294 282.363 82.431 282.302 81.9389C282.228 81.3689 281.458 81.1067 280.446 81.139C278.149 81.2093 275.913 81.0212 273.721 80.5899C273.225 80.4929 272.7 80.4625 272.909 80.0616C273.08 79.731 273.515 79.6455 274.086 79.7405C274.446 79.7994 274.846 79.8526 275.207 79.8222C278.175 79.5809 280.936 80.3124 283.739 80.5956C289.784 81.2093 295.748 82.0415 301.935 81.7109C302.425 81.6843 303.385 81.8173 303.275 81.2568C303.105 80.4036 304.226 79.3738 302.354 78.7335C302.235 78.6955 302.144 78.5454 302.18 78.4713C302.615 77.3673 301.258 77.2875 300.018 77.1488C299.422 77.0842 298.706 77.0899 298.832 76.5769C298.967 75.9955 299.666 76.2995 300.227 76.3166C303.71 76.4439 307.303 76.8391 310.18 75.1423C310.777 74.9656 311.012 74.6084 311.373 74.3158C311.888 74.1866 312.117 73.9301 311.943 73.6488C311.753 73.3163 311.257 73.2213 310.677 73.3334C310.47 73.3011 310.255 73.2631 310.045 73.2308C308.244 72.8147 306.278 72.8584 304.442 72.5221C304.161 72.4632 303.881 72.41 303.601 72.3511C303.285 72.0091 302.976 71.669 302.66 71.3269C302.66 71.2794 302.624 71.2471 302.55 71.2205C302.66 70.3503 301.123 70.0026 300.788 69.2293C300.234 67.9543 300.343 67.8631 302.525 67.998C303.636 68.0664 305.041 68.5091 305.847 67.58C306.243 67.5496 306.423 67.3938 306.514 67.181C307.239 66.8561 307.799 66.4665 307.89 65.9003C308.424 65.5963 309.011 65.298 308.064 64.9028C307.919 64.8496 307.773 64.7964 307.638 64.7375C306.823 64.3156 305.821 64.3099 304.825 64.2681C304.551 64.1712 304.271 64.08 304 63.9907C303.772 63.7874 303.391 63.7399 303.03 63.6753C300.662 63.2535 298.297 62.7994 295.909 62.427C293.738 62.0849 291.646 61.5358 289.359 61.4712C289.149 61.456 288.933 61.4389 288.724 61.4294C287.622 60.8309 286.137 61.0665 284.87 60.8214C284.139 60.6827 283.459 60.4034 283.939 60.0576C285.231 59.1341 284.229 58.4558 283.478 57.7623C282.818 57.1485 283.214 56.9357 284.21 56.9034C285.105 56.8711 285.911 56.7495 286.626 56.4246C286.887 56.3809 287.152 56.3391 287.413 56.3011C287.857 56.3163 288.057 56.1833 288.057 55.9325C288.898 55.1059 289.584 54.2566 288.843 53.2648C289.078 52.3204 289.049 51.3286 290.464 50.6122C290.815 50.4317 290.95 50.0574 290.815 49.7268C291.511 49.0276 292.081 48.3017 292.362 47.5018C292.581 46.8672 292.262 46.4302 291.06 46.3219C289.82 46.2154 288.579 46.0672 287.342 45.9646C286.507 45.8962 285.702 45.7898 285.134 45.4098C284.445 44.9576 284.119 44.4921 285.531 44.3059C286.671 44.152 287.271 43.7092 287.712 43.1164C288.553 42.0011 289.004 40.8591 288.318 39.664C288.063 39.2212 288.002 38.7082 288.653 38.5277C290.515 37.9995 290.654 36.8727 291.305 35.9721C291.721 35.385 292.21 34.6154 291.26 33.9599C290.064 33.1372 290.544 32.0541 289.964 31.1326C289.848 30.9502 290.119 30.7583 290.38 30.6405C292.616 29.6638 293.096 28.1856 293.332 26.7244C293.567 25.2043 294.128 23.7679 295.123 22.3542C296.27 20.7315 295.329 19.8784 292.462 19.5801C290.97 19.4186 289.43 19.4034 287.964 19.1108C286.826 18.8808 286.617 18.63 287.258 17.9954C288.563 16.7034 289.649 15.3638 288.453 13.8C288.138 13.3839 288.698 13.0856 289.088 12.7702C290.28 11.8258 291.086 10.8017 291.105 9.57994C291.124 8.43799 290.528 7.96867 288.598 8.17198C285.386 8.50829 282.283 8.16058 279.19 7.85086C272.671 7.20673 266.12 6.67851 259.56 6.3099C249.536 5.75507 239.547 5.02924 229.51 4.60172C225.35 4.42121 221.168 4.2236 216.998 4.1381C210.998 4.01459 204.999 3.87589 199.018 3.64598C192.158 3.37997 185.292 3.25646 178.422 3.08165C170.911 2.88404 163.41 2.63893 155.899 2.41472C153.015 2.32922 150.138 2.22662 147.251 2.14111C141.586 1.9663 135.922 1.763 130.257 1.62999C124.747 1.49698 119.237 1.49128 113.734 1.34688C102.714 1.05806 91.6907 1.05426 80.6708 0.983961C75.7119 0.95736 70.7529 1.03716 65.794 1.03146C59.2884 1.03146 52.8376 1.42668 46.3868 1.8751C42.3752 2.15821 38.3861 2.49453 34.3519 2.65983C31.336 2.78334 28.3973 2.25892 25.3846 2.53063C23.5093 2.70164 23.0775 2.84604 23.1291 3.95189C23.2032 5.26865 23.1935 6.57021 22.5974 7.87366C22.2623 8.57669 22.2978 9.34623 22.7327 10.0664C23.1226 10.6839 23.2386 11.347 23.0582 11.9702C22.8133 12.8557 23.2837 13.6195 24.1247 14.2275C25.2299 15.0237 25.6456 15.8863 25.8615 16.8535C26.0065 17.4615 25.8454 17.8985 24.7402 18.0163C23.258 18.1759 22.5072 18.7098 22.533 19.5535C22.5781 20.4921 22.7424 21.4631 24.6145 21.8412C25.5006 22.0236 26.0516 22.4283 26.6058 22.8178C27.1117 23.1807 27.0118 23.5969 26.6058 23.9921C26.1966 24.3759 25.6263 24.3018 25.0141 24.2011C22.8874 23.8591 20.6705 23.9446 18.5052 23.8534C16.5977 23.7736 14.2165 25.2993 14.4807 26.3026C15.1961 28.9646 14.6708 31.6342 14.7514 34.3019C14.7868 35.1817 13.8266 35.6358 12.4894 35.8277C8.97725 36.335 7.83015 37.3801 8.56159 39.4873C8.95147 40.5931 9.43157 41.718 8.92247 42.8333C8.06537 44.6897 9.07713 46.6164 8.19103 48.4689C7.1696 50.597 9.00625 52.7042 8.28126 54.876C7.87526 56.0883 9.68291 56.664 11.7741 56.2536C12.4991 56.1149 13.2499 56.0123 14.0006 55.9439C14.9415 55.8527 15.8115 55.9173 15.8469 56.6526C15.8824 57.2777 15.5569 57.7091 14.2713 57.6939C12.3638 57.6729 10.4433 57.6995 8.53581 57.7148C7.00527 57.7319 5.5134 57.7414 4.08275 57.2777C2.64566 56.8141 1.83045 57.709 0.78968 58.0188C-0.089976 58.2753 -0.151197 58.8947 0.20002 59.402C0.780013 60.2381 0.754236 61.1463 1.23434 62.0051" fill="#D52917"/>
</g>
</g>
<path id="Vector" fill-rule="evenodd" clip-rule="evenodd" d="M117.118 76.7849C117.759 76.7963 118.745 77.2543 118.909 76.7374C119.044 76.2985 117.843 76.2567 117.098 76.1883C116.892 76.1655 116.666 76.1769 116.447 76.1826C113.045 76.2567 109.652 76.2358 106.259 75.9945C105.102 75.909 103.887 75.8463 102.73 76.2776C103.501 76.6519 104.287 76.5778 105.047 76.5664C109.081 76.4866 113.099 76.6994 117.118 76.7849" fill="black"/>
<path id="Vector_2" fill-rule="evenodd" clip-rule="evenodd" d="M65.912 75.9271C68.1127 76.0658 70.22 75.7827 72.5175 75.8473C72.2178 75.3723 71.7925 75.4369 71.4412 75.4255C67.478 75.2982 63.4986 75.549 59.5611 75.1158C59.1164 75.0683 58.4816 74.9923 58.4204 75.4312C58.3463 75.8625 58.936 75.8264 59.4257 75.8587C61.5878 76.0126 63.7757 75.7884 65.912 75.9271" fill="black"/>
<path id="Vector_3" fill-rule="evenodd" clip-rule="evenodd" d="M183.353 79.0531C183.408 78.7377 182.993 78.6104 182.512 78.5933C181.137 78.5458 179.77 78.5458 178.395 78.8555C179.745 78.9999 181.091 79.1538 182.448 79.283C182.783 79.3153 183.302 79.378 183.353 79.0531" fill="black"/>
<path id="Vector_4" fill-rule="evenodd" clip-rule="evenodd" d="M173.427 78.3162C173.482 77.8317 172.422 78.1623 171.99 77.8355C171.275 78.3105 169.599 77.6873 169.548 78.2782C169.5 78.8179 171.136 78.5347 171.997 78.7058C172.422 78.7913 173.402 78.6317 173.427 78.3162" fill="black"/>
</g>
<path id="Free Bonus Text" d="M85.3532 41.6375C85.1892 41.7468 84.8475 41.8835 84.3282 42.0475C83.8362 42.1842 82.9889 42.3208 81.7862 42.4575C81.4309 42.4848 80.9252 42.5122 80.2692 42.5395C79.6132 42.5668 78.9025 42.5942 78.1372 42.6215C77.3992 42.6488 76.7159 42.6625 76.0872 42.6625C75.4859 42.6352 75.0622 42.5942 74.8162 42.5395C74.8162 42.5395 74.7479 42.6078 74.6112 42.7445C74.5019 42.8812 74.4472 43.0588 74.4472 43.2775C74.2559 43.6055 74.0235 44.0975 73.7502 44.7535C73.4769 45.3822 73.1762 46.0792 72.8482 46.8445C72.5475 47.6098 72.2605 48.3752 71.9872 49.1405C71.7139 49.8785 71.4815 50.5345 71.2902 51.1085C71.1262 51.6552 71.0442 52.0378 71.0442 52.2565C70.7982 52.9125 70.6479 53.4728 70.5932 53.9375C70.5385 54.4022 70.4429 54.6755 70.3062 54.7575C70.2242 55.1675 69.9645 55.3725 69.5272 55.3725C69.1172 55.3725 68.8029 55.2495 68.5842 55.0035C67.9829 54.7028 67.5729 54.3202 67.3542 53.8555C67.1355 53.3635 67.1219 52.8168 67.3132 52.2155C67.3952 51.8602 67.5319 51.3408 67.7232 50.6575C67.9419 49.9468 68.1742 49.1678 68.4202 48.3205C68.6935 47.4732 68.9669 46.6532 69.2402 45.8605C69.5409 45.0405 69.8279 44.3708 70.1012 43.8515C70.4019 43.3322 70.5932 42.8675 70.6752 42.4575C70.7572 42.0202 70.8665 41.6238 71.0032 41.2685C70.9759 40.9678 70.9759 40.7765 71.0032 40.6945C71.0305 40.5852 71.1399 40.4075 71.3312 40.1615C71.4679 40.0522 71.6319 39.8608 71.8232 39.5875C72.0419 39.2868 72.2879 38.8358 72.5612 38.2345C72.6432 37.9612 72.7662 37.5922 72.9302 37.1275C73.1215 36.6355 73.2992 36.1435 73.4632 35.6515C73.6272 35.1322 73.7775 34.6948 73.9142 34.3395C74.0509 33.9842 74.1192 33.7928 74.1192 33.7655C74.1739 33.6562 74.2559 33.4512 74.3652 33.1505C74.4745 32.8225 74.5565 32.5628 74.6112 32.3715C74.7205 31.9888 74.8025 31.6745 74.8572 31.4285C74.9392 31.1825 74.9255 31.0595 74.8162 31.0595C74.5975 31.1142 74.1602 31.1552 73.5042 31.1825C73.1762 31.2372 72.9302 31.2782 72.7662 31.3055C72.6295 31.3055 72.5065 31.3192 72.3972 31.3465C72.1239 31.3738 71.8779 31.3465 71.6592 31.2645C71.4405 31.1825 71.3312 31.0185 71.3312 30.7725C71.3859 30.3352 71.5362 29.8842 71.7822 29.4195C72.0555 28.9548 72.3972 28.7088 72.8072 28.6815C72.9985 28.6268 73.2035 28.5858 73.4222 28.5585C73.6682 28.5038 73.9962 28.4218 74.4062 28.3125C74.9255 28.2032 75.3765 28.1758 75.7592 28.2305C76.1692 28.2578 76.4562 28.2988 76.6202 28.3535C76.7569 28.2715 76.8662 28.1895 76.9482 28.1075C77.0575 27.9982 77.1259 27.8888 77.1532 27.7795C77.2899 27.2875 77.5359 26.9185 77.8912 26.6725C78.2465 26.3992 78.6155 26.2625 78.9982 26.2625C79.4082 26.2352 79.7362 26.3445 79.9822 26.5905C80.2282 26.8092 80.2965 27.1782 80.1872 27.6975C80.2145 27.7795 80.2419 27.8478 80.2692 27.9025C80.3239 27.9572 80.5289 27.9572 80.8842 27.9025C81.2669 27.8205 81.9229 27.6838 82.8522 27.4925C83.3442 27.4378 83.9592 27.3832 84.6972 27.3285C85.4625 27.2738 86.0639 27.3148 86.5012 27.4515C86.9659 27.3695 87.3759 27.3422 87.7312 27.3695C88.1139 27.3695 88.3735 27.3148 88.5102 27.2055C89.0842 27.3148 89.4942 27.3968 89.7402 27.4515C90.0135 27.4788 90.2322 27.5608 90.3962 27.6975C90.5055 27.8068 90.5465 27.9162 90.5192 28.0255C90.4919 28.1075 90.4782 28.1485 90.4782 28.1485C90.3689 28.0938 90.3552 28.0938 90.4372 28.1485C90.5192 28.1758 90.6285 28.2442 90.7652 28.3535C90.9565 28.4355 91.0522 28.6132 91.0522 28.8865C91.0795 29.1325 91.0659 29.3922 91.0112 29.6655C90.9839 29.9115 90.9565 30.0755 90.9292 30.1575C90.9019 30.4035 90.7652 30.5538 90.5192 30.6085C90.2732 30.6358 89.6582 30.6358 88.6742 30.6085C87.4989 30.4445 86.4055 30.3898 85.3942 30.4445C84.4102 30.4718 83.1665 30.5948 81.6632 30.8135C81.0619 30.8408 80.5425 30.9228 80.1052 31.0595C79.6952 31.1688 79.4902 31.2235 79.4902 31.2235C79.3809 31.2235 79.1895 31.4148 78.9162 31.7975C78.6429 32.1528 78.3832 32.6858 78.1372 33.3965C78.0279 33.5878 77.8365 33.9842 77.5632 34.5855C77.3172 35.1868 77.0575 35.8428 76.7842 36.5535C76.5109 37.2368 76.2649 37.8518 76.0462 38.3985C75.8275 38.9178 75.6909 39.2048 75.6362 39.2595C76.0189 39.3688 76.6065 39.4235 77.3992 39.4235C78.2192 39.4235 79.1212 39.3962 80.1052 39.3415C81.0892 39.2595 82.0185 39.1775 82.8932 39.0955C83.3032 39.0135 83.7269 38.9452 84.1642 38.8905C84.6015 38.8358 84.9022 38.8222 85.0662 38.8495C85.3942 38.8768 85.6402 39.0955 85.8042 39.5055C85.9682 39.8882 86.0229 40.2982 85.9682 40.7355C85.9135 41.1455 85.7085 41.4462 85.3532 41.6375ZM88.6668 55.3315C88.6668 55.4682 88.5985 55.4682 88.4618 55.3315C88.3252 55.2222 88.1065 55.0582 87.8058 54.8395C87.5598 54.5935 87.2728 54.2792 86.9448 53.8965C86.6168 53.5138 86.4665 53.0628 86.4938 52.5435C86.6305 51.9148 86.8765 50.9992 87.2318 49.7965C87.5872 48.5665 88.0108 47.2818 88.5028 45.9425C88.5575 45.4232 88.6395 44.9858 88.7488 44.6305C88.8855 44.2752 88.9538 44.0975 88.9538 44.0975C88.9812 44.0428 89.0358 43.9608 89.1178 43.8515C89.1998 43.7148 89.3228 43.6192 89.4868 43.5645C89.6235 43.4552 89.6782 43.2502 89.6508 42.9495C89.6235 42.6215 89.5962 42.4165 89.5688 42.3345C89.6782 41.6785 89.9242 40.7902 90.3068 39.6695C90.6895 38.5215 91.1405 37.3188 91.6598 36.0615C92.1792 34.7768 92.6712 33.5878 93.1358 32.4945C93.2725 32.2485 93.3955 32.0162 93.5048 31.7975C93.6142 31.5515 93.6688 31.4285 93.6688 31.4285C93.5868 31.3192 93.4912 31.2098 93.3818 31.1005C93.2725 30.9912 93.1495 30.8408 93.0128 30.6495C92.7942 30.3488 92.6302 30.0208 92.5208 29.6655C92.4388 29.2828 92.5345 28.9412 92.8078 28.6405C92.8898 28.5038 93.0402 28.3262 93.2588 28.1075C93.5048 27.8888 93.7645 27.6838 94.0378 27.4925C94.6665 27.1372 95.2815 26.8638 95.8828 26.6725C96.5115 26.4538 97.0718 26.4128 97.5638 26.5495C98.4385 26.5768 99.0945 26.6452 99.5318 26.7545C99.9965 26.8638 100.366 27.0142 100.639 27.2055C100.803 27.3148 100.94 27.3968 101.049 27.4515C101.186 27.5062 101.363 27.5335 101.582 27.5335C102.047 27.5882 102.593 27.7658 103.222 28.0665C103.851 28.3398 104.411 28.6268 104.903 28.9275C105.395 29.2282 105.682 29.4332 105.764 29.5425C106.311 30.0072 106.789 30.6358 107.199 31.4285C107.609 32.2212 107.855 33.1368 107.937 34.1755C107.937 34.8042 107.91 35.3645 107.855 35.8565C107.8 36.3212 107.677 36.7858 107.486 37.2505C107.295 37.6878 106.98 38.2072 106.543 38.8085C105.723 40.0932 104.698 41.3642 103.468 42.6215C102.265 43.8788 100.735 45.0268 98.8758 46.0655C98.8212 46.1748 98.7528 46.2978 98.6708 46.4345C98.6162 46.5438 98.5888 46.5985 98.5888 46.5985C98.5888 46.8172 98.7255 47.1042 98.9988 47.4595C99.2995 47.8148 99.6685 48.1975 100.106 48.6075C100.543 48.9902 100.994 49.3728 101.459 49.7555C101.951 50.1382 102.388 50.4798 102.771 50.7805C103.181 51.0538 103.482 51.2452 103.673 51.3545C104.028 51.2452 104.315 51.2042 104.534 51.2315C104.753 51.2315 104.917 51.3272 105.026 51.5185C105.135 51.7098 105.204 52.0378 105.231 52.5025C105.204 52.8578 105.108 53.1995 104.944 53.5275C104.78 53.8555 104.657 54.0468 104.575 54.1015C104.356 54.2655 104.151 54.4568 103.96 54.6755C103.796 54.8942 103.591 55.0308 103.345 55.0855C103.099 55.1402 102.757 55.0172 102.32 54.7165C101.09 54.3338 99.9828 53.6095 98.9988 52.5435C98.0422 51.4775 96.9898 50.3295 95.8418 49.0995C95.5958 48.7988 95.3908 48.5938 95.2268 48.4845C95.0628 48.3478 94.8852 48.2795 94.6938 48.2795C94.5025 48.2795 94.2155 48.3205 93.8328 48.4025C93.6142 48.4298 93.3955 48.3752 93.1768 48.2385C92.9855 48.1018 92.7805 47.9242 92.5618 47.7055C92.4798 47.5688 92.3705 47.4868 92.2338 47.4595C92.1245 47.4322 92.0288 47.5005 91.9468 47.6645C91.8922 47.8285 91.7828 48.1155 91.6188 48.5255C91.4822 48.9082 91.3318 49.2908 91.1678 49.6735C91.0312 50.0562 90.8945 50.3568 90.7578 50.5755C90.8125 50.8215 90.7442 51.3545 90.5528 52.1745C90.3615 52.9672 90.1155 53.8008 89.8148 54.6755C89.7328 54.8942 89.6098 55.0855 89.4458 55.2495C89.2818 55.4408 89.1588 55.4818 89.0768 55.3725C88.9675 55.2358 88.8718 55.1675 88.7898 55.1675C88.7352 55.1675 88.6942 55.2222 88.6668 55.3315ZM96.1698 43.4825C96.9625 43.2365 97.7415 42.8675 98.5068 42.3755C99.2995 41.8562 100.038 41.2412 100.721 40.5305C101.404 39.8198 101.965 39.0682 102.402 38.2755C102.621 38.1115 102.826 37.8518 103.017 37.4965C103.208 37.1138 103.372 36.8815 103.509 36.7995C103.755 36.4988 103.919 36.2665 104.001 36.1025C104.11 35.9385 104.097 35.7335 103.96 35.4875C103.96 35.2688 103.987 35.0638 104.042 34.8725C104.124 34.6538 104.192 34.4488 104.247 34.2575C104.384 33.8748 104.384 33.5332 104.247 33.2325C104.138 32.9318 103.741 32.5902 103.058 32.2075C102.812 32.0435 102.552 31.9068 102.279 31.7975C102.033 31.6608 101.76 31.5378 101.459 31.4285C101.186 31.2918 100.871 31.1415 100.516 30.9775C100.079 30.9775 99.6275 30.8818 99.1628 30.6905C98.7255 30.4718 98.3838 30.3762 98.1378 30.4035C98.0012 30.4308 97.8645 30.5948 97.7278 30.8955C97.6185 31.1688 97.4955 31.5652 97.3588 32.0845C97.2495 32.5218 97.1128 32.9182 96.9488 33.2735C96.8122 33.6015 96.6345 33.8202 96.4158 33.9295C96.3885 34.0388 96.2655 34.4215 96.0468 35.0775C95.8282 35.7335 95.5685 36.5125 95.2678 37.4145C94.9672 38.2892 94.6665 39.1775 94.3658 40.0795C94.0652 40.9542 93.8192 41.7058 93.6278 42.3345C93.4365 42.9632 93.3408 43.3322 93.3408 43.4415C93.3408 43.4962 93.4228 43.5918 93.5868 43.7285C93.7782 43.8652 93.9422 43.9472 94.0788 43.9745C94.0788 43.9745 94.1062 43.9472 94.1608 43.8925C94.2155 43.8378 94.2702 43.8242 94.3248 43.8515L95.2268 44.3025L96.1698 43.4825ZM113.351 55.5775C112.503 55.5228 111.656 55.2085 110.809 54.6345C109.961 54.0878 109.182 53.5685 108.472 53.0765C108.007 52.6118 107.652 52.1198 107.406 51.6005C107.16 51.0538 106.955 50.3432 106.791 49.4685C106.681 48.9492 106.681 48.2658 106.791 47.4185C106.9 46.5712 107.078 45.7238 107.324 44.8765C107.57 44.0018 107.802 43.3185 108.021 42.8265C108.349 42.0612 108.759 41.2412 109.251 40.3665C109.77 39.4645 110.276 38.6172 110.768 37.8245C111.287 37.0045 111.697 36.3485 111.998 35.8565C112.189 35.6652 112.271 35.5695 112.244 35.5695C112.244 35.5422 112.244 35.5285 112.244 35.5285C112.244 35.3918 112.38 35.0502 112.654 34.5035C112.954 33.9295 113.214 33.4238 113.433 32.9865C113.843 32.5492 114.075 32.1938 114.13 31.9205C114.184 31.6472 114.143 31.4285 114.007 31.2645C113.952 31.1552 114.061 30.9228 114.335 30.5675C114.635 30.2122 115.045 29.8158 115.565 29.3785C116.084 28.9138 116.658 28.5038 117.287 28.1485C117.943 27.6292 118.571 27.3558 119.173 27.3285C119.801 27.2738 120.17 27.3968 120.28 27.6975C120.28 27.7795 120.43 27.8068 120.731 27.7795C121.059 27.7248 121.428 27.6565 121.838 27.5745C122.275 27.4652 122.658 27.3832 122.986 27.3285C123.122 27.1645 123.437 27.0415 123.929 26.9595C124.448 26.8502 125.049 26.7545 125.733 26.6725C126.088 26.6998 126.484 26.7135 126.922 26.7135C127.359 26.6862 127.742 26.6588 128.07 26.6315C128.425 26.6042 128.603 26.5905 128.603 26.5905C128.794 26.5358 129.067 26.6588 129.423 26.9595C129.805 27.2328 130.106 27.6155 130.325 28.1075C130.516 28.5995 130.352 29.0232 129.833 29.3785C129.313 29.7338 128.493 29.9798 127.373 30.1165C126.553 30.2258 125.91 30.3215 125.446 30.4035C125.008 30.4582 124.53 30.5402 124.011 30.6495C123.519 30.7315 122.794 30.8818 121.838 31.1005C121.154 31.2372 120.58 31.3465 120.116 31.4285C119.651 31.5105 119.241 31.6745 118.886 31.9205C118.558 32.1665 118.189 32.6038 117.779 33.2325C117.587 33.3692 117.341 33.7245 117.041 34.2985C116.74 34.8725 116.439 35.4465 116.139 36.0205C115.373 37.0865 114.799 37.8792 114.417 38.3985C114.061 38.8905 113.938 39.2048 114.048 39.3415C114.048 39.3415 114.239 39.3825 114.622 39.4645C115.004 39.5465 115.25 39.5875 115.36 39.5875C115.633 39.4508 115.961 39.3552 116.344 39.3005C116.754 39.2458 117.082 39.1912 117.328 39.1365C119.022 38.6992 120.266 38.3848 121.059 38.1935C121.879 37.9748 122.453 37.8245 122.781 37.7425C123.136 37.6605 123.45 37.6058 123.724 37.5785C124.106 37.2778 124.489 37.3052 124.872 37.6605C125.282 37.9885 125.569 38.3848 125.733 38.8495C125.924 39.3962 125.924 39.8198 125.733 40.1205C125.541 40.4212 125.118 40.6672 124.462 40.8585C123.833 41.0498 122.931 41.2822 121.756 41.5555C120.58 41.8015 119.104 42.1705 117.328 42.6625C115.824 43.0998 114.608 43.3595 113.679 43.4415C112.749 43.5235 112.312 43.2912 112.367 42.7445C112.175 42.6352 111.957 42.7445 111.711 43.0725C111.492 43.3732 111.287 43.7968 111.096 44.3435C110.904 44.8902 110.727 45.4778 110.563 46.1065C110.426 46.7352 110.344 47.3228 110.317 47.8695C110.289 48.4162 110.33 48.8398 110.44 49.1405C110.658 49.7692 111 50.3158 111.465 50.7805C111.957 51.2178 112.667 51.5732 113.597 51.8465C114.143 51.8738 114.676 51.9148 115.196 51.9695C115.715 52.0242 116.303 51.9148 116.959 51.6415C118.571 51.3682 119.692 51.0812 120.321 50.7805C120.949 50.4798 121.332 50.2748 121.469 50.1655C121.687 50.0562 121.824 49.9468 121.879 49.8375C121.961 49.7282 122.07 49.6735 122.207 49.6735C122.125 49.8102 122.152 49.8102 122.289 49.6735C122.425 49.5368 122.644 49.3455 122.945 49.0995C123.519 48.6075 124.093 48.3068 124.667 48.1975C125.241 48.0882 125.719 48.0882 126.102 48.1975C126.484 48.2795 126.689 48.3888 126.717 48.5255C126.881 48.7988 126.799 49.2362 126.471 49.8375C126.143 50.4115 125.637 51.0265 124.954 51.6825C124.298 52.3385 123.519 52.9262 122.617 53.4455C121.168 54.2108 119.596 54.7438 117.902 55.0445C116.207 55.3725 114.69 55.5502 113.351 55.5775ZM137.936 56.0285C136.843 56.0285 135.859 55.9602 134.984 55.8235C134.137 55.7142 133.358 55.3862 132.647 54.8395C131.8 54.2108 131.199 53.3088 130.843 52.1335C130.515 50.9308 130.611 49.3592 131.13 47.4185C131.267 46.7352 131.417 46.1338 131.581 45.6145C131.773 45.0952 131.937 44.8355 132.073 44.8355C132.101 44.6988 132.142 44.5075 132.196 44.2615C132.251 43.9882 132.306 43.6738 132.36 43.3185C132.497 42.8265 132.593 42.4712 132.647 42.2525C132.702 42.0065 132.811 41.8015 132.975 41.6375C133.057 41.5828 133.153 41.4052 133.262 41.1045C133.372 40.7765 133.44 40.5852 133.467 40.5305C133.467 40.5305 133.481 40.4348 133.508 40.2435C133.536 40.0248 133.604 39.7788 133.713 39.5055C134.123 38.8222 134.328 38.3712 134.328 38.1525C134.383 38.0432 134.492 37.8792 134.656 37.6605C134.848 37.4418 134.998 37.1548 135.107 36.7995C135.927 35.3508 136.597 34.1618 137.116 33.2325C137.636 32.2758 137.95 31.5378 138.059 31.0185C138.196 30.7178 138.319 30.3625 138.428 29.9525C138.565 29.5152 138.729 29.1872 138.92 28.9685C138.866 28.8318 139.016 28.6815 139.371 28.5175C139.754 28.3535 140.246 28.1758 140.847 27.9845C141.449 27.7932 142.091 27.6292 142.774 27.4925C143.458 27.3558 144.086 27.2738 144.66 27.2465C144.824 27.1372 145.18 27.0552 145.726 27.0005C146.3 26.9458 146.956 26.9185 147.694 26.9185C148.432 26.9185 149.116 26.9458 149.744 27.0005C150.346 27.0005 150.824 27.0825 151.179 27.2465C151.535 27.4105 151.89 27.5745 152.245 27.7385C152.382 27.8752 152.573 28.0665 152.819 28.3125C153.065 28.5585 153.216 28.8182 153.27 29.0915C153.352 29.3648 153.175 29.6108 152.737 29.8295C152.655 29.9115 152.204 29.9798 151.384 30.0345C150.564 30.0892 149.703 30.1165 148.801 30.1165C147.79 30.1165 146.915 30.1985 146.177 30.3625C145.439 30.5265 144.92 30.6085 144.619 30.6085C144.237 30.7178 143.786 30.7862 143.266 30.8135C142.747 30.8408 142.487 30.8545 142.487 30.8545C142.433 30.8545 142.296 31.0185 142.077 31.3465C141.859 31.6472 141.613 32.0162 141.339 32.4535C141.093 32.8635 140.861 33.2462 140.642 33.6015C140.451 33.9568 140.355 34.1755 140.355 34.2575C140.355 34.5308 140.246 34.8315 140.027 35.1595C139.809 35.4875 139.549 35.8702 139.248 36.3075C138.975 36.6628 138.797 37.0455 138.715 37.4555C138.633 37.8382 138.715 38.0842 138.961 38.1935C139.399 38.1115 140 38.0295 140.765 37.9475C141.558 37.8655 142.337 37.7972 143.102 37.7425C143.868 37.6605 144.455 37.6195 144.865 37.6195C145.33 37.4828 145.713 37.4555 146.013 37.5375C146.314 37.6195 146.533 37.7015 146.669 37.7835C146.997 37.8382 147.189 38.0022 147.243 38.2755C147.325 38.5488 147.325 38.8222 147.243 39.0955C147.161 39.3688 147.025 39.5465 146.833 39.6285C146.669 39.7925 146.259 39.9838 145.603 40.2025C144.947 40.4212 144.168 40.6398 143.266 40.8585C142.392 41.0772 141.503 41.2822 140.601 41.4735C139.727 41.6375 138.961 41.7742 138.305 41.8835C137.677 41.9928 137.308 42.0338 137.198 42.0065C137.034 41.6238 136.843 41.6375 136.624 42.0475C136.433 42.4302 136.201 43.2228 135.927 44.4255C135.627 45.1088 135.394 45.6282 135.23 45.9835C135.094 46.3115 134.984 46.6805 134.902 47.0905C134.82 47.4732 134.697 48.0882 134.533 48.9355C134.342 49.6735 134.356 50.3432 134.574 50.9445C134.82 51.5185 135.381 52.0105 136.255 52.4205C136.802 52.5298 137.431 52.5708 138.141 52.5435C138.852 52.5162 139.795 52.3522 140.97 52.0515C141.462 51.7508 141.954 51.4775 142.446 51.2315C142.938 50.9582 143.28 50.7668 143.471 50.6575C143.608 50.6575 143.813 50.6028 144.086 50.4935C144.387 50.3568 144.592 50.2885 144.701 50.2885C144.92 49.9878 145.193 49.8375 145.521 49.8375C145.576 49.8375 145.726 49.9605 145.972 50.2065C146.246 50.4525 146.505 50.7668 146.751 51.1495C146.997 51.5322 147.12 51.9285 147.12 52.3385C147.12 52.6118 146.656 52.9672 145.726 53.4045C144.824 53.8418 143.69 54.3338 142.323 54.8805C141.64 55.1812 141.08 55.4135 140.642 55.5775C140.232 55.7415 139.836 55.8508 139.453 55.9055C139.071 55.9875 138.565 56.0285 137.936 56.0285ZM169.007 56.7255C167.449 56.9715 166.315 57.0125 165.604 56.8485C164.894 56.7118 164.279 56.3838 163.759 55.8645C163.513 55.6458 163.39 55.3452 163.39 54.9625C163.39 54.6072 163.445 54.3885 163.554 54.3065C163.773 54.1698 164.087 54.0058 164.497 53.8145C164.907 53.6232 165.686 53.4865 166.834 53.4045C168.201 53.4592 169.499 53.3088 170.729 52.9535C171.987 52.5982 173.094 52.1335 174.05 51.5595C175.007 50.9582 175.704 50.3158 176.141 49.6325C176.715 48.6485 176.975 47.8285 176.92 47.1725C176.893 46.4892 176.579 45.8468 175.977 45.2455C175.622 44.9448 175.335 44.7945 175.116 44.7945C174.898 44.7672 174.529 44.7125 174.009 44.6305C173.49 44.6305 173.08 44.6852 172.779 44.7945C172.479 44.9038 172.137 45.0678 171.754 45.2865C171.399 45.4778 171.044 45.6692 170.688 45.8605C170.36 46.0245 170.032 46.1338 169.704 46.1885C169.513 46.4345 169.199 46.6395 168.761 46.8035C168.351 46.9402 167.955 47.0085 167.572 47.0085C167.19 47.0085 166.93 46.9402 166.793 46.8035C166.575 46.8035 166.397 46.9402 166.26 47.2135C166.124 47.4868 165.864 48.0335 165.481 48.8535C165.345 49.3455 165.153 49.8648 164.907 50.4115C164.661 50.9582 164.511 51.3955 164.456 51.7235C164.019 52.7895 163.664 53.4865 163.39 53.8145C163.144 54.1425 162.885 54.3065 162.611 54.3065C162.447 54.3065 162.297 54.2245 162.16 54.0605C162.024 53.8965 161.805 53.6642 161.504 53.3635C161.286 53.3635 161.053 53.1722 160.807 52.7895C160.561 52.3795 160.575 51.8328 160.848 51.1495C161.067 50.6028 161.34 49.8785 161.668 48.9765C161.996 48.0745 162.324 47.1588 162.652 46.2295C163.008 45.2728 163.308 44.4665 163.554 43.8105C163.828 43.1272 163.992 42.7718 164.046 42.7445C164.101 42.3618 164.197 42.0885 164.333 41.9245C164.47 41.7605 164.538 41.6512 164.538 41.5965C164.593 41.4598 164.73 41.1182 164.948 40.5715C165.167 40.0248 165.399 39.4645 165.645 38.8905C165.919 38.3165 166.165 37.9202 166.383 37.7015C166.383 37.5648 166.506 37.2915 166.752 36.8815C166.998 36.4442 167.258 36.0068 167.531 35.5695C167.723 35.1595 167.914 34.6675 168.105 34.0935C168.324 33.5195 168.488 33.1368 168.597 32.9455C168.925 32.5355 169.048 32.2758 168.966 32.1665C168.884 32.0298 168.707 31.8112 168.433 31.5105C168.379 31.4558 168.324 31.2508 168.269 30.8955C168.215 30.5128 168.187 30.2668 168.187 30.1575C168.187 30.1028 168.324 29.9935 168.597 29.8295C168.871 29.6655 169.199 29.4878 169.581 29.2965C169.991 29.0778 170.374 28.8865 170.729 28.7225C171.085 28.5312 171.344 28.4082 171.508 28.3535C171.645 28.2988 171.918 28.1895 172.328 28.0255C172.766 27.8342 173.203 27.6565 173.64 27.4925C174.078 27.3285 174.378 27.2192 174.542 27.1645C174.952 27.0278 175.39 26.9322 175.854 26.8775C176.346 26.8228 176.743 26.8092 177.043 26.8365C177.754 26.5905 178.437 26.6315 179.093 26.9595C179.339 27.0415 179.667 27.2328 180.077 27.5335C180.515 27.8068 180.911 28.1212 181.266 28.4765C181.649 28.8318 181.868 29.1735 181.922 29.5015C181.977 29.8568 182.018 30.2258 182.045 30.6085C182.1 30.9638 182.018 31.3602 181.799 31.7975C181.772 32.1802 181.649 32.7132 181.43 33.3965C181.239 34.0525 181.034 34.6675 180.815 35.2415C180.597 35.8155 180.405 36.1845 180.241 36.3485C179.804 36.9772 179.394 37.6605 179.011 38.3985C178.629 39.1092 178.123 39.8062 177.494 40.4895C177.494 40.4895 177.399 40.5988 177.207 40.8175C177.016 41.0088 176.62 41.4598 176.018 42.1705C176.018 42.1705 176.251 42.1842 176.715 42.2115C177.207 42.2388 177.563 42.3208 177.781 42.4575C178.41 42.8675 178.97 43.3868 179.462 44.0155C179.982 44.6168 180.351 45.2455 180.569 45.9015C180.815 46.2295 180.897 46.6805 180.815 47.2545C180.761 47.8285 180.597 48.4298 180.323 49.0585C180.077 49.6872 179.777 50.2612 179.421 50.7805C179.257 51.1358 178.943 51.5732 178.478 52.0925C178.014 52.6118 177.576 53.0765 177.166 53.4865C176.756 53.8692 176.524 54.0605 176.469 54.0605C176.36 54.0058 176.196 54.0058 175.977 54.0605C175.759 54.1425 175.417 54.2928 174.952 54.5115C174.761 54.7302 174.542 54.9352 174.296 55.1265C174.05 55.3178 173.859 55.3862 173.722 55.3315C173.722 55.3315 173.572 55.3862 173.271 55.4955C172.971 55.6322 172.602 55.8235 172.164 56.0695C171.864 56.1515 171.399 56.2472 170.77 56.3565C170.169 56.4932 169.581 56.6162 169.007 56.7255ZM167.736 43.1955C167.764 43.2502 167.969 43.2092 168.351 43.0725C168.761 42.9358 169.24 42.7308 169.786 42.4575C170.36 42.1842 170.921 41.8835 171.467 41.5555C172.014 41.2275 172.451 40.9132 172.779 40.6125C173.162 40.3392 173.504 40.0385 173.804 39.7105C174.132 39.3825 174.392 39.0818 174.583 38.8085C174.775 38.5078 174.87 38.3165 174.87 38.2345C174.87 38.2345 174.939 38.0978 175.075 37.8245C175.212 37.5238 175.431 37.1958 175.731 36.8405C176.087 36.4852 176.36 36.1572 176.551 35.8565C176.743 35.5285 176.838 35.3235 176.838 35.2415C176.838 35.2415 176.907 35.1048 177.043 34.8315C177.18 34.5582 177.344 34.2438 177.535 33.8885C177.781 33.5605 177.973 33.1642 178.109 32.6995C178.246 32.2348 178.342 31.8932 178.396 31.6745C178.451 30.9912 178.314 30.5265 177.986 30.2805C177.686 30.0072 177.262 29.9115 176.715 29.9935C176.36 30.0482 176.005 30.1028 175.649 30.1575C175.321 30.1848 174.98 30.2395 174.624 30.3215C174.296 30.4035 173.955 30.5402 173.599 30.7315C173.162 31.0048 172.848 31.2782 172.656 31.5515C172.465 31.7975 172.533 31.9342 172.861 31.9615C173.08 31.9615 173.135 32.1528 173.025 32.5355C172.916 32.9182 172.67 33.4375 172.287 34.0935C172.178 34.3122 171.946 34.7495 171.59 35.4055C171.235 36.0615 170.825 36.8268 170.36 37.7015C169.923 38.5488 169.499 39.3825 169.089 40.2025C168.679 41.0225 168.338 41.7195 168.064 42.2935C167.818 42.8402 167.709 43.1408 167.736 43.1955ZM185.673 53.6915C185.318 53.6915 185.031 53.6232 184.812 53.4865C184.621 53.3498 184.375 53.1585 184.074 52.9125C183.555 52.3658 183.131 51.7782 182.803 51.1495C182.502 50.5208 182.393 49.9742 182.475 49.5095C182.557 49.2908 182.584 49.0858 182.557 48.8945C182.557 48.6758 182.557 48.5665 182.557 48.5665C182.42 48.4298 182.379 48.3478 182.434 48.3205C182.489 48.2658 182.543 48.1838 182.598 48.0745C182.762 48.0745 182.817 47.9242 182.762 47.6235C182.707 47.4048 182.789 46.9402 183.008 46.2295C183.254 45.4915 183.582 44.7945 183.992 44.1385C184.156 43.8652 184.402 43.5098 184.73 43.0725C185.058 42.6078 185.413 42.1568 185.796 41.7195C186.206 41.2548 186.575 40.8858 186.903 40.6125C187.586 40.0385 188.215 39.5738 188.789 39.2185C189.39 38.8632 189.992 38.6172 190.593 38.4805C191.194 38.3438 191.809 38.2755 192.438 38.2755C193.094 38.2755 193.627 38.4942 194.037 38.9315C194.666 39.2048 195.103 39.5738 195.349 40.0385C195.622 40.5032 195.8 41.1045 195.882 41.8425C195.964 42.6625 195.882 43.6738 195.636 44.8765C195.39 46.0518 194.72 47.4185 193.627 48.9765C192.944 49.9605 192.274 50.7258 191.618 51.2725C190.962 51.8192 190.238 52.3248 189.445 52.7895C188.871 53.1722 188.256 53.4045 187.6 53.4865C186.944 53.5685 186.302 53.6368 185.673 53.6915ZM189.855 48.6895C190.456 48.1702 190.88 47.5962 191.126 46.9675C191.399 46.3388 191.686 45.6008 191.987 44.7535C192.096 44.5895 192.165 44.3162 192.192 43.9335C192.247 43.5508 192.26 43.1818 192.233 42.8265C192.206 42.4438 192.11 42.2252 191.946 42.1705C191.7 41.9792 191.454 41.9382 191.208 42.0475C190.962 42.1295 190.648 42.3072 190.265 42.5805C189.445 43.2638 188.68 44.0565 187.969 44.9585C187.286 45.8332 186.807 46.9128 186.534 48.1975C186.452 48.8808 186.52 49.4002 186.739 49.7555C186.985 50.0835 187.368 50.1792 187.887 50.0425C188.434 49.8785 189.09 49.4275 189.855 48.6895ZM211.803 52.9945C211.201 52.9398 210.696 52.8168 210.286 52.6255C209.903 52.4068 209.589 51.9832 209.343 51.3545C209.233 50.9172 209.179 50.4662 209.179 50.0015C209.206 49.5095 209.247 49.0448 209.302 48.6075C209.356 48.1428 209.384 47.7465 209.384 47.4185C209.384 47.3638 209.384 47.2545 209.384 47.0905C209.384 46.9265 209.384 46.7762 209.384 46.6395C209.329 46.2295 209.22 45.9835 209.056 45.9015C208.919 45.7922 208.673 45.8058 208.318 45.9425C207.744 46.2158 207.115 46.5848 206.432 47.0495C205.776 47.4868 205.079 48.0062 204.341 48.6075C203.63 49.1815 202.892 49.7965 202.127 50.4525C201.525 51.1085 201.074 51.6415 200.774 52.0515C200.5 52.4615 200.213 52.6665 199.913 52.6665C199.694 52.7758 199.462 52.7485 199.216 52.5845C198.97 52.4205 198.71 52.2292 198.437 52.0105C198.245 51.7918 198.013 51.5185 197.74 51.1905C197.494 50.8352 197.343 50.6028 197.289 50.4935C197.289 50.0562 197.316 49.6598 197.371 49.3045C197.453 48.9492 197.562 48.5802 197.699 48.1975C197.863 47.8148 198.054 47.3775 198.273 46.8855C198.382 46.6942 198.478 46.5028 198.56 46.3115C198.669 46.0928 198.792 45.8605 198.929 45.6145C199.038 45.2318 199.188 44.7945 199.38 44.3025C199.598 43.8105 199.803 43.3458 199.995 42.9085C200.295 42.1978 200.528 41.5828 200.692 41.0635C200.856 40.5442 200.992 39.9838 201.102 39.3825C201.074 39.3278 201.088 39.2458 201.143 39.1365C201.197 39.0272 201.279 38.9588 201.389 38.9315H201.43H201.471C201.662 38.7948 202.017 38.7812 202.537 38.8905C203.083 38.9725 203.493 39.1228 203.767 39.3415C204.341 39.8335 204.614 40.4758 204.587 41.2685C204.559 42.0612 204.149 43.0998 203.357 44.3845C203.165 44.8218 202.96 45.2318 202.742 45.6145C202.55 45.9698 202.455 46.2158 202.455 46.3525C202.455 46.3525 202.564 46.2705 202.783 46.1065C203.001 45.9425 203.261 45.7512 203.562 45.5325C203.862 45.2865 204.122 45.0952 204.341 44.9585C204.477 44.8218 204.778 44.5758 205.243 44.2205C205.707 43.8378 206.213 43.4415 206.76 43.0315C207.306 42.6215 207.744 42.3072 208.072 42.0885C208.372 41.8698 208.755 41.6512 209.22 41.4325C209.684 41.1865 209.971 41.0635 210.081 41.0635C210.354 41.0635 210.682 41.1592 211.065 41.3505C211.475 41.5418 211.844 41.7742 212.172 42.0475C212.527 42.2935 212.732 42.5258 212.787 42.7445C212.787 42.8538 212.773 43.0042 212.746 43.1955C212.718 43.3595 212.705 43.5098 212.705 43.6465C212.677 44.0838 212.664 44.6168 212.664 45.2455C212.691 45.8468 212.705 46.4618 212.705 47.0905C212.705 47.6918 212.65 48.2385 212.541 48.7305C212.541 48.7305 212.554 48.7578 212.582 48.8125C212.609 48.8398 212.636 48.8945 212.664 48.9765C212.636 49.0038 212.623 49.0585 212.623 49.1405C212.65 49.1952 212.664 49.2225 212.664 49.2225C212.718 49.4138 212.773 49.6052 212.828 49.7965C212.91 49.9878 213.005 50.2065 213.115 50.4525C213.224 50.6712 213.347 50.9582 213.484 51.3135C213.456 51.6688 213.251 52.0242 212.869 52.3795C212.513 52.7075 212.158 52.9125 211.803 52.9945ZM226.521 54.2245C226.33 54.3338 226.07 54.2928 225.742 54.1015C225.441 53.9102 225.141 53.6232 224.84 53.2405C224.649 52.9125 224.498 52.5845 224.389 52.2565C224.307 51.9012 224.266 51.3818 224.266 50.6985C224.293 50.1518 224.293 49.7828 224.266 49.5915C224.266 49.3728 224.143 49.3592 223.897 49.5505C223.678 49.7145 223.227 50.1245 222.544 50.7805C221.861 51.4638 221.205 52.0515 220.576 52.5435C219.975 53.0082 219.483 53.2268 219.1 53.1995C218.909 53.1995 218.649 53.0765 218.321 52.8305C217.993 52.5845 217.679 52.2838 217.378 51.9285C217.077 51.5458 216.859 51.1905 216.722 50.8625C216.558 50.2065 216.544 49.3592 216.681 48.3205C216.845 47.2818 217.105 46.2022 217.46 45.0815C217.815 43.9335 218.212 42.8675 218.649 41.8835C219.114 40.8722 219.565 40.0658 220.002 39.4645C220.467 38.8358 220.863 38.5352 221.191 38.5625C221.656 38.6172 222.052 38.8495 222.38 39.2595C222.735 39.6422 223.009 40.0658 223.2 40.5305C223.309 40.7218 223.35 40.8858 223.323 41.0225C223.323 41.1592 223.214 41.3232 222.995 41.5145C222.749 41.8425 222.448 42.3208 222.093 42.9495C221.765 43.5508 221.423 44.2068 221.068 44.9175C220.74 45.6282 220.439 46.3115 220.166 46.9675C219.92 47.5962 219.742 48.1155 219.633 48.5255C219.524 48.9355 219.524 49.1405 219.633 49.1405C220.016 49.1405 220.371 49.0448 220.699 48.8535C221.027 48.6348 221.437 48.2932 221.929 47.8285C222.503 47.2545 223.009 46.6805 223.446 46.1065C223.883 45.5052 224.334 44.8218 224.799 44.0565C225.154 43.5098 225.523 42.9085 225.906 42.2525C226.316 41.5965 226.576 41.1318 226.685 40.8585C227.068 40.1478 227.355 39.6148 227.546 39.2595C227.737 38.9042 227.97 38.6855 228.243 38.6035C228.38 38.6035 228.571 38.6035 228.817 38.6035C229.063 38.6035 229.186 38.6035 229.186 38.6035C229.35 38.6308 229.541 38.7538 229.76 38.9725C229.979 39.0818 230.197 39.2322 230.416 39.4235C230.662 39.6148 230.785 39.7788 230.785 39.9155C230.676 40.1888 230.498 40.5988 230.252 41.1455C230.033 41.6648 229.869 42.0475 229.76 42.2935C229.241 43.4688 228.735 44.6305 228.243 45.7785C227.778 46.8992 227.437 48.0472 227.218 49.2225C227.163 49.6052 227.15 50.0562 227.177 50.5755C227.232 51.0675 227.314 51.4228 227.423 51.6415C227.505 51.8055 227.601 51.9968 227.71 52.2155C227.847 52.4068 227.997 52.5708 228.161 52.7075C228.407 52.8715 228.393 53.0765 228.12 53.3225C227.874 53.5685 227.56 53.7872 227.177 53.9785C226.822 54.1425 226.603 54.2245 226.521 54.2245ZM235.587 54.2245C234.712 54.2245 233.906 54.0332 233.168 53.6505C232.457 53.2405 231.883 52.7485 231.446 52.1745C231.008 51.5732 230.79 50.9992 230.79 50.4525C230.79 50.2065 230.831 50.0288 230.913 49.9195C231.022 49.8102 231.172 49.7555 231.364 49.7555C231.5 49.7828 231.664 49.8512 231.856 49.9605C232.047 50.0698 232.238 50.1928 232.43 50.3295C232.867 50.6302 233.345 50.8215 233.865 50.9035C234.384 50.9855 234.849 50.9582 235.259 50.8215C235.669 50.6575 235.901 50.4115 235.956 50.0835C235.956 49.9742 235.901 49.7418 235.792 49.3865C235.682 49.0312 235.546 48.6895 235.382 48.3615C234.698 47.3502 234.275 46.3935 234.111 45.4915C233.947 44.5622 233.837 43.6328 233.783 42.7035C233.783 42.3208 233.96 41.8972 234.316 41.4325C234.671 40.9405 235.108 40.4622 235.628 39.9975C236.202 39.5055 236.83 39.0408 237.514 38.6035C238.224 38.1662 238.921 37.7972 239.605 37.4965C240.288 37.1958 240.862 37.0182 241.327 36.9635C241.819 36.9635 242.338 36.9908 242.885 37.0455C243.459 37.0728 243.841 37.1685 244.033 37.3325C244.415 37.6332 244.771 38.1252 245.099 38.8085C245.427 39.4918 245.591 40.0658 245.591 40.5305C245.591 40.7492 245.468 41.0225 245.222 41.3505C245.003 41.6512 244.798 41.9928 244.607 42.3755C244.497 42.5668 244.402 42.7718 244.32 42.9905C244.238 43.2092 244.142 43.4278 244.033 43.6465C243.869 44.0292 243.568 44.1932 243.131 44.1385C242.721 44.0565 242.338 43.8378 241.983 43.4825C241.627 43.0998 241.45 42.6625 241.45 42.1705C241.45 41.7605 241.573 41.4052 241.819 41.1045C242.065 40.8038 242.188 40.5988 242.188 40.4895C242.188 40.4348 242.16 40.3938 242.106 40.3665C242.051 40.3392 241.955 40.3255 241.819 40.3255C241.627 40.3255 241.313 40.4075 240.876 40.5715C240.466 40.7082 240.028 40.9132 239.564 41.1865C239.099 41.4598 238.675 41.7878 238.293 42.1705C238.019 42.4712 237.787 42.7992 237.596 43.1545C237.432 43.4825 237.35 43.8378 237.35 44.2205C237.35 44.6032 237.418 45.0542 237.555 45.5735C237.719 46.0655 237.896 46.4755 238.088 46.8035C238.142 46.8582 238.224 47.0085 238.334 47.2545C238.47 47.4732 238.621 47.7465 238.785 48.0745C239.796 50.1518 239.96 51.6962 239.277 52.7075C238.621 53.7188 237.391 54.2245 235.587 54.2245Z" fill="white"/>
</g>
</svg>
