<svg width="100" height="100" viewBox="0 0 100 100" fill="none" xmlns="http://www.w3.org/2000/svg">
<rect width="100" height="100" rx="16" fill="white"/>
<path d="M29 18.5C25.4 18.5 22.5 21.4 22.5 25C22.5 28.6 25.4 31.5 29 31.5C32.6 31.5 35.5 28.6 35.5 25C35.5 21.4 32.6 18.5 29 18.5ZM40.5 18.5C39.65 18.5 39 19.15 39 20C39 20.85 39.65 21.5 40.5 21.5H72.5C74.45 21.5 76 23.05 76 25V55C76 55.85 76.65 56.5 77.5 56.5C78.35 56.5 79 55.85 79 55V25C79 21.4 76.1 18.5 72.5 18.5H40.5ZM29 21.5C30.95 21.5 32.5 23.05 32.5 25C32.5 26.95 30.95 28.5 29 28.5C27.05 28.5 25.5 26.95 25.5 25C25.5 23.05 27.05 21.5 29 21.5ZM25 33.5C21.4 33.5 18.5 36.4 18.5 40V55C18.5 55.85 19.15 56.5 20 56.5C20.85 56.5 21.5 55.85 21.5 55V40C21.5 38.05 23.05 36.5 25 36.5H53.5C54.35 36.5 55 35.85 55 35C55 34.15 54.35 33.5 53.5 33.5H25ZM63.5 33.5C62.65 33.5 62 34.15 62 35C62 35.85 62.65 36.5 63.5 36.5H68.5C69.35 36.5 70 35.85 70 35C70 34.15 69.35 33.5 68.5 33.5H63.5ZM35 41C34.15 41 33.5 41.65 33.5 42.5V78.5H30.5V59C30.5 58.15 29.85 57.5 29 57.5C28.15 57.5 27.5 58.15 27.5 59V78.5H24.5V57.6504C24.5 56.8004 23.85 56.1504 23 56.1504C22.15 56.1504 21.5 56.8004 21.5 57.6504V78.5H20C19.15 78.5 18.5 79.15 18.5 80C18.5 80.85 19.15 81.5 20 81.5H80C80.85 81.5 81.5 80.85 81.5 80C81.5 79.15 80.85 78.5 80 78.5H36.5V42.5C36.5 41.65 35.85 41 35 41ZM53.5 41C52.65 41 52 41.65 52 42.5C52 43.35 52.65 44 53.5 44H68.5C69.35 44 70 43.35 70 42.5C70 41.65 69.35 41 68.5 41H53.5ZM48.5 48.5C47.65 48.5 47 49.15 47 50C47 50.85 47.65 51.5 48.5 51.5H61C61.85 51.5 62.5 50.85 62.5 50C62.5 49.15 61.85 48.5 61 48.5H48.5ZM68.5 48.5C68.1022 48.5 67.7206 48.658 67.4393 48.9393C67.158 49.2206 67 49.6022 67 50C67 50.3978 67.158 50.7794 67.4393 51.0607C67.7206 51.342 68.1022 51.5 68.5 51.5C68.8978 51.5 69.2794 51.342 69.5607 51.0607C69.842 50.7794 70 50.3978 70 50C70 49.6022 69.842 49.2206 69.5607 48.9393C69.2794 48.658 68.8978 48.5 68.5 48.5ZM61.5498 55C60.6998 55 60.0498 55.65 60.0498 56.5C60.0498 57.35 60.6998 58 61.5498 58H64.5498H64.6504H64.75C65.45 58 66 58.55 66 59.25V60C66 60.85 66.65 61.5 67.5 61.5H80C80.85 61.5 81.5 60.85 81.5 60C81.5 59.15 80.85 58.5 80 58.5H68.9502C68.6002 56.5 66.85 55 64.75 55H64.6504H64.5498H61.5498ZM42.5 58.5C41.65 58.5 41 59.15 41 60C41 60.85 41.65 61.5 42.5 61.5H58.5C59.35 61.5 60 60.85 60 60C60 59.15 59.35 58.5 58.5 58.5H42.5Z" fill="#303030"/>
</svg>
