<svg width="20" height="20" viewBox="0 0 20 20" fill="none" xmlns="http://www.w3.org/2000/svg">
<path d="M10 20C15.514 20 20 15.514 20 10C20 4.486 15.514 0 10 0C4.486 0 0 4.486 0 10C0 15.514 4.486 20 10 20ZM6.25 9.25H11.9395L10.22 7.5305C9.927 7.2375 9.927 6.763 10.22 6.47C10.513 6.177 10.9875 6.177 11.2805 6.47L14.2805 9.47C14.5735 9.763 14.5735 10.2375 14.2805 10.5305L11.2805 13.5305C11.134 13.677 10.942 13.75 10.75 13.75C10.558 13.75 10.366 13.677 10.2195 13.5305C9.9265 13.2375 9.9265 12.763 10.2195 12.47L11.939 10.7505H6.25C5.836 10.7505 5.5 10.4145 5.5 10.0005C5.5 9.5865 5.836 9.25 6.25 9.25Z" fill="#FFC230"/>
</svg>
