<svg width="24" height="25" viewBox="0 0 24 25" fill="none" xmlns="http://www.w3.org/2000/svg">
<path d="M21.5478 10.1198C21.7565 10.9546 21.913 11.7894 21.913 12.7285C21.913 18.2068 17.4783 22.6416 12 22.6416C6.52174 22.6416 2.08696 18.2068 2.08696 12.7285C2.08696 7.25026 6.52174 2.81547 12 2.81547C14.2435 2.81547 16.3304 3.59808 18 4.85026L19.513 3.33721C17.4783 1.66765 14.8696 0.728516 12.0522 0.728516C5.37391 0.728516 0 6.10243 0 12.7285C0 19.3546 5.37391 24.7285 12 24.7285C18.6261 24.7285 24 19.3546 24 12.7285C24 11.2155 23.7391 9.80678 23.2174 8.50243L21.5478 10.1198Z" fill="#BEBEBE"/>
<path d="M11.7403 17.7365L6.57503 12.5713C5.94895 11.9452 5.94895 10.9539 6.57503 10.38L7.67069 9.28436L11.6881 13.3017L20.8707 4.11914L21.9663 5.21479C22.5924 5.84088 22.5924 6.83218 21.9663 7.4061L11.7403 17.7365Z" fill="#FFC230"/>
<path d="M11.7399 13.3032C11.166 13.8772 10.0703 14.9728 10.0703 14.9728L10.6964 12.2598L11.7399 13.3032Z" fill="#FFC230"/>
</svg>
