<svg width="276" height="276" viewBox="0 0 276 276" fill="none" xmlns="http://www.w3.org/2000/svg">
<path d="M260.514 142.112C259.642 139.924 259.642 136.339 260.514 134.15L264.642 123.751C265.513 121.562 265.035 118.252 263.587 116.398L256.7 107.584C255.252 105.729 254.242 102.289 254.459 99.943L255.487 88.8027C255.704 86.4567 254.314 83.4161 252.401 82.0465L243.306 75.5261C241.392 74.1565 239.452 71.1421 239 68.8288L236.851 57.8523C236.399 55.5391 234.21 53.0161 231.989 52.2363L221.425 48.5469C219.204 47.7671 216.497 45.4211 215.41 43.3306L210.252 33.4026C209.165 31.3122 206.353 29.5035 204.001 29.3856L192.828 28.822C190.476 28.7041 187.219 27.2165 185.587 25.5127L177.842 17.4392C176.21 15.742 173.005 14.7983 170.712 15.3488L159.834 17.9569C157.541 18.5074 153.995 17.9962 151.951 16.8232L142.246 11.2596C140.201 10.0866 136.859 10.0866 134.815 11.2596L125.11 16.8232C123.065 17.9962 119.52 18.5074 117.233 17.9569L106.349 15.3488C104.062 14.7983 100.851 15.742 99.2193 17.4392L91.4737 25.5127C89.842 27.2099 86.5852 28.7041 84.2327 28.822L73.0599 29.3856C70.7074 29.5035 67.8962 31.3122 66.8084 33.4026L61.6512 43.3306C60.57 45.4211 57.857 47.7671 55.6356 48.5469L45.0722 52.2363C42.8508 53.0096 40.6621 55.5391 40.2034 57.8523L38.054 68.8288C37.6019 71.1421 35.6622 74.1565 33.7487 75.5261L24.6532 82.0465C22.7398 83.4161 21.3506 86.4567 21.5668 88.8027L22.5956 99.943C22.8119 102.289 21.8027 105.729 20.3545 107.584L13.4674 116.398C12.0192 118.252 11.5408 121.562 12.4123 123.751L16.5407 134.15C17.4122 136.339 17.4122 139.924 16.5407 142.112L12.4123 152.512C11.5408 154.701 12.0192 158.01 13.4674 159.865L20.3545 168.679C21.8027 170.533 22.8119 173.974 22.5956 176.32L21.5668 187.46C21.3506 189.806 22.7398 192.847 24.6532 194.216L33.7487 200.73C35.6622 202.1 37.6019 205.114 38.054 207.427L40.2034 218.404C40.6555 220.717 42.8442 223.24 45.0722 224.02L55.6356 227.709C57.857 228.489 60.57 230.835 61.6512 232.926L66.8084 242.854C67.8962 244.944 70.7074 246.753 73.0599 246.871L84.2327 247.434C86.5852 247.552 89.842 249.04 91.4737 250.743L99.2193 258.817C100.851 260.514 104.055 261.458 106.349 260.907L117.233 258.299C119.52 257.749 123.072 258.26 125.11 259.433L134.815 264.997C136.859 266.17 140.201 266.17 142.246 264.997L151.951 259.433C153.995 258.26 157.541 257.749 159.834 258.299L170.712 260.907C173.005 261.458 176.21 260.514 177.842 258.817L185.587 250.743C187.219 249.046 190.476 247.552 192.828 247.434L204.001 246.871C206.353 246.753 209.165 244.944 210.252 242.854L215.41 232.926C216.497 230.835 219.204 228.489 221.425 227.709L231.989 224.02C234.21 223.24 236.399 220.717 236.851 218.404L239 207.427C239.452 205.114 241.392 202.1 243.306 200.73L252.401 194.216C254.314 192.847 255.704 189.799 255.487 187.46L254.459 176.32C254.242 173.974 255.252 170.54 256.7 168.679L263.587 159.865C265.035 158.01 265.513 154.701 264.642 152.512L260.514 142.112Z" fill="#FFC230"/>
<path d="M127.764 252.167C127.66 252.167 127.565 252.167 127.461 252.151C126.63 252.071 125.936 251.712 125.409 251.089C124.874 250.458 124.634 249.724 124.714 248.901C124.802 247.967 125.169 247.248 125.824 246.761C126.375 246.346 126.99 246.139 127.66 246.139C127.764 246.139 127.868 246.139 127.972 246.155C128.786 246.234 129.473 246.562 130.008 247.145C130.567 247.736 130.798 248.518 130.71 249.46C130.639 250.267 130.279 250.945 129.656 251.472C129.114 251.935 128.475 252.175 127.764 252.175V252.167Z" fill="url(#paint0_linear_551_13187)"/>
<path d="M127.924 246.578C128.627 246.642 129.217 246.93 129.689 247.433C130.16 247.936 130.359 248.598 130.279 249.421C130.215 250.115 129.912 250.69 129.377 251.145C128.842 251.6 128.211 251.792 127.493 251.728C126.774 251.664 126.183 251.353 125.72 250.818C125.257 250.275 125.058 249.652 125.13 248.942C125.201 248.135 125.513 247.52 126.064 247.105C126.615 246.69 127.229 246.514 127.916 246.578H127.924Z" fill="white"/>
<path d="M109.231 248.87C108.968 248.87 108.697 248.838 108.425 248.758C107.619 248.542 107.004 248.071 106.581 247.361C106.158 246.642 106.054 245.884 106.269 245.085C106.509 244.183 106.996 243.536 107.722 243.161C108.178 242.929 108.649 242.81 109.128 242.81C109.399 242.81 109.671 242.85 109.942 242.921C110.725 243.129 111.347 243.576 111.786 244.239C112.234 244.917 112.337 245.724 112.09 246.642C111.874 247.424 111.419 248.031 110.717 248.446C110.253 248.726 109.758 248.862 109.239 248.862L109.231 248.87Z" fill="url(#paint1_linear_551_13187)"/>
<path d="M109.823 243.345C110.51 243.528 111.037 243.912 111.42 244.486C111.795 245.061 111.883 245.748 111.667 246.546C111.484 247.217 111.092 247.736 110.486 248.095C109.879 248.455 109.232 248.542 108.53 248.359C107.835 248.167 107.3 247.776 106.941 247.161C106.581 246.546 106.486 245.9 106.669 245.213C106.877 244.431 107.292 243.88 107.899 243.56C108.514 243.241 109.144 243.177 109.815 243.353L109.823 243.345Z" fill="white"/>
<path d="M91.4819 242.466C91.0668 242.466 90.6436 242.371 90.2284 242.179C89.4699 241.828 88.935 241.261 88.6475 240.494C88.3521 239.72 88.3761 238.945 88.7274 238.203C89.1186 237.356 89.7094 236.797 90.4839 236.558C90.7953 236.462 91.1147 236.406 91.426 236.406C91.8572 236.406 92.2963 236.502 92.7115 236.694C93.4461 237.037 93.981 237.58 94.3004 238.307C94.6277 239.049 94.5878 239.863 94.1966 240.726C93.8533 241.46 93.2944 241.987 92.5359 242.275C92.1925 242.402 91.8412 242.474 91.4899 242.474L91.4819 242.466Z" fill="url(#paint2_linear_551_13187)"/>
<path d="M92.5284 237.077C93.1751 237.372 93.6302 237.843 93.9097 238.474C94.1891 239.105 94.1492 239.799 93.8059 240.542C93.5104 241.173 93.0394 241.62 92.3767 241.867C91.722 242.115 91.0593 242.091 90.4046 241.787C89.7499 241.484 89.2947 241.005 89.0392 240.334C88.7838 239.672 88.8077 239.017 89.1031 238.37C89.4464 237.636 89.9415 237.157 90.5962 236.949C91.2509 236.741 91.8896 236.781 92.5204 237.069L92.5284 237.077Z" fill="white"/>
<path d="M75.1388 233.205C74.5559 233.205 73.997 233.021 73.4861 232.67C72.7994 232.199 72.3683 231.552 72.2086 230.746C72.0489 229.931 72.2086 229.181 72.6717 228.494C73.1986 227.728 73.8773 227.28 74.6757 227.169C74.8274 227.145 74.9791 227.137 75.1228 227.137C75.7376 227.137 76.3205 227.32 76.8474 227.68C77.5181 228.143 77.9572 228.766 78.1489 229.532C78.3485 230.322 78.1728 231.113 77.6379 231.895C77.1828 232.566 76.544 232.981 75.7376 233.141C75.538 233.181 75.3384 233.205 75.1388 233.205Z" fill="url(#paint3_linear_551_13187)"/>
<path d="M76.6095 228.031C77.1924 228.43 77.5676 228.965 77.7353 229.635C77.903 230.306 77.7513 230.977 77.2882 231.663C76.897 232.238 76.354 232.598 75.6594 232.733C74.9648 232.869 74.326 232.733 73.7272 232.326C73.1364 231.919 72.7691 231.368 72.6254 230.665C72.4896 229.971 72.6254 229.324 73.0166 228.741C73.4797 228.07 74.0466 227.687 74.7252 227.591C75.4039 227.496 76.0347 227.647 76.6015 228.031H76.6095Z" fill="white"/>
<path d="M60.7435 221.372H60.6557C59.8732 221.372 59.1866 221.092 58.6037 220.533C58.0049 219.959 57.6855 219.24 57.6616 218.418C57.6376 217.587 57.9171 216.869 58.4919 216.278C59.1147 215.631 59.8253 215.304 60.6078 215.304H60.6956C61.494 215.328 62.1807 215.623 62.7555 216.174C63.3384 216.741 63.6657 217.428 63.7296 218.218C63.7935 219.024 63.4901 219.783 62.8354 220.47C62.2685 221.052 61.5739 221.364 60.7595 221.388L60.7435 221.372Z" fill="url(#paint4_linear_551_13187)"/>
<path d="M62.452 216.469C62.963 216.964 63.2424 217.555 63.2983 218.241C63.3542 218.928 63.0907 219.567 62.5159 220.158C62.0288 220.661 61.438 220.924 60.7354 220.94C60.0327 220.964 59.418 220.717 58.899 220.222C58.38 219.719 58.1085 219.112 58.0926 218.401C58.0766 217.691 58.3081 217.076 58.8032 216.565C59.3701 215.982 59.9928 215.702 60.6795 215.718C61.3661 215.734 61.957 215.99 62.452 216.469Z" fill="white"/>
<path d="M48.3765 207.304C48.2328 207.304 48.0811 207.296 47.9294 207.272C47.115 207.16 46.4523 206.761 45.9573 206.09C45.4623 205.419 45.2707 204.661 45.3824 203.846C45.4942 203.024 45.8934 202.361 46.5561 201.874C47.139 201.443 47.7458 201.228 48.3606 201.228C48.5362 201.228 48.7119 201.244 48.8875 201.275C49.67 201.435 50.3008 201.834 50.7718 202.473C51.2509 203.128 51.4585 203.862 51.3866 204.653C51.3148 205.459 50.8916 206.154 50.1251 206.721C49.5981 207.112 49.0073 207.304 48.3765 207.304Z" fill="url(#paint5_linear_551_13187)"/>
<path d="M50.4271 202.721C50.8502 203.296 51.0259 203.919 50.962 204.605C50.8981 205.292 50.5389 205.883 49.8762 206.37C49.3173 206.785 48.6865 206.945 47.9839 206.849C47.2813 206.753 46.7224 206.41 46.2992 205.835C45.8681 205.252 45.7084 204.613 45.8042 203.903C45.9 203.2 46.2353 202.633 46.8102 202.21C47.4649 201.731 48.1276 201.555 48.8063 201.691C49.4849 201.827 50.0199 202.17 50.4351 202.721H50.4271Z" fill="white"/>
<path d="M38.5473 191.335C38.2439 191.335 37.9245 191.287 37.6131 191.183C36.8307 190.936 36.2478 190.433 35.8646 189.69C35.4893 188.948 35.4254 188.173 35.6729 187.383C35.9205 186.592 36.4235 186.001 37.158 185.634C37.6451 185.387 38.1321 185.259 38.6032 185.259C38.9225 185.259 39.2499 185.323 39.5533 185.434C40.2958 185.722 40.8547 186.225 41.206 186.927C41.5733 187.654 41.6532 188.413 41.4536 189.179C41.238 189.97 40.703 190.584 39.8567 191.007C39.4255 191.223 38.9784 191.335 38.5233 191.335H38.5473Z" fill="url(#paint6_linear_551_13187)"/>
<path d="M40.8387 187.119C41.1581 187.749 41.2299 188.404 41.0543 189.067C40.8786 189.73 40.4235 190.249 39.689 190.624C39.0662 190.935 38.4195 190.991 37.7488 190.776C37.0781 190.56 36.5831 190.137 36.2557 189.49C35.9284 188.843 35.8805 188.181 36.0961 187.502C36.3116 186.823 36.7348 186.328 37.3656 186.009C38.0921 185.642 38.7788 185.586 39.4175 185.825C40.0642 186.073 40.5353 186.504 40.8467 187.111L40.8387 187.119Z" fill="white"/>
<path d="M31.5065 173.881C31.0434 173.881 30.5803 173.761 30.1412 173.538C29.4146 173.162 28.9196 172.564 28.6721 171.765C28.4326 170.967 28.4965 170.192 28.8797 169.466C29.2629 168.731 29.8538 168.236 30.6442 167.997C30.9955 167.893 31.3389 167.837 31.6662 167.837C32.1612 167.837 32.6243 167.965 33.0395 168.212C33.7182 168.611 34.1892 169.202 34.4208 169.969C34.6603 170.743 34.6124 171.51 34.285 172.228C33.9417 172.971 33.311 173.49 32.4087 173.761C32.1133 173.849 31.8099 173.897 31.5145 173.897L31.5065 173.881Z" fill="url(#paint7_linear_551_13187)"/>
<path d="M34.0055 170.081C34.2131 170.76 34.1732 171.415 33.8857 172.037C33.5983 172.66 33.0634 173.099 32.2729 173.339C31.6022 173.546 30.9555 173.482 30.3327 173.163C29.71 172.836 29.2868 172.333 29.0792 171.646C28.8716 170.951 28.9275 170.297 29.2549 169.666C29.5822 169.035 30.0852 168.612 30.7639 168.404C31.5384 168.165 32.225 168.221 32.8158 168.572C33.4067 168.923 33.8059 169.426 34.0055 170.081Z" fill="white"/>
<path d="M27.5212 155.429C26.8745 155.429 26.2756 155.222 25.7407 154.815C25.086 154.32 24.7027 153.649 24.5989 152.819C24.4951 151.996 24.6947 151.238 25.1898 150.583C25.6928 149.92 26.3635 149.537 27.1779 149.433C27.3455 149.409 27.5132 149.401 27.6649 149.401C28.3835 149.401 28.9983 149.617 29.5013 150.048C30.1081 150.567 30.4594 151.222 30.5632 152.012C30.667 152.819 30.4913 153.561 30.0442 154.216C29.5811 154.887 28.8705 155.286 27.9364 155.406C27.8006 155.422 27.6649 155.429 27.5292 155.429H27.5212Z" fill="url(#paint8_linear_551_13187)"/>
<path d="M30.1407 152.069C30.2285 152.771 30.0768 153.41 29.6936 153.977C29.3023 154.544 28.7035 154.879 27.8811 154.983C27.1865 155.071 26.5637 154.903 25.9969 154.48C25.438 154.057 25.1106 153.482 25.0148 152.771C24.927 152.053 25.0946 151.414 25.5258 150.847C25.9569 150.28 26.5238 149.953 27.2264 149.857C28.0328 149.753 28.6955 149.929 29.2225 150.376C29.7495 150.823 30.0529 151.39 30.1407 152.069Z" fill="white"/>
<path d="M26.7944 136.754H26.6267C25.8203 136.722 25.1256 136.403 24.5588 135.812C23.9999 135.213 23.7284 134.487 23.7603 133.656C23.7923 132.826 24.1116 132.115 24.7105 131.549C25.2853 131.014 25.964 130.742 26.7305 130.742H26.8582C27.7924 130.782 28.5269 131.117 29.0459 131.74C29.5569 132.347 29.7964 133.058 29.7725 133.848C29.7405 134.662 29.4451 135.365 28.8942 135.94C28.3593 136.491 27.6567 136.77 26.7864 136.77L26.7944 136.754Z" fill="url(#paint9_linear_551_13187)"/>
<path d="M29.357 133.825C29.3251 134.535 29.0776 135.134 28.5985 135.629C28.1194 136.124 27.4727 136.356 26.6503 136.324C25.9557 136.292 25.3649 136.028 24.8778 135.517C24.3908 135.006 24.1672 134.392 24.1912 133.665C24.2231 132.946 24.4946 132.34 25.0136 131.853C25.5325 131.366 26.1473 131.134 26.85 131.158C27.6643 131.19 28.2871 131.469 28.7342 131.996C29.1814 132.523 29.3889 133.13 29.357 133.817V133.825Z" fill="white"/>
<path d="M29.205 118.127C28.9655 118.127 28.702 118.095 28.4385 118.039C27.6481 117.872 27.0093 117.44 26.5622 116.762C26.1071 116.083 25.9634 115.317 26.139 114.502C26.3147 113.688 26.7458 113.041 27.4325 112.586C27.9355 112.251 28.4784 112.083 29.0453 112.083C29.2529 112.083 29.4685 112.107 29.684 112.155C30.6022 112.346 31.2729 112.802 31.6801 113.504C32.0793 114.191 32.2071 114.933 32.0394 115.708C31.8717 116.506 31.4645 117.145 30.8258 117.616C30.3627 117.959 29.8198 118.135 29.213 118.135L29.205 118.127Z" fill="url(#paint10_linear_551_13187)"/>
<path d="M31.6249 115.612C31.4812 116.307 31.1299 116.858 30.571 117.265C30.0201 117.672 29.3334 117.792 28.527 117.624C27.8404 117.481 27.3054 117.113 26.9142 116.531C26.523 115.948 26.4032 115.301 26.5469 114.59C26.6986 113.888 27.0659 113.337 27.6567 112.938C28.2476 112.538 28.8943 112.419 29.5889 112.562C30.3873 112.73 30.9542 113.113 31.3055 113.704C31.6568 114.295 31.7527 114.934 31.6169 115.604L31.6249 115.612Z" fill="white"/>
<path d="M34.6185 100.171C34.2273 100.171 33.8041 100.083 33.381 99.9153C32.6225 99.6119 32.0716 99.0849 31.7442 98.3344C31.4089 97.5918 31.4009 96.8174 31.7043 96.0349C32.0157 95.2604 32.5506 94.7015 33.3011 94.3582C33.6924 94.1826 34.0996 94.0947 34.5068 94.0947C34.874 94.0947 35.2413 94.1666 35.6006 94.3103C36.4709 94.6536 37.0537 95.2125 37.3412 95.971C37.6206 96.7136 37.6126 97.4641 37.3252 98.2066C37.0298 98.9571 36.5108 99.524 35.8002 99.8833C35.4329 100.067 35.0337 100.163 34.6185 100.163V100.171Z" fill="url(#paint11_linear_551_13187)"/>
<path d="M36.9276 98.0549C36.6641 98.7176 36.225 99.1966 35.6102 99.508C34.9954 99.8194 34.3008 99.8194 33.5343 99.516C32.8876 99.2605 32.4165 98.8054 32.1291 98.1666C31.8416 97.5199 31.8337 96.8652 32.0971 96.1945C32.3606 95.5239 32.8237 95.0448 33.4704 94.7574C34.1172 94.4699 34.7799 94.454 35.4346 94.7174C36.1931 95.0129 36.6881 95.4919 36.9276 96.1307C37.1672 96.7774 37.1672 97.4161 36.9117 98.0549H36.9276Z" fill="white"/>
<path d="M42.9391 83.3719C42.4042 83.3719 41.8533 83.2043 41.3103 82.8689C40.6157 82.4458 40.1686 81.831 39.961 81.0405C39.7614 80.2421 39.8812 79.4836 40.3123 78.765C40.7435 78.0544 41.3742 77.5913 42.1726 77.3917C42.4281 77.3278 42.6836 77.2959 42.9311 77.2959C43.4581 77.2959 43.9691 77.4396 44.4402 77.735C45.2386 78.2221 45.7177 78.8768 45.8694 79.6672C46.0211 80.4497 45.8853 81.1842 45.4781 81.8629C45.055 82.5575 44.4561 83.0286 43.6976 83.2601C43.4501 83.34 43.1866 83.3719 42.9311 83.3719H42.9391Z" fill="url(#paint12_linear_551_13187)"/>
<path d="M45.1187 81.6394C44.7514 82.2462 44.2324 82.6454 43.5777 82.853C42.915 83.0526 42.2364 82.9408 41.5337 82.5097C40.9349 82.1504 40.5517 81.6234 40.376 80.9447C40.2004 80.2661 40.3042 79.6114 40.6794 78.9966C41.0547 78.3818 41.5896 77.9826 42.2763 77.8069C42.9629 77.6313 43.6176 77.7271 44.2244 78.0944C44.9191 78.5175 45.3343 79.0684 45.462 79.7391C45.5897 80.4178 45.478 81.0485 45.1187 81.6314V81.6394Z" fill="white"/>
<path d="M53.9178 68.2575C53.2392 68.2575 52.5765 67.986 51.9697 67.4591C51.3549 66.9241 51.0116 66.2455 50.9477 65.4311C50.8758 64.6167 51.1233 63.8821 51.6743 63.2434C52.2252 62.6126 52.9118 62.2613 53.7342 62.1974C53.822 62.1974 53.9099 62.1895 53.9977 62.1895C54.7163 62.1895 55.363 62.437 55.9139 62.916C56.6165 63.5228 56.9838 64.2494 57.0078 65.0558C57.0237 65.8542 56.7682 66.5568 56.2492 67.1557C55.7143 67.7705 55.0436 68.1377 54.2532 68.2335C54.1414 68.2495 54.0296 68.2575 53.9099 68.2575H53.9178Z" fill="url(#paint13_linear_551_13187)"/>
<path d="M55.9292 66.8761C55.4662 67.411 54.8913 67.7224 54.2046 67.8102C53.518 67.8981 52.8713 67.6745 52.2485 67.1316C51.7215 66.6765 51.4261 66.0936 51.3702 65.391C51.3143 64.6884 51.5219 64.0656 51.993 63.5227C52.4641 62.9798 53.0549 62.6764 53.7655 62.6205C54.4761 62.5646 55.0989 62.7642 55.6338 63.2353C56.2486 63.7702 56.56 64.377 56.576 65.0637C56.5919 65.7503 56.3764 66.3571 55.9213 66.8761H55.9292Z" fill="white"/>
<path d="M67.2676 55.2114H67.1398C66.3254 55.1795 65.6148 54.7883 65.008 54.0617C64.489 53.4389 64.2655 52.7044 64.3373 51.89C64.4092 51.0676 64.7685 50.3889 65.4152 49.854C65.9821 49.3909 66.6288 49.1514 67.3394 49.1514C67.4352 49.1514 67.531 49.1514 67.6268 49.1673C68.4492 49.2392 69.1359 49.5985 69.6628 50.2372C70.2537 50.9638 70.5012 51.7303 70.3814 52.5367C70.2696 53.3271 69.9024 53.9739 69.2876 54.4849C68.6967 54.9719 68.0181 55.2194 67.2755 55.2194L67.2676 55.2114Z" fill="url(#paint14_linear_551_13187)"/>
<path d="M69.0057 54.1414C68.4548 54.5885 67.84 54.8041 67.1533 54.7802C66.4667 54.7562 65.8599 54.4209 65.3329 53.7821C64.8858 53.2472 64.6942 52.6244 64.7581 51.9218C64.8219 51.2192 65.1253 50.6363 65.6842 50.1812C66.2431 49.7261 66.8739 49.5265 67.5845 49.5824C68.2951 49.6463 68.878 49.9497 69.3251 50.4926C69.844 51.1234 70.0516 51.7781 69.9478 52.4567C69.852 53.1354 69.5327 53.6943 69.0057 54.1334V54.1414Z" fill="white"/>
<path d="M82.7167 44.5443C82.5011 44.5443 82.2775 44.5203 82.062 44.4724C81.2635 44.3047 80.6248 43.8017 80.1537 42.9793C79.7545 42.2767 79.6507 41.5262 79.8583 40.7278C80.0659 39.9373 80.537 39.3226 81.2635 38.9074C81.7426 38.6359 82.2536 38.4922 82.7726 38.4922C83.0281 38.4922 83.2915 38.5241 83.555 38.596C84.3534 38.8036 84.9682 39.2746 85.3834 39.9932C85.8465 40.7996 85.9583 41.6061 85.7108 42.3725C85.4712 43.131 84.9922 43.7139 84.3055 44.1051C83.8025 44.3926 83.2756 44.5363 82.7247 44.5363L82.7167 44.5443Z" fill="url(#paint15_linear_551_13187)"/>
<path d="M84.0804 43.738C83.4656 44.0894 82.8189 44.1931 82.1482 44.0574C81.4695 43.9137 80.9346 43.4905 80.5194 42.7719C80.1761 42.1651 80.0883 41.5184 80.2639 40.8398C80.4396 40.1611 80.8388 39.6421 81.4695 39.2828C82.0923 38.9235 82.755 38.8357 83.4416 39.0114C84.1283 39.187 84.6553 39.5862 85.0066 40.201C85.4138 40.9036 85.5096 41.5903 85.294 42.245C85.0784 42.8997 84.6792 43.4027 84.0804 43.738Z" fill="white"/>
<path d="M99.7213 36.6162C99.338 36.6162 98.9468 36.5443 98.5715 36.3926C97.813 36.0892 97.2701 35.4904 96.9427 34.6041C96.6633 33.8456 96.6952 33.0792 97.0306 32.3366C97.3659 31.5941 97.9328 31.0671 98.7232 30.7797C99.0825 30.6519 99.4418 30.5801 99.7931 30.5801C100.208 30.5801 100.631 30.6759 101.031 30.8515C101.781 31.1949 102.308 31.7538 102.596 32.5362C102.915 33.4145 102.891 34.2209 102.516 34.9395C102.148 35.6421 101.582 36.1371 100.839 36.4086C100.464 36.5443 100.089 36.6162 99.7213 36.6162Z" fill="url(#paint16_linear_551_13187)"/>
<path d="M100.689 36.0095C100.018 36.249 99.3712 36.249 98.7245 35.9935C98.0857 35.738 97.6226 35.227 97.3352 34.4525C97.0957 33.7978 97.1196 33.1511 97.407 32.5044C97.6945 31.8656 98.1815 31.4185 98.8522 31.171C99.5309 30.9235 100.194 30.9474 100.84 31.2349C101.487 31.5303 101.934 32.0093 102.182 32.672C102.461 33.4385 102.445 34.1252 102.126 34.732C101.806 35.3388 101.327 35.7619 100.681 36.0015L100.689 36.0095Z" fill="white"/>
<path d="M117.887 31.6658C117.32 31.6658 116.77 31.5141 116.274 31.2027C115.58 30.7796 115.141 30.0929 114.973 29.1667C114.829 28.3683 114.989 27.6258 115.444 26.9471C115.899 26.2685 116.554 25.8453 117.376 25.6936C117.576 25.6616 117.776 25.6377 117.959 25.6377C118.558 25.6377 119.125 25.8133 119.636 26.1647C120.322 26.6277 120.746 27.2745 120.897 28.0889C121.065 29.0071 120.897 29.7975 120.41 30.4442C119.923 31.075 119.285 31.4662 118.51 31.6099C118.302 31.6498 118.095 31.6658 117.895 31.6658H117.887Z" fill="url(#paint17_linear_551_13187)"/>
<path d="M118.43 31.1862C117.736 31.3139 117.089 31.2022 116.498 30.8429C115.907 30.4836 115.54 29.9007 115.396 29.0863C115.268 28.3997 115.404 27.7609 115.795 27.1781C116.187 26.5952 116.738 26.236 117.448 26.1082C118.159 25.9805 118.805 26.1082 119.396 26.5074C119.987 26.9066 120.346 27.4575 120.474 28.1522C120.618 28.9506 120.482 29.6293 120.067 30.1722C119.652 30.7151 119.101 31.0584 118.43 31.1782V31.1862Z" fill="white"/>
<path d="M136.466 29.8531C135.684 29.8531 134.981 29.5976 134.398 29.0946C133.783 28.5597 133.464 27.8172 133.448 26.867C133.432 26.0606 133.711 25.35 134.27 24.7512C134.837 24.1524 135.548 23.849 136.378 23.833H136.386C137.248 23.833 137.951 24.1125 138.534 24.6634C139.133 25.2303 139.444 25.9329 139.46 26.7632C139.476 27.6974 139.181 28.4559 138.59 29.0068C138.007 29.5497 137.312 29.8372 136.522 29.8452H136.458L136.466 29.8531Z" fill="url(#paint18_linear_551_13187)"/>
<path d="M136.522 29.4295C135.811 29.4375 135.197 29.2219 134.678 28.7748C134.159 28.3277 133.887 27.6889 133.871 26.8666C133.863 26.1719 134.095 25.5651 134.582 25.0541C135.069 24.5431 135.668 24.2797 136.386 24.2717C137.105 24.2637 137.728 24.4952 138.247 24.9903C138.766 25.4773 139.029 26.0761 139.037 26.7867C139.053 27.6011 138.806 28.2399 138.303 28.7109C137.8 29.182 137.209 29.4215 136.522 29.4375V29.4295Z" fill="white"/>
<path d="M155.317 31.1709C155.157 31.1709 154.989 31.1629 154.822 31.1309C154.015 31.0032 153.353 30.6279 152.85 30.0211C152.331 29.3904 152.139 28.5999 152.291 27.6658C152.418 26.8674 152.81 26.2126 153.464 25.7256C153.983 25.3344 154.566 25.1348 155.197 25.1348C155.365 25.1348 155.524 25.1507 155.7 25.1747C156.522 25.3024 157.193 25.7016 157.68 26.3564C158.175 27.0191 158.367 27.7696 158.239 28.584C158.095 29.5101 157.68 30.2048 157.009 30.6519C156.49 30.9952 155.924 31.1709 155.325 31.1709H155.317Z" fill="url(#paint19_linear_551_13187)"/>
<path d="M154.886 30.707C154.184 30.5952 153.617 30.2759 153.178 29.7489C152.739 29.2219 152.579 28.5433 152.707 27.7289C152.811 27.0422 153.146 26.4833 153.713 26.0602C154.272 25.637 154.91 25.4853 155.629 25.5891C156.34 25.7009 156.914 26.0362 157.338 26.6111C157.769 27.178 157.928 27.8167 157.817 28.5193C157.689 29.3257 157.346 29.9166 156.771 30.2918C156.196 30.6751 155.573 30.8108 154.894 30.707H154.886Z" fill="white"/>
<path d="M173.586 35.6177C173.258 35.6177 172.923 35.5618 172.596 35.45C171.821 35.1865 171.23 34.7155 170.839 34.0208C170.44 33.3182 170.384 32.5038 170.688 31.6016C170.943 30.8351 171.446 30.2522 172.173 29.885C172.596 29.6694 173.043 29.5576 173.49 29.5576C173.809 29.5576 174.137 29.6135 174.464 29.7253C175.255 29.9888 175.845 30.4998 176.221 31.2263C176.596 31.9609 176.66 32.7354 176.396 33.5178C176.093 34.4041 175.566 35.0189 174.831 35.3462C174.424 35.5219 174.009 35.6177 173.586 35.6177Z" fill="url(#paint20_linear_551_13187)"/>
<path d="M172.73 35.051C172.06 34.8275 171.549 34.4123 171.205 33.8135C170.862 33.2147 170.822 32.528 171.086 31.7456C171.309 31.0829 171.732 30.5958 172.363 30.2685C172.994 29.9491 173.649 29.9012 174.327 30.1327C175.014 30.3643 175.517 30.7954 175.836 31.4262C176.164 32.0569 176.212 32.7117 175.988 33.3823C175.733 34.1488 175.285 34.6758 174.655 34.9552C174.024 35.2347 173.385 35.2586 172.73 35.0431V35.051Z" fill="white"/>
<path d="M190.815 43.0993C190.32 43.0993 189.833 42.9715 189.37 42.724C188.651 42.3408 188.148 41.7659 187.877 41.0234C187.597 40.2649 187.685 39.4505 188.132 38.6121C188.515 37.9015 189.106 37.4145 189.881 37.167C190.176 37.0712 190.48 37.0312 190.767 37.0312C191.246 37.0312 191.717 37.151 192.172 37.3985C192.907 37.7977 193.402 38.3966 193.649 39.179C193.897 39.9695 193.825 40.7359 193.434 41.4625C192.995 42.2849 192.364 42.8039 191.581 42.9955C191.326 43.0594 191.062 43.0913 190.807 43.0913L190.815 43.0993Z" fill="url(#paint21_linear_551_13187)"/>
<path d="M189.577 42.3483C188.954 42.0129 188.523 41.5179 188.284 40.8712C188.044 40.2245 188.124 39.5378 188.515 38.8113C188.842 38.1965 189.346 37.7813 190.016 37.5737C190.687 37.3661 191.342 37.43 191.98 37.7733C192.611 38.1166 193.034 38.6276 193.25 39.3063C193.465 39.9849 193.402 40.6397 193.066 41.2624C192.683 41.981 192.156 42.4201 191.485 42.5878C190.815 42.7555 190.184 42.6756 189.577 42.3483Z" fill="white"/>
<path d="M206.536 53.3506C205.841 53.3506 205.21 53.1271 204.66 52.6959C204.021 52.1929 203.622 51.5462 203.478 50.7637C203.334 49.9653 203.558 49.1828 204.133 48.4323C204.628 47.7936 205.29 47.4103 206.097 47.2985C206.24 47.2826 206.384 47.2666 206.52 47.2666C207.175 47.2666 207.781 47.4822 208.316 47.9053C208.971 48.4163 209.362 49.087 209.474 49.9014C209.586 50.7238 209.386 51.4663 208.875 52.121C208.3 52.8556 207.606 53.2628 206.791 53.3187C206.703 53.3187 206.616 53.3267 206.528 53.3267L206.536 53.3506Z" fill="url(#paint22_linear_551_13187)"/>
<path d="M204.925 52.3611C204.366 51.922 204.022 51.3711 203.895 50.6924C203.775 50.0138 203.959 49.3511 204.47 48.7043C204.901 48.1534 205.46 47.8341 206.162 47.7383C206.857 47.6424 207.496 47.8181 208.062 48.2652C208.629 48.7043 208.965 49.2792 209.06 49.9898C209.156 50.6924 208.989 51.3312 208.549 51.8901C208.054 52.5288 207.456 52.8801 206.769 52.928C206.082 52.9839 205.468 52.7923 204.925 52.3771V52.3611Z" fill="white"/>
<path d="M220.262 66.03C220.182 66.03 220.095 66.03 220.015 66.022C219.224 65.9501 218.554 65.6228 218.019 65.0319C217.468 64.4331 217.18 63.7225 217.172 62.9321C217.156 62.1177 217.508 61.3831 218.202 60.7444C218.769 60.2254 219.448 59.9619 220.222 59.9619H220.334C221.149 59.9859 221.851 60.3132 222.418 60.928C222.977 61.5428 223.248 62.2694 223.224 63.0917C223.193 63.9221 222.873 64.6247 222.266 65.1836C221.652 65.7505 220.973 66.0379 220.254 66.0379L220.262 66.03Z" fill="url(#paint23_linear_551_13187)"/>
<path d="M218.328 64.744C217.849 64.217 217.602 63.6182 217.594 62.9235C217.586 62.2369 217.881 61.6141 218.488 61.0552C218.999 60.5842 219.614 60.3606 220.317 60.3846C221.019 60.4085 221.618 60.68 222.105 61.2149C222.592 61.7499 222.824 62.3647 222.8 63.0832C222.776 63.7938 222.504 64.3927 221.977 64.8717C221.378 65.4226 220.74 65.6622 220.053 65.5983C219.366 65.5344 218.792 65.255 218.328 64.744Z" fill="white"/>
<path d="M231.654 80.8487C231.423 80.8487 231.199 80.8167 230.976 80.7608C230.209 80.5612 229.594 80.1141 229.163 79.4514C228.724 78.7648 228.556 78.0222 228.676 77.2398C228.796 76.4413 229.267 75.7707 230.058 75.2517C230.553 74.9323 231.095 74.7646 231.662 74.7646C231.87 74.7646 232.078 74.7886 232.293 74.8285C233.1 74.9882 233.73 75.4273 234.185 76.13C234.64 76.8246 234.784 77.5911 234.617 78.4055C234.449 79.2199 234.018 79.8586 233.323 80.3057C232.772 80.665 232.205 80.8487 231.638 80.8487H231.654Z" fill="url(#paint24_linear_551_13187)"/>
<path d="M229.522 79.2198C229.139 78.621 228.995 77.9822 229.099 77.3036C229.203 76.6249 229.602 76.058 230.297 75.6109C230.88 75.2277 231.518 75.1159 232.213 75.2516C232.908 75.3874 233.443 75.7626 233.834 76.3694C234.225 76.9762 234.353 77.623 234.209 78.3256C234.065 79.0202 233.698 79.5631 233.099 79.9544C232.421 80.3935 231.742 80.5292 231.079 80.3536C230.417 80.1779 229.898 79.8027 229.522 79.2278V79.2198Z" fill="white"/>
<path d="M240.406 97.3757C240.023 97.3757 239.656 97.2958 239.304 97.1361C238.578 96.8088 238.059 96.2738 237.74 95.5393C237.42 94.7888 237.38 94.0303 237.636 93.2797C237.891 92.5132 238.466 91.9304 239.336 91.5551C239.72 91.3875 240.119 91.3076 240.51 91.3076C240.877 91.3076 241.245 91.3795 241.604 91.5152C242.37 91.8106 242.921 92.3536 243.257 93.12C243.584 93.8865 243.6 94.661 243.305 95.4355C243.009 96.21 242.466 96.7609 241.708 97.0882C241.261 97.2798 240.822 97.3757 240.406 97.3757Z" fill="url(#paint25_linear_551_13187)"/>
<path d="M238.131 95.3804C237.852 94.7257 237.82 94.079 238.035 93.4243C238.251 92.7696 238.738 92.2826 239.496 91.9552C240.135 91.6837 240.79 91.6678 241.445 91.9233C242.099 92.1788 242.57 92.6339 242.858 93.2966C243.145 93.9592 243.161 94.6219 242.898 95.2846C242.642 95.9473 242.187 96.4184 241.532 96.6979C240.782 97.0172 240.103 97.0332 239.473 96.7537C238.842 96.4663 238.395 96.0112 238.123 95.3804H238.131Z" fill="white"/>
<path d="M246.313 115.261C245.746 115.261 245.227 115.101 244.772 114.798C244.117 114.351 243.686 113.728 243.502 112.961C243.311 112.171 243.407 111.412 243.782 110.718C244.165 110.007 244.82 109.528 245.746 109.305C245.985 109.249 246.233 109.217 246.465 109.217C246.991 109.217 247.502 109.361 247.99 109.656C248.692 110.079 249.155 110.702 249.347 111.516C249.538 112.323 249.427 113.097 249.004 113.8C248.58 114.51 247.958 114.973 247.151 115.165C246.864 115.237 246.576 115.269 246.313 115.269V115.261Z" fill="url(#paint26_linear_551_13187)"/>
<path d="M243.917 112.857C243.75 112.17 243.829 111.516 244.157 110.909C244.484 110.302 245.043 109.903 245.849 109.711C246.528 109.552 247.167 109.647 247.774 110.007C248.38 110.366 248.764 110.901 248.931 111.604C249.099 112.306 249.003 112.961 248.636 113.576C248.269 114.183 247.742 114.574 247.055 114.741C246.265 114.933 245.586 114.829 245.019 114.446C244.452 114.055 244.085 113.528 243.925 112.865L243.917 112.857Z" fill="white"/>
<path d="M249.179 133.776C248.373 133.776 247.694 133.52 247.167 133.01C246.593 132.459 246.273 131.78 246.225 130.989C246.177 130.175 246.393 129.449 246.88 128.818C247.375 128.179 248.11 127.82 249.052 127.756C249.124 127.756 249.195 127.756 249.267 127.756C249.986 127.756 250.641 128.003 251.199 128.482C251.822 129.017 252.166 129.712 252.221 130.542C252.277 131.373 252.038 132.107 251.495 132.738C250.952 133.369 250.265 133.712 249.443 133.768C249.347 133.768 249.259 133.776 249.171 133.776H249.179Z" fill="url(#paint27_linear_551_13187)"/>
<path d="M246.656 130.958C246.608 130.247 246.8 129.625 247.223 129.082C247.646 128.539 248.269 128.235 249.092 128.187C249.786 128.14 250.401 128.347 250.936 128.802C251.471 129.257 251.766 129.848 251.806 130.567C251.854 131.285 251.647 131.916 251.183 132.459C250.72 133.002 250.138 133.297 249.427 133.337C248.613 133.393 247.966 133.178 247.463 132.699C246.968 132.219 246.696 131.637 246.648 130.958H246.656Z" fill="white"/>
<path d="M248.957 152.5C248.853 152.5 248.749 152.5 248.645 152.484C247.719 152.388 247.001 152.013 246.513 151.358C246.042 150.719 245.843 150.001 245.915 149.21C245.994 148.404 246.338 147.717 246.921 147.182C247.432 146.711 248.078 146.472 248.845 146.472C248.973 146.472 249.108 146.472 249.244 146.496C250.051 146.575 250.729 146.935 251.248 147.558C251.775 148.188 251.999 148.931 251.911 149.761C251.823 150.592 251.464 151.278 250.833 151.805C250.282 152.268 249.651 152.5 248.957 152.5Z" fill="url(#paint28_linear_551_13187)"/>
<path d="M246.346 149.25C246.418 148.539 246.705 147.957 247.216 147.494C247.727 147.03 248.39 146.831 249.204 146.919C249.899 146.991 250.474 147.294 250.921 147.837C251.368 148.38 251.56 149.003 251.488 149.721C251.416 150.44 251.104 151.023 250.561 151.486C250.019 151.941 249.388 152.132 248.685 152.069C247.879 151.989 247.264 151.669 246.857 151.118C246.45 150.567 246.274 149.945 246.346 149.266V149.25Z" fill="white"/>
<path d="M245.499 170.991C245.227 170.991 244.956 170.951 244.685 170.88C243.79 170.632 243.144 170.137 242.776 169.418C242.417 168.708 242.345 167.957 242.553 167.199C242.768 166.416 243.215 165.802 243.886 165.37C244.317 165.091 244.812 164.947 245.339 164.947C245.643 164.947 245.962 164.995 246.297 165.083C247.072 165.299 247.679 165.762 248.094 166.472C248.501 167.183 248.597 167.949 248.373 168.756C248.15 169.562 247.679 170.177 246.968 170.592C246.505 170.864 246.01 170.999 245.507 170.999L245.499 170.991Z" fill="url(#paint29_linear_551_13187)"/>
<path d="M242.97 167.302C243.153 166.615 243.544 166.088 244.119 165.713C244.694 165.338 245.381 165.258 246.179 165.481C246.85 165.665 247.369 166.064 247.72 166.671C248.072 167.278 248.151 167.933 247.96 168.627C247.768 169.322 247.361 169.849 246.746 170.208C246.131 170.567 245.477 170.647 244.798 170.464C244.015 170.248 243.465 169.833 243.153 169.218C242.842 168.603 242.778 167.964 242.962 167.302H242.97Z" fill="white"/>
<path d="M238.919 188.637C238.496 188.637 238.081 188.541 237.674 188.349C236.828 187.95 236.277 187.359 236.045 186.585C235.814 185.826 235.861 185.076 236.205 184.357C236.548 183.614 237.099 183.088 237.826 182.776C238.153 182.64 238.504 182.561 238.856 182.561C239.303 182.561 239.766 182.68 240.245 182.896C240.979 183.239 241.498 183.806 241.786 184.565C242.073 185.331 242.033 186.106 241.682 186.864C241.323 187.615 240.756 188.142 239.989 188.429C239.638 188.557 239.287 188.629 238.943 188.629L238.919 188.637Z" fill="url(#paint30_linear_551_13187)"/>
<path d="M236.579 184.532C236.883 183.893 237.346 183.438 237.985 183.159C238.615 182.887 239.31 182.927 240.053 183.279C240.683 183.574 241.123 184.053 241.37 184.716C241.618 185.379 241.586 186.033 241.282 186.688C240.979 187.343 240.484 187.79 239.821 188.037C239.15 188.285 238.504 188.261 237.857 187.957C237.122 187.614 236.651 187.111 236.452 186.448C236.252 185.794 236.292 185.155 236.587 184.532H236.579Z" fill="white"/>
<path d="M229.507 204.852C228.916 204.852 228.357 204.677 227.846 204.317C227.08 203.782 226.641 203.104 226.537 202.305C226.433 201.515 226.609 200.788 227.064 200.134C227.527 199.463 228.158 199.032 228.924 198.848C229.124 198.8 229.331 198.776 229.531 198.776C230.122 198.776 230.712 198.976 231.287 199.383C231.95 199.846 232.365 200.485 232.517 201.291C232.669 202.098 232.509 202.848 232.03 203.543C231.551 204.23 230.904 204.653 230.09 204.804C229.89 204.844 229.691 204.86 229.499 204.86L229.507 204.852Z" fill="url(#paint31_linear_551_13187)"/>
<path d="M227.415 200.373C227.822 199.79 228.357 199.423 229.028 199.255C229.698 199.096 230.369 199.255 231.048 199.719C231.623 200.118 231.974 200.661 232.102 201.355C232.229 202.05 232.102 202.689 231.679 203.28C231.263 203.87 230.712 204.238 230.01 204.365C229.307 204.501 228.669 204.365 228.086 203.958C227.415 203.495 227.04 202.92 226.952 202.234C226.864 201.547 227.016 200.924 227.407 200.365L227.415 200.373Z" fill="white"/>
<path d="M217.658 219.248H217.595C216.796 219.248 216.102 218.96 215.527 218.401C214.864 217.747 214.537 217.004 214.569 216.198C214.6 215.399 214.896 214.712 215.455 214.146C216.022 213.563 216.708 213.243 217.507 213.188C217.571 213.188 217.627 213.188 217.69 213.188C218.433 213.188 219.128 213.499 219.75 214.114C220.325 214.681 220.629 215.383 220.653 216.198C220.669 217.02 220.381 217.739 219.798 218.329C219.215 218.928 218.505 219.232 217.674 219.256L217.658 219.248Z" fill="url(#paint32_linear_551_13187)"/>
<path d="M215.75 214.441C216.245 213.938 216.836 213.659 217.523 213.611C218.21 213.563 218.848 213.827 219.439 214.409C219.934 214.896 220.19 215.495 220.206 216.198C220.222 216.901 219.974 217.515 219.471 218.026C218.968 218.537 218.361 218.809 217.643 218.817C216.932 218.833 216.317 218.593 215.814 218.09C215.231 217.523 214.96 216.893 214.984 216.206C215.008 215.519 215.263 214.928 215.742 214.441H215.75Z" fill="white"/>
<path d="M203.463 231.455C203.312 231.455 203.152 231.439 202.992 231.415C202.17 231.296 201.507 230.896 201.028 230.226C200.477 229.467 200.286 228.685 200.453 227.894C200.613 227.112 201.02 226.481 201.659 226.018C202.226 225.611 202.856 225.403 203.519 225.403C203.623 225.403 203.735 225.403 203.847 225.419C204.653 225.499 205.348 225.93 205.906 226.697C206.386 227.351 206.561 228.094 206.449 228.9C206.33 229.715 205.922 230.378 205.252 230.865C204.709 231.256 204.11 231.455 203.479 231.455H203.463Z" fill="url(#paint33_linear_551_13187)"/>
<path d="M201.912 226.362C202.487 225.947 203.118 225.771 203.804 225.835C204.491 225.899 205.074 226.266 205.561 226.937C205.968 227.504 206.128 228.135 206.024 228.829C205.92 229.524 205.577 230.091 204.994 230.506C204.411 230.929 203.764 231.089 203.062 230.985C202.359 230.881 201.8 230.546 201.377 229.971C200.898 229.316 200.73 228.645 200.874 227.975C201.018 227.296 201.361 226.761 201.92 226.354L201.912 226.362Z" fill="white"/>
<path d="M187.406 241.157C187.094 241.157 186.767 241.101 186.448 240.997C185.665 240.741 185.074 240.238 184.707 239.496C184.292 238.657 184.236 237.851 184.531 237.093C184.819 236.35 185.33 235.799 186.04 235.448C186.496 235.216 186.975 235.104 187.454 235.104C187.733 235.104 188.013 235.144 188.292 235.224C189.074 235.44 189.681 235.975 190.104 236.829C190.464 237.556 190.52 238.314 190.264 239.089C190.009 239.871 189.498 240.454 188.747 240.821C188.308 241.037 187.853 241.149 187.398 241.149L187.406 241.157Z" fill="url(#paint34_linear_551_13187)"/>
<path d="M186.233 235.839C186.871 235.52 187.518 235.456 188.181 235.64C188.844 235.824 189.362 236.279 189.722 237.021C190.033 237.644 190.081 238.291 189.858 238.961C189.642 239.632 189.203 240.127 188.564 240.446C187.925 240.766 187.255 240.814 186.576 240.598C185.897 240.375 185.402 239.951 185.091 239.313C184.732 238.586 184.676 237.899 184.931 237.261C185.179 236.622 185.618 236.143 186.233 235.839Z" fill="white"/>
<path d="M169.872 248.039C169.393 248.039 168.914 247.919 168.467 247.68C167.732 247.296 167.245 246.698 167.006 245.907C166.742 245.013 166.814 244.207 167.237 243.512C167.645 242.833 168.243 242.37 169.002 242.147C169.321 242.051 169.633 242.003 169.944 242.003C170.391 242.003 170.838 242.099 171.261 242.298C171.996 242.642 172.507 243.272 172.778 244.183C173.01 244.965 172.93 245.724 172.547 246.442C172.172 247.169 171.565 247.656 170.766 247.895C170.463 247.983 170.16 248.031 169.864 248.031L169.872 248.039Z" fill="url(#paint35_linear_551_13187)"/>
<path d="M169.122 242.554C169.801 242.355 170.456 242.395 171.078 242.69C171.701 242.985 172.132 243.52 172.372 244.311C172.571 244.981 172.508 245.628 172.18 246.251C171.853 246.874 171.342 247.289 170.655 247.497C169.961 247.704 169.306 247.64 168.675 247.305C168.044 246.97 167.629 246.467 167.43 245.788C167.198 245.005 167.262 244.327 167.613 243.736C167.972 243.145 168.476 242.754 169.13 242.554H169.122Z" fill="white"/>
<path d="M151.46 251.839C150.79 251.839 150.175 251.624 149.632 251.209C148.977 250.706 148.594 250.027 148.49 249.213C148.378 248.286 148.586 247.512 149.121 246.889C149.64 246.29 150.303 245.931 151.093 245.843C151.237 245.827 151.373 245.819 151.516 245.819C152.155 245.819 152.762 246.011 153.297 246.378C153.967 246.841 154.359 247.56 154.47 248.494C154.566 249.3 154.367 250.035 153.864 250.682C153.369 251.336 152.69 251.712 151.86 251.816C151.724 251.831 151.588 251.839 151.46 251.839Z" fill="url(#paint36_linear_551_13187)"/>
<path d="M151.142 246.267C151.844 246.179 152.483 246.338 153.05 246.73C153.617 247.121 153.944 247.728 154.048 248.55C154.128 249.245 153.96 249.868 153.529 250.426C153.098 250.985 152.531 251.305 151.812 251.393C151.094 251.48 150.455 251.305 149.888 250.874C149.321 250.442 148.994 249.868 148.914 249.165C148.818 248.359 148.994 247.696 149.441 247.177C149.888 246.658 150.455 246.354 151.142 246.275V246.267Z" fill="white"/>
<path d="M138.001 35.0186C81.1208 35.0186 35.0117 81.1277 35.0117 138C35.0117 194.871 81.1208 240.981 138.001 240.981C194.881 240.981 240.99 194.871 240.99 138C240.99 81.1277 194.881 35.0186 138.001 35.0186ZM138.001 207.622C99.5485 207.622 68.37 176.452 68.37 138C68.37 99.5474 99.5405 68.3768 138.001 68.3768C176.461 68.3768 207.623 99.5474 207.623 138C207.623 176.452 176.453 207.622 138.001 207.622Z" fill="url(#paint37_linear_551_13187)"/>
<path d="M60.5133 192.956C59.4115 191.982 57.5512 190.026 56.2417 187.742C54.4453 184.588 53.9343 181.85 54.565 179.383C55.1479 176.94 56.9044 174.784 59.4594 173.355C65.224 170.105 70.8929 172.412 74.1265 178.081C75.404 180.317 75.9469 182.281 76.0187 183.367L72.4178 184.333C72.2901 183.151 71.9468 181.778 70.8609 179.878C69.0006 176.62 65.751 175.215 62.0064 177.347C58.4454 179.383 57.607 182.816 59.4434 186.026C59.9544 186.92 60.4654 187.583 60.8007 187.806L64.4176 185.738L62.8926 183.071L65.9426 181.331L69.6154 187.766L60.5053 192.964L60.5133 192.956Z" fill="white"/>
<path d="M83.3965 190.569L75.4601 198.849C73.0888 201.324 72.8173 203.48 74.486 205.077C76.1867 206.713 78.2786 206.418 80.7138 203.879L88.6501 195.599L91.8917 198.713L84.163 206.777C79.9074 211.217 75.6438 211.177 71.8912 207.576C68.2663 204.103 68.0507 200.047 72.4501 195.464L80.1389 187.439L83.4045 190.569H83.3965Z" fill="white"/>
<path d="M92.5308 216.494L88.858 220.319L84.7461 218.107L99.5569 203.464L104.763 206.266L100.755 226.73L96.4909 224.431L97.5608 219.201L92.5387 216.494H92.5308ZM98.5748 215.927L99.485 211.616C99.7326 210.41 100.124 208.933 100.419 207.759L100.363 207.727C99.5409 208.63 98.5669 209.811 97.7365 210.674L94.6945 213.835L98.5669 215.927H98.5748Z" fill="white"/>
<path d="M114 210.602C115.461 210.697 117.609 211.017 119.94 211.552C122.823 212.222 124.739 213.117 125.865 214.538C126.799 215.727 127.118 217.228 126.711 219.009C126.136 221.492 123.988 222.778 122.176 223.001L122.152 223.089C123.381 223.951 123.829 225.42 123.9 227.321C123.996 229.652 124.012 232.327 124.22 233.157L119.725 232.111C119.541 231.456 119.437 229.804 119.421 227.281C119.461 224.742 118.783 223.887 117.002 223.44L115.677 223.129L113.904 230.762L109.553 229.756L113.992 210.602H114ZM116.411 219.959L118.136 220.358C120.324 220.869 121.872 220.071 122.264 218.37C122.679 216.582 121.673 215.416 119.669 214.913C118.607 214.666 117.976 214.618 117.649 214.602L116.403 219.959H116.411Z" fill="white"/>
<path d="M138.025 228.685L136.803 233.843L132.141 234.027L137.458 213.891L143.366 213.667L150.297 233.324L145.458 233.516L143.726 228.47L138.025 228.685ZM142.943 225.124L141.538 220.949C141.139 219.775 140.732 218.314 140.388 217.148H140.332C140.085 218.346 139.845 219.863 139.566 221.028L138.544 225.292L142.943 225.124Z" fill="white"/>
<path d="M159.941 231.457L153.594 212.582L158.576 210.905L164.82 216.502C166.608 218.115 168.524 220.087 170.073 221.931L170.161 221.907C169.043 219.512 168.101 216.989 167.135 214.131L165.291 208.646L169.211 207.328L175.558 226.203L171.079 227.712L164.596 221.788C162.8 220.151 160.748 218.123 159.079 216.231L159.007 216.286C159.957 218.746 160.907 221.38 161.945 224.462L163.862 230.147L159.941 231.465V231.457Z" fill="white"/>
<path d="M179.071 205.803L174.615 208.765L172.516 205.619L185.259 197.14L187.35 200.285L182.823 203.296L191.758 216.725L187.997 219.232L179.055 205.803H179.071Z" fill="white"/>
<path d="M204.351 193.963L199.329 199.296L202.77 202.538L208.383 196.582L211.066 199.113L202.355 208.358L187.863 194.705L196.295 185.755L198.985 188.286L193.66 193.939L196.67 196.773L201.7 191.44L204.367 193.955L204.351 193.963Z" fill="white"/>
<path d="M214.928 177.626L211.223 183.95L215.303 186.345L219.447 179.279L222.633 181.148L216.206 192.11L199.023 182.034L205.243 171.431L208.429 173.299L204.493 180.006L208.062 182.098L211.766 175.774L214.928 177.626Z" fill="white"/>
<path d="M64.6647 95.5641C62.485 94.566 59.8582 93.3444 57.2713 92.043L57.2314 92.1228C59.2194 93.8155 61.3832 95.8355 63.1238 97.5681L68.9762 103.229L67.3953 106.375L59.5787 104.826C57.1755 104.347 54.3331 103.676 51.7941 102.926L51.7701 102.981C54.1175 104.299 56.8242 105.76 58.9799 107.006L65.5749 110.718L63.6986 114.439L46.4766 104.355L49.1752 98.9973L55.9938 100.243C58.3092 100.714 60.8243 101.289 63.1158 101.936L63.1557 101.856C61.3512 100.315 59.3073 98.5262 57.6146 96.9533L52.6564 92.0749L55.2992 86.8213L73.5831 94.7976L71.603 98.7338L64.6567 95.572L64.6647 95.5641Z" fill="white"/>
<path d="M83.3723 70.1181C87.9393 74.7809 87.8834 80.3858 83.7236 84.4578C79.4999 88.5937 73.9109 87.8272 69.9348 83.7712C65.759 79.5076 65.3598 73.6471 69.5595 69.5352C73.9269 65.2557 79.5159 66.1898 83.3643 70.1181H83.3723ZM73.2802 80.3779C76.0108 83.1644 79.2444 83.843 81.3922 81.7352C83.5639 79.6034 82.7814 76.3139 80.0748 73.5513C77.5677 70.9964 74.1984 69.9983 71.9787 72.17C69.807 74.3018 70.5655 77.6073 73.2722 80.3779H73.2802Z" fill="white"/>
<path d="M94.8611 74.4536L85.7031 56.7685L90.3739 54.3492L97.4001 58.9242C99.4121 60.2416 101.608 61.9023 103.428 63.4912L103.508 63.4513C102.039 61.2556 100.722 58.9083 99.3323 56.2335L96.6655 51.0917L100.338 49.1914L109.496 66.8765L105.297 69.0483L97.9829 64.1859C95.9549 62.8365 93.6155 61.1518 91.6754 59.531L91.6115 59.5949C92.9289 61.8704 94.2702 64.3376 95.7633 67.2279L98.5179 72.5534L94.8451 74.4536H94.8611Z" fill="white"/>
<path d="M124.898 54.3656L117.736 55.9465L118.758 60.5614L126.75 58.7969L127.549 62.4058L115.141 65.1444L110.846 45.6947L122.854 43.0439L123.652 46.6528L116.059 48.3295L116.954 52.3696L124.108 50.7887L124.898 54.3656Z" fill="white"/>
<path d="M137.018 62.0221L137.202 53.8702L131.174 41.9736L136.316 42.0854L138.248 46.9159C138.839 48.377 139.222 49.4469 139.701 50.7643H139.757C140.228 49.5347 140.723 48.393 141.346 46.9877L143.462 42.2451L148.508 42.3569L141.689 53.8223L141.505 62.1179L137.018 62.0221Z" fill="white"/>
<path d="M165.578 46.2453C166.767 46.4449 169.067 47.1315 171.166 47.93C173.729 48.904 175.215 49.7584 176.26 51.0678C177.29 52.2495 177.746 53.8782 177.107 55.5629C176.476 57.2236 174.919 58.3973 172.532 58.3734L172.508 58.4293C174.416 59.8185 175.374 62.0222 174.464 64.4175C173.825 66.1022 172.54 67.1321 171.031 67.6271C169.266 68.186 166.775 67.9305 163.07 66.5253C160.995 65.7349 159.501 65.0083 158.615 64.5133L165.578 46.2373V46.2453ZM163.893 63.2118C164.284 63.4274 164.787 63.6111 165.498 63.8905C167.406 64.6171 169.37 64.5133 170.105 62.5811C170.815 60.7048 169.418 59.3155 167.318 58.5171L165.881 57.9662L163.885 63.2118H163.893ZM167.039 54.9561L168.42 55.4831C170.632 56.3214 172.165 55.8663 172.691 54.485C173.226 53.0718 172.436 51.9221 170.528 51.1955C169.618 50.8442 169.075 50.7005 168.691 50.6207L167.039 54.9561Z" fill="white"/>
<path d="M183.518 70.8446L179.359 74.1421L175.582 71.3955L192.237 58.8682L197.02 62.3493L190.281 82.0944L186.361 79.244L188.125 74.2059L183.51 70.8446H183.518ZM189.586 71.1001L191.071 66.9482C191.479 65.7825 192.062 64.3773 192.517 63.2515L192.469 63.2196C191.535 64.002 190.409 65.048 189.467 65.7825L186.025 68.5052L189.586 71.1001Z" fill="white"/>
<path d="M202.634 95.8754C201.787 95.5002 200.238 94.3664 198.697 92.4901C194.322 87.1726 195.4 81.6954 199.783 78.0945C205.029 73.775 211.025 75.1163 214.858 79.7712C216.343 81.5756 217.101 83.2443 217.293 84.1226L213.947 85.6875C213.66 84.7374 213.133 83.5317 212.111 82.2942C209.843 79.5316 206.41 78.7571 202.993 81.5756C199.911 84.1146 199.472 87.5319 202.027 90.6377C202.889 91.6837 204.079 92.6657 204.917 93.1208L202.634 95.8834V95.8754Z" fill="white"/>
<path d="M222.834 92.123L224.702 96.1711L216.71 99.8598L216.75 99.9396C217.636 100.019 218.475 100.155 219.305 100.259L227.209 101.592L229.525 106.607L219.065 104.179L211.592 115.277L209.389 110.503L215.153 102.471L212.534 101.792L206.634 104.515L204.766 100.467L222.85 92.123H222.834Z" fill="white"/>
<path d="M98.9012 116.762V159.238H88.2981V136.467C88.2981 133.177 88.2183 131.205 88.0666 130.535C87.9069 129.872 87.4758 129.369 86.7652 129.026C86.0546 128.682 84.4817 128.515 82.0305 128.515H80.9766V123.564C86.1025 122.462 89.9908 120.195 92.6496 116.762H98.8933H98.9012Z" fill="url(#paint38_linear_551_13187)"/>
<path d="M128.018 131.141V145.305C128.018 148.523 127.843 150.87 127.491 152.339C127.14 153.808 126.414 155.182 125.312 156.459C124.21 157.737 122.885 158.655 121.328 159.214C119.771 159.773 118.03 160.052 116.106 160.052C113.567 160.052 111.459 159.757 109.782 159.174C108.106 158.591 106.764 157.673 105.766 156.435C104.768 155.198 104.058 153.888 103.642 152.515C103.227 151.142 103.012 148.962 103.012 145.968V131.141C103.012 127.245 103.347 124.323 104.026 122.382C104.696 120.442 106.038 118.885 108.042 117.712C110.046 116.538 112.473 115.955 115.323 115.955C117.647 115.955 119.731 116.362 121.567 117.177C123.404 117.991 124.777 118.981 125.687 120.155C126.597 121.328 127.212 122.646 127.539 124.115C127.867 125.584 128.026 127.931 128.026 131.149L128.018 131.141ZM117.415 127.572C117.415 125.313 117.304 123.907 117.088 123.333C116.872 122.758 116.361 122.478 115.555 122.478C114.749 122.478 114.246 122.782 113.99 123.38C113.735 123.979 113.607 125.377 113.607 127.564V148.291C113.607 150.758 113.727 152.244 113.958 152.755C114.198 153.266 114.709 153.513 115.491 153.513C116.274 153.513 116.793 153.218 117.04 152.619C117.288 152.02 117.407 150.687 117.407 148.603V127.564L117.415 127.572Z" fill="url(#paint39_linear_551_13187)"/>
<path d="M156.827 131.141V145.305C156.827 148.523 156.651 150.87 156.3 152.339C155.949 153.808 155.222 155.182 154.12 156.459C153.019 157.737 151.693 158.655 150.136 159.214C148.579 159.773 146.839 160.052 144.914 160.052C142.376 160.052 140.268 159.757 138.591 159.174C136.914 158.591 135.573 157.673 134.575 156.435C133.577 155.198 132.874 153.888 132.451 152.515C132.028 151.142 131.82 148.962 131.82 145.968V131.141C131.82 127.245 132.156 124.323 132.834 122.382C133.505 120.442 134.846 118.885 136.85 117.712C138.854 116.538 141.282 115.955 144.132 115.955C146.455 115.955 148.539 116.362 150.376 117.177C152.212 117.991 153.585 118.981 154.496 120.155C155.406 121.328 156.021 122.646 156.348 124.115C156.675 125.584 156.835 127.931 156.835 131.149L156.827 131.141ZM146.224 127.572C146.224 125.313 146.112 123.907 145.897 123.333C145.681 122.766 145.17 122.478 144.364 122.478C143.557 122.478 143.054 122.782 142.799 123.38C142.543 123.979 142.415 125.377 142.415 127.564V148.291C142.415 150.758 142.535 152.244 142.767 152.755C142.998 153.266 143.517 153.513 144.3 153.513C145.082 153.513 145.601 153.218 145.849 152.619C146.096 152.02 146.216 150.687 146.216 148.603V127.564L146.224 127.572Z" fill="url(#paint40_linear_551_13187)"/>
<path d="M175.327 124.003V131.301C175.327 133.209 175.151 134.638 174.792 135.589C174.432 136.547 173.666 137.369 172.484 138.08C171.302 138.79 169.746 139.142 167.797 139.142C165.562 139.142 163.853 138.806 162.679 138.136C161.506 137.465 160.715 136.65 160.308 135.708C159.901 134.766 159.693 133.409 159.693 131.644V124.011C159.693 121.912 159.909 120.363 160.332 119.357C160.763 118.351 161.586 117.536 162.815 116.905C164.045 116.275 165.554 115.963 167.358 115.963C169.354 115.963 170.967 116.307 172.213 117.001C173.458 117.696 174.289 118.526 174.704 119.508C175.119 120.49 175.335 121.991 175.335 124.019L175.327 124.003ZM168.604 122.143C168.604 121.025 168.548 120.331 168.436 120.067C168.324 119.804 168.013 119.676 167.502 119.676C167.031 119.676 166.727 119.82 166.584 120.099C166.448 120.379 166.376 121.065 166.376 122.143V132.85C166.376 134.072 166.44 134.806 166.56 135.054C166.688 135.301 167.007 135.421 167.534 135.421C167.989 135.421 168.276 135.285 168.412 134.998C168.54 134.718 168.612 134.064 168.612 133.034V122.143H168.604ZM187.678 115.947L171.071 160.052H167.031L183.694 115.947H187.678ZM195.024 144.523V151.845C195.024 153.737 194.848 155.158 194.489 156.124C194.129 157.082 193.363 157.921 192.181 158.631C191 159.342 189.443 159.693 187.495 159.693C185.275 159.693 183.574 159.35 182.393 158.671C181.211 157.992 180.421 157.178 180.005 156.228C179.598 155.286 179.391 153.936 179.391 152.188V144.531C179.391 142.447 179.606 140.906 180.037 139.9C180.468 138.894 181.291 138.072 182.512 137.433C183.734 136.794 185.251 136.475 187.047 136.475C189.059 136.475 190.688 136.826 191.926 137.521C193.171 138.223 193.994 139.062 194.409 140.044C194.816 141.026 195.024 142.519 195.024 144.531V144.523ZM188.309 142.687C188.309 141.569 188.253 140.874 188.141 140.603C188.03 140.331 187.718 140.195 187.215 140.195C186.744 140.195 186.441 140.331 186.313 140.619C186.185 140.898 186.113 141.593 186.113 142.695V153.401C186.113 154.607 186.177 155.334 186.297 155.581C186.425 155.829 186.736 155.948 187.239 155.948C187.71 155.948 188.014 155.813 188.133 155.541C188.261 155.27 188.317 154.607 188.317 153.561V142.703L188.309 142.687Z" fill="url(#paint41_linear_551_13187)"/>
<path d="M224.285 129.186L227.152 134.99L233.555 135.924L228.916 140.435L230.01 146.815L224.285 143.805L218.553 146.815L219.647 140.435L215.016 135.924L221.419 134.99L224.285 129.186Z" fill="url(#paint42_linear_551_13187)"/>
<path d="M51.9221 129.186L54.7804 134.99L61.1918 135.924L56.5529 140.435L57.6468 146.815L51.9221 143.805L46.1894 146.815L47.2832 140.435L42.6523 135.924L49.0557 134.99L51.9221 129.186Z" fill="url(#paint43_linear_551_13187)"/>
<path d="M138 74.4932L140.867 80.2977L147.27 81.2319L142.639 85.743L143.733 92.1224L138 89.1123L132.275 92.1224L133.369 85.743L128.73 81.2319L135.142 80.2977L138 74.4932Z" fill="#1A1A1A"/>
<path d="M156.094 81.8945L157.89 85.5354L161.914 86.1182L159.008 88.9526L159.695 92.9527L156.094 91.0605L152.501 92.9527L153.188 88.9526L150.281 86.1182L154.297 85.5354L156.094 81.8945Z" fill="#1A1A1A"/>
<path d="M156.094 182.161L157.89 185.802L161.914 186.385L159.008 189.219L159.695 193.219L156.094 191.335L152.501 193.219L153.188 189.219L150.281 186.385L154.297 185.802L156.094 182.161Z" fill="#1A1A1A"/>
<path d="M119.906 81.8945L121.703 85.5354L125.727 86.1182L122.813 88.9526L123.499 92.9527L119.906 91.0605L116.313 92.9527L117 88.9526L114.094 86.1182L118.11 85.5354L119.906 81.8945Z" fill="#1A1A1A"/>
<path d="M119.906 182.161L121.703 185.802L125.727 186.385L122.813 189.219L123.499 193.219L119.906 191.335L116.313 193.219L117 189.219L114.094 186.385L118.11 185.802L119.906 182.161Z" fill="#1A1A1A"/>
<path d="M138 183.878L140.867 189.682L147.27 190.617L142.639 195.128L143.733 201.507L138 198.497L132.275 201.507L133.369 195.128L128.73 190.617L135.142 189.682L138 183.878Z" fill="#1A1A1A"/>
<defs>
<linearGradient id="paint0_linear_551_13187" x1="124.69" y1="249.157" x2="130.718" y2="249.157" gradientUnits="userSpaceOnUse">
<stop stop-color="#FCCF85"/>
<stop offset="1" stop-color="#FAA645"/>
</linearGradient>
<linearGradient id="paint1_linear_551_13187" x1="106.158" y1="245.844" x2="112.21" y2="245.844" gradientUnits="userSpaceOnUse">
<stop stop-color="#FCCF85"/>
<stop offset="1" stop-color="#FAA645"/>
</linearGradient>
<linearGradient id="paint2_linear_551_13187" x1="88.4399" y1="239.432" x2="94.516" y2="239.432" gradientUnits="userSpaceOnUse">
<stop stop-color="#FCCF85"/>
<stop offset="1" stop-color="#FAA645"/>
</linearGradient>
<linearGradient id="paint3_linear_551_13187" x1="72.1527" y1="230.171" x2="78.2287" y2="230.171" gradientUnits="userSpaceOnUse">
<stop stop-color="#FCCF85"/>
<stop offset="1" stop-color="#FAA645"/>
</linearGradient>
<linearGradient id="paint4_linear_551_13187" x1="57.6616" y1="218.33" x2="63.7296" y2="218.33" gradientUnits="userSpaceOnUse">
<stop stop-color="#FCCF85"/>
<stop offset="1" stop-color="#FAA645"/>
</linearGradient>
<linearGradient id="paint5_linear_551_13187" x1="45.3505" y1="204.262" x2="51.4026" y2="204.262" gradientUnits="userSpaceOnUse">
<stop stop-color="#FCCF85"/>
<stop offset="1" stop-color="#FAA645"/>
</linearGradient>
<linearGradient id="paint6_linear_551_13187" x1="35.5292" y1="188.293" x2="41.5733" y2="188.293" gradientUnits="userSpaceOnUse">
<stop stop-color="#FCCF85"/>
<stop offset="1" stop-color="#FAA645"/>
</linearGradient>
<linearGradient id="paint7_linear_551_13187" x1="28.5284" y1="170.855" x2="34.5565" y2="170.855" gradientUnits="userSpaceOnUse">
<stop stop-color="#FCCF85"/>
<stop offset="1" stop-color="#FAA645"/>
</linearGradient>
<linearGradient id="paint8_linear_551_13187" x1="24.567" y1="152.419" x2="30.5871" y2="152.419" gradientUnits="userSpaceOnUse">
<stop stop-color="#FCCF85"/>
<stop offset="1" stop-color="#FAA645"/>
</linearGradient>
<linearGradient id="paint9_linear_551_13187" x1="23.7603" y1="133.744" x2="29.7805" y2="133.744" gradientUnits="userSpaceOnUse">
<stop stop-color="#FCCF85"/>
<stop offset="1" stop-color="#FAA645"/>
</linearGradient>
<linearGradient id="paint10_linear_551_13187" x1="26.0672" y1="115.109" x2="32.1113" y2="115.109" gradientUnits="userSpaceOnUse">
<stop stop-color="#FCCF85"/>
<stop offset="1" stop-color="#FAA645"/>
</linearGradient>
<linearGradient id="paint11_linear_551_13187" x1="31.4807" y1="97.1367" x2="37.5408" y2="97.1367" gradientUnits="userSpaceOnUse">
<stop stop-color="#FCCF85"/>
<stop offset="1" stop-color="#FAA645"/>
</linearGradient>
<linearGradient id="paint12_linear_551_13187" x1="39.8732" y1="80.3379" x2="45.9412" y2="80.3379" gradientUnits="userSpaceOnUse">
<stop stop-color="#FCCF85"/>
<stop offset="1" stop-color="#FAA645"/>
</linearGradient>
<linearGradient id="paint13_linear_551_13187" x1="50.9317" y1="65.2235" x2="57.0078" y2="65.2235" gradientUnits="userSpaceOnUse">
<stop stop-color="#FCCF85"/>
<stop offset="1" stop-color="#FAA645"/>
</linearGradient>
<linearGradient id="paint14_linear_551_13187" x1="64.3214" y1="52.1854" x2="70.4054" y2="52.1854" gradientUnits="userSpaceOnUse">
<stop stop-color="#FCCF85"/>
<stop offset="1" stop-color="#FAA645"/>
</linearGradient>
<linearGradient id="paint15_linear_551_13187" x1="79.7465" y1="41.5182" x2="85.8305" y2="41.5182" gradientUnits="userSpaceOnUse">
<stop stop-color="#FCCF85"/>
<stop offset="1" stop-color="#FAA645"/>
</linearGradient>
<linearGradient id="paint16_linear_551_13187" x1="96.7511" y1="33.5981" x2="102.819" y2="33.5981" gradientUnits="userSpaceOnUse">
<stop stop-color="#FCCF85"/>
<stop offset="1" stop-color="#FAA645"/>
</linearGradient>
<linearGradient id="paint17_linear_551_13187" x1="114.917" y1="28.6478" x2="120.961" y2="28.6478" gradientUnits="userSpaceOnUse">
<stop stop-color="#FCCF85"/>
<stop offset="1" stop-color="#FAA645"/>
</linearGradient>
<linearGradient id="paint18_linear_551_13187" x1="133.448" y1="26.8431" x2="139.468" y2="26.8431" gradientUnits="userSpaceOnUse">
<stop stop-color="#FCCF85"/>
<stop offset="1" stop-color="#FAA645"/>
</linearGradient>
<linearGradient id="paint19_linear_551_13187" x1="152.235" y1="28.1448" x2="158.271" y2="28.1448" gradientUnits="userSpaceOnUse">
<stop stop-color="#FCCF85"/>
<stop offset="1" stop-color="#FAA645"/>
</linearGradient>
<linearGradient id="paint20_linear_551_13187" x1="170.488" y1="32.5916" x2="176.556" y2="32.5916" gradientUnits="userSpaceOnUse">
<stop stop-color="#FCCF85"/>
<stop offset="1" stop-color="#FAA645"/>
</linearGradient>
<linearGradient id="paint21_linear_551_13187" x1="187.725" y1="40.0653" x2="193.801" y2="40.0653" gradientUnits="userSpaceOnUse">
<stop stop-color="#FCCF85"/>
<stop offset="1" stop-color="#FAA645"/>
</linearGradient>
<linearGradient id="paint22_linear_551_13187" x1="204.548" y1="47.9932" x2="208.428" y2="52.624" gradientUnits="userSpaceOnUse">
<stop stop-color="#FCCF85"/>
<stop offset="1" stop-color="#FAA645"/>
</linearGradient>
<linearGradient id="paint23_linear_551_13187" x1="217.172" y1="62.9959" x2="223.232" y2="62.9959" gradientUnits="userSpaceOnUse">
<stop stop-color="#FCCF85"/>
<stop offset="1" stop-color="#FAA645"/>
</linearGradient>
<linearGradient id="paint24_linear_551_13187" x1="228.636" y1="77.8067" x2="234.688" y2="77.8067" gradientUnits="userSpaceOnUse">
<stop stop-color="#FCCF85"/>
<stop offset="1" stop-color="#FAA645"/>
</linearGradient>
<linearGradient id="paint25_linear_551_13187" x1="237.468" y1="94.3416" x2="243.512" y2="94.3416" gradientUnits="userSpaceOnUse">
<stop stop-color="#FCCF85"/>
<stop offset="1" stop-color="#FAA645"/>
</linearGradient>
<linearGradient id="paint26_linear_551_13187" x1="243.415" y1="112.235" x2="249.443" y2="112.235" gradientUnits="userSpaceOnUse">
<stop stop-color="#FCCF85"/>
<stop offset="1" stop-color="#FAA645"/>
</linearGradient>
<linearGradient id="paint27_linear_551_13187" x1="246.217" y1="130.766" x2="252.237" y2="130.766" gradientUnits="userSpaceOnUse">
<stop stop-color="#FCCF85"/>
<stop offset="1" stop-color="#FAA645"/>
</linearGradient>
<linearGradient id="paint28_linear_551_13187" x1="245.907" y1="149.482" x2="251.935" y2="149.482" gradientUnits="userSpaceOnUse">
<stop stop-color="#FCCF85"/>
<stop offset="1" stop-color="#FAA645"/>
</linearGradient>
<linearGradient id="paint29_linear_551_13187" x1="242.441" y1="167.957" x2="248.493" y2="167.957" gradientUnits="userSpaceOnUse">
<stop stop-color="#FCCF85"/>
<stop offset="1" stop-color="#FAA645"/>
</linearGradient>
<linearGradient id="paint30_linear_551_13187" x1="235.893" y1="185.603" x2="241.961" y2="185.603" gradientUnits="userSpaceOnUse">
<stop stop-color="#FCCF85"/>
<stop offset="1" stop-color="#FAA645"/>
</linearGradient>
<linearGradient id="paint31_linear_551_13187" x1="226.513" y1="201.81" x2="232.581" y2="201.81" gradientUnits="userSpaceOnUse">
<stop stop-color="#FCCF85"/>
<stop offset="1" stop-color="#FAA645"/>
</linearGradient>
<linearGradient id="paint32_linear_551_13187" x1="214.561" y1="216.214" x2="220.637" y2="216.214" gradientUnits="userSpaceOnUse">
<stop stop-color="#FCCF85"/>
<stop offset="1" stop-color="#FAA645"/>
</linearGradient>
<linearGradient id="paint33_linear_551_13187" x1="200.397" y1="228.429" x2="206.481" y2="228.429" gradientUnits="userSpaceOnUse">
<stop stop-color="#FCCF85"/>
<stop offset="1" stop-color="#FAA645"/>
</linearGradient>
<linearGradient id="paint34_linear_551_13187" x1="184.348" y1="238.139" x2="190.424" y2="238.139" gradientUnits="userSpaceOnUse">
<stop stop-color="#FCCF85"/>
<stop offset="1" stop-color="#FAA645"/>
</linearGradient>
<linearGradient id="paint35_linear_551_13187" x1="166.854" y1="245.021" x2="172.906" y2="245.021" gradientUnits="userSpaceOnUse">
<stop stop-color="#FCCF85"/>
<stop offset="1" stop-color="#FAA645"/>
</linearGradient>
<linearGradient id="paint36_linear_551_13187" x1="148.458" y1="248.829" x2="154.486" y2="248.829" gradientUnits="userSpaceOnUse">
<stop stop-color="#FCCF85"/>
<stop offset="1" stop-color="#FAA645"/>
</linearGradient>
<linearGradient id="paint37_linear_551_13187" x1="181.539" y1="44.6396" x2="94.4705" y2="231.36" gradientUnits="userSpaceOnUse">
<stop stop-color="#404040"/>
<stop offset="0.1" stop-color="#282828"/>
<stop offset="0.22" stop-color="#111111"/>
<stop offset="0.34" stop-color="#040404"/>
<stop offset="0.45"/>
<stop offset="0.75"/>
<stop offset="1"/>
</linearGradient>
<linearGradient id="paint38_linear_551_13187" x1="89.9349" y1="116.762" x2="89.9349" y2="159.238" gradientUnits="userSpaceOnUse">
<stop stop-color="#1A1A1A"/>
<stop offset="0.24" stop-color="#090909"/>
<stop offset="0.45"/>
<stop offset="1"/>
</linearGradient>
<linearGradient id="paint39_linear_551_13187" x1="115.515" y1="115.947" x2="115.515" y2="160.052" gradientUnits="userSpaceOnUse">
<stop stop-color="#1A1A1A"/>
<stop offset="0.24" stop-color="#090909"/>
<stop offset="0.45"/>
<stop offset="1"/>
</linearGradient>
<linearGradient id="paint40_linear_551_13187" x1="144.324" y1="115.947" x2="144.324" y2="160.052" gradientUnits="userSpaceOnUse">
<stop stop-color="#1A1A1A"/>
<stop offset="0.24" stop-color="#090909"/>
<stop offset="0.45"/>
<stop offset="1"/>
</linearGradient>
<linearGradient id="paint41_linear_551_13187" x1="177.355" y1="115.947" x2="177.355" y2="160.052" gradientUnits="userSpaceOnUse">
<stop stop-color="#1A1A1A"/>
<stop offset="0.24" stop-color="#090909"/>
<stop offset="0.45"/>
<stop offset="1"/>
</linearGradient>
<linearGradient id="paint42_linear_551_13187" x1="217.81" y1="133.13" x2="230.761" y2="146.072" gradientUnits="userSpaceOnUse">
<stop stop-color="#FAAF40"/>
<stop offset="0.47" stop-color="#F9EDA1"/>
<stop offset="1" stop-color="#FAA32E"/>
</linearGradient>
<linearGradient id="paint43_linear_551_13187" x1="45.4468" y1="133.13" x2="58.3893" y2="146.072" gradientUnits="userSpaceOnUse">
<stop stop-color="#FAAF40"/>
<stop offset="0.47" stop-color="#F9EDA1"/>
<stop offset="1" stop-color="#FAA32E"/>
</linearGradient>
</defs>
</svg>
