<svg width="144" height="145" viewBox="0 0 144 145" fill="none" xmlns="http://www.w3.org/2000/svg">
<g clip-path="url(#clip0_802_4964)">
<path fill-rule="evenodd" clip-rule="evenodd" d="M144 72.9785C144 79.2394 137.05 84.3107 135.485 90.0081C133.92 95.7055 137.301 103.845 134.358 108.791C131.416 113.737 122.713 115.052 118.456 119.246C114.198 123.441 113.197 132.081 108 135.149C102.803 138.217 94.9148 134.711 89.2174 136.276C83.52 137.841 78.2609 144.979 72 144.979C65.7391 144.979 60.6678 138.029 54.9704 136.464C49.273 134.899 41.1339 138.279 36.1878 135.337C31.2417 132.394 29.927 123.692 25.7322 119.434C21.5374 115.177 12.647 114.238 9.3913 108.979C6.13565 103.719 9.82957 95.8933 8.26435 90.1959C6.69913 84.4985 0 79.2394 0 72.9785C0 66.7176 6.94957 61.6463 8.51478 55.949C10.08 50.2516 6.69913 42.1124 9.64174 37.1663C12.5843 32.2203 21.287 30.9055 25.5443 26.7107C29.8017 22.5159 30.7409 13.6255 36 10.3698C41.2591 7.11417 49.0852 10.8081 54.7826 9.24286C60.48 7.67765 65.7391 0.978516 72 0.978516C78.2609 0.978516 83.3322 7.92808 89.0296 9.4933C94.727 11.0585 102.866 7.67765 107.812 10.6203C112.758 13.5629 114.073 22.2655 118.268 26.5229C122.463 30.7803 131.103 31.782 134.17 36.9785C137.238 42.175 133.732 50.0637 135.297 55.7611C136.863 61.4585 144 66.7176 144 72.9785Z" fill="#D52917" stroke="#AA1D0E" stroke-width="3" stroke-linecap="round" stroke-linejoin="round"/>
<path d="M58.6403 65.1785C58.6403 67.3118 57.987 69.0718 56.6803 70.4585C55.3736 71.8452 53.587 72.7252 51.3203 73.0985C51.187 73.1518 51.1203 73.2318 51.1203 73.3385L51.1603 75.9385C51.1603 76.0718 51.107 76.1785 51.0003 76.2585C50.9203 76.3652 50.8136 76.4185 50.6803 76.4185H46.6803C46.547 76.4185 46.427 76.3652 46.3203 76.2585C46.2403 76.1785 46.2003 76.0718 46.2003 75.9385L46.2403 73.2985C46.2403 73.1918 46.1736 73.1118 46.0403 73.0585C43.7736 72.6052 41.987 71.6718 40.6803 70.2585C39.4003 68.8452 38.7603 67.0718 38.7603 64.9385V64.0585C38.7603 63.9252 38.8003 63.8185 38.8803 63.7385C38.987 63.6318 39.107 63.5785 39.2403 63.5785H43.5603C43.6936 63.5785 43.8003 63.6318 43.8803 63.7385C43.987 63.8185 44.0403 63.9252 44.0403 64.0585V64.6585C44.0403 65.7252 44.507 66.6318 45.4403 67.3785C46.3736 68.0985 47.6536 68.4585 49.2803 68.4585C50.6403 68.4585 51.6403 68.1652 52.2803 67.5785C52.947 66.9652 53.2803 66.2185 53.2803 65.3385C53.2803 64.6985 53.0803 64.1652 52.6803 63.7385C52.2803 63.2852 51.7203 62.8985 51.0003 62.5785C50.307 62.2318 49.2003 61.7652 47.6803 61.1785C45.947 60.5652 44.4936 59.9385 43.3203 59.2985C42.147 58.6585 41.147 57.7918 40.3203 56.6985C39.5203 55.5785 39.1203 54.2052 39.1203 52.5785C39.1203 50.5252 39.7336 48.8318 40.9603 47.4985C42.2136 46.1385 43.8936 45.2585 46.0003 44.8585C46.1336 44.8052 46.2003 44.7252 46.2003 44.6185L46.1203 41.6985C46.1203 41.5652 46.1603 41.4585 46.2403 41.3785C46.347 41.2718 46.467 41.2185 46.6003 41.2185H50.6003C50.7336 41.2185 50.8403 41.2718 50.9203 41.3785C51.027 41.4585 51.0803 41.5652 51.0803 41.6985L51.0403 44.6985C51.0403 44.8052 51.107 44.8852 51.2403 44.9385C53.4536 45.3918 55.2136 46.3652 56.5203 47.8585C57.827 49.3252 58.4803 51.1252 58.4803 53.2585V53.8585C58.4803 53.9918 58.427 54.1118 58.3203 54.2185C58.2403 54.2985 58.1336 54.3385 58.0003 54.3385H53.6403C53.507 54.3385 53.387 54.2985 53.2803 54.2185C53.2003 54.1118 53.1603 53.9918 53.1603 53.8585V53.5385C53.1603 52.4185 52.7203 51.4718 51.8403 50.6985C50.9603 49.8985 49.7603 49.4985 48.2403 49.4985C47.0403 49.4985 46.107 49.7652 45.4403 50.2985C44.7736 50.8318 44.4403 51.5652 44.4403 52.4985C44.4403 53.1652 44.627 53.7252 45.0003 54.1785C45.4003 54.6318 45.987 55.0452 46.7603 55.4185C47.5336 55.7918 48.7336 56.2718 50.3603 56.8585C52.147 57.5252 53.5603 58.1252 54.6003 58.6585C55.6403 59.1918 56.5736 59.9918 57.4003 61.0585C58.227 62.1252 58.6403 63.4985 58.6403 65.1785ZM82.0509 60.7785C82.1843 60.7785 82.2909 60.8318 82.3709 60.9385C82.4776 61.0185 82.5309 61.1252 82.5309 61.2585V65.2985C82.5309 65.4318 82.4776 65.5518 82.3709 65.6585C82.2909 65.7385 82.1843 65.7785 82.0509 65.7785H80.3309C80.1976 65.7785 80.1309 65.8452 80.1309 65.9785V72.4985C80.1309 72.6318 80.0776 72.7518 79.9709 72.8585C79.8909 72.9385 79.7843 72.9785 79.6509 72.9785H74.9709C74.8376 72.9785 74.7176 72.9385 74.6109 72.8585C74.5309 72.7518 74.4909 72.6318 74.4909 72.4985V65.9785C74.4909 65.8452 74.4243 65.7785 74.2909 65.7785H62.0109C61.8776 65.7785 61.7576 65.7385 61.6509 65.6585C61.5709 65.5518 61.5309 65.4318 61.5309 65.2985V62.0985C61.5309 61.9385 61.5709 61.7385 61.6509 61.4985L68.8509 45.3385C68.9576 45.0985 69.1443 44.9785 69.4109 44.9785H74.4109C74.5976 44.9785 74.7176 45.0318 74.7709 45.1385C74.8509 45.2185 74.8509 45.3518 74.7709 45.5385L68.0909 60.5385C68.0643 60.5918 68.0643 60.6452 68.0909 60.6985C68.1176 60.7518 68.1576 60.7785 68.2109 60.7785H74.2909C74.4243 60.7785 74.4909 60.7118 74.4909 60.5785V55.6185C74.4909 55.4852 74.5309 55.3785 74.6109 55.2985C74.7176 55.1918 74.8376 55.1385 74.9709 55.1385H79.6509C79.7843 55.1385 79.8909 55.1918 79.9709 55.2985C80.0776 55.3785 80.1309 55.4852 80.1309 55.6185V60.5785C80.1309 60.7118 80.1976 60.7785 80.3309 60.7785H82.0509ZM103.27 50.0585C103.723 51.1518 103.95 52.4585 103.95 53.9785V66.0185C103.95 67.4585 103.576 68.7385 102.83 69.8585C102.083 70.9518 101.03 71.8052 99.6697 72.4185C98.3097 73.0052 96.7497 73.2985 94.9897 73.2985C93.2564 73.2985 91.723 73.0052 90.3897 72.4185C89.0564 71.8052 88.0164 70.9652 87.2697 69.8985C86.523 68.8052 86.1497 67.5518 86.1497 66.1385V65.0185C86.1497 64.8852 86.1897 64.7785 86.2697 64.6985C86.3764 64.5918 86.4964 64.5385 86.6297 64.5385H91.3097C91.443 64.5385 91.5497 64.5918 91.6297 64.6985C91.7364 64.7785 91.7897 64.8852 91.7897 65.0185V65.3785C91.7897 66.2585 92.083 66.9918 92.6697 67.5785C93.283 68.1652 94.0564 68.4585 94.9897 68.4585C95.9764 68.4585 96.7764 68.1652 97.3897 67.5785C98.003 66.9652 98.3097 66.1918 98.3097 65.2585V61.5385C98.3097 61.4585 98.283 61.4052 98.2297 61.3785C98.1764 61.3518 98.123 61.3652 98.0697 61.4185C96.9764 62.3518 95.5364 62.8185 93.7497 62.8185C92.1497 62.8185 90.7097 62.4585 89.4297 61.7385C88.1764 60.9918 87.1897 59.9252 86.4697 58.5385C85.803 57.2852 85.4697 55.7518 85.4697 53.9385C85.4697 52.3652 85.7364 50.9785 86.2697 49.7785C86.9364 48.2052 88.003 46.9652 89.4697 46.0585C90.963 45.1518 92.7097 44.6985 94.7097 44.6985C96.7364 44.6985 98.4964 45.1785 99.9897 46.1385C101.51 47.0718 102.603 48.3785 103.27 50.0585ZM94.7097 58.0985C96.0964 58.0985 97.0964 57.5518 97.7097 56.4585C98.1097 55.7652 98.3097 54.8718 98.3097 53.7785C98.3097 52.8985 98.1364 52.0852 97.7897 51.3385C97.203 50.1652 96.1897 49.5785 94.7497 49.5785C93.363 49.5785 92.3497 50.1652 91.7097 51.3385C91.3097 52.0852 91.1097 52.9252 91.1097 53.8585C91.1097 54.8718 91.3364 55.7518 91.7897 56.4985C92.4564 57.5652 93.4297 58.0985 94.7097 58.0985Z" fill="white"/>
<path d="M44.6811 101.979C44.5344 101.979 44.4391 101.905 44.3951 101.759L39.8631 86.8865L39.8411 86.7985C39.8411 86.6518 39.9217 86.5785 40.0831 86.5785H42.8551C43.0164 86.5785 43.1191 86.6518 43.1631 86.7985L46.0891 97.5345C46.1037 97.5785 46.1257 97.6005 46.1551 97.6005C46.1844 97.6005 46.2064 97.5785 46.2211 97.5345L49.1031 86.7985C49.1471 86.6518 49.2497 86.5785 49.4111 86.5785H52.1171C52.2051 86.5785 52.2711 86.6078 52.3151 86.6665C52.3591 86.7252 52.3664 86.7985 52.3371 86.8865L47.7391 101.759C47.6951 101.905 47.5997 101.979 47.4531 101.979H44.6811ZM61.8517 101.979C61.7051 101.979 61.6097 101.905 61.5657 101.759L60.9057 99.6025C60.8764 99.5438 60.8397 99.5145 60.7957 99.5145H55.3837C55.3397 99.5145 55.3031 99.5438 55.2737 99.6025L54.6357 101.759C54.5917 101.905 54.4964 101.979 54.3497 101.979H51.5557C51.4677 101.979 51.4017 101.957 51.3577 101.913C51.3137 101.854 51.3064 101.773 51.3357 101.671L56.0877 86.7985C56.1317 86.6518 56.2271 86.5785 56.3737 86.5785H59.8277C59.9744 86.5785 60.0697 86.6518 60.1137 86.7985L64.8657 101.671C64.8804 101.7 64.8877 101.737 64.8877 101.781C64.8877 101.913 64.8071 101.979 64.6457 101.979H61.8517ZM56.0657 96.9845C56.0511 97.0725 56.0804 97.1165 56.1537 97.1165H60.0257C60.1137 97.1165 60.1431 97.0725 60.1137 96.9845L58.1337 90.4505C58.1191 90.3918 58.0971 90.3698 58.0677 90.3845C58.0384 90.3845 58.0164 90.4065 58.0017 90.4505L56.0657 96.9845ZM67.0855 101.979C67.0122 101.979 66.9462 101.957 66.8875 101.913C66.8435 101.854 66.8215 101.788 66.8215 101.715V86.8425C66.8215 86.7692 66.8435 86.7105 66.8875 86.6665C66.9462 86.6078 67.0122 86.5785 67.0855 86.5785H69.6595C69.7328 86.5785 69.7915 86.6078 69.8355 86.6665C69.8942 86.7105 69.9235 86.7692 69.9235 86.8425V99.2065C69.9235 99.2798 69.9602 99.3165 70.0335 99.3165H77.2275C77.3008 99.3165 77.3595 99.3458 77.4035 99.4045C77.4622 99.4485 77.4915 99.5072 77.4915 99.5805V101.715C77.4915 101.788 77.4622 101.854 77.4035 101.913C77.3595 101.957 77.3008 101.979 77.2275 101.979H67.0855ZM84.9993 102.155C83.87 102.155 82.8727 101.935 82.0073 101.495C81.1567 101.055 80.4893 100.439 80.0053 99.6465C79.536 98.8398 79.3013 97.9158 79.3013 96.8745V86.8425C79.3013 86.7692 79.3233 86.7105 79.3673 86.6665C79.426 86.6078 79.492 86.5785 79.5653 86.5785H82.1393C82.2127 86.5785 82.2713 86.6078 82.3153 86.6665C82.374 86.7105 82.4033 86.7692 82.4033 86.8425V96.8965C82.4033 97.6738 82.638 98.3045 83.1073 98.7885C83.5913 99.2578 84.222 99.4925 84.9993 99.4925C85.7767 99.4925 86.4 99.2578 86.8693 98.7885C87.3533 98.3045 87.5953 97.6738 87.5953 96.8965V86.8425C87.5953 86.7692 87.6173 86.7105 87.6613 86.6665C87.72 86.6078 87.786 86.5785 87.8593 86.5785H90.4333C90.5067 86.5785 90.5653 86.6078 90.6093 86.6665C90.668 86.7105 90.6973 86.7692 90.6973 86.8425V96.8745C90.6973 97.9158 90.4553 98.8398 89.9713 99.6465C89.502 100.439 88.8347 101.055 87.9693 101.495C87.1187 101.935 86.1287 102.155 84.9993 102.155ZM103.939 88.9765C103.939 89.0498 103.91 89.1158 103.851 89.1745C103.807 89.2185 103.749 89.2405 103.675 89.2405H96.4593C96.3859 89.2405 96.3493 89.2772 96.3493 89.3505V92.7605C96.3493 92.8338 96.3859 92.8705 96.4593 92.8705H101.189C101.263 92.8705 101.321 92.8998 101.365 92.9585C101.424 93.0025 101.453 93.0612 101.453 93.1345V95.2685C101.453 95.3418 101.424 95.4078 101.365 95.4665C101.321 95.5105 101.263 95.5325 101.189 95.5325H96.4593C96.3859 95.5325 96.3493 95.5692 96.3493 95.6425V99.2065C96.3493 99.2798 96.3859 99.3165 96.4593 99.3165H103.675C103.749 99.3165 103.807 99.3458 103.851 99.4045C103.91 99.4485 103.939 99.5072 103.939 99.5805V101.715C103.939 101.788 103.91 101.854 103.851 101.913C103.807 101.957 103.749 101.979 103.675 101.979H93.5113C93.4379 101.979 93.3719 101.957 93.3133 101.913C93.2693 101.854 93.2473 101.788 93.2473 101.715V86.8425C93.2473 86.7692 93.2693 86.7105 93.3133 86.6665C93.3719 86.6078 93.4379 86.5785 93.5113 86.5785H103.675C103.749 86.5785 103.807 86.6078 103.851 86.6665C103.91 86.7105 103.939 86.7692 103.939 86.8425V88.9765Z" fill="white"/>
</g>
<defs>
<clipPath id="clip0_802_4964">
<rect width="144" height="144" fill="white" transform="translate(0 0.978516)"/>
</clipPath>
</defs>
</svg>
