<svg width="144" height="144" viewBox="0 0 144 144" fill="none" xmlns="http://www.w3.org/2000/svg">
<g clip-path="url(#clip0_225_3053)">
<path fill-rule="evenodd" clip-rule="evenodd" d="M144 72C144 78.2609 137.05 83.3322 135.485 89.0296C133.92 94.727 137.301 102.866 134.358 107.812C131.416 112.758 122.713 114.073 118.456 118.268C114.198 122.463 113.197 131.103 108 134.17C102.803 137.238 94.9148 133.732 89.2174 135.297C83.52 136.863 78.2609 144 72 144C65.7391 144 60.6678 137.05 54.9704 135.485C49.273 133.92 41.1339 137.301 36.1878 134.358C31.2417 131.416 29.927 122.713 25.7322 118.456C21.5374 114.198 12.647 113.259 9.3913 108C6.13565 102.741 9.82957 94.9148 8.26435 89.2174C6.69913 83.52 0 78.2609 0 72C0 65.7391 6.94957 60.6678 8.51478 54.9704C10.08 49.273 6.69913 41.1339 9.64174 36.1878C12.5843 31.2417 21.287 29.927 25.5443 25.7322C29.8017 21.5374 30.7409 12.647 36 9.3913C41.2591 6.13565 49.0852 9.82957 54.7826 8.26435C60.48 6.69913 65.7391 0 72 0C78.2609 0 83.3322 6.94957 89.0296 8.51478C94.727 10.08 102.866 6.69913 107.812 9.64174C112.758 12.5843 114.073 21.287 118.268 25.5443C122.463 29.8017 131.103 30.8035 134.17 36C137.238 41.1965 133.732 49.0852 135.297 54.7826C136.863 60.48 144 65.7391 144 72Z" fill="#D52917" stroke="#AA1D0E" stroke-width="3" stroke-linecap="round" stroke-linejoin="round"/>
<path d="M60.1247 64.2C60.1247 66.3333 59.4714 68.0933 58.1647 69.48C56.858 70.8667 55.0714 71.7467 52.8047 72.12C52.6714 72.1733 52.6047 72.2533 52.6047 72.36L52.6447 74.96C52.6447 75.0933 52.5914 75.2 52.4847 75.28C52.4047 75.3867 52.298 75.44 52.1647 75.44H48.1647C48.0314 75.44 47.9114 75.3867 47.8047 75.28C47.7247 75.2 47.6847 75.0933 47.6847 74.96L47.7247 72.32C47.7247 72.2133 47.658 72.1333 47.5247 72.08C45.258 71.6267 43.4714 70.6933 42.1647 69.28C40.8847 67.8667 40.2447 66.0933 40.2447 63.96V63.08C40.2447 62.9467 40.2847 62.84 40.3647 62.76C40.4714 62.6533 40.5914 62.6 40.7247 62.6H45.0447C45.178 62.6 45.2847 62.6533 45.3647 62.76C45.4714 62.84 45.5247 62.9467 45.5247 63.08V63.68C45.5247 64.7467 45.9914 65.6533 46.9247 66.4C47.858 67.12 49.138 67.48 50.7647 67.48C52.1247 67.48 53.1247 67.1867 53.7647 66.6C54.4314 65.9867 54.7647 65.24 54.7647 64.36C54.7647 63.72 54.5647 63.1867 54.1647 62.76C53.7647 62.3067 53.2047 61.92 52.4847 61.6C51.7914 61.2533 50.6847 60.7867 49.1647 60.2C47.4314 59.5867 45.978 58.96 44.8047 58.32C43.6314 57.68 42.6314 56.8133 41.8047 55.72C41.0047 54.6 40.6047 53.2267 40.6047 51.6C40.6047 49.5467 41.218 47.8533 42.4447 46.52C43.698 45.16 45.378 44.28 47.4847 43.88C47.618 43.8267 47.6847 43.7467 47.6847 43.64L47.6047 40.72C47.6047 40.5867 47.6447 40.48 47.7247 40.4C47.8314 40.2933 47.9514 40.24 48.0847 40.24H52.0847C52.218 40.24 52.3247 40.2933 52.4047 40.4C52.5114 40.48 52.5647 40.5867 52.5647 40.72L52.5247 43.72C52.5247 43.8267 52.5914 43.9067 52.7247 43.96C54.938 44.4133 56.698 45.3867 58.0047 46.88C59.3114 48.3467 59.9647 50.1467 59.9647 52.28V52.88C59.9647 53.0133 59.9114 53.1333 59.8047 53.24C59.7247 53.32 59.618 53.36 59.4847 53.36H55.1247C54.9914 53.36 54.8714 53.32 54.7647 53.24C54.6847 53.1333 54.6447 53.0133 54.6447 52.88V52.56C54.6447 51.44 54.2047 50.4933 53.3247 49.72C52.4447 48.92 51.2447 48.52 49.7247 48.52C48.5247 48.52 47.5914 48.7867 46.9247 49.32C46.258 49.8533 45.9247 50.5867 45.9247 51.52C45.9247 52.1867 46.1114 52.7467 46.4847 53.2C46.8847 53.6533 47.4714 54.0667 48.2447 54.44C49.018 54.8133 50.218 55.2933 51.8447 55.88C53.6314 56.5467 55.0447 57.1467 56.0847 57.68C57.1247 58.2133 58.058 59.0133 58.8847 60.08C59.7114 61.1467 60.1247 62.52 60.1247 64.2ZM80.5353 49.08C80.9886 50.1733 81.2153 51.48 81.2153 53V65.04C81.2153 66.48 80.842 67.76 80.0953 68.88C79.3486 69.9733 78.2953 70.8267 76.9353 71.44C75.5753 72.0267 74.0153 72.32 72.2553 72.32C70.522 72.32 68.9886 72.0267 67.6553 71.44C66.322 70.8267 65.282 69.9867 64.5353 68.92C63.7886 67.8267 63.4153 66.5733 63.4153 65.16V64.04C63.4153 63.9067 63.4553 63.8 63.5353 63.72C63.642 63.6133 63.762 63.56 63.8953 63.56H68.5753C68.7086 63.56 68.8153 63.6133 68.8953 63.72C69.002 63.8 69.0553 63.9067 69.0553 64.04V64.4C69.0553 65.28 69.3486 66.0133 69.9353 66.6C70.5486 67.1867 71.322 67.48 72.2553 67.48C73.242 67.48 74.042 67.1867 74.6553 66.6C75.2686 65.9867 75.5753 65.2133 75.5753 64.28V60.56C75.5753 60.48 75.5486 60.4267 75.4953 60.4C75.442 60.3733 75.3886 60.3867 75.3353 60.44C74.242 61.3733 72.802 61.84 71.0153 61.84C69.4153 61.84 67.9753 61.48 66.6953 60.76C65.442 60.0133 64.4553 58.9467 63.7353 57.56C63.0686 56.3067 62.7353 54.7733 62.7353 52.96C62.7353 51.3867 63.002 50 63.5353 48.8C64.202 47.2267 65.2686 45.9867 66.7353 45.08C68.2286 44.1733 69.9753 43.72 71.9753 43.72C74.002 43.72 75.762 44.2 77.2553 45.16C78.7753 46.0933 79.8686 47.4 80.5353 49.08ZM71.9753 57.12C73.362 57.12 74.362 56.5733 74.9753 55.48C75.3753 54.7867 75.5753 53.8933 75.5753 52.8C75.5753 51.92 75.402 51.1067 75.0553 50.36C74.4686 49.1867 73.4553 48.6 72.0153 48.6C70.6286 48.6 69.6153 49.1867 68.9753 50.36C68.5753 51.1067 68.3753 51.9467 68.3753 52.88C68.3753 53.8933 68.602 54.7733 69.0553 55.52C69.722 56.5867 70.6953 57.12 71.9753 57.12ZM101.785 49.08C102.239 50.1733 102.465 51.48 102.465 53V65.04C102.465 66.48 102.092 67.76 101.345 68.88C100.599 69.9733 99.5453 70.8267 98.1853 71.44C96.8253 72.0267 95.2653 72.32 93.5053 72.32C91.772 72.32 90.2386 72.0267 88.9053 71.44C87.572 70.8267 86.532 69.9867 85.7853 68.92C85.0386 67.8267 84.6653 66.5733 84.6653 65.16V64.04C84.6653 63.9067 84.7053 63.8 84.7853 63.72C84.892 63.6133 85.012 63.56 85.1453 63.56H89.8253C89.9586 63.56 90.0653 63.6133 90.1453 63.72C90.252 63.8 90.3053 63.9067 90.3053 64.04V64.4C90.3053 65.28 90.5986 66.0133 91.1853 66.6C91.7986 67.1867 92.572 67.48 93.5053 67.48C94.492 67.48 95.292 67.1867 95.9053 66.6C96.5186 65.9867 96.8253 65.2133 96.8253 64.28V60.56C96.8253 60.48 96.7986 60.4267 96.7453 60.4C96.692 60.3733 96.6386 60.3867 96.5853 60.44C95.492 61.3733 94.052 61.84 92.2653 61.84C90.6653 61.84 89.2253 61.48 87.9453 60.76C86.692 60.0133 85.7053 58.9467 84.9853 57.56C84.3186 56.3067 83.9853 54.7733 83.9853 52.96C83.9853 51.3867 84.252 50 84.7853 48.8C85.452 47.2267 86.5186 45.9867 87.9853 45.08C89.4786 44.1733 91.2253 43.72 93.2253 43.72C95.252 43.72 97.012 44.2 98.5053 45.16C100.025 46.0933 101.119 47.4 101.785 49.08ZM93.2253 57.12C94.612 57.12 95.612 56.5733 96.2253 55.48C96.6253 54.7867 96.8253 53.8933 96.8253 52.8C96.8253 51.92 96.652 51.1067 96.3053 50.36C95.7186 49.1867 94.7053 48.6 93.2653 48.6C91.8786 48.6 90.8653 49.1867 90.2253 50.36C89.8253 51.1067 89.6253 51.9467 89.6253 52.88C89.6253 53.8933 89.852 54.7733 90.3053 55.52C90.972 56.5867 91.9453 57.12 93.2253 57.12Z" fill="white"/>
<path d="M44.6811 101C44.5344 101 44.4391 100.927 44.3951 100.78L39.8631 85.908L39.8411 85.82C39.8411 85.6733 39.9217 85.6 40.0831 85.6H42.8551C43.0164 85.6 43.1191 85.6733 43.1631 85.82L46.0891 96.556C46.1037 96.6 46.1257 96.622 46.1551 96.622C46.1844 96.622 46.2064 96.6 46.2211 96.556L49.1031 85.82C49.1471 85.6733 49.2497 85.6 49.4111 85.6H52.1171C52.2051 85.6 52.2711 85.6293 52.3151 85.688C52.3591 85.7467 52.3664 85.82 52.3371 85.908L47.7391 100.78C47.6951 100.927 47.5997 101 47.4531 101H44.6811ZM61.8517 101C61.7051 101 61.6097 100.927 61.5657 100.78L60.9057 98.624C60.8764 98.5653 60.8397 98.536 60.7957 98.536H55.3837C55.3397 98.536 55.3031 98.5653 55.2737 98.624L54.6357 100.78C54.5917 100.927 54.4964 101 54.3497 101H51.5557C51.4677 101 51.4017 100.978 51.3577 100.934C51.3137 100.875 51.3064 100.795 51.3357 100.692L56.0877 85.82C56.1317 85.6733 56.2271 85.6 56.3737 85.6H59.8277C59.9744 85.6 60.0697 85.6733 60.1137 85.82L64.8657 100.692C64.8804 100.721 64.8877 100.758 64.8877 100.802C64.8877 100.934 64.8071 101 64.6457 101H61.8517ZM56.0657 96.006C56.0511 96.094 56.0804 96.138 56.1537 96.138H60.0257C60.1137 96.138 60.1431 96.094 60.1137 96.006L58.1337 89.472C58.1191 89.4133 58.0971 89.3913 58.0677 89.406C58.0384 89.406 58.0164 89.428 58.0017 89.472L56.0657 96.006ZM67.0855 101C67.0122 101 66.9462 100.978 66.8875 100.934C66.8435 100.875 66.8215 100.809 66.8215 100.736V85.864C66.8215 85.7907 66.8435 85.732 66.8875 85.688C66.9462 85.6293 67.0122 85.6 67.0855 85.6H69.6595C69.7328 85.6 69.7915 85.6293 69.8355 85.688C69.8942 85.732 69.9235 85.7907 69.9235 85.864V98.228C69.9235 98.3013 69.9602 98.338 70.0335 98.338H77.2275C77.3008 98.338 77.3595 98.3673 77.4035 98.426C77.4622 98.47 77.4915 98.5287 77.4915 98.602V100.736C77.4915 100.809 77.4622 100.875 77.4035 100.934C77.3595 100.978 77.3008 101 77.2275 101H67.0855ZM84.9993 101.176C83.87 101.176 82.8727 100.956 82.0073 100.516C81.1567 100.076 80.4893 99.46 80.0053 98.668C79.536 97.8613 79.3013 96.9373 79.3013 95.896V85.864C79.3013 85.7907 79.3233 85.732 79.3673 85.688C79.426 85.6293 79.492 85.6 79.5653 85.6H82.1393C82.2127 85.6 82.2713 85.6293 82.3153 85.688C82.374 85.732 82.4033 85.7907 82.4033 85.864V95.918C82.4033 96.6953 82.638 97.326 83.1073 97.81C83.5913 98.2793 84.222 98.514 84.9993 98.514C85.7767 98.514 86.4 98.2793 86.8693 97.81C87.3533 97.326 87.5953 96.6953 87.5953 95.918V85.864C87.5953 85.7907 87.6173 85.732 87.6613 85.688C87.72 85.6293 87.786 85.6 87.8593 85.6H90.4333C90.5067 85.6 90.5653 85.6293 90.6093 85.688C90.668 85.732 90.6973 85.7907 90.6973 85.864V95.896C90.6973 96.9373 90.4553 97.8613 89.9713 98.668C89.502 99.46 88.8347 100.076 87.9693 100.516C87.1187 100.956 86.1287 101.176 84.9993 101.176ZM103.939 87.998C103.939 88.0713 103.91 88.1373 103.851 88.196C103.807 88.24 103.749 88.262 103.675 88.262H96.4593C96.3859 88.262 96.3493 88.2987 96.3493 88.372V91.782C96.3493 91.8553 96.3859 91.892 96.4593 91.892H101.189C101.263 91.892 101.321 91.9213 101.365 91.98C101.424 92.024 101.453 92.0827 101.453 92.156V94.29C101.453 94.3633 101.424 94.4293 101.365 94.488C101.321 94.532 101.263 94.554 101.189 94.554H96.4593C96.3859 94.554 96.3493 94.5907 96.3493 94.664V98.228C96.3493 98.3013 96.3859 98.338 96.4593 98.338H103.675C103.749 98.338 103.807 98.3673 103.851 98.426C103.91 98.47 103.939 98.5287 103.939 98.602V100.736C103.939 100.809 103.91 100.875 103.851 100.934C103.807 100.978 103.749 101 103.675 101H93.5113C93.4379 101 93.3719 100.978 93.3133 100.934C93.2693 100.875 93.2473 100.809 93.2473 100.736V85.864C93.2473 85.7907 93.2693 85.732 93.3133 85.688C93.3719 85.6293 93.4379 85.6 93.5113 85.6H103.675C103.749 85.6 103.807 85.6293 103.851 85.688C103.91 85.732 103.939 85.7907 103.939 85.864V87.998Z" fill="white"/>
</g>
<defs>
<clipPath id="clip0_225_3053">
<rect width="144" height="144" fill="white"/>
</clipPath>
</defs>
</svg>
