<svg width="144" height="145" viewBox="0 0 144 145" fill="none" xmlns="http://www.w3.org/2000/svg">
<g clip-path="url(#clip0_840_5371)">
<path fill-rule="evenodd" clip-rule="evenodd" d="M144 72.4766C144 78.7374 137.05 83.8087 135.485 89.5061C133.92 95.2035 137.301 103.343 134.358 108.289C131.416 113.235 122.713 114.55 118.456 118.744C114.198 122.939 113.197 131.579 108 134.647C102.803 137.715 94.9148 134.209 89.2174 135.774C83.52 137.339 78.2609 144.477 72 144.477C65.7391 144.477 60.6678 137.527 54.9704 135.962C49.273 134.397 41.1339 137.777 36.1878 134.835C31.2417 131.892 29.927 123.19 25.7322 118.932C21.5374 114.675 12.647 113.736 9.3913 108.477C6.13565 103.217 9.82957 95.3913 8.26435 89.694C6.69913 83.9966 0 78.7374 0 72.4766C0 66.2157 6.94957 61.1444 8.51478 55.447C10.08 49.7496 6.69913 41.6105 9.64174 36.6644C12.5843 31.7183 21.287 30.4035 25.5443 26.2087C29.8017 22.014 30.7409 13.1235 36 9.86787C41.2591 6.61221 49.0852 10.3061 54.7826 8.74091C60.48 7.17569 65.7391 0.476562 72 0.476562C78.2609 0.476562 83.3322 7.42613 89.0296 8.99135C94.727 10.5566 102.866 7.17569 107.812 10.1183C112.758 13.0609 114.073 21.7635 118.268 26.0209C122.463 30.2783 131.103 31.28 134.17 36.4766C137.238 41.6731 133.732 49.5618 135.297 55.2592C136.863 60.9566 144 66.2157 144 72.4766Z" fill="#D52917" stroke="#AA1D0E" stroke-width="3" stroke-linecap="round" stroke-linejoin="round"/>
<path d="M60.1247 64.6766C60.1247 66.8099 59.4714 68.5699 58.1647 69.9566C56.858 71.3432 55.0714 72.2232 52.8047 72.5966C52.6714 72.6499 52.6047 72.7299 52.6047 72.8366L52.6447 75.4366C52.6447 75.5699 52.5914 75.6766 52.4847 75.7566C52.4047 75.8632 52.298 75.9166 52.1647 75.9166H48.1647C48.0314 75.9166 47.9114 75.8632 47.8047 75.7566C47.7247 75.6766 47.6847 75.5699 47.6847 75.4366L47.7247 72.7966C47.7247 72.6899 47.658 72.6099 47.5247 72.5566C45.258 72.1032 43.4714 71.1699 42.1647 69.7566C40.8847 68.3432 40.2447 66.5699 40.2447 64.4366V63.5566C40.2447 63.4232 40.2847 63.3166 40.3647 63.2366C40.4714 63.1299 40.5914 63.0766 40.7247 63.0766H45.0447C45.178 63.0766 45.2847 63.1299 45.3647 63.2366C45.4714 63.3166 45.5247 63.4232 45.5247 63.5566V64.1566C45.5247 65.2232 45.9914 66.1299 46.9247 66.8766C47.858 67.5966 49.138 67.9566 50.7647 67.9566C52.1247 67.9566 53.1247 67.6632 53.7647 67.0766C54.4314 66.4632 54.7647 65.7166 54.7647 64.8366C54.7647 64.1966 54.5647 63.6632 54.1647 63.2366C53.7647 62.7832 53.2047 62.3966 52.4847 62.0766C51.7914 61.7299 50.6847 61.2632 49.1647 60.6766C47.4314 60.0632 45.978 59.4366 44.8047 58.7966C43.6314 58.1566 42.6314 57.2899 41.8047 56.1966C41.0047 55.0766 40.6047 53.7032 40.6047 52.0766C40.6047 50.0232 41.218 48.3299 42.4447 46.9966C43.698 45.6366 45.378 44.7566 47.4847 44.3566C47.618 44.3032 47.6847 44.2232 47.6847 44.1166L47.6047 41.1966C47.6047 41.0632 47.6447 40.9566 47.7247 40.8766C47.8314 40.7699 47.9514 40.7166 48.0847 40.7166H52.0847C52.218 40.7166 52.3247 40.7699 52.4047 40.8766C52.5114 40.9566 52.5647 41.0632 52.5647 41.1966L52.5247 44.1966C52.5247 44.3032 52.5914 44.3832 52.7247 44.4366C54.938 44.8899 56.698 45.8632 58.0047 47.3566C59.3114 48.8232 59.9647 50.6232 59.9647 52.7566V53.3566C59.9647 53.4899 59.9114 53.6099 59.8047 53.7166C59.7247 53.7966 59.618 53.8366 59.4847 53.8366H55.1247C54.9914 53.8366 54.8714 53.7966 54.7647 53.7166C54.6847 53.6099 54.6447 53.4899 54.6447 53.3566V53.0366C54.6447 51.9166 54.2047 50.9699 53.3247 50.1966C52.4447 49.3966 51.2447 48.9966 49.7247 48.9966C48.5247 48.9966 47.5914 49.2632 46.9247 49.7966C46.258 50.3299 45.9247 51.0632 45.9247 51.9966C45.9247 52.6632 46.1114 53.2232 46.4847 53.6766C46.8847 54.1299 47.4714 54.5432 48.2447 54.9166C49.018 55.2899 50.218 55.7699 51.8447 56.3566C53.6314 57.0232 55.0447 57.6232 56.0847 58.1566C57.1247 58.6899 58.058 59.4899 58.8847 60.5566C59.7114 61.6232 60.1247 62.9966 60.1247 64.6766ZM80.5353 49.5566C80.9886 50.6499 81.2153 51.9566 81.2153 53.4766V65.5166C81.2153 66.9566 80.842 68.2366 80.0953 69.3566C79.3486 70.4499 78.2953 71.3032 76.9353 71.9166C75.5753 72.5032 74.0153 72.7966 72.2553 72.7966C70.522 72.7966 68.9886 72.5032 67.6553 71.9166C66.322 71.3032 65.282 70.4632 64.5353 69.3966C63.7886 68.3032 63.4153 67.0499 63.4153 65.6366V64.5166C63.4153 64.3832 63.4553 64.2766 63.5353 64.1966C63.642 64.0899 63.762 64.0366 63.8953 64.0366H68.5753C68.7086 64.0366 68.8153 64.0899 68.8953 64.1966C69.002 64.2766 69.0553 64.3832 69.0553 64.5166V64.8766C69.0553 65.7566 69.3486 66.4899 69.9353 67.0766C70.5486 67.6632 71.322 67.9566 72.2553 67.9566C73.242 67.9566 74.042 67.6632 74.6553 67.0766C75.2686 66.4632 75.5753 65.6899 75.5753 64.7566V61.0366C75.5753 60.9566 75.5486 60.9032 75.4953 60.8766C75.442 60.8499 75.3886 60.8632 75.3353 60.9166C74.242 61.8499 72.802 62.3166 71.0153 62.3166C69.4153 62.3166 67.9753 61.9566 66.6953 61.2366C65.442 60.4899 64.4553 59.4232 63.7353 58.0366C63.0686 56.7832 62.7353 55.2499 62.7353 53.4366C62.7353 51.8632 63.002 50.4766 63.5353 49.2766C64.202 47.7032 65.2686 46.4632 66.7353 45.5566C68.2286 44.6499 69.9753 44.1966 71.9753 44.1966C74.002 44.1966 75.762 44.6766 77.2553 45.6366C78.7753 46.5699 79.8686 47.8766 80.5353 49.5566ZM71.9753 57.5966C73.362 57.5966 74.362 57.0499 74.9753 55.9566C75.3753 55.2632 75.5753 54.3699 75.5753 53.2766C75.5753 52.3966 75.402 51.5832 75.0553 50.8366C74.4686 49.6632 73.4553 49.0766 72.0153 49.0766C70.6286 49.0766 69.6153 49.6632 68.9753 50.8366C68.5753 51.5832 68.3753 52.4232 68.3753 53.3566C68.3753 54.3699 68.602 55.2499 69.0553 55.9966C69.722 57.0632 70.6953 57.5966 71.9753 57.5966ZM101.785 49.5566C102.239 50.6499 102.465 51.9566 102.465 53.4766V65.5166C102.465 66.9566 102.092 68.2366 101.345 69.3566C100.599 70.4499 99.5453 71.3032 98.1853 71.9166C96.8253 72.5032 95.2653 72.7966 93.5053 72.7966C91.772 72.7966 90.2386 72.5032 88.9053 71.9166C87.572 71.3032 86.532 70.4632 85.7853 69.3966C85.0386 68.3032 84.6653 67.0499 84.6653 65.6366V64.5166C84.6653 64.3832 84.7053 64.2766 84.7853 64.1966C84.892 64.0899 85.012 64.0366 85.1453 64.0366H89.8253C89.9586 64.0366 90.0653 64.0899 90.1453 64.1966C90.252 64.2766 90.3053 64.3832 90.3053 64.5166V64.8766C90.3053 65.7566 90.5986 66.4899 91.1853 67.0766C91.7986 67.6632 92.572 67.9566 93.5053 67.9566C94.492 67.9566 95.292 67.6632 95.9053 67.0766C96.5186 66.4632 96.8253 65.6899 96.8253 64.7566V61.0366C96.8253 60.9566 96.7986 60.9032 96.7453 60.8766C96.692 60.8499 96.6386 60.8632 96.5853 60.9166C95.492 61.8499 94.052 62.3166 92.2653 62.3166C90.6653 62.3166 89.2253 61.9566 87.9453 61.2366C86.692 60.4899 85.7053 59.4232 84.9853 58.0366C84.3186 56.7832 83.9853 55.2499 83.9853 53.4366C83.9853 51.8632 84.252 50.4766 84.7853 49.2766C85.452 47.7032 86.5186 46.4632 87.9853 45.5566C89.4786 44.6499 91.2253 44.1966 93.2253 44.1966C95.252 44.1966 97.012 44.6766 98.5053 45.6366C100.025 46.5699 101.119 47.8766 101.785 49.5566ZM93.2253 57.5966C94.612 57.5966 95.612 57.0499 96.2253 55.9566C96.6253 55.2632 96.8253 54.3699 96.8253 53.2766C96.8253 52.3966 96.652 51.5832 96.3053 50.8366C95.7186 49.6632 94.7053 49.0766 93.2653 49.0766C91.8786 49.0766 90.8653 49.6632 90.2253 50.8366C89.8253 51.5832 89.6253 52.4232 89.6253 53.3566C89.6253 54.3699 89.852 55.2499 90.3053 55.9966C90.972 57.0632 91.9453 57.5966 93.2253 57.5966Z" fill="white"/>
<path d="M44.6811 101.477C44.5344 101.477 44.4391 101.403 44.3951 101.257L39.8631 86.3846L39.8411 86.2966C39.8411 86.1499 39.9217 86.0766 40.0831 86.0766H42.8551C43.0164 86.0766 43.1191 86.1499 43.1631 86.2966L46.0891 97.0326C46.1037 97.0766 46.1257 97.0986 46.1551 97.0986C46.1844 97.0986 46.2064 97.0766 46.2211 97.0326L49.1031 86.2966C49.1471 86.1499 49.2497 86.0766 49.4111 86.0766H52.1171C52.2051 86.0766 52.2711 86.1059 52.3151 86.1646C52.3591 86.2232 52.3664 86.2966 52.3371 86.3846L47.7391 101.257C47.6951 101.403 47.5997 101.477 47.4531 101.477H44.6811ZM61.8517 101.477C61.7051 101.477 61.6097 101.403 61.5657 101.257L60.9057 99.1006C60.8764 99.0419 60.8397 99.0126 60.7957 99.0126H55.3837C55.3397 99.0126 55.3031 99.0419 55.2737 99.1006L54.6357 101.257C54.5917 101.403 54.4964 101.477 54.3497 101.477H51.5557C51.4677 101.477 51.4017 101.455 51.3577 101.411C51.3137 101.352 51.3064 101.271 51.3357 101.169L56.0877 86.2966C56.1317 86.1499 56.2271 86.0766 56.3737 86.0766H59.8277C59.9744 86.0766 60.0697 86.1499 60.1137 86.2966L64.8657 101.169C64.8804 101.198 64.8877 101.235 64.8877 101.279C64.8877 101.411 64.8071 101.477 64.6457 101.477H61.8517ZM56.0657 96.4826C56.0511 96.5706 56.0804 96.6146 56.1537 96.6146H60.0257C60.1137 96.6146 60.1431 96.5706 60.1137 96.4826L58.1337 89.9486C58.1191 89.8899 58.0971 89.8679 58.0677 89.8826C58.0384 89.8826 58.0164 89.9046 58.0017 89.9486L56.0657 96.4826ZM67.0855 101.477C67.0122 101.477 66.9462 101.455 66.8875 101.411C66.8435 101.352 66.8215 101.286 66.8215 101.213V86.3406C66.8215 86.2672 66.8435 86.2086 66.8875 86.1646C66.9462 86.1059 67.0122 86.0766 67.0855 86.0766H69.6595C69.7328 86.0766 69.7915 86.1059 69.8355 86.1646C69.8942 86.2086 69.9235 86.2672 69.9235 86.3406V98.7046C69.9235 98.7779 69.9602 98.8146 70.0335 98.8146H77.2275C77.3008 98.8146 77.3595 98.8439 77.4035 98.9026C77.4622 98.9466 77.4915 99.0052 77.4915 99.0786V101.213C77.4915 101.286 77.4622 101.352 77.4035 101.411C77.3595 101.455 77.3008 101.477 77.2275 101.477H67.0855ZM84.9993 101.653C83.87 101.653 82.8727 101.433 82.0073 100.993C81.1567 100.553 80.4893 99.9366 80.0053 99.1446C79.536 98.3379 79.3013 97.4139 79.3013 96.3726V86.3406C79.3013 86.2672 79.3233 86.2086 79.3673 86.1646C79.426 86.1059 79.492 86.0766 79.5653 86.0766H82.1393C82.2127 86.0766 82.2713 86.1059 82.3153 86.1646C82.374 86.2086 82.4033 86.2672 82.4033 86.3406V96.3946C82.4033 97.1719 82.638 97.8026 83.1073 98.2866C83.5913 98.7559 84.222 98.9906 84.9993 98.9906C85.7767 98.9906 86.4 98.7559 86.8693 98.2866C87.3533 97.8026 87.5953 97.1719 87.5953 96.3946V86.3406C87.5953 86.2672 87.6173 86.2086 87.6613 86.1646C87.72 86.1059 87.786 86.0766 87.8593 86.0766H90.4333C90.5067 86.0766 90.5653 86.1059 90.6093 86.1646C90.668 86.2086 90.6973 86.2672 90.6973 86.3406V96.3726C90.6973 97.4139 90.4553 98.3379 89.9713 99.1446C89.502 99.9366 88.8347 100.553 87.9693 100.993C87.1187 101.433 86.1287 101.653 84.9993 101.653ZM103.939 88.4746C103.939 88.5479 103.91 88.6139 103.851 88.6726C103.807 88.7166 103.749 88.7386 103.675 88.7386H96.4593C96.3859 88.7386 96.3493 88.7752 96.3493 88.8486V92.2586C96.3493 92.3319 96.3859 92.3686 96.4593 92.3686H101.189C101.263 92.3686 101.321 92.3979 101.365 92.4566C101.424 92.5006 101.453 92.5592 101.453 92.6326V94.7666C101.453 94.8399 101.424 94.9059 101.365 94.9646C101.321 95.0086 101.263 95.0306 101.189 95.0306H96.4593C96.3859 95.0306 96.3493 95.0672 96.3493 95.1406V98.7046C96.3493 98.7779 96.3859 98.8146 96.4593 98.8146H103.675C103.749 98.8146 103.807 98.8439 103.851 98.9026C103.91 98.9466 103.939 99.0052 103.939 99.0786V101.213C103.939 101.286 103.91 101.352 103.851 101.411C103.807 101.455 103.749 101.477 103.675 101.477H93.5113C93.4379 101.477 93.3719 101.455 93.3133 101.411C93.2693 101.352 93.2473 101.286 93.2473 101.213V86.3406C93.2473 86.2672 93.2693 86.2086 93.3133 86.1646C93.3719 86.1059 93.4379 86.0766 93.5113 86.0766H103.675C103.749 86.0766 103.807 86.1059 103.851 86.1646C103.91 86.2086 103.939 86.2672 103.939 86.3406V88.4746Z" fill="white"/>
</g>
<defs>
<clipPath id="clip0_840_5371">
<rect width="144" height="144" fill="white" transform="translate(0 0.476562)"/>
</clipPath>
</defs>
</svg>
