<svg width="144" height="144" viewBox="0 0 144 144" fill="none" xmlns="http://www.w3.org/2000/svg">
<g clip-path="url(#clip0_225_5911)">
<path fill-rule="evenodd" clip-rule="evenodd" d="M144 72C144 78.2609 137.05 83.3322 135.485 89.0296C133.92 94.727 137.301 102.866 134.358 107.812C131.416 112.758 122.713 114.073 118.456 118.268C114.198 122.463 113.197 131.103 108 134.17C102.803 137.238 94.9148 133.732 89.2174 135.297C83.52 136.863 78.2609 144 72 144C65.7391 144 60.6678 137.05 54.9704 135.485C49.273 133.92 41.1339 137.301 36.1878 134.358C31.2417 131.416 29.927 122.713 25.7322 118.456C21.5374 114.198 12.647 113.259 9.3913 108C6.13565 102.741 9.82957 94.9148 8.26435 89.2174C6.69913 83.52 0 78.2609 0 72C0 65.7391 6.94957 60.6678 8.51478 54.9704C10.08 49.273 6.69913 41.1339 9.64174 36.1878C12.5843 31.2417 21.287 29.927 25.5443 25.7322C29.8017 21.5374 30.7409 12.647 36 9.3913C41.2591 6.13565 49.0852 9.82957 54.7826 8.26435C60.48 6.69913 65.7391 0 72 0C78.2609 0 83.3322 6.94957 89.0296 8.51478C94.727 10.08 102.866 6.69913 107.812 9.64174C112.758 12.5843 114.073 21.287 118.268 25.5443C122.463 29.8017 131.103 30.8035 134.17 36C137.238 41.1965 133.732 49.0852 135.297 54.7826C136.863 60.48 144 65.7391 144 72Z" fill="#D52917" stroke="#AA1D0E" stroke-width="3" stroke-linecap="round" stroke-linejoin="round"/>
<path d="M52.3239 64.2C52.3239 66.3333 51.6706 68.0933 50.3639 69.48C49.0572 70.8667 47.2706 71.7467 45.0039 72.12C44.8706 72.1733 44.8039 72.2533 44.8039 72.36L44.8439 74.96C44.8439 75.0933 44.7906 75.2 44.6839 75.28C44.6039 75.3867 44.4972 75.44 44.3639 75.44H40.3639C40.2306 75.44 40.1106 75.3867 40.0039 75.28C39.9239 75.2 39.8839 75.0933 39.8839 74.96L39.9239 72.32C39.9239 72.2133 39.8572 72.1333 39.7239 72.08C37.4572 71.6267 35.6706 70.6933 34.3639 69.28C33.0839 67.8667 32.4439 66.0933 32.4439 63.96V63.08C32.4439 62.9467 32.4839 62.84 32.5639 62.76C32.6706 62.6533 32.7906 62.6 32.9239 62.6H37.2439C37.3772 62.6 37.4839 62.6533 37.5639 62.76C37.6706 62.84 37.7239 62.9467 37.7239 63.08V63.68C37.7239 64.7467 38.1906 65.6533 39.1239 66.4C40.0572 67.12 41.3372 67.48 42.9639 67.48C44.3239 67.48 45.3239 67.1867 45.9639 66.6C46.6306 65.9867 46.9639 65.24 46.9639 64.36C46.9639 63.72 46.7639 63.1867 46.3639 62.76C45.9639 62.3067 45.4039 61.92 44.6839 61.6C43.9906 61.2533 42.8839 60.7867 41.3639 60.2C39.6306 59.5867 38.1772 58.96 37.0039 58.32C35.8306 57.68 34.8306 56.8133 34.0039 55.72C33.2039 54.6 32.8039 53.2267 32.8039 51.6C32.8039 49.5467 33.4172 47.8533 34.6439 46.52C35.8972 45.16 37.5772 44.28 39.6839 43.88C39.8172 43.8267 39.8839 43.7467 39.8839 43.64L39.8039 40.72C39.8039 40.5867 39.8439 40.48 39.9239 40.4C40.0306 40.2933 40.1506 40.24 40.2839 40.24H44.2839C44.4172 40.24 44.5239 40.2933 44.6039 40.4C44.7106 40.48 44.7639 40.5867 44.7639 40.72L44.7239 43.72C44.7239 43.8267 44.7906 43.9067 44.9239 43.96C47.1372 44.4133 48.8972 45.3867 50.2039 46.88C51.5106 48.3467 52.1639 50.1467 52.1639 52.28V52.88C52.1639 53.0133 52.1106 53.1333 52.0039 53.24C51.9239 53.32 51.8172 53.36 51.6839 53.36H47.3239C47.1906 53.36 47.0706 53.32 46.9639 53.24C46.8839 53.1333 46.8439 53.0133 46.8439 52.88V52.56C46.8439 51.44 46.4039 50.4933 45.5239 49.72C44.6439 48.92 43.4439 48.52 41.9239 48.52C40.7239 48.52 39.7906 48.7867 39.1239 49.32C38.4572 49.8533 38.1239 50.5867 38.1239 51.52C38.1239 52.1867 38.3106 52.7467 38.6839 53.2C39.0839 53.6533 39.6706 54.0667 40.4439 54.44C41.2172 54.8133 42.4172 55.2933 44.0439 55.88C45.8306 56.5467 47.2439 57.1467 48.2839 57.68C49.3239 58.2133 50.2572 59.0133 51.0839 60.08C51.9106 61.1467 52.3239 62.52 52.3239 64.2ZM63.2145 66.92C63.1612 66.9733 63.1479 67.0267 63.1745 67.08C63.2012 67.1333 63.2545 67.16 63.3345 67.16H74.1745C74.3079 67.16 74.4145 67.2133 74.4945 67.32C74.6012 67.4 74.6545 67.5067 74.6545 67.64V71.52C74.6545 71.6533 74.6012 71.7733 74.4945 71.88C74.4145 71.96 74.3079 72 74.1745 72H56.1745C56.0412 72 55.9212 71.96 55.8145 71.88C55.7345 71.7733 55.6945 71.6533 55.6945 71.52V67.84C55.6945 67.6 55.7745 67.4 55.9345 67.24C57.2412 65.96 58.5745 64.5733 59.9345 63.08C61.2945 61.56 62.1479 60.6133 62.4945 60.24C63.2412 59.36 64.0012 58.52 64.7745 57.72C67.2012 55.0267 68.4145 53.0267 68.4145 51.72C68.4145 50.7867 68.0812 50.0267 67.4145 49.44C66.7479 48.8267 65.8812 48.52 64.8145 48.52C63.7479 48.52 62.8812 48.8267 62.2145 49.44C61.5479 50.0267 61.2145 50.8133 61.2145 51.8V52.8C61.2145 52.9333 61.1612 53.0533 61.0545 53.16C60.9745 53.24 60.8679 53.28 60.7345 53.28H56.0145C55.8812 53.28 55.7612 53.24 55.6545 53.16C55.5745 53.0533 55.5345 52.9333 55.5345 52.8V50.92C55.6145 49.48 56.0679 48.2133 56.8945 47.12C57.7212 46 58.8145 45.1467 60.1745 44.56C61.5612 43.9733 63.1079 43.68 64.8145 43.68C66.7079 43.68 68.3479 44.04 69.7345 44.76C71.1479 45.4533 72.2279 46.4 72.9745 47.6C73.7479 48.8 74.1345 50.1333 74.1345 51.6C74.1345 52.72 73.8545 53.8667 73.2945 55.04C72.7345 56.2133 71.8945 57.48 70.7745 58.84C69.9479 59.88 69.0545 60.9067 68.0945 61.92C67.1345 62.9333 65.7079 64.4 63.8145 66.32L63.2145 66.92ZM82.043 44.12C82.1763 44.04 82.3763 44 82.643 44H87.483C87.6163 44 87.723 44.0533 87.803 44.16C87.9096 44.24 87.963 44.3467 87.963 44.48V71.52C87.963 71.6533 87.9096 71.7733 87.803 71.88C87.723 71.96 87.6163 72 87.483 72H82.803C82.6696 72 82.5496 71.96 82.443 71.88C82.363 71.7733 82.323 71.6533 82.323 71.52V49.6C82.323 49.5467 82.2963 49.4933 82.243 49.44C82.1896 49.3867 82.1363 49.3733 82.083 49.4L78.123 50.48L77.963 50.52C77.723 50.52 77.603 50.3733 77.603 50.08L77.483 46.64C77.483 46.3733 77.603 46.1867 77.843 46.08L82.043 44.12ZM101.544 72.44C98.6103 72.44 96.2903 71.6267 94.5836 70C92.8769 68.3467 92.0236 66.1067 92.0236 63.28V52.72C92.0236 49.9467 92.8769 47.7467 94.5836 46.12C96.2903 44.4933 98.6103 43.68 101.544 43.68C104.477 43.68 106.797 44.4933 108.504 46.12C110.237 47.7467 111.104 49.9467 111.104 52.72V63.28C111.104 66.1067 110.237 68.3467 108.504 70C106.797 71.6267 104.477 72.44 101.544 72.44ZM101.544 67.6C102.744 67.6 103.69 67.24 104.384 66.52C105.104 65.7733 105.464 64.7867 105.464 63.56V52.56C105.464 51.3333 105.104 50.36 104.384 49.64C103.69 48.8933 102.744 48.52 101.544 48.52C100.37 48.52 99.4236 48.8933 98.7036 49.64C98.0103 50.36 97.6636 51.3333 97.6636 52.56V63.56C97.6636 64.7867 98.0103 65.7733 98.7036 66.52C99.4236 67.24 100.37 67.6 101.544 67.6Z" fill="white"/>
<path d="M44.6811 101C44.5344 101 44.4391 100.927 44.3951 100.78L39.8631 85.908L39.8411 85.82C39.8411 85.6733 39.9217 85.6 40.0831 85.6H42.8551C43.0164 85.6 43.1191 85.6733 43.1631 85.82L46.0891 96.556C46.1037 96.6 46.1257 96.622 46.1551 96.622C46.1844 96.622 46.2064 96.6 46.2211 96.556L49.1031 85.82C49.1471 85.6733 49.2497 85.6 49.4111 85.6H52.1171C52.2051 85.6 52.2711 85.6293 52.3151 85.688C52.3591 85.7467 52.3664 85.82 52.3371 85.908L47.7391 100.78C47.6951 100.927 47.5997 101 47.4531 101H44.6811ZM61.8517 101C61.7051 101 61.6097 100.927 61.5657 100.78L60.9057 98.624C60.8764 98.5653 60.8397 98.536 60.7957 98.536H55.3837C55.3397 98.536 55.3031 98.5653 55.2737 98.624L54.6357 100.78C54.5917 100.927 54.4964 101 54.3497 101H51.5557C51.4677 101 51.4017 100.978 51.3577 100.934C51.3137 100.875 51.3064 100.795 51.3357 100.692L56.0877 85.82C56.1317 85.6733 56.2271 85.6 56.3737 85.6H59.8277C59.9744 85.6 60.0697 85.6733 60.1137 85.82L64.8657 100.692C64.8804 100.721 64.8877 100.758 64.8877 100.802C64.8877 100.934 64.8071 101 64.6457 101H61.8517ZM56.0657 96.006C56.0511 96.094 56.0804 96.138 56.1537 96.138H60.0257C60.1137 96.138 60.1431 96.094 60.1137 96.006L58.1337 89.472C58.1191 89.4133 58.0971 89.3913 58.0677 89.406C58.0384 89.406 58.0164 89.428 58.0017 89.472L56.0657 96.006ZM67.0855 101C67.0122 101 66.9462 100.978 66.8875 100.934C66.8435 100.875 66.8215 100.809 66.8215 100.736V85.864C66.8215 85.7907 66.8435 85.732 66.8875 85.688C66.9462 85.6293 67.0122 85.6 67.0855 85.6H69.6595C69.7328 85.6 69.7915 85.6293 69.8355 85.688C69.8942 85.732 69.9235 85.7907 69.9235 85.864V98.228C69.9235 98.3013 69.9602 98.338 70.0335 98.338H77.2275C77.3008 98.338 77.3595 98.3673 77.4035 98.426C77.4622 98.47 77.4915 98.5287 77.4915 98.602V100.736C77.4915 100.809 77.4622 100.875 77.4035 100.934C77.3595 100.978 77.3008 101 77.2275 101H67.0855ZM84.9993 101.176C83.87 101.176 82.8727 100.956 82.0073 100.516C81.1567 100.076 80.4893 99.46 80.0053 98.668C79.536 97.8613 79.3013 96.9373 79.3013 95.896V85.864C79.3013 85.7907 79.3233 85.732 79.3673 85.688C79.426 85.6293 79.492 85.6 79.5653 85.6H82.1393C82.2127 85.6 82.2713 85.6293 82.3153 85.688C82.374 85.732 82.4033 85.7907 82.4033 85.864V95.918C82.4033 96.6953 82.638 97.326 83.1073 97.81C83.5913 98.2793 84.222 98.514 84.9993 98.514C85.7767 98.514 86.4 98.2793 86.8693 97.81C87.3533 97.326 87.5953 96.6953 87.5953 95.918V85.864C87.5953 85.7907 87.6173 85.732 87.6613 85.688C87.72 85.6293 87.786 85.6 87.8593 85.6H90.4333C90.5067 85.6 90.5653 85.6293 90.6093 85.688C90.668 85.732 90.6973 85.7907 90.6973 85.864V95.896C90.6973 96.9373 90.4553 97.8613 89.9713 98.668C89.502 99.46 88.8347 100.076 87.9693 100.516C87.1187 100.956 86.1287 101.176 84.9993 101.176ZM103.939 87.998C103.939 88.0713 103.91 88.1373 103.851 88.196C103.807 88.24 103.749 88.262 103.675 88.262H96.4593C96.3859 88.262 96.3493 88.2987 96.3493 88.372V91.782C96.3493 91.8553 96.3859 91.892 96.4593 91.892H101.189C101.263 91.892 101.321 91.9213 101.365 91.98C101.424 92.024 101.453 92.0827 101.453 92.156V94.29C101.453 94.3633 101.424 94.4293 101.365 94.488C101.321 94.532 101.263 94.554 101.189 94.554H96.4593C96.3859 94.554 96.3493 94.5907 96.3493 94.664V98.228C96.3493 98.3013 96.3859 98.338 96.4593 98.338H103.675C103.749 98.338 103.807 98.3673 103.851 98.426C103.91 98.47 103.939 98.5287 103.939 98.602V100.736C103.939 100.809 103.91 100.875 103.851 100.934C103.807 100.978 103.749 101 103.675 101H93.5113C93.4379 101 93.3719 100.978 93.3133 100.934C93.2693 100.875 93.2473 100.809 93.2473 100.736V85.864C93.2473 85.7907 93.2693 85.732 93.3133 85.688C93.3719 85.6293 93.4379 85.6 93.5113 85.6H103.675C103.749 85.6 103.807 85.6293 103.851 85.688C103.91 85.732 103.939 85.7907 103.939 85.864V87.998Z" fill="white"/>
</g>
<defs>
<clipPath id="clip0_225_5911">
<rect width="144" height="144" fill="white"/>
</clipPath>
</defs>
</svg>
