<svg width="90" height="52" viewBox="0 0 90 52" fill="none" xmlns="http://www.w3.org/2000/svg">
<path fill-rule="evenodd" clip-rule="evenodd" d="M37.7825 48.9098C37.3575 50.8931 36.2242 51.8848 34.3825 51.8848H2.72C1.58667 51.8848 0.8075 51.566 0.3825 50.9285C-0.0425 50.291 -0.113333 49.4056 0.17 48.2723L15.47 3.43477C16.0367 1.73477 17.2408 0.884766 19.0825 0.884766H42.8825C45.2908 0.884766 46.2825 2.0181 45.8575 4.28477L37.7825 48.9098ZM81.5579 48.9098C81.2746 50.8931 80.1412 51.8848 78.1579 51.8848H46.4954C45.3621 51.8848 44.5829 51.566 44.1579 50.9285C43.7329 50.291 43.6621 49.4056 43.9454 48.2723L58.8204 3.43477C59.3871 1.73477 60.5912 0.884766 62.4329 0.884766H86.4454C88.7121 0.884766 89.6329 2.0181 89.2079 4.28477L81.5579 48.9098Z" fill="#FFC230"/>
</svg>
