<svg width="80" height="80" viewBox="0 0 80 80" fill="none" xmlns="http://www.w3.org/2000/svg">
<path d="M12.6492 3.14981C12.5805 3.16231 12.5117 3.18106 12.4492 3.19981C11.7055 3.36856 11.1805 4.03731 11.1992 4.79981V19.1998H25.5992C26.1742 19.2061 26.7117 18.9061 27.0055 18.4061C27.293 17.9061 27.293 17.2936 27.0055 16.7936C26.7117 16.2936 26.1742 15.9936 25.5992 15.9998H16.4992C22.5617 10.0686 30.843 6.39981 39.9992 6.39981C58.5742 6.39981 73.5992 21.4248 73.5992 39.9998C73.5992 58.5748 58.5742 73.5998 39.9992 73.5998C21.4242 73.5998 6.39922 58.5748 6.39922 39.9998C6.39922 34.4436 7.76797 29.2123 10.1492 24.5998L7.29922 23.1498C4.68672 28.1998 3.19922 33.9311 3.19922 39.9998C3.19922 60.3061 19.693 76.7998 39.9992 76.7998C60.3055 76.7998 76.7992 60.3061 76.7992 39.9998C76.7992 19.6936 60.3055 3.19981 39.9992 3.19981C30.0367 3.19981 21.0242 7.20605 14.3992 13.6498V4.79981C14.418 4.33731 14.2305 3.89356 13.8992 3.58106C13.5617 3.26231 13.1055 3.10606 12.6492 3.14981ZM39.9992 7.99981C39.118 7.99981 38.3992 8.71856 38.3992 9.59981C38.3992 10.4811 39.118 11.1998 39.9992 11.1998C40.8805 11.1998 41.5992 10.4811 41.5992 9.59981C41.5992 8.71856 40.8805 7.99981 39.9992 7.99981ZM55.1992 12.0498C54.318 12.0498 53.5992 12.7686 53.5992 13.6498C53.5992 14.5311 54.318 15.2498 55.1992 15.2498C56.0805 15.2498 56.7992 14.5311 56.7992 13.6498C56.7992 12.7686 56.0805 12.0498 55.1992 12.0498ZM66.3492 23.1998C65.468 23.1998 64.7492 23.9186 64.7492 24.7998C64.7492 25.6811 65.468 26.3998 66.3492 26.3998C67.2305 26.3998 67.9492 25.6811 67.9492 24.7998C67.9492 23.9186 67.2305 23.1998 66.3492 23.1998ZM50.5492 27.0498C46.1242 27.0498 42.9992 29.5873 42.9992 33.1498C42.9992 35.5686 44.5055 37.5061 46.8492 38.0998V38.3498C43.9617 38.9436 42.0992 41.2248 42.0992 44.0998C42.0992 47.9873 45.5305 50.6998 50.5492 50.6998C55.568 50.6998 59.0492 48.0061 59.0492 44.0998C59.0492 41.1936 57.143 38.8998 54.2492 38.3498V38.0998C56.6242 37.4936 58.0992 35.5873 58.0992 33.1498C58.0992 29.5873 54.9742 27.0498 50.5492 27.0498ZM30.0992 27.5998C26.0805 33.6186 22.718 38.8623 20.6992 42.5498V45.7998H31.6992V50.1498H35.0992V45.7998H38.1992V42.6498H35.0992V27.5998H30.0992ZM50.5492 29.8998C53.018 29.8998 54.6492 31.3436 54.6492 33.4498C54.6492 35.5311 52.9992 36.9498 50.5492 36.9498C48.0992 36.9498 46.4492 35.5311 46.4492 33.4498C46.4492 31.3373 48.0805 29.8998 50.5492 29.8998ZM31.5492 30.6998H31.7492V42.7498H24.0992V42.4998C26.7555 37.8873 29.318 33.9311 31.5492 30.6998ZM9.59922 38.3998C8.71797 38.3998 7.99922 39.1186 7.99922 39.9998C7.99922 40.8811 8.71797 41.5998 9.59922 41.5998C10.4805 41.5998 11.1992 40.8811 11.1992 39.9998C11.1992 39.1186 10.4805 38.3998 9.59922 38.3998ZM70.3992 38.3998C69.518 38.3998 68.7992 39.1186 68.7992 39.9998C68.7992 40.8811 69.518 41.5998 70.3992 41.5998C71.2805 41.5998 71.9992 40.8811 71.9992 39.9998C71.9992 39.1186 71.2805 38.3998 70.3992 38.3998ZM50.5492 39.8498C53.443 39.8498 55.4492 41.4373 55.4492 43.7998C55.4492 46.1436 53.443 47.7998 50.5492 47.7998C47.6555 47.7998 45.6492 46.1436 45.6492 43.7998C45.6492 41.4436 47.6555 39.8498 50.5492 39.8498ZM13.6492 53.5998C12.768 53.5998 12.0492 54.3186 12.0492 55.1998C12.0492 56.0811 12.768 56.7998 13.6492 56.7998C14.5305 56.7998 15.2492 56.0811 15.2492 55.1998C15.2492 54.3186 14.5305 53.5998 13.6492 53.5998ZM66.3492 53.5998C65.468 53.5998 64.7492 54.3186 64.7492 55.1998C64.7492 56.0811 65.468 56.7998 66.3492 56.7998C67.2305 56.7998 67.9492 56.0811 67.9492 55.1998C67.9492 54.3186 67.2305 53.5998 66.3492 53.5998ZM24.7992 64.7498C23.918 64.7498 23.1992 65.4686 23.1992 66.3498C23.1992 67.2311 23.918 67.9498 24.7992 67.9498C25.6805 67.9498 26.3992 67.2311 26.3992 66.3498C26.3992 65.4686 25.6805 64.7498 24.7992 64.7498ZM55.1992 64.7498C54.318 64.7498 53.5992 65.4686 53.5992 66.3498C53.5992 67.2311 54.318 67.9498 55.1992 67.9498C56.0805 67.9498 56.7992 67.2311 56.7992 66.3498C56.7992 65.4686 56.0805 64.7498 55.1992 64.7498ZM39.9992 68.7998C39.118 68.7998 38.3992 69.5186 38.3992 70.3998C38.3992 71.2811 39.118 71.9998 39.9992 71.9998C40.8805 71.9998 41.5992 71.2811 41.5992 70.3998C41.5992 69.5186 40.8805 68.7998 39.9992 68.7998Z" fill="#FFC230"/>
</svg>
