<svg width="80" height="80" viewBox="0 0 80 80" fill="none" xmlns="http://www.w3.org/2000/svg">
<path d="M22.4004 6.38477C13.5823 6.38477 6.40039 13.5666 6.40039 22.3848V57.5848C6.40039 66.4029 13.5823 73.5848 22.4004 73.5848H57.6004C66.4185 73.5848 73.6004 66.4029 73.6004 57.5848V22.3848C73.6004 13.5666 66.4185 6.38477 57.6004 6.38477H22.4004ZM22.4004 9.58477H57.6004C64.6895 9.58477 70.4004 15.2957 70.4004 22.3848V57.5848C70.4004 64.6738 64.6895 70.3848 57.6004 70.3848H22.4004C15.3113 70.3848 9.60039 64.6738 9.60039 57.5848V22.3848C9.60039 15.2957 15.3113 9.58477 22.4004 9.58477ZM28.8785 17.6566C25.606 17.5152 23.1222 18.7587 21.5598 20.2535C20.7785 21.0009 20.2145 21.8007 19.8285 22.5473C19.4425 23.2939 19.1973 23.9094 19.1973 24.7098C19.1973 24.6385 19.1797 25.0127 19.1691 25.4473C19.1586 25.8818 19.1605 26.4677 19.2004 27.1754C19.2803 28.5908 19.5202 30.5055 20.1566 32.7754C21.4295 37.3152 24.2955 43.2705 30.5129 49.4879C36.7303 55.7053 42.6852 58.5709 47.2254 59.8441C49.4955 60.4808 51.4098 60.7203 52.8254 60.8004C53.5332 60.8404 54.1158 60.8421 54.5504 60.8316C54.985 60.8211 55.3621 60.8035 55.291 60.8035C56.0914 60.8035 56.7069 60.5583 57.4535 60.1723C58.2001 59.7863 58.9998 59.2222 59.7473 58.441C61.2421 56.8786 62.4855 54.3948 62.3441 51.1223C62.277 49.5615 61.4105 48.1794 60.1316 47.3598C59.1433 46.7265 57.6091 45.7435 55.6066 44.4629C53.2833 42.9785 50.3116 42.8724 47.8879 44.2004L48.0254 44.1316L46.141 44.941L46.0035 45.0379C45.5455 45.3595 44.9782 45.4191 44.4629 45.2035C43.0193 44.5998 40.77 43.4137 38.6785 41.3223C36.5871 39.2308 35.4009 36.9815 34.7973 35.5379C34.5817 35.0225 34.6413 34.4553 34.9629 33.9973L35.0598 33.8598L35.8691 31.9754L35.8004 32.1129C37.128 29.6898 37.0248 26.7182 35.5379 24.3941C34.2573 22.3917 33.2743 20.8574 32.641 19.8691C31.8214 18.5903 30.4393 17.7237 28.8785 17.6566ZM28.741 20.8535C29.1898 20.8728 29.6533 21.1354 29.9473 21.5941C30.5812 22.5835 31.5647 24.1184 32.8441 26.1191C33.6932 27.4463 33.7529 29.1905 32.9941 30.5754L32.9566 30.6441L32.1848 32.4473L32.3441 32.1566C31.3985 33.5034 31.2085 35.2524 31.8441 36.7723C32.5653 38.4967 33.9443 41.113 36.416 43.5848C38.8878 46.0565 41.5041 47.4355 43.2285 48.1566C44.7484 48.7923 46.4974 48.6023 47.8441 47.6566L47.5535 47.816L49.3566 47.0441L49.4254 47.0066C50.8097 46.2482 52.5538 46.3114 53.8816 47.1598V47.1566C55.8824 48.4361 57.4173 49.4196 58.4066 50.0535C58.8654 50.3475 59.128 50.8109 59.1473 51.2598C59.2523 53.6896 58.4083 55.2109 57.4348 56.2285C56.948 56.7373 56.4201 57.1065 55.9848 57.3316C55.5494 57.5567 55.133 57.6035 55.291 57.6035C54.9976 57.6035 54.843 57.6228 54.4754 57.6316C54.1078 57.6406 53.615 57.6411 53.0066 57.6066C51.7899 57.5378 50.1104 57.3301 48.0879 56.7629C44.0429 55.6285 38.6204 53.0704 32.7754 47.2254C26.9304 41.3804 24.3719 35.9575 23.2379 31.9129C22.6709 29.8906 22.4628 28.2107 22.3941 26.9941C22.3598 26.3858 22.3602 25.893 22.3691 25.5254C22.3781 25.1578 22.3973 25.0035 22.3973 24.7098C22.3973 24.8678 22.444 24.4514 22.6691 24.016C22.8942 23.5807 23.2635 23.0528 23.7723 22.566C24.7898 21.5925 26.3111 20.7485 28.741 20.8535Z" fill="#FFC230"/>
</svg>
