<svg width="80" height="80" viewBox="0 0 80 80" fill="none" xmlns="http://www.w3.org/2000/svg">
<path d="M33.6008 3.19922C26.5508 3.19922 20.8008 8.94922 20.8008 15.9992C20.8008 20.7242 23.3758 24.8367 27.2008 27.0492V51.7492L18.9508 43.4492C16.4633 40.9617 12.3883 40.9617 9.90078 43.4492C7.41328 45.9367 7.41328 50.0117 9.90078 52.4992L28.0508 70.6992C31.9508 74.5992 37.2383 76.7992 42.7508 76.7992H54.4008C62.332 76.7992 68.8008 70.3305 68.8008 62.3992V41.5992C68.8008 38.0805 65.9195 35.1992 62.4008 35.1992C61.0695 35.1992 59.832 35.593 58.8008 36.2992C57.9258 33.8055 55.582 31.9992 52.8008 31.9992C51.2195 31.9992 49.8195 32.6367 48.7008 33.5992C47.5883 31.7055 45.5445 30.3992 43.2008 30.3992C42.0258 30.3992 40.9508 30.743 40.0008 31.2992V27.0492C43.8258 24.8367 46.4008 20.7242 46.4008 15.9992C46.4008 8.94922 40.6508 3.19922 33.6008 3.19922ZM33.6008 6.39922C38.9195 6.39922 43.2008 10.6805 43.2008 15.9992C43.2008 18.8492 41.9695 21.3992 40.0008 23.1492V15.9992C40.0008 12.4805 37.1195 9.59922 33.6008 9.59922C30.082 9.59922 27.2008 12.4805 27.2008 15.9992V23.1492C25.232 21.3992 24.0008 18.8555 24.0008 15.9992C24.0008 10.6805 28.282 6.39922 33.6008 6.39922ZM33.6008 12.7992C35.3883 12.7992 36.8008 14.2117 36.8008 15.9992V25.8992C36.7758 26.068 36.7758 26.2305 36.8008 26.3992V39.9992C36.7883 40.493 37.007 40.9617 37.3883 41.2742C37.7633 41.5867 38.2695 41.7055 38.7508 41.5992C38.9133 41.5555 39.0633 41.4867 39.2008 41.3992C39.232 41.3867 39.2695 41.368 39.3008 41.3492C39.3945 41.2742 39.4758 41.193 39.5508 41.0992C39.8383 40.8055 39.9945 40.4117 40.0008 39.9992V36.7992C40.0008 35.0117 41.4133 33.5992 43.2008 33.5992C44.9883 33.5992 46.4008 35.0117 46.4008 36.7992V39.9992C46.407 40.0992 46.4258 40.1992 46.4508 40.2992C46.4758 40.4555 46.5258 40.6055 46.6008 40.7492C46.6633 40.893 46.7508 41.0305 46.8508 41.1492C46.9258 41.2242 47.0133 41.293 47.1008 41.3492C47.1508 41.3867 47.2008 41.418 47.2508 41.4492C47.3945 41.5242 47.5445 41.5742 47.7008 41.5992C47.9133 41.643 48.1383 41.643 48.3508 41.5992C48.5133 41.5555 48.6633 41.4867 48.8008 41.3992C48.832 41.3867 48.8695 41.368 48.9008 41.3492C48.9945 41.2742 49.0758 41.193 49.1508 41.0992C49.4383 40.8055 49.5945 40.4117 49.6008 39.9992V38.3992C49.6008 36.6117 51.0133 35.1992 52.8008 35.1992C54.5883 35.1992 56.0008 36.6117 56.0008 38.3992V41.5992C56.0008 41.6492 56.0008 41.6992 56.0008 41.7492V43.1992C55.9945 43.7742 56.2945 44.3117 56.7945 44.6055C57.2945 44.893 57.907 44.893 58.407 44.6055C58.907 44.3117 59.207 43.7742 59.2008 43.1992V41.8492C59.207 41.768 59.207 41.6805 59.2008 41.5992C59.2008 39.8117 60.6133 38.3992 62.4008 38.3992C64.1883 38.3992 65.6008 39.8117 65.6008 41.5992V62.3992C65.6008 68.6055 60.607 73.5992 54.4008 73.5992H42.7508C38.082 73.5992 33.6008 71.7492 30.3008 68.4492L12.1508 50.2492C10.8883 48.9867 10.8883 47.0117 12.1508 45.7492C13.4133 44.4867 15.3883 44.4867 16.6508 45.7492L27.4508 56.4992C27.507 56.5867 27.5758 56.6742 27.6508 56.7492C27.682 56.7867 27.7133 56.818 27.7508 56.8492C27.9633 57.0305 28.2258 57.1492 28.5008 57.1992C28.7133 57.243 28.9383 57.243 29.1508 57.1992C29.2508 57.1742 29.357 57.143 29.4508 57.0992C29.5008 57.068 29.5508 57.0367 29.6008 56.9992C30.057 56.7367 30.357 56.2742 30.4008 55.7492C30.4008 55.7305 30.4008 55.718 30.4008 55.6992C30.4008 55.668 30.4008 55.6305 30.4008 55.5992C30.407 55.5305 30.407 55.468 30.4008 55.3992V26.2992C30.4258 26.1305 30.4258 25.968 30.4008 25.7992V15.9992C30.4008 14.2117 31.8133 12.7992 33.6008 12.7992Z" fill="#FFC230"/>
</svg>
