<svg width="162" height="55" viewBox="0 0 162 55" fill="none" xmlns="http://www.w3.org/2000/svg">
<path d="M143.595 50.7137C143.595 51.0065 143.448 51.1528 143.156 51.1528H133.891C133.598 51.1528 133.452 51.0065 133.452 50.7137V47.9476C133.452 47.6549 133.598 47.5085 133.891 47.5085H139.204C139.321 47.5085 139.38 47.45 139.38 47.3329V14.8853C139.38 14.7682 139.321 14.7097 139.204 14.7097H133.891C133.598 14.7097 133.452 14.5633 133.452 14.2706V11.4606C133.452 11.1678 133.598 11.0215 133.891 11.0215H143.156C143.448 11.0215 143.595 11.1678 143.595 11.4606V50.7137Z" fill="#E31E23"/>
<path d="M117.029 22.7905C119.43 22.7905 121.332 23.493 122.737 24.8981C124.142 26.2738 124.845 28.1472 124.845 30.5182V45.0077C124.845 45.3004 124.699 45.4467 124.406 45.4467H121.069C120.776 45.4467 120.63 45.3004 120.63 45.0077V31.3525C120.63 29.8889 120.205 28.7034 119.357 27.796C118.508 26.8885 117.381 26.4348 115.976 26.4348C114.6 26.4348 113.473 26.8885 112.595 27.796C111.717 28.7034 111.278 29.8742 111.278 31.3086V45.0077C111.278 45.3004 111.131 45.4467 110.839 45.4467H107.502C107.209 45.4467 107.062 45.3004 107.062 45.0077V23.537C107.062 23.2442 107.209 23.0979 107.502 23.0979H110.839C111.131 23.0979 111.278 23.2442 111.278 23.537V25.1176C111.278 25.1762 111.292 25.2201 111.322 25.2493C111.38 25.2786 111.424 25.264 111.453 25.2054C112.712 23.5955 114.571 22.7905 117.029 22.7905Z" fill="#E31E23"/>
<path d="M98.4175 19.585C97.5979 19.585 96.9246 19.3215 96.3978 18.7947C95.8709 18.2678 95.6074 17.5945 95.6074 16.7749C95.6074 15.9553 95.8709 15.2821 96.3978 14.7552C96.9246 14.2283 97.5979 13.9648 98.4175 13.9648C99.2371 13.9648 99.9103 14.2283 100.437 14.7552C100.964 15.2821 101.228 15.9553 101.228 16.7749C101.228 17.5945 100.964 18.2678 100.437 18.7947C99.9103 19.3215 99.2371 19.585 98.4175 19.585ZM96.6612 45.4025C96.3685 45.4025 96.2221 45.2562 96.2221 44.9634V23.5367C96.2221 23.2439 96.3685 23.0976 96.6612 23.0976H99.9982C100.291 23.0976 100.437 23.2439 100.437 23.5367V44.9634C100.437 45.2562 100.291 45.4025 99.9982 45.4025H96.6612Z" fill="#E31E23"/>
<path d="M85.7755 23.5325C85.7755 23.2398 85.9219 23.0934 86.2146 23.0934H89.5516C89.8443 23.0934 89.9906 23.2398 89.9906 23.5325V44.3007C89.9906 47.8426 88.9808 50.3746 86.961 51.8967C84.9706 53.4188 82.2922 54.1799 78.926 54.1799C78.4576 54.1799 77.7258 54.1506 76.7306 54.092C76.4379 54.0628 76.2915 53.9018 76.2915 53.6091L76.4233 50.5795C76.4233 50.4624 76.4672 50.3599 76.555 50.2721C76.6428 50.1843 76.7599 50.155 76.9062 50.1843C77.316 50.2136 77.9161 50.2282 78.7064 50.2282C81.1945 50.2282 82.9947 49.7599 84.107 48.8232C85.2194 47.9157 85.7755 46.3644 85.7755 44.169V43.3787C85.7755 43.3201 85.7463 43.2762 85.6877 43.2469C85.6584 43.2177 85.6145 43.2323 85.556 43.2908C84.3266 44.7251 82.5264 45.4423 80.1554 45.4423C78.2527 45.4423 76.5257 44.9447 74.9743 43.9494C73.4522 42.9542 72.3984 41.4906 71.813 39.5587C71.4324 38.2708 71.2422 36.4852 71.2422 34.202C71.2422 31.7725 71.4617 29.8991 71.9008 28.5819C72.457 26.8256 73.4376 25.4205 74.8426 24.3668C76.2769 23.2837 77.96 22.7422 79.8919 22.7422C82.2922 22.7422 84.1802 23.474 85.556 24.9376C85.6145 24.9961 85.6584 25.0254 85.6877 25.0254C85.7463 24.9961 85.7755 24.9522 85.7755 24.8936V23.5325ZM85.5121 38.2854C85.5999 37.8171 85.6584 37.3194 85.6877 36.7925C85.7463 36.2657 85.7755 35.3875 85.7755 34.1581C85.7755 32.9287 85.7463 32.0652 85.6877 31.5676C85.6584 31.0407 85.5853 30.5431 85.4682 30.0747C85.234 28.9917 84.7071 28.1135 83.8875 27.4403C83.0679 26.7378 82.0434 26.3865 80.814 26.3865C79.5846 26.3865 78.5601 26.7378 77.7405 27.4403C76.9209 28.1135 76.3354 28.9917 75.9842 30.0747C75.6622 30.9529 75.5012 32.314 75.5012 34.1581C75.5012 36.1778 75.6476 37.5536 75.9403 38.2854C76.233 39.3684 76.8038 40.2612 77.6527 40.9637C78.5308 41.637 79.5846 41.9736 80.814 41.9736C82.1019 41.9736 83.1411 41.637 83.9314 40.9637C84.751 40.2612 85.2779 39.3684 85.5121 38.2854Z" fill="#E31E23"/>
<path d="M66.2161 22.8779C67.1528 22.8779 68.0017 23.0682 68.7628 23.4487C68.9677 23.5365 69.0409 23.7122 68.9823 23.9756L68.2798 27.2687C68.2505 27.5321 68.0749 27.6199 67.7529 27.5321C67.2553 27.3272 66.6699 27.2248 65.9966 27.2248L65.3819 27.2687C64.0061 27.3272 62.8646 27.8102 61.9571 28.7176C61.079 29.5958 60.6399 30.752 60.6399 32.1863V45.0072C60.6399 45.3 60.4936 45.4463 60.2008 45.4463H56.8639C56.5712 45.4463 56.4248 45.3 56.4248 45.0072V23.5365C56.4248 23.2438 56.5712 23.0975 56.8639 23.0975H60.2008C60.4936 23.0975 60.6399 23.2438 60.6399 23.5365V25.8636C60.6399 25.9514 60.6545 26.01 60.6838 26.0393C60.7424 26.0393 60.7863 26.01 60.8155 25.9514C62.1328 23.9024 63.933 22.8779 66.2161 22.8779Z" fill="#E31E23"/>
<path d="M47.7788 19.585C46.9592 19.585 46.286 19.3215 45.7591 18.7947C45.2322 18.2678 44.9688 17.5945 44.9688 16.7749C44.9688 15.9553 45.2322 15.2821 45.7591 14.7552C46.286 14.2283 46.9592 13.9648 47.7788 13.9648C48.5984 13.9648 49.2717 14.2283 49.7986 14.7552C50.3255 15.2821 50.5889 15.9553 50.5889 16.7749C50.5889 17.5945 50.3255 18.2678 49.7986 18.7947C49.2717 19.3215 48.5984 19.585 47.7788 19.585ZM46.0225 45.4025C45.7298 45.4025 45.5835 45.2562 45.5835 44.9634V23.5367C45.5835 23.2439 45.7298 23.0976 46.0225 23.0976H49.3595C49.6522 23.0976 49.7986 23.2439 49.7986 23.5367V44.9634C49.7986 45.2562 49.6522 45.4025 49.3595 45.4025H46.0225Z" fill="#E31E23"/>
<path d="M27.1554 45.4451C26.892 45.4451 26.7164 45.328 26.6286 45.0939L17.2324 15.1929L17.1885 15.0173C17.1885 14.8124 17.3202 14.71 17.5836 14.71H21.1401C21.4036 14.71 21.5792 14.827 21.667 15.0612L28.9117 39.342C28.941 39.4005 28.9849 39.4298 29.0435 39.4298C29.102 39.4298 29.1459 39.4005 29.1752 39.342L36.4199 15.0612C36.5077 14.827 36.6687 14.71 36.9029 14.71H40.3716C40.6936 14.71 40.8106 14.871 40.7228 15.1929L31.2388 45.0939C31.151 45.328 30.9754 45.4451 30.7119 45.4451H27.1554Z" fill="#E31E23"/>
<path d="M0.439074 51.1528C0.146358 51.1528 0 51.0065 0 50.7137V11.4606C0 11.1678 0.146358 11.0215 0.439074 11.0215H9.65962C9.95234 11.0215 10.0987 11.1678 10.0987 11.4606V14.2706C10.0987 14.5633 9.95234 14.7097 9.65962 14.7097H4.39074C4.27365 14.7097 4.21511 14.7682 4.21511 14.8853V47.3329C4.21511 47.45 4.27365 47.5085 4.39074 47.5085H9.70353C9.99625 47.5085 10.1426 47.6549 10.1426 47.9476V50.7137C10.1426 51.0065 9.99625 51.1528 9.70353 51.1528H0.439074Z" fill="#E31E23"/>
<path d="M156.175 11.9764C155.958 11.9764 155.85 11.8682 155.85 11.6516L155.882 7.6889C155.882 7.55897 155.828 7.52649 155.72 7.59145L152.114 9.67026C152.071 9.69192 152.017 9.70274 151.952 9.70274C151.822 9.70274 151.725 9.64861 151.66 9.54034L151.27 8.76079C151.248 8.71748 151.237 8.66334 151.237 8.59838C151.237 8.46845 151.292 8.37101 151.4 8.30604L154.973 6.32468C155.016 6.30302 155.038 6.27054 155.038 6.22723C155.038 6.18393 155.016 6.15144 154.973 6.12979L151.4 4.14843C151.313 4.10512 151.259 4.04015 151.237 3.95354C151.216 3.86692 151.227 3.7803 151.27 3.69369L151.66 2.91413C151.703 2.82751 151.768 2.77338 151.855 2.75172C151.941 2.73007 152.028 2.7409 152.114 2.78421L155.72 4.86302C155.828 4.90632 155.882 4.87384 155.882 4.76557L155.85 0.802841C155.85 0.586299 155.958 0.478027 156.175 0.478027H157.052C157.268 0.478027 157.376 0.586299 157.376 0.802841L157.344 4.76557C157.344 4.87384 157.398 4.90632 157.506 4.86302L161.112 2.78421C161.155 2.76255 161.209 2.75172 161.274 2.75172C161.404 2.75172 161.502 2.80586 161.566 2.91413L161.956 3.69369C161.978 3.73699 161.989 3.79113 161.989 3.85609C161.989 3.98602 161.935 4.08346 161.826 4.14843L158.221 6.12979C158.199 6.15144 158.188 6.18393 158.188 6.22723C158.188 6.27054 158.199 6.30302 158.221 6.32468L161.826 8.30604C161.913 8.34935 161.967 8.41432 161.989 8.50093C162.01 8.58755 162 8.67417 161.956 8.76079L161.566 9.54034C161.523 9.62695 161.458 9.68109 161.372 9.70274C161.285 9.7244 161.198 9.71357 161.112 9.67026L157.506 7.59145C157.398 7.52649 157.344 7.55897 157.344 7.6889L157.376 11.6516C157.376 11.8682 157.268 11.9764 157.052 11.9764H156.175Z" fill="#E31E23"/>
</svg>
