<svg width="140" height="15" viewBox="0 0 140 15" fill="none" xmlns="http://www.w3.org/2000/svg">
<path id="icons/underline1" d="M7.95399 5.11765C12.4601 5.11765 17.3579 4.94131 22.2558 4.7647L39.4964 3.52924C45.9616 2.99995 50.6637 2.47038 53.7983 2.29404C64.5737 1.58814 74.9568 1.05858 84.9489 0.882241H85.7325C87.2998 0.882241 91.0222 0.882241 95.5283 0.52929H100.034C103.169 0.352951 106.891 0.176339 110.026 0.176339C116.491 0 120.997 0 123.152 0H124.523C124.915 0 125.307 0 125.503 0.176339C126.09 0.352678 126.286 0.705629 126.482 1.23519C126.678 1.94109 126.482 2.47066 125.698 2.99995L125.111 3.17628C124.523 3.35262 123.152 3.35262 120.997 3.52924L104.344 4.58809C96.3113 4.94104 90.238 5.29399 86.1237 5.64694C82.0095 5.82328 76.5237 6.17623 70.0586 6.70579C56.9322 7.41169 46.157 8.47055 35.1855 9.8829L27.7407 10.7649C32.051 10.5885 34.5976 10.4119 35.1855 10.4119L35.3813 10.2356H35.577H35.9689C36.1646 10.2356 36.3607 10.2356 36.7525 10.0592C37.5361 10.0592 38.7116 10.0592 40.0831 9.8829L55.1686 9.17699C58.4992 9.00066 63.7889 9.00066 70.6459 8.82404L86.1231 8.29475C99.641 7.76546 117.077 7.58885 138.237 7.58885C140.588 7.58885 140.588 10.7657 138.237 10.7657C116.49 10.7657 99.2495 10.942 86.1231 11.4716L71.2331 12.0006C64.5725 12.1769 59.674 12.1769 56.5398 12.3536C56.344 12.3536 56.344 12.3536 56.148 12.5299L55.7561 12.8828H55.3643C54.9725 13.0592 51.6419 13.0592 45.3728 13.2358C42.434 13.4121 40.0831 13.4121 38.7116 13.4121H37.1443H36.9486H36.7525C35.7731 13.4121 33.2261 13.5885 28.9158 13.9414L18.3364 14.4704C13.4385 14.8234 9.71611 15 7.16914 15H3.25095C2.66338 14.8234 2.27125 14.8234 2.0755 14.8234C1.87974 14.647 1.48792 14.647 1.29186 14.647L0.312465 13.9411C-0.275414 13.0589 -0.0793533 11.8232 1.29186 11.2942C1.68368 11.1178 2.0755 11.1178 2.66338 11.1178H3.64277H4.03459C7.3652 10.5885 10.3037 10.2356 12.8507 9.70601L29.5037 7.41169C21.0795 7.94098 13.8304 8.29393 7.95308 8.29393C5.60277 8.29421 5.60277 5.11765 7.95399 5.11765Z" fill="#D52917"/>
</svg>
