<svg width="108" height="108" viewBox="0 0 108 108" fill="none" xmlns="http://www.w3.org/2000/svg">
<path fill-rule="evenodd" clip-rule="evenodd" d="M106.58 54.3848C106.58 58.95 101.519 62.6478 100.379 66.8022C99.2389 70.9565 101.701 76.8913 99.558 80.4978C97.4151 84.1043 91.0773 85.063 87.9769 88.1217C84.8764 91.1804 84.1469 97.4804 80.3625 99.7174C76.5781 101.954 70.8331 99.3978 66.684 100.539C62.5348 101.68 58.7048 106.885 54.1453 106.885C49.5858 106.885 45.8926 101.817 41.7434 100.676C37.5943 99.5348 31.6669 102 28.0649 99.8543C24.4629 97.7087 23.5054 91.363 20.4505 88.2587C17.3957 85.1543 10.9211 84.4696 8.5502 80.6348C6.17926 76.8 8.86937 71.0935 7.72949 66.9391C6.58961 62.7848 1.71094 58.95 1.71094 54.3848C1.71094 49.8195 6.77199 46.1217 7.91187 41.9674C9.05175 37.813 6.58961 31.8782 8.73258 28.2717C10.8756 24.6652 17.2133 23.7065 20.3137 20.6478C23.4142 17.5891 24.0981 11.1065 27.9281 8.73259C31.7581 6.35868 37.4575 9.05216 41.6067 7.91085C45.7558 6.76955 49.5858 1.88477 54.1453 1.88477C58.7048 1.88477 62.398 6.95216 66.5472 8.09346C70.6963 9.23477 76.6237 6.76955 80.2257 8.9152C83.8277 11.0609 84.7852 17.4065 87.8401 20.5109C90.895 23.6152 97.1871 24.3456 99.4212 28.1348C101.655 31.9239 99.1021 37.6761 100.242 41.8304C101.382 45.9848 106.58 49.8195 106.58 54.3848Z" fill="#D52917" stroke="#AA1D0E" stroke-width="2" stroke-linecap="round" stroke-linejoin="round"/>
<path d="M35.7188 47.1904C35.7188 48.7432 35.1572 49.9932 34.0342 50.9404C32.9111 51.8779 31.3389 52.4395 29.3174 52.625V55.6279H27.3105V52.6836C24.9277 52.6348 22.8379 52.2148 21.041 51.4238V47.5566C21.8906 47.9766 22.9111 48.3477 24.1025 48.6699C25.3037 48.9922 26.373 49.1826 27.3105 49.2412V44.7002L26.3291 44.3193C24.3955 43.5576 23.0234 42.7324 22.2129 41.8438C21.4121 40.9453 21.0117 39.8369 21.0117 38.5186C21.0117 37.1025 21.5635 35.9404 22.667 35.0322C23.7803 34.1143 25.3281 33.5576 27.3105 33.3623V31.1211H29.3174V33.3037C31.5537 33.4014 33.5752 33.8506 35.3818 34.6514L34.0049 38.0791C32.4814 37.4541 30.9189 37.0732 29.3174 36.9365V41.2578C31.2217 41.9902 32.5742 42.625 33.375 43.1621C34.1855 43.6992 34.7764 44.29 35.1475 44.9346C35.5283 45.5791 35.7188 46.3311 35.7188 47.1904ZM31.3096 47.4102C31.3096 47 31.1436 46.6533 30.8115 46.3701C30.4795 46.0869 29.9814 45.7939 29.3174 45.4912V49.1387C30.6455 48.9141 31.3096 48.3379 31.3096 47.4102ZM25.4209 38.5186C25.4209 38.9482 25.5674 39.3047 25.8604 39.5879C26.1631 39.8613 26.6465 40.1445 27.3105 40.4375V36.9951C26.0508 37.1807 25.4209 37.6885 25.4209 38.5186ZM53.0332 53.8848H38.0625V50.7354L43.4385 45.3008C45.0303 43.6699 46.0703 42.542 46.5586 41.917C47.0469 41.2822 47.3984 40.6963 47.6133 40.1592C47.8281 39.6221 47.9355 39.0654 47.9355 38.4893C47.9355 37.6299 47.6963 36.9902 47.2178 36.5703C46.749 36.1504 46.1191 35.9404 45.3281 35.9404C44.498 35.9404 43.6924 36.1309 42.9111 36.5117C42.1299 36.8926 41.3145 37.4346 40.4648 38.1377L38.0039 35.2227C39.0586 34.3242 39.9326 33.6895 40.626 33.3184C41.3193 32.9473 42.0762 32.6641 42.8965 32.4688C43.7168 32.2637 44.6348 32.1611 45.6504 32.1611C46.9883 32.1611 48.1699 32.4053 49.1953 32.8936C50.2207 33.3818 51.0166 34.0654 51.583 34.9443C52.1494 35.8232 52.4326 36.8291 52.4326 37.9619C52.4326 38.9482 52.2568 39.876 51.9053 40.7451C51.5635 41.6045 51.0264 42.4883 50.2939 43.3965C49.5713 44.3047 48.292 45.5986 46.4561 47.2783L43.7021 49.8711V50.0762H53.0332V53.8848ZM62.9941 40.2031C65.0645 40.2031 66.71 40.7842 67.9307 41.9463C69.1611 43.1084 69.7764 44.7002 69.7764 46.7217C69.7764 49.1143 69.0391 50.9551 67.5645 52.2441C66.0898 53.5332 63.9805 54.1777 61.2363 54.1777C58.8535 54.1777 56.9297 53.792 55.4648 53.0205V49.1094C56.2363 49.5195 57.1348 49.8564 58.1602 50.1201C59.1855 50.374 60.1572 50.501 61.0752 50.501C63.8389 50.501 65.2207 49.3682 65.2207 47.1025C65.2207 44.9443 63.79 43.8652 60.9287 43.8652C60.4111 43.8652 59.8398 43.9189 59.2148 44.0264C58.5898 44.124 58.082 44.2314 57.6914 44.3486L55.8896 43.3818L56.6953 32.4688H68.3115V36.3066H60.665L60.2695 40.5107L60.7822 40.4082C61.3779 40.2715 62.1152 40.2031 62.9941 40.2031ZM87.1934 43.1768C87.1934 46.917 86.5781 49.6855 85.3477 51.4824C84.127 53.2793 82.2422 54.1777 79.6934 54.1777C77.2227 54.1777 75.3574 53.25 74.0977 51.3945C72.8477 49.5391 72.2227 46.7998 72.2227 43.1768C72.2227 39.3975 72.833 36.6143 74.0537 34.8271C75.2744 33.0303 77.1543 32.1318 79.6934 32.1318C82.1641 32.1318 84.0293 33.0693 85.2891 34.9443C86.5586 36.8193 87.1934 39.5635 87.1934 43.1768ZM76.7197 43.1768C76.7197 45.8037 76.9443 47.6885 77.3936 48.8311C77.8525 49.9639 78.6191 50.5303 79.6934 50.5303C80.748 50.5303 81.5098 49.9541 81.9785 48.8018C82.4473 47.6494 82.6816 45.7744 82.6816 43.1768C82.6816 40.5498 82.4424 38.665 81.9639 37.5225C81.4951 36.3701 80.7383 35.7939 79.6934 35.7939C78.6289 35.7939 77.8672 36.3701 77.4082 37.5225C76.9492 38.665 76.7197 40.5498 76.7197 43.1768Z" fill="white"/>
<path d="M36.6719 67.4629H39.1172L35.2344 78.8848H32.5938L28.7188 67.4629H31.1641L33.3125 74.2598C33.4323 74.6608 33.5547 75.1296 33.6797 75.666C33.8099 76.1973 33.8906 76.5671 33.9219 76.7754C33.9792 76.2962 34.1745 75.4577 34.5078 74.2598L36.6719 67.4629ZM47.5547 78.8848L46.7266 76.166H42.5625L41.7344 78.8848H39.125L43.1562 67.416H46.1172L50.1641 78.8848H47.5547ZM46.1484 74.1348C45.3828 71.6712 44.9505 70.278 44.8516 69.9551C44.7578 69.6322 44.6901 69.377 44.6484 69.1895C44.4766 69.8561 43.9844 71.5046 43.1719 74.1348H46.1484ZM51.6094 78.8848V67.4629H54.0312V76.8848H58.6641V78.8848H51.6094ZM69.9531 67.4629V74.8535C69.9531 75.6973 69.763 76.4368 69.3828 77.0723C69.0078 77.7077 68.4635 78.1947 67.75 78.5332C67.0365 78.8717 66.1927 79.041 65.2188 79.041C63.75 79.041 62.6094 78.666 61.7969 77.916C60.9844 77.1608 60.5781 76.1296 60.5781 74.8223V67.4629H62.9922V74.4551C62.9922 75.3353 63.1693 75.9811 63.5234 76.3926C63.8776 76.804 64.4635 77.0098 65.2812 77.0098C66.0729 77.0098 66.6458 76.804 67 76.3926C67.3594 75.9759 67.5391 75.3249 67.5391 74.4395V67.4629H69.9531ZM79.3281 78.8848H72.75V67.4629H79.3281V69.4473H75.1719V71.9551H79.0391V73.9395H75.1719V76.8848H79.3281V78.8848Z" fill="white"/>
</svg>
