<svg width="197" height="57" viewBox="0 0 197 57" fill="none" xmlns="http://www.w3.org/2000/svg">
<path d="M18 8.98C18.88 8.98 19.6533 9.16 20.32 9.52C20.9867 9.88 21.5 10.3933 21.86 11.06C22.2333 11.7133 22.42 12.4667 22.42 13.32C22.42 14.16 22.2267 14.9 21.84 15.54C21.4667 16.18 20.9333 16.68 20.24 17.04C19.56 17.3867 18.7733 17.56 17.88 17.56H15.04C14.9733 17.56 14.94 17.5933 14.94 17.66V22.76C14.94 22.8267 14.9133 22.8867 14.86 22.94C14.82 22.98 14.7667 23 14.7 23H12.36C12.2933 23 12.2333 22.98 12.18 22.94C12.14 22.8867 12.12 22.8267 12.12 22.76V9.22C12.12 9.15333 12.14 9.1 12.18 9.06C12.2333 9.00667 12.2933 8.98 12.36 8.98H18ZM17.58 15.3C18.1933 15.3 18.6867 15.1267 19.06 14.78C19.4333 14.42 19.62 13.9533 19.62 13.38C19.62 12.7933 19.4333 12.32 19.06 11.96C18.6867 11.6 18.1933 11.42 17.58 11.42H15.04C14.9733 11.42 14.94 11.4533 14.94 11.52V15.2C14.94 15.2667 14.9733 15.3 15.04 15.3H17.58ZM29.0936 12.58C29.5736 12.58 29.9536 12.6733 30.2336 12.86C30.3403 12.9133 30.3803 13.0133 30.3536 13.16L29.9336 15.44C29.9203 15.6 29.8269 15.6467 29.6536 15.58C29.4536 15.5133 29.2203 15.48 28.9536 15.48C28.8469 15.48 28.7003 15.4933 28.5136 15.52C28.0336 15.56 27.6269 15.74 27.2936 16.06C26.9603 16.3667 26.7936 16.78 26.7936 17.3V22.76C26.7936 22.8267 26.7669 22.8867 26.7136 22.94C26.6736 22.98 26.6203 23 26.5536 23H24.2136C24.1469 23 24.0869 22.98 24.0336 22.94C23.9936 22.8867 23.9736 22.8267 23.9736 22.76V12.96C23.9736 12.8933 23.9936 12.84 24.0336 12.8C24.0869 12.7467 24.1469 12.72 24.2136 12.72H26.5536C26.6203 12.72 26.6736 12.7467 26.7136 12.8C26.7669 12.84 26.7936 12.8933 26.7936 12.96V13.72C26.7936 13.76 26.8069 13.7867 26.8336 13.8C26.8603 13.8133 26.8803 13.8067 26.8936 13.78C27.4403 12.98 28.1736 12.58 29.0936 12.58ZM33.1498 11.56C32.6965 11.56 32.3165 11.4133 32.0098 11.12C31.7165 10.8133 31.5698 10.4333 31.5698 9.98C31.5698 9.51333 31.7165 9.13333 32.0098 8.84C32.3032 8.54667 32.6832 8.4 33.1498 8.4C33.6165 8.4 33.9965 8.54667 34.2898 8.84C34.5832 9.13333 34.7298 9.51333 34.7298 9.98C34.7298 10.4333 34.5765 10.8133 34.2698 11.12C33.9765 11.4133 33.6032 11.56 33.1498 11.56ZM31.9498 23C31.8832 23 31.8232 22.98 31.7698 22.94C31.7298 22.8867 31.7098 22.8267 31.7098 22.76V12.94C31.7098 12.8733 31.7298 12.82 31.7698 12.78C31.8232 12.7267 31.8832 12.7 31.9498 12.7H34.2898C34.3565 12.7 34.4098 12.7267 34.4498 12.78C34.5032 12.82 34.5298 12.8733 34.5298 12.94V22.76C34.5298 22.8267 34.5032 22.8867 34.4498 22.94C34.4098 22.98 34.3565 23 34.2898 23H31.9498ZM39.5875 23C39.4542 23 39.3675 22.9333 39.3275 22.8L36.1275 12.98C36.1142 12.9533 36.1075 12.92 36.1075 12.88C36.1075 12.76 36.1808 12.7 36.3275 12.7H38.9075C39.0542 12.7 39.1475 12.7667 39.1875 12.9L40.8275 18.96C40.8408 19 40.8608 19.02 40.8875 19.02C40.9142 19.02 40.9342 19 40.9475 18.96L42.5875 12.9C42.6275 12.7667 42.7208 12.7 42.8675 12.7L45.4475 12.74C45.5275 12.74 45.5875 12.7667 45.6275 12.82C45.6675 12.86 45.6742 12.9267 45.6475 13.02L42.4675 22.8C42.4275 22.9333 42.3408 23 42.2075 23H39.5875ZM50.6712 12.56C51.5379 12.56 52.3113 12.7133 52.9913 13.02C53.6713 13.3133 54.1979 13.72 54.5713 14.24C54.9579 14.76 55.1513 15.34 55.1513 15.98V22.76C55.1513 22.8267 55.1246 22.8867 55.0713 22.94C55.0313 22.98 54.9779 23 54.9113 23H52.5713C52.5046 23 52.4446 22.98 52.3913 22.94C52.3513 22.8867 52.3313 22.8267 52.3313 22.76V22.1C52.3313 22.06 52.3179 22.0333 52.2913 22.02C52.2646 22.0067 52.2379 22.02 52.2113 22.06C51.6513 22.7933 50.7513 23.16 49.5113 23.16C48.4713 23.16 47.6313 22.9067 46.9913 22.4C46.3513 21.8933 46.0313 21.1467 46.0313 20.16C46.0313 19.1333 46.3913 18.34 47.1113 17.78C47.8313 17.2067 48.8579 16.92 50.1913 16.92H52.2313C52.2979 16.92 52.3313 16.8867 52.3313 16.82V16.38C52.3313 15.94 52.1979 15.6 51.9313 15.36C51.6646 15.1067 51.2646 14.98 50.7313 14.98C50.3179 14.98 49.9713 15.0533 49.6913 15.2C49.4246 15.3467 49.2513 15.5533 49.1713 15.82C49.1313 15.9667 49.0446 16.0333 48.9113 16.02L46.4913 15.7C46.3313 15.6733 46.2579 15.6133 46.2713 15.52C46.3246 14.96 46.5446 14.4533 46.9313 14C47.3313 13.5467 47.8513 13.1933 48.4913 12.94C49.1446 12.6867 49.8713 12.56 50.6712 12.56ZM50.2713 21.06C50.8446 21.06 51.3313 20.9067 51.7313 20.6C52.1313 20.2933 52.3313 19.9 52.3313 19.42V18.7C52.3313 18.6333 52.2979 18.6 52.2313 18.6H50.7913C50.1913 18.6 49.7179 18.7133 49.3713 18.94C49.0379 19.1667 48.8713 19.4867 48.8713 19.9C48.8713 20.26 48.9979 20.5467 49.2513 20.76C49.5046 20.96 49.8446 21.06 50.2713 21.06ZM62.8228 14.74C62.8228 14.8067 62.7961 14.8667 62.7428 14.92C62.7028 14.96 62.6495 14.98 62.5828 14.98H60.6628C60.5961 14.98 60.5628 15.0133 60.5628 15.08V19.32C60.5628 19.76 60.6495 20.0867 60.8228 20.3C61.0095 20.5133 61.3028 20.62 61.7028 20.62H62.3628C62.4295 20.62 62.4828 20.6467 62.5228 20.7C62.5761 20.74 62.6028 20.7933 62.6028 20.86V22.76C62.6028 22.9067 62.5228 22.9933 62.3628 23.02C61.8028 23.0467 61.4028 23.06 61.1628 23.06C60.0561 23.06 59.2295 22.88 58.6828 22.52C58.1361 22.1467 57.8561 21.4533 57.8428 20.44V15.08C57.8428 15.0133 57.8095 14.98 57.7428 14.98H56.6028C56.5361 14.98 56.4761 14.96 56.4228 14.92C56.3828 14.8667 56.3628 14.8067 56.3628 14.74V12.96C56.3628 12.8933 56.3828 12.84 56.4228 12.8C56.4761 12.7467 56.5361 12.72 56.6028 12.72H57.7428C57.8095 12.72 57.8428 12.6867 57.8428 12.62V10.24C57.8428 10.1733 57.8628 10.12 57.9028 10.08C57.9561 10.0267 58.0161 10 58.0828 10H60.3228C60.3895 10 60.4428 10.0267 60.4828 10.08C60.5361 10.12 60.5628 10.1733 60.5628 10.24V12.62C60.5628 12.6867 60.5961 12.72 60.6628 12.72H62.5828C62.6495 12.72 62.7028 12.7467 62.7428 12.8C62.7961 12.84 62.8228 12.8933 62.8228 12.96V14.74ZM73.4838 16.8C73.5638 17.3067 73.5904 17.8733 73.5638 18.5C73.5504 18.66 73.4638 18.74 73.3038 18.74H67.1238C67.0438 18.74 67.0171 18.7733 67.0438 18.84C67.0838 19.1067 67.1571 19.3733 67.2638 19.64C67.6104 20.3867 68.3171 20.76 69.3838 20.76C70.2371 20.7467 70.9104 20.4 71.4038 19.72C71.4571 19.64 71.5171 19.6 71.5838 19.6C71.6238 19.6 71.6704 19.6267 71.7238 19.68L73.1638 21.1C73.2304 21.1667 73.2638 21.2267 73.2638 21.28C73.2638 21.3067 73.2371 21.36 73.1838 21.44C72.7438 21.9867 72.1771 22.4133 71.4838 22.72C70.7904 23.0133 70.0304 23.16 69.2038 23.16C68.0571 23.16 67.0838 22.9 66.2837 22.38C65.4971 21.86 64.9304 21.1333 64.5838 20.2C64.3038 19.5333 64.1638 18.66 64.1638 17.58C64.1638 16.8467 64.2638 16.2 64.4638 15.64C64.7704 14.6933 65.3038 13.94 66.0638 13.38C66.8371 12.82 67.7504 12.54 68.8038 12.54C70.1371 12.54 71.2038 12.9267 72.0038 13.7C72.8171 14.4733 73.3104 15.5067 73.4838 16.8ZM68.8238 14.98C67.9838 14.98 67.4304 15.3733 67.1638 16.16C67.1104 16.3333 67.0638 16.5467 67.0238 16.8C67.0238 16.8667 67.0571 16.9 67.1238 16.9H70.5838C70.6638 16.9 70.6904 16.8667 70.6638 16.8C70.5971 16.4133 70.5638 16.2267 70.5638 16.24C70.4438 15.84 70.2304 15.5333 69.9238 15.32C69.6304 15.0933 69.2638 14.98 68.8238 14.98ZM89.2056 11.18C89.2056 11.2467 89.179 11.3067 89.1256 11.36C89.0856 11.4 89.0323 11.42 88.9656 11.42H82.4056C82.339 11.42 82.3056 11.4533 82.3056 11.52V14.62C82.3056 14.6867 82.339 14.72 82.4056 14.72H86.7056C86.7723 14.72 86.8256 14.7467 86.8656 14.8C86.919 14.84 86.9456 14.8933 86.9456 14.96V16.9C86.9456 16.9667 86.919 17.0267 86.8656 17.08C86.8256 17.12 86.7723 17.14 86.7056 17.14H82.4056C82.339 17.14 82.3056 17.1733 82.3056 17.24V20.48C82.3056 20.5467 82.339 20.58 82.4056 20.58H88.9656C89.0323 20.58 89.0856 20.6067 89.1256 20.66C89.179 20.7 89.2056 20.7533 89.2056 20.82V22.76C89.2056 22.8267 89.179 22.8867 89.1256 22.94C89.0856 22.98 89.0323 23 88.9656 23H79.7256C79.659 23 79.599 22.98 79.5456 22.94C79.5056 22.8867 79.4856 22.8267 79.4856 22.76V9.24C79.4856 9.17333 79.5056 9.12 79.5456 9.08C79.599 9.02667 79.659 9 79.7256 9H88.9656C89.0323 9 89.0856 9.02667 89.1256 9.08C89.179 9.12 89.2056 9.17333 89.2056 9.24V11.18ZM97.3653 12.96C97.3653 12.8933 97.3853 12.84 97.4253 12.8C97.4786 12.7467 97.5386 12.72 97.6053 12.72H99.9453C100.012 12.72 100.065 12.7467 100.105 12.8C100.159 12.84 100.185 12.8933 100.185 12.96V26.48C100.185 26.5467 100.159 26.6 100.105 26.64C100.065 26.6933 100.012 26.72 99.9453 26.72H97.6053C97.5386 26.72 97.4786 26.6933 97.4253 26.64C97.3853 26.6 97.3653 26.5467 97.3653 26.48V22.2C97.3653 22.16 97.352 22.1333 97.3253 22.12C97.2986 22.1067 97.272 22.12 97.2453 22.16C96.712 22.8267 95.9653 23.16 95.0053 23.16C94.032 23.16 93.212 22.9133 92.5453 22.42C91.892 21.9133 91.412 21.2333 91.1053 20.38C90.8653 19.6733 90.7453 18.84 90.7453 17.88C90.7453 16.9733 90.8586 16.1733 91.0853 15.48C91.3786 14.56 91.8586 13.8467 92.5253 13.34C93.2053 12.82 94.012 12.56 94.9453 12.56C95.9186 12.56 96.6853 12.9267 97.2453 13.66C97.272 13.6867 97.2986 13.7 97.3253 13.7C97.352 13.6867 97.3653 13.66 97.3653 13.62V12.96ZM96.9053 19.94C97.1986 19.4467 97.3453 18.7533 97.3453 17.86C97.3453 17.0067 97.212 16.3333 96.9453 15.84C96.612 15.2667 96.1453 14.98 95.5453 14.98C94.892 14.98 94.3986 15.2667 94.0653 15.84C93.7853 16.3733 93.6453 17.04 93.6453 17.84C93.6453 18.7333 93.812 19.44 94.1453 19.96C94.4786 20.48 94.952 20.74 95.5653 20.74C96.152 20.74 96.5986 20.4733 96.9053 19.94ZM108.353 12.96C108.353 12.8933 108.373 12.84 108.413 12.8C108.466 12.7467 108.526 12.72 108.593 12.72H110.933C110.999 12.72 111.053 12.7467 111.093 12.8C111.146 12.84 111.173 12.8933 111.173 12.96V22.76C111.173 22.8267 111.146 22.8867 111.093 22.94C111.053 22.98 110.999 23 110.933 23H108.593C108.526 23 108.466 22.98 108.413 22.94C108.373 22.8867 108.353 22.8267 108.353 22.76V22.08C108.353 22.04 108.339 22.02 108.313 22.02C108.286 22.0067 108.259 22.02 108.233 22.06C107.699 22.78 106.873 23.14 105.753 23.14C104.739 23.14 103.906 22.8333 103.253 22.22C102.599 21.6067 102.273 20.7467 102.273 19.64V12.96C102.273 12.8933 102.293 12.84 102.333 12.8C102.386 12.7467 102.446 12.72 102.513 12.72H104.833C104.899 12.72 104.953 12.7467 104.993 12.8C105.046 12.84 105.073 12.8933 105.073 12.96V18.94C105.073 19.4733 105.213 19.9067 105.493 20.24C105.786 20.5733 106.186 20.74 106.693 20.74C107.146 20.74 107.519 20.6067 107.813 20.34C108.106 20.06 108.286 19.7 108.353 19.26V12.96ZM114.771 11.56C114.318 11.56 113.938 11.4133 113.631 11.12C113.338 10.8133 113.191 10.4333 113.191 9.98C113.191 9.51333 113.338 9.13333 113.631 8.84C113.924 8.54667 114.304 8.4 114.771 8.4C115.238 8.4 115.618 8.54667 115.911 8.84C116.204 9.13333 116.351 9.51333 116.351 9.98C116.351 10.4333 116.198 10.8133 115.891 11.12C115.598 11.4133 115.224 11.56 114.771 11.56ZM113.571 23C113.504 23 113.444 22.98 113.391 22.94C113.351 22.8867 113.331 22.8267 113.331 22.76V12.94C113.331 12.8733 113.351 12.82 113.391 12.78C113.444 12.7267 113.504 12.7 113.571 12.7H115.911C115.978 12.7 116.031 12.7267 116.071 12.78C116.124 12.82 116.151 12.8733 116.151 12.94V22.76C116.151 22.8267 116.124 22.8867 116.071 22.94C116.031 22.98 115.978 23 115.911 23H113.571ZM124.249 14.74C124.249 14.8067 124.222 14.8667 124.169 14.92C124.129 14.96 124.075 14.98 124.009 14.98H122.089C122.022 14.98 121.989 15.0133 121.989 15.08V19.32C121.989 19.76 122.075 20.0867 122.249 20.3C122.435 20.5133 122.729 20.62 123.129 20.62H123.789C123.855 20.62 123.909 20.6467 123.949 20.7C124.002 20.74 124.029 20.7933 124.029 20.86V22.76C124.029 22.9067 123.949 22.9933 123.789 23.02C123.229 23.0467 122.829 23.06 122.589 23.06C121.482 23.06 120.655 22.88 120.109 22.52C119.562 22.1467 119.282 21.4533 119.269 20.44V15.08C119.269 15.0133 119.235 14.98 119.169 14.98H118.029C117.962 14.98 117.902 14.96 117.849 14.92C117.809 14.8667 117.789 14.8067 117.789 14.74V12.96C117.789 12.8933 117.809 12.84 117.849 12.8C117.902 12.7467 117.962 12.72 118.029 12.72H119.169C119.235 12.72 119.269 12.6867 119.269 12.62V10.24C119.269 10.1733 119.289 10.12 119.329 10.08C119.382 10.0267 119.442 10 119.509 10H121.749C121.815 10 121.869 10.0267 121.909 10.08C121.962 10.12 121.989 10.1733 121.989 10.24V12.62C121.989 12.6867 122.022 12.72 122.089 12.72H124.009C124.075 12.72 124.129 12.7467 124.169 12.8C124.222 12.84 124.249 12.8933 124.249 12.96V14.74ZM125.886 26.98C125.846 26.98 125.813 26.9533 125.786 26.9C125.76 26.86 125.746 26.8067 125.746 26.74V24.9C125.746 24.8333 125.766 24.7733 125.806 24.72C125.86 24.68 125.92 24.66 125.986 24.66C126.546 24.6467 126.986 24.6 127.306 24.52C127.64 24.44 127.9 24.2867 128.086 24.06C128.286 23.8333 128.44 23.5 128.546 23.06C128.56 23.0333 128.56 22.9933 128.546 22.94L125.266 12.98C125.253 12.9533 125.246 12.92 125.246 12.88C125.246 12.76 125.32 12.7 125.466 12.7H127.966C128.113 12.7 128.206 12.7667 128.246 12.9L129.926 19.38C129.94 19.42 129.96 19.44 129.986 19.44C130.013 19.44 130.033 19.42 130.046 19.38L131.726 12.9C131.766 12.7667 131.86 12.7 132.006 12.7H134.446C134.526 12.7 134.58 12.7267 134.606 12.78C134.646 12.82 134.653 12.8867 134.626 12.98L131.166 23.38C130.833 24.3533 130.493 25.08 130.146 25.56C129.8 26.0533 129.313 26.4133 128.686 26.64C128.06 26.8667 127.173 26.98 126.026 26.98H125.886ZM149.908 11.18C149.908 11.2467 149.882 11.3067 149.828 11.36C149.788 11.4 149.735 11.42 149.668 11.42H143.128C143.062 11.42 143.028 11.4533 143.028 11.52V14.62C143.028 14.6867 143.062 14.72 143.128 14.72H147.428C147.495 14.72 147.548 14.7467 147.588 14.8C147.642 14.84 147.668 14.8933 147.668 14.96V16.9C147.668 16.9667 147.642 17.0267 147.588 17.08C147.548 17.12 147.495 17.14 147.428 17.14H143.128C143.062 17.14 143.028 17.1733 143.028 17.24V22.76C143.028 22.8267 143.002 22.8867 142.948 22.94C142.908 22.98 142.855 23 142.788 23H140.448C140.382 23 140.322 22.98 140.268 22.94C140.228 22.8867 140.208 22.8267 140.208 22.76V9.24C140.208 9.17333 140.228 9.12 140.268 9.08C140.322 9.02667 140.382 9 140.448 9H149.668C149.735 9 149.788 9.02667 149.828 9.08C149.882 9.12 149.908 9.17333 149.908 9.24V11.18ZM152.74 11.56C152.286 11.56 151.906 11.4133 151.6 11.12C151.306 10.8133 151.16 10.4333 151.16 9.98C151.16 9.51333 151.306 9.13333 151.6 8.84C151.893 8.54667 152.273 8.4 152.74 8.4C153.206 8.4 153.586 8.54667 153.88 8.84C154.173 9.13333 154.32 9.51333 154.32 9.98C154.32 10.4333 154.166 10.8133 153.86 11.12C153.566 11.4133 153.193 11.56 152.74 11.56ZM151.54 23C151.473 23 151.413 22.98 151.36 22.94C151.32 22.8867 151.3 22.8267 151.3 22.76V12.94C151.3 12.8733 151.32 12.82 151.36 12.78C151.413 12.7267 151.473 12.7 151.54 12.7H153.88C153.946 12.7 154 12.7267 154.04 12.78C154.093 12.82 154.12 12.8733 154.12 12.94V22.76C154.12 22.8267 154.093 22.8867 154.04 22.94C154 22.98 153.946 23 153.88 23H151.54ZM161.437 12.58C161.917 12.58 162.297 12.6733 162.577 12.86C162.684 12.9133 162.724 13.0133 162.697 13.16L162.277 15.44C162.264 15.6 162.171 15.6467 161.997 15.58C161.797 15.5133 161.564 15.48 161.297 15.48C161.191 15.48 161.044 15.4933 160.857 15.52C160.377 15.56 159.971 15.74 159.637 16.06C159.304 16.3667 159.137 16.78 159.137 17.3V22.76C159.137 22.8267 159.111 22.8867 159.057 22.94C159.017 22.98 158.964 23 158.897 23H156.557C156.491 23 156.431 22.98 156.377 22.94C156.337 22.8867 156.317 22.8267 156.317 22.76V12.96C156.317 12.8933 156.337 12.84 156.377 12.8C156.431 12.7467 156.491 12.72 156.557 12.72H158.897C158.964 12.72 159.017 12.7467 159.057 12.8C159.111 12.84 159.137 12.8933 159.137 12.96V13.72C159.137 13.76 159.151 13.7867 159.177 13.8C159.204 13.8133 159.224 13.8067 159.237 13.78C159.784 12.98 160.517 12.58 161.437 12.58ZM175.374 12.56C176.414 12.56 177.227 12.8733 177.814 13.5C178.4 14.1267 178.694 15.0067 178.694 16.14V22.76C178.694 22.8267 178.667 22.8867 178.614 22.94C178.574 22.98 178.52 23 178.454 23H176.114C176.047 23 175.987 22.98 175.934 22.94C175.894 22.8867 175.874 22.8267 175.874 22.76V16.76C175.874 16.2133 175.734 15.78 175.454 15.46C175.174 15.14 174.8 14.98 174.334 14.98C173.867 14.98 173.487 15.14 173.194 15.46C172.9 15.78 172.754 16.2067 172.754 16.74V22.76C172.754 22.8267 172.727 22.8867 172.674 22.94C172.634 22.98 172.58 23 172.514 23H170.194C170.127 23 170.067 22.98 170.014 22.94C169.974 22.8867 169.954 22.8267 169.954 22.76V16.76C169.954 16.2267 169.807 15.8 169.514 15.48C169.22 15.1467 168.84 14.98 168.374 14.98C167.947 14.98 167.587 15.1067 167.294 15.36C167.014 15.6133 166.847 15.9667 166.794 16.42V22.76C166.794 22.8267 166.767 22.8867 166.714 22.94C166.674 22.98 166.62 23 166.554 23H164.214C164.147 23 164.087 22.98 164.034 22.94C163.994 22.8867 163.974 22.8267 163.974 22.76V12.96C163.974 12.8933 163.994 12.84 164.034 12.8C164.087 12.7467 164.147 12.72 164.214 12.72H166.554C166.62 12.72 166.674 12.7467 166.714 12.8C166.767 12.84 166.794 12.8933 166.794 12.96V13.74C166.794 13.78 166.807 13.8067 166.834 13.82C166.86 13.8333 166.887 13.82 166.914 13.78C167.46 12.9667 168.307 12.56 169.454 12.56C170.12 12.56 170.7 12.7 171.194 12.98C171.7 13.26 172.087 13.66 172.354 14.18C172.394 14.26 172.44 14.26 172.494 14.18C172.787 13.6333 173.18 13.2267 173.674 12.96C174.18 12.6933 174.747 12.56 175.374 12.56ZM14.6 49C14.4533 49 14.36 48.9333 14.32 48.8L11.44 38.98L11.42 38.9C11.42 38.7667 11.4933 38.7 11.64 38.7H14.06C14.2067 38.7 14.3 38.7667 14.34 38.9L15.78 44.94C15.7933 44.98 15.8133 45 15.84 45C15.8667 45 15.8867 44.98 15.9 44.94L17.4 38.9C17.44 38.7667 17.5333 38.7 17.68 38.7H19.78C19.9267 38.7 20.02 38.7667 20.06 38.9L21.64 44.96C21.6533 45 21.6733 45.02 21.7 45.02C21.7267 45.02 21.7467 45 21.76 44.96L23.32 38.9C23.36 38.7667 23.4533 38.7 23.6 38.7L26 38.74C26.08 38.74 26.1333 38.7667 26.16 38.82C26.2 38.86 26.2133 38.92 26.2 39L23.28 48.8C23.24 48.9333 23.1533 49 23.02 49H20.6C20.4533 49 20.36 48.9333 20.32 48.8L18.78 43.44C18.7667 43.4 18.7467 43.38 18.72 43.38C18.6933 43.38 18.6733 43.4 18.66 43.44L17.3 48.8C17.26 48.9333 17.1667 49 17.02 49H14.6ZM29.2241 37.56C28.7707 37.56 28.3907 37.4133 28.0841 37.12C27.7907 36.8133 27.6441 36.4333 27.6441 35.98C27.6441 35.5133 27.7907 35.1333 28.0841 34.84C28.3774 34.5467 28.7574 34.4 29.2241 34.4C29.6907 34.4 30.0707 34.5467 30.3641 34.84C30.6574 35.1333 30.8041 35.5133 30.8041 35.98C30.8041 36.4333 30.6507 36.8133 30.3441 37.12C30.0507 37.4133 29.6774 37.56 29.2241 37.56ZM28.0241 49C27.9574 49 27.8974 48.98 27.8441 48.94C27.8041 48.8867 27.7841 48.8267 27.7841 48.76V38.94C27.7841 38.8733 27.8041 38.82 27.8441 38.78C27.8974 38.7267 27.9574 38.7 28.0241 38.7H30.3641C30.4307 38.7 30.4841 38.7267 30.5241 38.78C30.5774 38.82 30.6041 38.8733 30.6041 38.94V48.76C30.6041 48.8267 30.5774 48.8867 30.5241 48.94C30.4841 48.98 30.4307 49 30.3641 49H28.0241ZM38.7017 40.74C38.7017 40.8067 38.6751 40.8667 38.6217 40.92C38.5817 40.96 38.5284 40.98 38.4617 40.98H36.5417C36.4751 40.98 36.4417 41.0133 36.4417 41.08V45.32C36.4417 45.76 36.5284 46.0867 36.7017 46.3C36.8884 46.5133 37.1817 46.62 37.5817 46.62H38.2417C38.3084 46.62 38.3617 46.6467 38.4017 46.7C38.4551 46.74 38.4817 46.7933 38.4817 46.86V48.76C38.4817 48.9067 38.4017 48.9933 38.2417 49.02C37.6817 49.0467 37.2817 49.06 37.0417 49.06C35.9351 49.06 35.1084 48.88 34.5617 48.52C34.0151 48.1467 33.7351 47.4533 33.7217 46.44V41.08C33.7217 41.0133 33.6884 40.98 33.6217 40.98H32.4817C32.4151 40.98 32.3551 40.96 32.3017 40.92C32.2617 40.8667 32.2417 40.8067 32.2417 40.74V38.96C32.2417 38.8933 32.2617 38.84 32.3017 38.8C32.3551 38.7467 32.4151 38.72 32.4817 38.72H33.6217C33.6884 38.72 33.7217 38.6867 33.7217 38.62V36.24C33.7217 36.1733 33.7417 36.12 33.7817 36.08C33.8351 36.0267 33.8951 36 33.9617 36H36.2017C36.2684 36 36.3217 36.0267 36.3617 36.08C36.4151 36.12 36.4417 36.1733 36.4417 36.24V38.62C36.4417 38.6867 36.4751 38.72 36.5417 38.72H38.4617C38.5284 38.72 38.5817 38.7467 38.6217 38.8C38.6751 38.84 38.7017 38.8933 38.7017 38.96V40.74ZM45.7594 38.56C46.826 38.56 47.686 38.8867 48.3394 39.54C48.9927 40.1933 49.3194 41.08 49.3194 42.2V48.76C49.3194 48.8267 49.2927 48.8867 49.2394 48.94C49.1994 48.98 49.146 49 49.0794 49H46.7394C46.6727 49 46.6127 48.98 46.5594 48.94C46.5194 48.8867 46.4994 48.8267 46.4994 48.76V42.78C46.4994 42.2467 46.346 41.8133 46.0394 41.48C45.746 41.1467 45.3527 40.98 44.8594 40.98C44.366 40.98 43.966 41.1467 43.6594 41.48C43.366 41.8133 43.2194 42.2467 43.2194 42.78V48.76C43.2194 48.8267 43.1927 48.8867 43.1394 48.94C43.0994 48.98 43.046 49 42.9794 49H40.6394C40.5727 49 40.5127 48.98 40.4594 48.94C40.4194 48.8867 40.3994 48.8267 40.3994 48.76V35.24C40.3994 35.1733 40.4194 35.12 40.4594 35.08C40.5127 35.0267 40.5727 35 40.6394 35H42.9794C43.046 35 43.0994 35.0267 43.1394 35.08C43.1927 35.12 43.2194 35.1733 43.2194 35.24V39.66C43.2194 39.7 43.2327 39.7267 43.2594 39.74C43.286 39.7533 43.306 39.7467 43.3194 39.72C43.866 38.9467 44.6794 38.56 45.7594 38.56ZM64.9608 45.1C64.9608 46.1667 64.6341 47.0467 63.9808 47.74C63.3274 48.4333 62.4341 48.8733 61.3008 49.06C61.2341 49.0867 61.2008 49.1267 61.2008 49.18L61.2208 50.48C61.2208 50.5467 61.1941 50.6 61.1408 50.64C61.1008 50.6933 61.0474 50.72 60.9808 50.72H58.9808C58.9141 50.72 58.8541 50.6933 58.8008 50.64C58.7608 50.6 58.7408 50.5467 58.7408 50.48L58.7608 49.16C58.7608 49.1067 58.7274 49.0667 58.6608 49.04C57.5274 48.8133 56.6341 48.3467 55.9808 47.64C55.3408 46.9333 55.0208 46.0467 55.0208 44.98V44.54C55.0208 44.4733 55.0408 44.42 55.0808 44.38C55.1341 44.3267 55.1941 44.3 55.2608 44.3H57.4208C57.4874 44.3 57.5408 44.3267 57.5808 44.38C57.6341 44.42 57.6608 44.4733 57.6608 44.54V44.84C57.6608 45.3733 57.8941 45.8267 58.3608 46.2C58.8274 46.56 59.4674 46.74 60.2808 46.74C60.9608 46.74 61.4608 46.5933 61.7808 46.3C62.1141 45.9933 62.2808 45.62 62.2808 45.18C62.2808 44.86 62.1808 44.5933 61.9808 44.38C61.7808 44.1533 61.5008 43.96 61.1408 43.8C60.7941 43.6267 60.2408 43.3933 59.4808 43.1C58.6141 42.7933 57.8874 42.48 57.3008 42.16C56.7141 41.84 56.2141 41.4067 55.8008 40.86C55.4008 40.3 55.2008 39.6133 55.2008 38.8C55.2008 37.7733 55.5074 36.9267 56.1208 36.26C56.7474 35.58 57.5874 35.14 58.6408 34.94C58.7074 34.9133 58.7408 34.8733 58.7408 34.82L58.7008 33.36C58.7008 33.2933 58.7208 33.24 58.7608 33.2C58.8141 33.1467 58.8741 33.12 58.9408 33.12H60.9408C61.0074 33.12 61.0608 33.1467 61.1008 33.2C61.1541 33.24 61.1808 33.2933 61.1808 33.36L61.1608 34.86C61.1608 34.9133 61.1941 34.9533 61.2608 34.98C62.3674 35.2067 63.2474 35.6933 63.9008 36.44C64.5541 37.1733 64.8808 38.0733 64.8808 39.14V39.44C64.8808 39.5067 64.8541 39.5667 64.8008 39.62C64.7608 39.66 64.7074 39.68 64.6408 39.68H62.4608C62.3941 39.68 62.3341 39.66 62.2808 39.62C62.2408 39.5667 62.2208 39.5067 62.2208 39.44V39.28C62.2208 38.72 62.0008 38.2467 61.5608 37.86C61.1208 37.46 60.5208 37.26 59.7608 37.26C59.1608 37.26 58.6941 37.3933 58.3608 37.66C58.0274 37.9267 57.8608 38.2933 57.8608 38.76C57.8608 39.0933 57.9541 39.3733 58.1408 39.6C58.3408 39.8267 58.6341 40.0333 59.0208 40.22C59.4074 40.4067 60.0074 40.6467 60.8208 40.94C61.7141 41.2733 62.4208 41.5733 62.9408 41.84C63.4608 42.1067 63.9274 42.5067 64.3408 43.04C64.7541 43.5733 64.9608 44.26 64.9608 45.1ZM68.7461 35.06C68.8128 35.02 68.9128 35 69.0461 35H71.4661C71.5328 35 71.5861 35.0267 71.6261 35.08C71.6794 35.12 71.7061 35.1733 71.7061 35.24V48.76C71.7061 48.8267 71.6794 48.8867 71.6261 48.94C71.5861 48.98 71.5328 49 71.4661 49H69.1261C69.0594 49 68.9994 48.98 68.9461 48.94C68.9061 48.8867 68.8861 48.8267 68.8861 48.76V37.8C68.8861 37.7733 68.8728 37.7467 68.8461 37.72C68.8194 37.6933 68.7928 37.6867 68.7661 37.7L66.7861 38.24L66.7061 38.26C66.5861 38.26 66.5261 38.1867 66.5261 38.04L66.4661 36.32C66.4661 36.1867 66.5261 36.0933 66.6461 36.04L68.7461 35.06ZM82.4164 42.84C82.7231 43.4533 82.8764 44.14 82.8764 44.9C82.8764 45.7 82.7097 46.3867 82.3764 46.96C82.0297 47.64 81.4964 48.18 80.7764 48.58C80.0697 48.9667 79.2231 49.16 78.2364 49.16C77.3031 49.16 76.4631 48.9733 75.7164 48.6C74.9697 48.2133 74.4097 47.66 74.0364 46.94C73.7164 46.3133 73.5564 45.6267 73.5564 44.88C73.5564 44.1467 73.7097 43.46 74.0164 42.82C74.2431 42.3533 74.5764 41.9733 75.0164 41.68C75.0697 41.64 75.0697 41.5933 75.0164 41.54C74.6964 41.3 74.4231 40.98 74.1964 40.58C73.8897 40.0467 73.7364 39.4467 73.7364 38.78C73.7364 37.8333 74.0031 37.0333 74.5364 36.38C74.9231 35.86 75.4364 35.46 76.0764 35.18C76.7297 34.8867 77.4497 34.74 78.2364 34.74C79.0497 34.74 79.7697 34.8867 80.3964 35.18C81.0231 35.4733 81.5297 35.8733 81.9164 36.38C82.4497 37.0733 82.7164 37.8733 82.7164 38.78C82.7164 39.4733 82.5431 40.0933 82.1964 40.64C81.9697 40.9867 81.6964 41.28 81.3764 41.52C81.3231 41.5733 81.3231 41.62 81.3764 41.66C81.8164 41.94 82.1631 42.3333 82.4164 42.84ZM76.7364 38.04C76.6031 38.3067 76.5364 38.5867 76.5364 38.88C76.5364 39.2667 76.6231 39.6133 76.7964 39.92C77.1031 40.4 77.5764 40.64 78.2164 40.64C78.8564 40.64 79.3431 40.4 79.6764 39.92C79.8497 39.6267 79.9364 39.2733 79.9364 38.86C79.9364 38.5667 79.8697 38.2867 79.7364 38.02C79.6031 37.7533 79.4031 37.5467 79.1364 37.4C78.8697 37.24 78.5564 37.16 78.1964 37.16C77.8764 37.16 77.5831 37.24 77.3164 37.4C77.0631 37.5467 76.8697 37.76 76.7364 38.04ZM79.6564 46.04C79.9097 45.68 80.0364 45.2133 80.0364 44.64C80.0364 44.1467 79.9431 43.7333 79.7564 43.4C79.4631 42.84 78.9497 42.56 78.2164 42.56C77.5231 42.56 77.0297 42.8333 76.7364 43.38C76.5364 43.7133 76.4364 44.1467 76.4364 44.68C76.4364 45.2 76.5497 45.6333 76.7764 45.98C77.0831 46.4867 77.5697 46.74 78.2364 46.74C78.8764 46.74 79.3497 46.5067 79.6564 46.04ZM93.4567 42.62C93.6567 43.2733 93.7567 43.9067 93.7567 44.52C93.7567 45.2 93.6501 45.8133 93.4367 46.36C93.1301 47.2133 92.5901 47.8933 91.8167 48.4C91.0434 48.8933 90.1367 49.14 89.0967 49.14C88.0834 49.14 87.1901 48.9 86.4167 48.42C85.6567 47.9267 85.1167 47.26 84.7967 46.42C84.6634 46.0733 84.5634 45.7067 84.4967 45.32V45.28C84.4967 45.1333 84.5767 45.06 84.7367 45.06H87.1567C87.2901 45.06 87.3767 45.1333 87.4167 45.28C87.4301 45.36 87.4501 45.4267 87.4767 45.48C87.5034 45.5333 87.5234 45.58 87.5367 45.62C87.6701 45.9667 87.8701 46.2333 88.1367 46.42C88.4034 46.6067 88.7167 46.7 89.0767 46.7C89.4501 46.7 89.7767 46.6 90.0567 46.4C90.3367 46.2 90.5434 45.92 90.6767 45.56C90.8101 45.2933 90.8767 44.9467 90.8767 44.52C90.8767 44.1333 90.8167 43.7867 90.6967 43.48C90.6034 43.1333 90.4167 42.8667 90.1367 42.68C89.8567 42.4933 89.5301 42.4 89.1567 42.4C88.7834 42.4 88.4367 42.4867 88.1167 42.66C87.7967 42.8333 87.5834 43.06 87.4767 43.34C87.4367 43.4733 87.3501 43.54 87.2167 43.54H84.7567C84.6901 43.54 84.6301 43.52 84.5767 43.48C84.5367 43.4267 84.5167 43.3667 84.5167 43.3V35.24C84.5167 35.1733 84.5367 35.12 84.5767 35.08C84.6301 35.0267 84.6901 35 84.7567 35H93.0167C93.0834 35 93.1367 35.0267 93.1767 35.08C93.2301 35.12 93.2567 35.1733 93.2567 35.24V37.18C93.2567 37.2467 93.2301 37.3067 93.1767 37.36C93.1367 37.4 93.0834 37.42 93.0167 37.42H87.4367C87.3701 37.42 87.3367 37.4533 87.3367 37.52L87.3167 40.48C87.3167 40.5733 87.3567 40.5933 87.4367 40.54C88.0367 40.1533 88.7301 39.96 89.5167 39.96C90.4501 39.96 91.2634 40.2 91.9567 40.68C92.6634 41.1467 93.1634 41.7933 93.4567 42.62ZM103.938 41.7C103.858 41.74 103.858 41.78 103.938 41.82C105.205 42.4733 105.838 43.56 105.838 45.08C105.838 46.3733 105.398 47.3533 104.518 48.02C103.638 48.6733 102.485 49 101.058 49H95.878C95.8113 49 95.7513 48.98 95.698 48.94C95.658 48.8867 95.638 48.8267 95.638 48.76V35.24C95.638 35.1733 95.658 35.12 95.698 35.08C95.7513 35.0267 95.8113 35 95.878 35H100.898C104.058 35 105.638 36.28 105.638 38.84C105.638 40.1733 105.071 41.1267 103.938 41.7ZM98.558 37.42C98.4913 37.42 98.458 37.4533 98.458 37.52V40.64C98.458 40.7067 98.4913 40.74 98.558 40.74H100.898C101.525 40.74 102.011 40.5933 102.358 40.3C102.705 40.0067 102.878 39.6067 102.878 39.1C102.878 38.58 102.705 38.1733 102.358 37.88C102.011 37.5733 101.525 37.42 100.898 37.42H98.558ZM101.058 46.56C101.671 46.56 102.151 46.4067 102.498 46.1C102.845 45.78 103.018 45.3467 103.018 44.8C103.018 44.2533 102.845 43.8267 102.498 43.52C102.151 43.2 101.665 43.04 101.038 43.04H98.558C98.4913 43.04 98.458 43.0733 98.458 43.14V46.46C98.458 46.5267 98.4913 46.56 98.558 46.56H101.058ZM113.384 37.56C112.931 37.56 112.551 37.4133 112.244 37.12C111.951 36.8133 111.804 36.4333 111.804 35.98C111.804 35.5133 111.951 35.1333 112.244 34.84C112.538 34.5467 112.918 34.4 113.384 34.4C113.851 34.4 114.231 34.5467 114.524 34.84C114.818 35.1333 114.964 35.5133 114.964 35.98C114.964 36.4333 114.811 36.8133 114.504 37.12C114.211 37.4133 113.838 37.56 113.384 37.56ZM112.184 49C112.118 49 112.058 48.98 112.004 48.94C111.964 48.8867 111.944 48.8267 111.944 48.76V38.94C111.944 38.8733 111.964 38.82 112.004 38.78C112.058 38.7267 112.118 38.7 112.184 38.7H114.524C114.591 38.7 114.644 38.7267 114.684 38.78C114.738 38.82 114.764 38.8733 114.764 38.94V48.76C114.764 48.8267 114.738 48.8867 114.684 48.94C114.644 48.98 114.591 49 114.524 49H112.184ZM122.322 38.56C123.389 38.56 124.249 38.8867 124.902 39.54C125.555 40.1933 125.882 41.08 125.882 42.2V48.76C125.882 48.8267 125.855 48.8867 125.802 48.94C125.762 48.98 125.709 49 125.642 49H123.302C123.235 49 123.175 48.98 123.122 48.94C123.082 48.8867 123.062 48.8267 123.062 48.76V42.78C123.062 42.2467 122.909 41.8133 122.602 41.48C122.309 41.1467 121.915 40.98 121.422 40.98C120.929 40.98 120.529 41.1467 120.222 41.48C119.929 41.8133 119.782 42.2467 119.782 42.78V48.76C119.782 48.8267 119.755 48.8867 119.702 48.94C119.662 48.98 119.609 49 119.542 49H117.202C117.135 49 117.075 48.98 117.022 48.94C116.982 48.8867 116.962 48.8267 116.962 48.76V38.96C116.962 38.8933 116.982 38.84 117.022 38.8C117.075 38.7467 117.135 38.72 117.202 38.72H119.542C119.609 38.72 119.662 38.7467 119.702 38.8C119.755 38.84 119.782 38.8933 119.782 38.96V39.66C119.782 39.7 119.795 39.7267 119.822 39.74C119.849 39.7533 119.869 39.7467 119.882 39.72C120.429 38.9467 121.242 38.56 122.322 38.56ZM136.003 38.56C136.87 38.56 137.643 38.7133 138.323 39.02C139.003 39.3133 139.53 39.72 139.903 40.24C140.29 40.76 140.483 41.34 140.483 41.98V48.76C140.483 48.8267 140.457 48.8867 140.403 48.94C140.363 48.98 140.31 49 140.243 49H137.903C137.837 49 137.777 48.98 137.723 48.94C137.683 48.8867 137.663 48.8267 137.663 48.76V48.1C137.663 48.06 137.65 48.0333 137.623 48.02C137.597 48.0067 137.57 48.02 137.543 48.06C136.983 48.7933 136.083 49.16 134.843 49.16C133.803 49.16 132.963 48.9067 132.323 48.4C131.683 47.8933 131.363 47.1467 131.363 46.16C131.363 45.1333 131.723 44.34 132.443 43.78C133.163 43.2067 134.19 42.92 135.523 42.92H137.563C137.63 42.92 137.663 42.8867 137.663 42.82V42.38C137.663 41.94 137.53 41.6 137.263 41.36C136.997 41.1067 136.597 40.98 136.063 40.98C135.65 40.98 135.303 41.0533 135.023 41.2C134.757 41.3467 134.583 41.5533 134.503 41.82C134.463 41.9667 134.377 42.0333 134.243 42.02L131.823 41.7C131.663 41.6733 131.59 41.6133 131.603 41.52C131.657 40.96 131.877 40.4533 132.263 40C132.663 39.5467 133.183 39.1933 133.823 38.94C134.477 38.6867 135.203 38.56 136.003 38.56ZM135.603 47.06C136.177 47.06 136.663 46.9067 137.063 46.6C137.463 46.2933 137.663 45.9 137.663 45.42V44.7C137.663 44.6333 137.63 44.6 137.563 44.6H136.123C135.523 44.6 135.05 44.7133 134.703 44.94C134.37 45.1667 134.203 45.4867 134.203 45.9C134.203 46.26 134.33 46.5467 134.583 46.76C134.837 46.96 135.177 47.06 135.603 47.06ZM146.57 49.14C145.676 49.14 144.896 49.0133 144.23 48.76C143.563 48.5067 143.043 48.1533 142.67 47.7C142.31 47.2467 142.13 46.7333 142.13 46.16V45.96C142.13 45.8933 142.15 45.84 142.19 45.8C142.243 45.7467 142.303 45.72 142.37 45.72H144.59C144.656 45.72 144.71 45.7467 144.75 45.8C144.803 45.84 144.83 45.8933 144.83 45.96V45.98C144.83 46.2733 144.99 46.5267 145.31 46.74C145.643 46.94 146.056 47.04 146.55 47.04C147.003 47.04 147.37 46.9533 147.65 46.78C147.93 46.5933 148.07 46.3667 148.07 46.1C148.07 45.86 147.95 45.68 147.71 45.56C147.47 45.44 147.076 45.3133 146.53 45.18C145.903 45.02 145.41 44.8667 145.05 44.72C144.196 44.4267 143.516 44.0667 143.01 43.64C142.503 43.2133 142.25 42.6 142.25 41.8C142.25 40.8133 142.63 40.0333 143.39 39.46C144.163 38.8733 145.183 38.58 146.45 38.58C147.303 38.58 148.05 38.72 148.69 39C149.33 39.2667 149.823 39.6467 150.17 40.14C150.53 40.6333 150.71 41.1933 150.71 41.82C150.71 41.8867 150.683 41.9467 150.63 42C150.59 42.04 150.536 42.06 150.47 42.06H148.33C148.263 42.06 148.203 42.04 148.15 42C148.11 41.9467 148.09 41.8867 148.09 41.82C148.09 41.5267 147.936 41.28 147.63 41.08C147.336 40.88 146.943 40.78 146.45 40.78C146.01 40.78 145.65 40.86 145.37 41.02C145.09 41.18 144.95 41.4 144.95 41.68C144.95 41.9467 145.083 42.1467 145.35 42.28C145.63 42.4133 146.09 42.5533 146.73 42.7C146.876 42.74 147.043 42.7867 147.23 42.84C147.416 42.88 147.616 42.9333 147.83 43C148.776 43.28 149.523 43.64 150.07 44.08C150.616 44.52 150.89 45.16 150.89 46C150.89 46.9867 150.496 47.76 149.71 48.32C148.936 48.8667 147.89 49.14 146.57 49.14ZM156.472 49.14C155.579 49.14 154.799 49.0133 154.132 48.76C153.465 48.5067 152.945 48.1533 152.572 47.7C152.212 47.2467 152.032 46.7333 152.032 46.16V45.96C152.032 45.8933 152.052 45.84 152.092 45.8C152.145 45.7467 152.205 45.72 152.272 45.72H154.492C154.559 45.72 154.612 45.7467 154.652 45.8C154.705 45.84 154.732 45.8933 154.732 45.96V45.98C154.732 46.2733 154.892 46.5267 155.212 46.74C155.545 46.94 155.959 47.04 156.452 47.04C156.905 47.04 157.272 46.9533 157.552 46.78C157.832 46.5933 157.972 46.3667 157.972 46.1C157.972 45.86 157.852 45.68 157.612 45.56C157.372 45.44 156.979 45.3133 156.432 45.18C155.805 45.02 155.312 44.8667 154.952 44.72C154.099 44.4267 153.419 44.0667 152.912 43.64C152.405 43.2133 152.152 42.6 152.152 41.8C152.152 40.8133 152.532 40.0333 153.292 39.46C154.065 38.8733 155.085 38.58 156.352 38.58C157.205 38.58 157.952 38.72 158.592 39C159.232 39.2667 159.725 39.6467 160.072 40.14C160.432 40.6333 160.612 41.1933 160.612 41.82C160.612 41.8867 160.585 41.9467 160.532 42C160.492 42.04 160.439 42.06 160.372 42.06H158.232C158.165 42.06 158.105 42.04 158.052 42C158.012 41.9467 157.992 41.8867 157.992 41.82C157.992 41.5267 157.839 41.28 157.532 41.08C157.239 40.88 156.845 40.78 156.352 40.78C155.912 40.78 155.552 40.86 155.272 41.02C154.992 41.18 154.852 41.4 154.852 41.68C154.852 41.9467 154.985 42.1467 155.252 42.28C155.532 42.4133 155.992 42.5533 156.632 42.7C156.779 42.74 156.945 42.7867 157.132 42.84C157.319 42.88 157.519 42.9333 157.732 43C158.679 43.28 159.425 43.64 159.972 44.08C160.519 44.52 160.792 45.16 160.792 46C160.792 46.9867 160.399 47.76 159.612 48.32C158.839 48.8667 157.792 49.14 156.472 49.14ZM171.511 42.8C171.591 43.3067 171.618 43.8733 171.591 44.5C171.578 44.66 171.491 44.74 171.331 44.74H165.151C165.071 44.74 165.044 44.7733 165.071 44.84C165.111 45.1067 165.184 45.3733 165.291 45.64C165.638 46.3867 166.344 46.76 167.411 46.76C168.264 46.7467 168.938 46.4 169.431 45.72C169.484 45.64 169.544 45.6 169.611 45.6C169.651 45.6 169.698 45.6267 169.751 45.68L171.191 47.1C171.258 47.1667 171.291 47.2267 171.291 47.28C171.291 47.3067 171.264 47.36 171.211 47.44C170.771 47.9867 170.204 48.4133 169.511 48.72C168.818 49.0133 168.058 49.16 167.231 49.16C166.084 49.16 165.111 48.9 164.311 48.38C163.524 47.86 162.958 47.1333 162.611 46.2C162.331 45.5333 162.191 44.66 162.191 43.58C162.191 42.8467 162.291 42.2 162.491 41.64C162.798 40.6933 163.331 39.94 164.091 39.38C164.864 38.82 165.778 38.54 166.831 38.54C168.164 38.54 169.231 38.9267 170.031 39.7C170.844 40.4733 171.338 41.5067 171.511 42.8ZM166.851 40.98C166.011 40.98 165.458 41.3733 165.191 42.16C165.138 42.3333 165.091 42.5467 165.051 42.8C165.051 42.8667 165.084 42.9 165.151 42.9H168.611C168.691 42.9 168.718 42.8667 168.691 42.8C168.624 42.4133 168.591 42.2267 168.591 42.24C168.471 41.84 168.258 41.5333 167.951 41.32C167.658 41.0933 167.291 40.98 166.851 40.98ZM178.995 40.74C178.995 40.8067 178.968 40.8667 178.915 40.92C178.875 40.96 178.821 40.98 178.755 40.98H176.835C176.768 40.98 176.735 41.0133 176.735 41.08V45.32C176.735 45.76 176.821 46.0867 176.995 46.3C177.181 46.5133 177.475 46.62 177.875 46.62H178.535C178.601 46.62 178.655 46.6467 178.695 46.7C178.748 46.74 178.775 46.7933 178.775 46.86V48.76C178.775 48.9067 178.695 48.9933 178.535 49.02C177.975 49.0467 177.575 49.06 177.335 49.06C176.228 49.06 175.401 48.88 174.855 48.52C174.308 48.1467 174.028 47.4533 174.015 46.44V41.08C174.015 41.0133 173.981 40.98 173.915 40.98H172.775C172.708 40.98 172.648 40.96 172.595 40.92C172.555 40.8667 172.535 40.8067 172.535 40.74V38.96C172.535 38.8933 172.555 38.84 172.595 38.8C172.648 38.7467 172.708 38.72 172.775 38.72H173.915C173.981 38.72 174.015 38.6867 174.015 38.62V36.24C174.015 36.1733 174.035 36.12 174.075 36.08C174.128 36.0267 174.188 36 174.255 36H176.495C176.561 36 176.615 36.0267 176.655 36.08C176.708 36.12 176.735 36.1733 176.735 36.24V38.62C176.735 38.6867 176.768 38.72 176.835 38.72H178.755C178.821 38.72 178.875 38.7467 178.915 38.8C178.968 38.84 178.995 38.8933 178.995 38.96V40.74ZM184.792 49.14C183.899 49.14 183.119 49.0133 182.452 48.76C181.786 48.5067 181.266 48.1533 180.892 47.7C180.532 47.2467 180.352 46.7333 180.352 46.16V45.96C180.352 45.8933 180.372 45.84 180.412 45.8C180.466 45.7467 180.526 45.72 180.592 45.72H182.812C182.879 45.72 182.932 45.7467 182.972 45.8C183.026 45.84 183.052 45.8933 183.052 45.96V45.98C183.052 46.2733 183.212 46.5267 183.532 46.74C183.866 46.94 184.279 47.04 184.772 47.04C185.226 47.04 185.592 46.9533 185.872 46.78C186.152 46.5933 186.292 46.3667 186.292 46.1C186.292 45.86 186.172 45.68 185.932 45.56C185.692 45.44 185.299 45.3133 184.752 45.18C184.126 45.02 183.632 44.8667 183.272 44.72C182.419 44.4267 181.739 44.0667 181.232 43.64C180.726 43.2133 180.472 42.6 180.472 41.8C180.472 40.8133 180.852 40.0333 181.612 39.46C182.386 38.8733 183.406 38.58 184.672 38.58C185.526 38.58 186.272 38.72 186.912 39C187.552 39.2667 188.046 39.6467 188.392 40.14C188.752 40.6333 188.932 41.1933 188.932 41.82C188.932 41.8867 188.906 41.9467 188.852 42C188.812 42.04 188.759 42.06 188.692 42.06H186.552C186.486 42.06 186.426 42.04 186.372 42C186.332 41.9467 186.312 41.8867 186.312 41.82C186.312 41.5267 186.159 41.28 185.852 41.08C185.559 40.88 185.166 40.78 184.672 40.78C184.232 40.78 183.872 40.86 183.592 41.02C183.312 41.18 183.172 41.4 183.172 41.68C183.172 41.9467 183.306 42.1467 183.572 42.28C183.852 42.4133 184.312 42.5533 184.952 42.7C185.099 42.74 185.266 42.7867 185.452 42.84C185.639 42.88 185.839 42.9333 186.052 43C186.999 43.28 187.746 43.64 188.292 44.08C188.839 44.52 189.112 45.16 189.112 46C189.112 46.9867 188.719 47.76 187.932 48.32C187.159 48.8667 186.112 49.14 184.792 49.14Z" fill="black"/>
<rect x="194" width="3" height="57" fill="#181818"/>
<rect x="187" y="54" width="10" height="3" fill="#181818"/>
<rect x="187" width="10" height="3" fill="#181818"/>
<rect width="3" height="57" fill="#181818"/>
<rect y="54" width="10" height="3" fill="#181818"/>
<rect width="10" height="3" fill="#181818"/>
</svg>
