<svg width="81" height="25" viewBox="0 0 81 25" fill="none" xmlns="http://www.w3.org/2000/svg">
<path d="M70.8477 22.8723C70.8477 23.0165 70.7756 23.0886 70.6314 23.0886H66.0678C65.9237 23.0886 65.8516 23.0165 65.8516 22.8723V21.5097C65.8516 21.3655 65.9237 21.2934 66.0678 21.2934H68.6849C68.7425 21.2934 68.7714 21.2646 68.7714 21.2069V5.2236C68.7714 5.16593 68.7425 5.13709 68.6849 5.13709H66.0678C65.9237 5.13709 65.8516 5.065 65.8516 4.92081V3.5366C65.8516 3.39241 65.9237 3.32031 66.0678 3.32031H70.6314C70.7756 3.32031 70.8477 3.39241 70.8477 3.5366V22.8723Z" fill="#E31E23"/>
<path d="M77.4803 6.44134C77.3736 6.44134 77.3203 6.38801 77.3203 6.28134L77.3363 4.32934C77.3363 4.26534 77.3096 4.24934 77.2563 4.28134L75.4803 5.30534C75.459 5.31601 75.4323 5.32134 75.4003 5.32134C75.3363 5.32134 75.2883 5.29468 75.2563 5.24134L75.0643 4.85734C75.0536 4.83601 75.0483 4.80934 75.0483 4.77734C75.0483 4.71334 75.075 4.66534 75.1283 4.63334L76.8883 3.65734C76.9096 3.64668 76.9203 3.63068 76.9203 3.60934C76.9203 3.58801 76.9096 3.57201 76.8883 3.56134L75.1283 2.58534C75.0856 2.56401 75.059 2.53201 75.0483 2.48934C75.0376 2.44668 75.043 2.40401 75.0643 2.36134L75.2563 1.97734C75.2776 1.93468 75.3096 1.90801 75.3523 1.89734C75.395 1.88668 75.4376 1.89201 75.4803 1.91334L77.2563 2.93734C77.3096 2.95868 77.3363 2.94268 77.3363 2.88934L77.3203 0.937344C77.3203 0.830677 77.3736 0.777344 77.4803 0.777344H77.9123C78.019 0.777344 78.0723 0.830677 78.0723 0.937344L78.0563 2.88934C78.0563 2.94268 78.083 2.95868 78.1363 2.93734L79.9123 1.91334C79.9336 1.90268 79.9603 1.89734 79.9923 1.89734C80.0563 1.89734 80.1043 1.92401 80.1363 1.97734L80.3283 2.36134C80.339 2.38268 80.3443 2.40934 80.3443 2.44134C80.3443 2.50534 80.3176 2.55334 80.2643 2.58534L78.4883 3.56134C78.4776 3.57201 78.4723 3.58801 78.4723 3.60934C78.4723 3.63068 78.4776 3.64668 78.4883 3.65734L80.2643 4.63334C80.307 4.65468 80.3336 4.68668 80.3443 4.72934C80.355 4.77201 80.3496 4.81468 80.3283 4.85734L80.1363 5.24134C80.115 5.28401 80.083 5.31068 80.0403 5.32134C79.9976 5.33201 79.955 5.32668 79.9123 5.30534L78.1363 4.28134C78.083 4.24934 78.0563 4.26534 78.0563 4.32934L78.0723 6.28134C78.0723 6.38801 78.019 6.44134 77.9123 6.44134H77.4803Z" fill="#E31E23"/>
<path d="M57.7651 9.11719C58.9474 9.11719 59.8847 9.46324 60.5768 10.1553C61.2689 10.833 61.6149 11.7558 61.6149 12.9238V20.0611C61.6149 20.2053 61.5428 20.2774 61.3987 20.2774H59.7549C59.6107 20.2774 59.5386 20.2053 59.5386 20.0611V13.3347C59.5386 12.6138 59.3295 12.0298 58.9114 11.5828C58.4932 11.1358 57.9381 10.9123 57.246 10.9123C56.5683 10.9123 56.0132 11.1358 55.5806 11.5828C55.1481 12.0298 54.9318 12.6066 54.9318 13.3131V20.0611C54.9318 20.2053 54.8597 20.2774 54.7155 20.2774H53.0718C52.9276 20.2774 52.8555 20.2053 52.8555 20.0611V9.48487C52.8555 9.34068 52.9276 9.26859 53.0718 9.26859H54.7155C54.8597 9.26859 54.9318 9.34068 54.9318 9.48487V10.2635C54.9318 10.2923 54.939 10.314 54.9534 10.3284C54.9823 10.3428 55.0039 10.3356 55.0183 10.3067C55.6383 9.51371 56.5539 9.11719 57.7651 9.11719Z" fill="#E31E23"/>
<path d="M48.5991 7.53796C48.1953 7.53796 47.8637 7.40819 47.6042 7.14865C47.3446 6.88911 47.2148 6.55747 47.2148 6.15374C47.2148 5.75001 47.3446 5.41838 47.6042 5.15884C47.8637 4.8993 48.1953 4.76953 48.5991 4.76953C49.0028 4.76953 49.3344 4.8993 49.594 5.15884C49.8535 5.41838 49.9833 5.75001 49.9833 6.15374C49.9833 6.55747 49.8535 6.88911 49.594 7.14865C49.3344 7.40819 49.0028 7.53796 48.5991 7.53796ZM47.7339 20.2554C47.5897 20.2554 47.5176 20.1833 47.5176 20.0391V9.4845C47.5176 9.34032 47.5897 9.26822 47.7339 9.26822H49.3777C49.5219 9.26822 49.594 9.34032 49.594 9.4845V20.0391C49.594 20.1833 49.5219 20.2554 49.3777 20.2554H47.7339Z" fill="#E31E23"/>
<path d="M42.3699 9.48306C42.3699 9.33887 42.442 9.26678 42.5862 9.26678H44.2299C44.3741 9.26678 44.4462 9.33887 44.4462 9.48306V19.7133C44.4462 21.4579 43.9488 22.7052 42.9539 23.455C41.9734 24.2047 40.6541 24.5796 38.9959 24.5796C38.7652 24.5796 38.4047 24.5652 37.9145 24.5364C37.7703 24.5219 37.6982 24.4426 37.6982 24.2985L37.7631 22.8061C37.7631 22.7484 37.7847 22.698 37.828 22.6547C37.8712 22.6115 37.9289 22.597 38.001 22.6114C38.2029 22.6259 38.4984 22.6331 38.8878 22.6331C40.1134 22.6331 41.0001 22.4024 41.548 21.941C42.096 21.494 42.3699 20.7298 42.3699 19.6484V19.2591C42.3699 19.2302 42.3555 19.2086 42.3267 19.1942C42.3122 19.1798 42.2906 19.187 42.2618 19.2158C41.6562 19.9223 40.7694 20.2756 39.6015 20.2756C38.6643 20.2756 37.8135 20.0305 37.0493 19.5402C36.2996 19.05 35.7805 18.329 35.4921 17.3774C35.3047 16.743 35.2109 15.8634 35.2109 14.7387C35.2109 13.542 35.3191 12.6192 35.5354 11.9703C35.8093 11.1052 36.2924 10.4131 36.9845 9.894C37.691 9.3605 38.5201 9.09375 39.4717 9.09375C40.6541 9.09375 41.5841 9.45422 42.2618 10.1752C42.2906 10.204 42.3122 10.2184 42.3267 10.2184C42.3555 10.204 42.3699 10.1824 42.3699 10.1535V9.48306ZM42.2401 16.7502C42.2834 16.5195 42.3122 16.2744 42.3267 16.0148C42.3555 15.7553 42.3699 15.3227 42.3699 14.7171C42.3699 14.1115 42.3555 13.6862 42.3267 13.441C42.3122 13.1815 42.2762 12.9364 42.2185 12.7057C42.1032 12.1722 41.8436 11.7396 41.4399 11.408C41.0362 11.0619 40.5315 10.8889 39.9259 10.8889C39.3203 10.8889 38.8157 11.0619 38.4119 11.408C38.0082 11.7396 37.7198 12.1722 37.5468 12.7057C37.3882 13.1382 37.3089 13.8087 37.3089 14.7171C37.3089 15.712 37.381 16.3897 37.5252 16.7502C37.6694 17.2837 37.9505 17.7234 38.3687 18.0695C38.8012 18.4011 39.3203 18.567 39.9259 18.567C40.5603 18.567 41.0722 18.4011 41.4615 18.0695C41.8653 17.7234 42.1248 17.2837 42.2401 16.7502Z" fill="#E31E23"/>
<path d="M32.7372 9.16016C33.1986 9.16016 33.6167 9.25388 33.9916 9.44132C34.0926 9.48458 34.1286 9.57109 34.0998 9.70086L33.7537 11.323C33.7393 11.4528 33.6528 11.496 33.4942 11.4528C33.249 11.3518 32.9607 11.3014 32.629 11.3014L32.3262 11.323C31.6486 11.3518 31.0862 11.5897 30.6392 12.0367C30.2067 12.4693 29.9904 13.0388 29.9904 13.7454V20.0608C29.9904 20.205 29.9183 20.2771 29.7741 20.2771H28.1303C27.9862 20.2771 27.9141 20.205 27.9141 20.0608V9.48458C27.9141 9.34039 27.9862 9.2683 28.1303 9.2683H29.7741C29.9183 9.2683 29.9904 9.34039 29.9904 9.48458V10.6309C29.9904 10.6741 29.9976 10.703 30.012 10.7174C30.0408 10.7174 30.0625 10.703 30.0769 10.6741C30.7257 9.66482 31.6125 9.16016 32.7372 9.16016Z" fill="#E31E23"/>
<path d="M23.6537 7.53796C23.25 7.53796 22.9184 7.40819 22.6588 7.14865C22.3993 6.88911 22.2695 6.55747 22.2695 6.15374C22.2695 5.75001 22.3993 5.41838 22.6588 5.15884C22.9184 4.8993 23.25 4.76953 23.6537 4.76953C24.0575 4.76953 24.3891 4.8993 24.6486 5.15884C24.9082 5.41838 25.038 5.75001 25.038 6.15374C25.038 6.55747 24.9082 6.88911 24.6486 7.14865C24.3891 7.40819 24.0575 7.53796 23.6537 7.53796ZM22.7886 20.2554C22.6444 20.2554 22.5723 20.1833 22.5723 20.0391V9.4845C22.5723 9.34032 22.6444 9.26822 22.7886 9.26822H24.4324C24.5766 9.26822 24.6486 9.34032 24.6486 9.4845V20.0391C24.6486 20.1833 24.5766 20.2554 24.4324 20.2554H22.7886Z" fill="#E31E23"/>
<path d="M13.4956 20.2765C13.3658 20.2765 13.2793 20.2189 13.236 20.1035L8.60757 5.37463L8.58594 5.28812C8.58594 5.18718 8.65082 5.13672 8.78059 5.13672H10.5325C10.6623 5.13672 10.7488 5.19439 10.792 5.30975L14.3607 17.2702C14.3751 17.299 14.3967 17.3135 14.4256 17.3135C14.4544 17.3135 14.4761 17.299 14.4905 17.2702L18.0591 5.30975C18.1024 5.19439 18.1817 5.13672 18.2971 5.13672H20.0057C20.1643 5.13672 20.222 5.21602 20.1787 5.37463L15.507 20.1035C15.4637 20.2189 15.3772 20.2765 15.2475 20.2765H13.4956Z" fill="#E31E23"/>
<path d="M0.333471 23.0886C0.189282 23.0886 0.117188 23.0165 0.117188 22.8723V3.5366C0.117188 3.39241 0.189282 3.32031 0.333471 3.32031H4.87542C5.01961 3.32031 5.0917 3.39241 5.0917 3.5366V4.92081C5.0917 5.065 5.01961 5.13709 4.87542 5.13709H2.28002C2.22234 5.13709 2.19351 5.16593 2.19351 5.2236V21.2069C2.19351 21.2646 2.22234 21.2934 2.28002 21.2934H4.89705C5.04123 21.2934 5.11333 21.3655 5.11333 21.5097V22.8723C5.11333 23.0165 5.04123 23.0886 4.89705 23.0886H0.333471Z" fill="#E31E23"/>
</svg>
