<svg width="200" height="46" viewBox="0 0 200 46" fill="none" xmlns="http://www.w3.org/2000/svg">
<g clip-path="url(#clip0_840_5470)">
<path d="M193.956 33.6075V25.6096C193.956 22.2912 196.084 21.4349 197.718 21.4349C198.69 21.4349 199.353 21.7101 199.522 21.7713L199.846 18.9881C199.846 18.9881 198.967 18.6211 197.811 18.6211C196.191 18.6211 194.788 19.3245 193.956 20.9302V18.9269H190.887V33.6075H193.956Z" fill="#181818"/>
<path d="M193.956 33.6075V25.6096C193.956 22.2912 196.084 21.4349 197.718 21.4349C198.69 21.4349 199.353 21.7101 199.522 21.7713L199.846 18.9881C199.846 18.9881 198.967 18.6211 197.811 18.6211C196.191 18.6211 194.788 19.3245 193.956 20.9302V18.9269H190.887V33.6075H193.956Z" fill="black" fill-opacity="0.2"/>
<path d="M193.956 33.6075V25.6096C193.956 22.2912 196.084 21.4349 197.718 21.4349C198.69 21.4349 199.353 21.7101 199.522 21.7713L199.846 18.9881C199.846 18.9881 198.967 18.6211 197.811 18.6211C196.191 18.6211 194.788 19.3245 193.956 20.9302V18.9269H190.887V33.6075H193.956Z" fill="black" fill-opacity="0.2"/>
<path d="M193.956 33.6075V25.6096C193.956 22.2912 196.084 21.4349 197.718 21.4349C198.69 21.4349 199.353 21.7101 199.522 21.7713L199.846 18.9881C199.846 18.9881 198.967 18.6211 197.811 18.6211C196.191 18.6211 194.788 19.3245 193.956 20.9302V18.9269H190.887V33.6075H193.956Z" fill="black" fill-opacity="0.2"/>
<path d="M193.956 33.6075V25.6096C193.956 22.2912 196.084 21.4349 197.718 21.4349C198.69 21.4349 199.353 21.7101 199.522 21.7713L199.846 18.9881C199.846 18.9881 198.967 18.6211 197.811 18.6211C196.191 18.6211 194.788 19.3245 193.956 20.9302V18.9269H190.887V33.6075H193.956Z" fill="black" fill-opacity="0.2"/>
<path d="M193.956 33.6075V25.6096C193.956 22.2912 196.084 21.4349 197.718 21.4349C198.69 21.4349 199.353 21.7101 199.522 21.7713L199.846 18.9881C199.846 18.9881 198.967 18.6211 197.811 18.6211C196.191 18.6211 194.788 19.3245 193.956 20.9302V18.9269H190.887V33.6075H193.956Z" fill="black" fill-opacity="0.2"/>
<path d="M174.02 26.2825C174.02 30.6408 177.304 33.9134 181.776 33.9134C184.398 33.9134 187.097 32.6286 188.469 30.182L186.217 28.561C185.107 30.289 183.627 31.069 181.776 31.069C179.216 31.069 177.32 29.3409 177.181 27.1389H188.669C188.762 26.6648 188.793 26.1907 188.793 25.732C188.793 21.8019 185.986 18.6211 181.668 18.6211C177.181 18.6211 174.02 21.9089 174.02 26.2825ZM177.258 24.8756C177.644 22.8112 179.371 21.3584 181.637 21.3584C183.766 21.3584 185.508 22.8112 185.693 24.8756H177.258Z" fill="#181818"/>
<path d="M174.02 26.2825C174.02 30.6408 177.304 33.9134 181.776 33.9134C184.398 33.9134 187.097 32.6286 188.469 30.182L186.217 28.561C185.107 30.289 183.627 31.069 181.776 31.069C179.216 31.069 177.32 29.3409 177.181 27.1389H188.669C188.762 26.6648 188.793 26.1907 188.793 25.732C188.793 21.8019 185.986 18.6211 181.668 18.6211C177.181 18.6211 174.02 21.9089 174.02 26.2825ZM177.258 24.8756C177.644 22.8112 179.371 21.3584 181.637 21.3584C183.766 21.3584 185.508 22.8112 185.693 24.8756H177.258Z" fill="black" fill-opacity="0.2"/>
<path d="M174.02 26.2825C174.02 30.6408 177.304 33.9134 181.776 33.9134C184.398 33.9134 187.097 32.6286 188.469 30.182L186.217 28.561C185.107 30.289 183.627 31.069 181.776 31.069C179.216 31.069 177.32 29.3409 177.181 27.1389H188.669C188.762 26.6648 188.793 26.1907 188.793 25.732C188.793 21.8019 185.986 18.6211 181.668 18.6211C177.181 18.6211 174.02 21.9089 174.02 26.2825ZM177.258 24.8756C177.644 22.8112 179.371 21.3584 181.637 21.3584C183.766 21.3584 185.508 22.8112 185.693 24.8756H177.258Z" fill="black" fill-opacity="0.2"/>
<path d="M174.02 26.2825C174.02 30.6408 177.304 33.9134 181.776 33.9134C184.398 33.9134 187.097 32.6286 188.469 30.182L186.217 28.561C185.107 30.289 183.627 31.069 181.776 31.069C179.216 31.069 177.32 29.3409 177.181 27.1389H188.669C188.762 26.6648 188.793 26.1907 188.793 25.732C188.793 21.8019 185.986 18.6211 181.668 18.6211C177.181 18.6211 174.02 21.9089 174.02 26.2825ZM177.258 24.8756C177.644 22.8112 179.371 21.3584 181.637 21.3584C183.766 21.3584 185.508 22.8112 185.693 24.8756H177.258Z" fill="black" fill-opacity="0.2"/>
<path d="M174.02 26.2825C174.02 30.6408 177.304 33.9134 181.776 33.9134C184.398 33.9134 187.097 32.6286 188.469 30.182L186.217 28.561C185.107 30.289 183.627 31.069 181.776 31.069C179.216 31.069 177.32 29.3409 177.181 27.1389H188.669C188.762 26.6648 188.793 26.1907 188.793 25.732C188.793 21.8019 185.986 18.6211 181.668 18.6211C177.181 18.6211 174.02 21.9089 174.02 26.2825ZM177.258 24.8756C177.644 22.8112 179.371 21.3584 181.637 21.3584C183.766 21.3584 185.508 22.8112 185.693 24.8756H177.258Z" fill="black" fill-opacity="0.2"/>
<path d="M174.02 26.2825C174.02 30.6408 177.304 33.9134 181.776 33.9134C184.398 33.9134 187.097 32.6286 188.469 30.182L186.217 28.561C185.107 30.289 183.627 31.069 181.776 31.069C179.216 31.069 177.32 29.3409 177.181 27.1389H188.669C188.762 26.6648 188.793 26.1907 188.793 25.732C188.793 21.8019 185.986 18.6211 181.668 18.6211C177.181 18.6211 174.02 21.9089 174.02 26.2825ZM177.258 24.8756C177.644 22.8112 179.371 21.3584 181.637 21.3584C183.766 21.3584 185.508 22.8112 185.693 24.8756H177.258Z" fill="black" fill-opacity="0.2"/>
<path d="M163.601 33.9134C166.114 33.9134 167.842 32.9346 168.875 31.6042V32.8428C168.875 35.5189 166.885 37.2775 163.847 37.2775C161.858 37.2775 160.27 36.4213 158.867 34.9073L156.862 36.8801C158.558 38.8984 161.072 40.0301 163.786 40.0301C168.767 40.0301 171.928 37.0788 171.928 32.4604V18.9269H168.875V20.9302C167.78 19.5386 166.114 18.6211 163.601 18.6211C159.391 18.6211 156.168 21.6795 156.168 26.1907C156.168 30.7019 159.391 33.9134 163.601 33.9134ZM163.971 21.3431C166.808 21.3431 168.859 23.484 168.859 26.1907C168.859 28.8975 166.824 31.1913 163.971 31.1913C161.118 31.1913 159.221 28.8975 159.221 26.1907C159.221 23.484 161.118 21.3431 163.971 21.3431Z" fill="#181818"/>
<path d="M163.601 33.9134C166.114 33.9134 167.842 32.9346 168.875 31.6042V32.8428C168.875 35.5189 166.885 37.2775 163.847 37.2775C161.858 37.2775 160.27 36.4213 158.867 34.9073L156.862 36.8801C158.558 38.8984 161.072 40.0301 163.786 40.0301C168.767 40.0301 171.928 37.0788 171.928 32.4604V18.9269H168.875V20.9302C167.78 19.5386 166.114 18.6211 163.601 18.6211C159.391 18.6211 156.168 21.6795 156.168 26.1907C156.168 30.7019 159.391 33.9134 163.601 33.9134ZM163.971 21.3431C166.808 21.3431 168.859 23.484 168.859 26.1907C168.859 28.8975 166.824 31.1913 163.971 31.1913C161.118 31.1913 159.221 28.8975 159.221 26.1907C159.221 23.484 161.118 21.3431 163.971 21.3431Z" fill="black" fill-opacity="0.2"/>
<path d="M163.601 33.9134C166.114 33.9134 167.842 32.9346 168.875 31.6042V32.8428C168.875 35.5189 166.885 37.2775 163.847 37.2775C161.858 37.2775 160.27 36.4213 158.867 34.9073L156.862 36.8801C158.558 38.8984 161.072 40.0301 163.786 40.0301C168.767 40.0301 171.928 37.0788 171.928 32.4604V18.9269H168.875V20.9302C167.78 19.5386 166.114 18.6211 163.601 18.6211C159.391 18.6211 156.168 21.6795 156.168 26.1907C156.168 30.7019 159.391 33.9134 163.601 33.9134ZM163.971 21.3431C166.808 21.3431 168.859 23.484 168.859 26.1907C168.859 28.8975 166.824 31.1913 163.971 31.1913C161.118 31.1913 159.221 28.8975 159.221 26.1907C159.221 23.484 161.118 21.3431 163.971 21.3431Z" fill="black" fill-opacity="0.2"/>
<path d="M163.601 33.9134C166.114 33.9134 167.842 32.9346 168.875 31.6042V32.8428C168.875 35.5189 166.885 37.2775 163.847 37.2775C161.858 37.2775 160.27 36.4213 158.867 34.9073L156.862 36.8801C158.558 38.8984 161.072 40.0301 163.786 40.0301C168.767 40.0301 171.928 37.0788 171.928 32.4604V18.9269H168.875V20.9302C167.78 19.5386 166.114 18.6211 163.601 18.6211C159.391 18.6211 156.168 21.6795 156.168 26.1907C156.168 30.7019 159.391 33.9134 163.601 33.9134ZM163.971 21.3431C166.808 21.3431 168.859 23.484 168.859 26.1907C168.859 28.8975 166.824 31.1913 163.971 31.1913C161.118 31.1913 159.221 28.8975 159.221 26.1907C159.221 23.484 161.118 21.3431 163.971 21.3431Z" fill="black" fill-opacity="0.2"/>
<path d="M163.601 33.9134C166.114 33.9134 167.842 32.9346 168.875 31.6042V32.8428C168.875 35.5189 166.885 37.2775 163.847 37.2775C161.858 37.2775 160.27 36.4213 158.867 34.9073L156.862 36.8801C158.558 38.8984 161.072 40.0301 163.786 40.0301C168.767 40.0301 171.928 37.0788 171.928 32.4604V18.9269H168.875V20.9302C167.78 19.5386 166.114 18.6211 163.601 18.6211C159.391 18.6211 156.168 21.6795 156.168 26.1907C156.168 30.7019 159.391 33.9134 163.601 33.9134ZM163.971 21.3431C166.808 21.3431 168.859 23.484 168.859 26.1907C168.859 28.8975 166.824 31.1913 163.971 31.1913C161.118 31.1913 159.221 28.8975 159.221 26.1907C159.221 23.484 161.118 21.3431 163.971 21.3431Z" fill="black" fill-opacity="0.2"/>
<path d="M163.601 33.9134C166.114 33.9134 167.842 32.9346 168.875 31.6042V32.8428C168.875 35.5189 166.885 37.2775 163.847 37.2775C161.858 37.2775 160.27 36.4213 158.867 34.9073L156.862 36.8801C158.558 38.8984 161.072 40.0301 163.786 40.0301C168.767 40.0301 171.928 37.0788 171.928 32.4604V18.9269H168.875V20.9302C167.78 19.5386 166.114 18.6211 163.601 18.6211C159.391 18.6211 156.168 21.6795 156.168 26.1907C156.168 30.7019 159.391 33.9134 163.601 33.9134ZM163.971 21.3431C166.808 21.3431 168.859 23.484 168.859 26.1907C168.859 28.8975 166.824 31.1913 163.971 31.1913C161.118 31.1913 159.221 28.8975 159.221 26.1907C159.221 23.484 161.118 21.3431 163.971 21.3431Z" fill="black" fill-opacity="0.2"/>
<path d="M121.445 26.2825C121.445 30.6408 124.73 33.9134 129.202 33.9134C131.824 33.9134 134.522 32.6286 135.895 30.182L133.643 28.561C132.533 30.289 131.053 31.069 129.202 31.069C126.642 31.069 124.745 29.3409 124.607 27.1389H136.095C136.188 26.6648 136.219 26.1907 136.219 25.732C136.219 21.8019 133.412 18.6211 129.094 18.6211C124.607 18.6211 121.445 21.9089 121.445 26.2825ZM124.684 24.8756C125.069 22.8112 126.796 21.3584 129.063 21.3584C131.191 21.3584 132.934 22.8112 133.119 24.8756H124.684Z" fill="#181818"/>
<path d="M121.445 26.2825C121.445 30.6408 124.73 33.9134 129.202 33.9134C131.824 33.9134 134.522 32.6286 135.895 30.182L133.643 28.561C132.533 30.289 131.053 31.069 129.202 31.069C126.642 31.069 124.745 29.3409 124.607 27.1389H136.095C136.188 26.6648 136.219 26.1907 136.219 25.732C136.219 21.8019 133.412 18.6211 129.094 18.6211C124.607 18.6211 121.445 21.9089 121.445 26.2825ZM124.684 24.8756C125.069 22.8112 126.796 21.3584 129.063 21.3584C131.191 21.3584 132.934 22.8112 133.119 24.8756H124.684Z" fill="black" fill-opacity="0.2"/>
<path d="M121.445 26.2825C121.445 30.6408 124.73 33.9134 129.202 33.9134C131.824 33.9134 134.522 32.6286 135.895 30.182L133.643 28.561C132.533 30.289 131.053 31.069 129.202 31.069C126.642 31.069 124.745 29.3409 124.607 27.1389H136.095C136.188 26.6648 136.219 26.1907 136.219 25.732C136.219 21.8019 133.412 18.6211 129.094 18.6211C124.607 18.6211 121.445 21.9089 121.445 26.2825ZM124.684 24.8756C125.069 22.8112 126.796 21.3584 129.063 21.3584C131.191 21.3584 132.934 22.8112 133.119 24.8756H124.684Z" fill="black" fill-opacity="0.2"/>
<path d="M121.445 26.2825C121.445 30.6408 124.73 33.9134 129.202 33.9134C131.824 33.9134 134.522 32.6286 135.895 30.182L133.643 28.561C132.533 30.289 131.053 31.069 129.202 31.069C126.642 31.069 124.745 29.3409 124.607 27.1389H136.095C136.188 26.6648 136.219 26.1907 136.219 25.732C136.219 21.8019 133.412 18.6211 129.094 18.6211C124.607 18.6211 121.445 21.9089 121.445 26.2825ZM124.684 24.8756C125.069 22.8112 126.796 21.3584 129.063 21.3584C131.191 21.3584 132.934 22.8112 133.119 24.8756H124.684Z" fill="black" fill-opacity="0.2"/>
<path d="M121.445 26.2825C121.445 30.6408 124.73 33.9134 129.202 33.9134C131.824 33.9134 134.522 32.6286 135.895 30.182L133.643 28.561C132.533 30.289 131.053 31.069 129.202 31.069C126.642 31.069 124.745 29.3409 124.607 27.1389H136.095C136.188 26.6648 136.219 26.1907 136.219 25.732C136.219 21.8019 133.412 18.6211 129.094 18.6211C124.607 18.6211 121.445 21.9089 121.445 26.2825ZM124.684 24.8756C125.069 22.8112 126.796 21.3584 129.063 21.3584C131.191 21.3584 132.934 22.8112 133.119 24.8756H124.684Z" fill="black" fill-opacity="0.2"/>
<path d="M121.445 26.2825C121.445 30.6408 124.73 33.9134 129.202 33.9134C131.824 33.9134 134.522 32.6286 135.895 30.182L133.643 28.561C132.533 30.289 131.053 31.069 129.202 31.069C126.642 31.069 124.745 29.3409 124.607 27.1389H136.095C136.188 26.6648 136.219 26.1907 136.219 25.732C136.219 21.8019 133.412 18.6211 129.094 18.6211C124.607 18.6211 121.445 21.9089 121.445 26.2825ZM124.684 24.8756C125.069 22.8112 126.796 21.3584 129.063 21.3584C131.191 21.3584 132.934 22.8112 133.119 24.8756H124.684Z" fill="black" fill-opacity="0.2"/>
<path d="M92.3306 33.6075V25.3344C92.3306 22.9029 94.1656 21.496 96.4171 21.496C98.7148 21.496 100.057 22.9029 100.057 25.3344V33.6075H103.11V24.6921C103.11 21.129 100.966 18.6211 96.8953 18.6211C94.2426 18.6211 92.8396 20.028 92.3458 20.7773V18.9269H89.2773V33.6075H92.3306Z" fill="#181818"/>
<path d="M92.3306 33.6075V25.3344C92.3306 22.9029 94.1656 21.496 96.4171 21.496C98.7148 21.496 100.057 22.9029 100.057 25.3344V33.6075H103.11V24.6921C103.11 21.129 100.966 18.6211 96.8953 18.6211C94.2426 18.6211 92.8396 20.028 92.3458 20.7773V18.9269H89.2773V33.6075H92.3306Z" fill="black" fill-opacity="0.2"/>
<path d="M92.3306 33.6075V25.3344C92.3306 22.9029 94.1656 21.496 96.4171 21.496C98.7148 21.496 100.057 22.9029 100.057 25.3344V33.6075H103.11V24.6921C103.11 21.129 100.966 18.6211 96.8953 18.6211C94.2426 18.6211 92.8396 20.028 92.3458 20.7773V18.9269H89.2773V33.6075H92.3306Z" fill="black" fill-opacity="0.2"/>
<path d="M92.3306 33.6075V25.3344C92.3306 22.9029 94.1656 21.496 96.4171 21.496C98.7148 21.496 100.057 22.9029 100.057 25.3344V33.6075H103.11V24.6921C103.11 21.129 100.966 18.6211 96.8953 18.6211C94.2426 18.6211 92.8396 20.028 92.3458 20.7773V18.9269H89.2773V33.6075H92.3306Z" fill="black" fill-opacity="0.2"/>
<path d="M92.3306 33.6075V25.3344C92.3306 22.9029 94.1656 21.496 96.4171 21.496C98.7148 21.496 100.057 22.9029 100.057 25.3344V33.6075H103.11V24.6921C103.11 21.129 100.966 18.6211 96.8953 18.6211C94.2426 18.6211 92.8396 20.028 92.3458 20.7773V18.9269H89.2773V33.6075H92.3306Z" fill="black" fill-opacity="0.2"/>
<path d="M92.3306 33.6075V25.3344C92.3306 22.9029 94.1656 21.496 96.4171 21.496C98.7148 21.496 100.057 22.9029 100.057 25.3344V33.6075H103.11V24.6921C103.11 21.129 100.966 18.6211 96.8953 18.6211C94.2426 18.6211 92.8396 20.028 92.3458 20.7773V18.9269H89.2773V33.6075H92.3306Z" fill="black" fill-opacity="0.2"/>
<path d="M72.4062 26.2825C72.4062 30.6408 75.6909 33.9134 80.163 33.9134C82.7843 33.9134 85.4833 32.6286 86.8556 30.182L84.6041 28.561C83.4939 30.289 82.0136 31.069 80.163 31.069C77.6029 31.069 75.7061 29.3409 75.5673 27.1389H87.0562C87.1487 26.6648 87.1795 26.1907 87.1795 25.732C87.1795 21.8019 84.3728 18.6211 80.055 18.6211C75.5673 18.6211 72.4062 21.9089 72.4062 26.2825ZM75.6446 24.8756C76.03 22.8112 77.7572 21.3584 80.0242 21.3584C82.1521 21.3584 83.8948 22.8112 84.0799 24.8756H75.6446Z" fill="#181818"/>
<path d="M72.4062 26.2825C72.4062 30.6408 75.6909 33.9134 80.163 33.9134C82.7843 33.9134 85.4833 32.6286 86.8556 30.182L84.6041 28.561C83.4939 30.289 82.0136 31.069 80.163 31.069C77.6029 31.069 75.7061 29.3409 75.5673 27.1389H87.0562C87.1487 26.6648 87.1795 26.1907 87.1795 25.732C87.1795 21.8019 84.3728 18.6211 80.055 18.6211C75.5673 18.6211 72.4062 21.9089 72.4062 26.2825ZM75.6446 24.8756C76.03 22.8112 77.7572 21.3584 80.0242 21.3584C82.1521 21.3584 83.8948 22.8112 84.0799 24.8756H75.6446Z" fill="black" fill-opacity="0.2"/>
<path d="M72.4062 26.2825C72.4062 30.6408 75.6909 33.9134 80.163 33.9134C82.7843 33.9134 85.4833 32.6286 86.8556 30.182L84.6041 28.561C83.4939 30.289 82.0136 31.069 80.163 31.069C77.6029 31.069 75.7061 29.3409 75.5673 27.1389H87.0562C87.1487 26.6648 87.1795 26.1907 87.1795 25.732C87.1795 21.8019 84.3728 18.6211 80.055 18.6211C75.5673 18.6211 72.4062 21.9089 72.4062 26.2825ZM75.6446 24.8756C76.03 22.8112 77.7572 21.3584 80.0242 21.3584C82.1521 21.3584 83.8948 22.8112 84.0799 24.8756H75.6446Z" fill="black" fill-opacity="0.2"/>
<path d="M72.4062 26.2825C72.4062 30.6408 75.6909 33.9134 80.163 33.9134C82.7843 33.9134 85.4833 32.6286 86.8556 30.182L84.6041 28.561C83.4939 30.289 82.0136 31.069 80.163 31.069C77.6029 31.069 75.7061 29.3409 75.5673 27.1389H87.0562C87.1487 26.6648 87.1795 26.1907 87.1795 25.732C87.1795 21.8019 84.3728 18.6211 80.055 18.6211C75.5673 18.6211 72.4062 21.9089 72.4062 26.2825ZM75.6446 24.8756C76.03 22.8112 77.7572 21.3584 80.0242 21.3584C82.1521 21.3584 83.8948 22.8112 84.0799 24.8756H75.6446Z" fill="black" fill-opacity="0.2"/>
<path d="M72.4062 26.2825C72.4062 30.6408 75.6909 33.9134 80.163 33.9134C82.7843 33.9134 85.4833 32.6286 86.8556 30.182L84.6041 28.561C83.4939 30.289 82.0136 31.069 80.163 31.069C77.6029 31.069 75.7061 29.3409 75.5673 27.1389H87.0562C87.1487 26.6648 87.1795 26.1907 87.1795 25.732C87.1795 21.8019 84.3728 18.6211 80.055 18.6211C75.5673 18.6211 72.4062 21.9089 72.4062 26.2825ZM75.6446 24.8756C76.03 22.8112 77.7572 21.3584 80.0242 21.3584C82.1521 21.3584 83.8948 22.8112 84.0799 24.8756H75.6446Z" fill="black" fill-opacity="0.2"/>
<path d="M72.4062 26.2825C72.4062 30.6408 75.6909 33.9134 80.163 33.9134C82.7843 33.9134 85.4833 32.6286 86.8556 30.182L84.6041 28.561C83.4939 30.289 82.0136 31.069 80.163 31.069C77.6029 31.069 75.7061 29.3409 75.5673 27.1389H87.0562C87.1487 26.6648 87.1795 26.1907 87.1795 25.732C87.1795 21.8019 84.3728 18.6211 80.055 18.6211C75.5673 18.6211 72.4062 21.9089 72.4062 26.2825ZM75.6446 24.8756C76.03 22.8112 77.7572 21.3584 80.0242 21.3584C82.1521 21.3584 83.8948 22.8112 84.0799 24.8756H75.6446Z" fill="black" fill-opacity="0.2"/>
<path d="M138.316 26.1882C138.316 30.6994 141.539 33.9108 145.749 33.9108C148.263 33.9108 149.928 32.9933 151.023 31.6016V33.6049H154.077V12.8516H151.023V20.9277C149.928 19.5361 148.263 18.6185 145.749 18.6185C141.539 18.6185 138.316 21.677 138.316 26.1882ZM146.119 21.3406C148.957 21.3406 151.008 23.4815 151.008 26.1882C151.008 28.8949 148.972 31.1888 146.119 31.1888C143.266 31.1888 141.37 28.8949 141.37 26.1882C141.37 23.4815 143.266 21.3406 146.119 21.3406Z" fill="#181818"/>
<path d="M138.316 26.1882C138.316 30.6994 141.539 33.9108 145.749 33.9108C148.263 33.9108 149.928 32.9933 151.023 31.6016V33.6049H154.077V12.8516H151.023V20.9277C149.928 19.5361 148.263 18.6185 145.749 18.6185C141.539 18.6185 138.316 21.677 138.316 26.1882ZM146.119 21.3406C148.957 21.3406 151.008 23.4815 151.008 26.1882C151.008 28.8949 148.972 31.1888 146.119 31.1888C143.266 31.1888 141.37 28.8949 141.37 26.1882C141.37 23.4815 143.266 21.3406 146.119 21.3406Z" fill="black" fill-opacity="0.2"/>
<path d="M138.316 26.1882C138.316 30.6994 141.539 33.9108 145.749 33.9108C148.263 33.9108 149.928 32.9933 151.023 31.6016V33.6049H154.077V12.8516H151.023V20.9277C149.928 19.5361 148.263 18.6185 145.749 18.6185C141.539 18.6185 138.316 21.677 138.316 26.1882ZM146.119 21.3406C148.957 21.3406 151.008 23.4815 151.008 26.1882C151.008 28.8949 148.972 31.1888 146.119 31.1888C143.266 31.1888 141.37 28.8949 141.37 26.1882C141.37 23.4815 143.266 21.3406 146.119 21.3406Z" fill="black" fill-opacity="0.2"/>
<path d="M138.316 26.1882C138.316 30.6994 141.539 33.9108 145.749 33.9108C148.263 33.9108 149.928 32.9933 151.023 31.6016V33.6049H154.077V12.8516H151.023V20.9277C149.928 19.5361 148.263 18.6185 145.749 18.6185C141.539 18.6185 138.316 21.677 138.316 26.1882ZM146.119 21.3406C148.957 21.3406 151.008 23.4815 151.008 26.1882C151.008 28.8949 148.972 31.1888 146.119 31.1888C143.266 31.1888 141.37 28.8949 141.37 26.1882C141.37 23.4815 143.266 21.3406 146.119 21.3406Z" fill="black" fill-opacity="0.2"/>
<path d="M138.316 26.1882C138.316 30.6994 141.539 33.9108 145.749 33.9108C148.263 33.9108 149.928 32.9933 151.023 31.6016V33.6049H154.077V12.8516H151.023V20.9277C149.928 19.5361 148.263 18.6185 145.749 18.6185C141.539 18.6185 138.316 21.677 138.316 26.1882ZM146.119 21.3406C148.957 21.3406 151.008 23.4815 151.008 26.1882C151.008 28.8949 148.972 31.1888 146.119 31.1888C143.266 31.1888 141.37 28.8949 141.37 26.1882C141.37 23.4815 143.266 21.3406 146.119 21.3406Z" fill="black" fill-opacity="0.2"/>
<path d="M138.316 26.1882C138.316 30.6994 141.539 33.9108 145.749 33.9108C148.263 33.9108 149.928 32.9933 151.023 31.6016V33.6049H154.077V12.8516H151.023V20.9277C149.928 19.5361 148.263 18.6185 145.749 18.6185C141.539 18.6185 138.316 21.677 138.316 26.1882ZM146.119 21.3406C148.957 21.3406 151.008 23.4815 151.008 26.1882C151.008 28.8949 148.972 31.1888 146.119 31.1888C143.266 31.1888 141.37 28.8949 141.37 26.1882C141.37 23.4815 143.266 21.3406 146.119 21.3406Z" fill="black" fill-opacity="0.2"/>
<path d="M120.405 30.6976H108.484V12.8516H105.23V33.6185H120.405V30.6976Z" fill="#181818"/>
<path d="M120.405 30.6976H108.484V12.8516H105.23V33.6185H120.405V30.6976Z" fill="black" fill-opacity="0.2"/>
<path d="M120.405 30.6976H108.484V12.8516H105.23V33.6185H120.405V30.6976Z" fill="black" fill-opacity="0.2"/>
<path d="M120.405 30.6976H108.484V12.8516H105.23V33.6185H120.405V30.6976Z" fill="black" fill-opacity="0.2"/>
<path d="M120.405 30.6976H108.484V12.8516H105.23V33.6185H120.405V30.6976Z" fill="black" fill-opacity="0.2"/>
<path d="M120.405 30.6976H108.484V12.8516H105.23V33.6185H120.405V30.6976Z" fill="black" fill-opacity="0.2"/>
<path d="M55.1953 33.6185H71.3719V30.6976H59.3898L71.2178 15.436V12.8516H55.3497V15.7724H66.9923L55.1953 31.0798V33.6185Z" fill="#181818"/>
<path d="M55.1953 33.6185H71.3719V30.6976H59.3898L71.2178 15.436V12.8516H55.3497V15.7724H66.9923L55.1953 31.0798V33.6185Z" fill="black" fill-opacity="0.2"/>
<path d="M55.1953 33.6185H71.3719V30.6976H59.3898L71.2178 15.436V12.8516H55.3497V15.7724H66.9923L55.1953 31.0798V33.6185Z" fill="black" fill-opacity="0.2"/>
<path d="M55.1953 33.6185H71.3719V30.6976H59.3898L71.2178 15.436V12.8516H55.3497V15.7724H66.9923L55.1953 31.0798V33.6185Z" fill="black" fill-opacity="0.2"/>
<path d="M55.1953 33.6185H71.3719V30.6976H59.3898L71.2178 15.436V12.8516H55.3497V15.7724H66.9923L55.1953 31.0798V33.6185Z" fill="black" fill-opacity="0.2"/>
<path d="M55.1953 33.6185H71.3719V30.6976H59.3898L71.2178 15.436V12.8516H55.3497V15.7724H66.9923L55.1953 31.0798V33.6185Z" fill="black" fill-opacity="0.2"/>
<path d="M22.8458 45.7266C35.3769 45.7266 45.5353 35.653 45.5353 23.2266C45.5353 10.8002 35.3769 0.726562 22.8458 0.726562C10.3147 0.726562 0.15625 10.8002 0.15625 23.2266C0.15625 35.653 10.3147 45.7266 22.8458 45.7266Z" fill="#11D7A3"/>
<path fill-rule="evenodd" clip-rule="evenodd" d="M33.3014 12.8515H9.76172V10.2578H35.9169L33.3014 12.8515ZM9.76172 14.9264H31.2088L28.5934 17.5201H9.76172V14.9264ZM9.76172 19.595H26.501L23.8855 22.1887H9.76172V19.595ZM19.1775 26.8573L21.793 24.2636H35.9169V26.8573H19.1775ZM17.0851 28.9322L14.4696 31.5257H35.9169V28.9322H17.0851ZM12.3772 33.6009L9.76172 36.1946H35.9169V33.6009H12.3772Z" fill="white"/>
</g>
<defs>
<clipPath id="clip0_840_5470">
<rect width="200" height="45" fill="white" transform="translate(0 0.726562)"/>
</clipPath>
</defs>
</svg>
