<svg width="181" height="42" viewBox="0 0 181 42" fill="none" xmlns="http://www.w3.org/2000/svg">
<g clip-path="url(#clip0_543_3619)">
<path d="M175.531 30.8447V23.5578C175.531 20.5343 177.457 19.7541 178.936 19.7541C179.816 19.7541 180.416 20.0049 180.569 20.0606L180.862 17.5248C180.862 17.5248 180.067 17.1904 179.02 17.1904C177.555 17.1904 176.285 17.8313 175.531 19.2943V17.4691H172.754V30.8447H175.531Z" fill="#090A0B"/>
<path d="M157.486 24.1708C157.486 28.1417 160.459 31.1234 164.506 31.1234C166.879 31.1234 169.321 29.9528 170.563 27.7237L168.525 26.2468C167.521 27.8212 166.181 28.5319 164.506 28.5319C162.19 28.5319 160.473 26.9574 160.347 24.9511H170.745C170.828 24.5191 170.856 24.0872 170.856 23.6692C170.856 20.0885 168.316 17.1904 164.408 17.1904C160.347 17.1904 157.486 20.186 157.486 24.1708ZM160.417 22.889C160.766 21.0081 162.329 19.6844 164.381 19.6844C166.307 19.6844 167.883 21.0081 168.051 22.889H160.417Z" fill="#090A0B"/>
<path d="M148.059 31.1234C150.334 31.1234 151.897 30.2316 152.832 29.0195V30.1479C152.832 32.5862 151.031 34.1885 148.282 34.1885C146.482 34.1885 145.044 33.4084 143.774 32.029L141.96 33.8264C143.495 35.6653 145.77 36.6964 148.226 36.6964C152.734 36.6964 155.595 34.0074 155.595 29.7996V17.4691H152.832V19.2943C151.841 18.0264 150.334 17.1904 148.059 17.1904C144.249 17.1904 141.332 19.977 141.332 24.0872C141.332 28.1974 144.249 31.1234 148.059 31.1234ZM148.394 19.6705C150.962 19.6705 152.818 21.6211 152.818 24.0872C152.818 26.5533 150.975 28.6433 148.394 28.6433C145.812 28.6433 144.095 26.5533 144.095 24.0872C144.095 21.6211 145.812 19.6705 148.394 19.6705Z" fill="#090A0B"/>
<path d="M125.176 24.0838C125.176 28.194 128.092 31.12 131.903 31.12C134.177 31.12 135.685 30.284 136.675 29.016V30.8412H139.439V11.9326H136.675V19.2909C135.685 18.023 134.177 17.187 131.903 17.187C128.092 17.187 125.176 19.9735 125.176 24.0838ZM132.238 19.667C134.805 19.667 136.661 21.6176 136.661 24.0838C136.661 26.5499 134.819 28.6399 132.238 28.6399C129.656 28.6399 127.939 26.5499 127.939 24.0838C127.939 21.6176 129.656 19.667 132.238 19.667Z" fill="#090A0B"/>
<path d="M109.908 24.1708C109.908 28.1417 112.881 31.1234 116.928 31.1234C119.301 31.1234 121.743 29.9528 122.985 27.7237L120.947 26.2468C119.943 27.8212 118.603 28.5319 116.928 28.5319C114.611 28.5319 112.895 26.9574 112.769 24.9511H123.166C123.25 24.5191 123.278 24.0872 123.278 23.6692C123.278 20.0885 120.738 17.1904 116.83 17.1904C112.769 17.1904 109.908 20.186 109.908 24.1708ZM112.839 22.889C113.188 21.0081 114.751 19.6844 116.802 19.6844C118.728 19.6844 120.305 21.0081 120.473 22.889H112.839Z" fill="#090A0B"/>
<path d="M108.967 28.1923H98.1789V11.9326H95.2344V30.8536H108.967V28.1923Z" fill="#090A0B"/>
<path d="M83.5581 30.8447V23.307C83.5581 21.0916 85.2188 19.8098 87.2564 19.8098C89.3358 19.8098 90.5502 21.0916 90.5502 23.307V30.8447H93.3134V22.7218C93.3134 19.4754 91.3734 17.1904 87.6892 17.1904C85.2885 17.1904 84.0188 18.4722 83.5719 19.155V17.4691H80.7949V30.8447H83.5581Z" fill="#090A0B"/>
<path d="M65.5273 24.1708C65.5273 28.1417 68.4999 31.1234 72.5472 31.1234C74.9195 31.1234 77.362 29.9528 78.604 27.7237L76.5664 26.2468C75.5617 27.8212 74.222 28.5319 72.5472 28.5319C70.2303 28.5319 68.5137 26.9574 68.3881 24.9511H78.7855C78.8693 24.5191 78.8971 24.0872 78.8971 23.6692C78.8971 20.0885 76.357 17.1904 72.4494 17.1904C68.3881 17.1904 65.5273 20.186 65.5273 24.1708ZM68.4581 22.889C68.8068 21.0081 70.37 19.6844 72.4216 19.6844C74.3473 19.6844 75.9245 21.0081 76.092 22.889H68.4581Z" fill="#090A0B"/>
<path d="M49.9551 30.8536H64.5949V28.1923H53.7511L64.4555 14.2873V11.9326H50.0948V14.5938H60.6313L49.9551 28.5405V30.8536Z" fill="#090A0B"/>
<path d="M20.6727 41.8848C32.0133 41.8848 41.2067 32.7066 41.2067 21.3848C41.2067 10.0629 32.0133 0.884766 20.6727 0.884766C9.33207 0.884766 0.138672 10.0629 0.138672 21.3848C0.138672 32.7066 9.33207 41.8848 20.6727 41.8848Z" fill="#11D7A3"/>
<path fill-rule="evenodd" clip-rule="evenodd" d="M30.1393 11.9324H8.83594V9.56934H32.5064L30.1393 11.9324ZM8.83594 13.823H28.2456L25.8786 16.1861H8.83594V13.823ZM8.83594 18.0766H23.985L21.6179 20.4397H8.83594V18.0766ZM17.3573 24.6933L19.7243 22.3302H32.5064V24.6933H17.3573ZM15.4636 26.5838L13.0966 28.9468H32.5064V26.5838H15.4636ZM11.203 30.8375L8.83594 33.2006H32.5064V30.8375H11.203Z" fill="white"/>
</g>
<defs>
<clipPath id="clip0_543_3619">
<rect width="181" height="41" fill="white" transform="translate(0 0.884766)"/>
</clipPath>
</defs>
</svg>
